<svg width="123" height="103" viewBox="0 0 123 103" fill="none" xmlns="http://www.w3.org/2000/svg">
<path d="M73.1504 18.6423L112.829 12.1081" stroke="#FF577F" stroke-width="5" stroke-linecap="round" stroke-linejoin="round"/>
<path d="M73.1504 18.6423L112.829 12.1081" stroke="url(#paint0_linear)" stroke-opacity="0.4" stroke-width="5" stroke-linecap="round" stroke-linejoin="round"/>
<path d="M9.89062 28.9103L49.5689 22.3761" stroke="#FF577F" stroke-width="5" stroke-linecap="round" stroke-linejoin="round"/>
<path d="M9.89062 28.9103L49.5689 22.3761" stroke="url(#paint1_linear)" stroke-opacity="0.4" stroke-width="5" stroke-linecap="round" stroke-linejoin="round"/>
<path d="M61.3592 32.2708C68.0034 32.2708 73.3375 26.9501 73.3375 20.3225C73.3375 13.695 67.9099 8.37427 61.3592 8.37427C54.715 8.37427 49.3809 13.695 49.3809 20.3225C49.3809 26.9501 54.715 32.2708 61.3592 32.2708Z" stroke="#FF577F" stroke-width="5" stroke-linecap="round" stroke-linejoin="round"/>
<path d="M61.3592 32.2708C68.0034 32.2708 73.3375 26.9501 73.3375 20.3225C73.3375 13.695 67.9099 8.37427 61.3592 8.37427C54.715 8.37427 49.3809 13.695 49.3809 20.3225C49.3809 26.9501 54.715 32.2708 61.3592 32.2708Z" stroke="url(#paint2_linear)" stroke-opacity="0.4" stroke-width="5" stroke-linecap="round" stroke-linejoin="round"/>
<path d="M61.3594 3.33362V8.37428" stroke="#FF577F" stroke-width="5" stroke-linecap="round" stroke-linejoin="round"/>
<path d="M61.3594 3.33362V8.37428" stroke="url(#paint3_linear)" stroke-opacity="0.4" stroke-width="5" stroke-linecap="round" stroke-linejoin="round"/>
<path d="M61.3594 32.2708V99.6663" stroke="#FF577F" stroke-width="5" stroke-linecap="round" stroke-linejoin="round"/>
<path d="M61.3594 32.2708V99.6663" stroke="url(#paint4_linear)" stroke-opacity="0.4" stroke-width="5" stroke-linecap="round" stroke-linejoin="round"/>
<path d="M36.8418 99.6664H86.6268" stroke="#FF577F" stroke-width="5" stroke-linecap="round" stroke-linejoin="round"/>
<path d="M36.8418 99.6664H86.6268" stroke="url(#paint5_linear)" stroke-opacity="0.4" stroke-width="5" stroke-linecap="round" stroke-linejoin="round"/>
<path d="M44.7026 66.2485C44.7026 77.6367 35.3445 86.9713 23.9276 86.9713C12.5108 86.9713 3.33984 77.6367 3.33984 66.2485C12.1364 66.2485 33.4729 66.2485 44.7026 66.2485Z" stroke="#FF577F" stroke-width="5" stroke-linecap="round" stroke-linejoin="round"/>
<path d="M44.7026 66.2485C44.7026 77.6367 35.3445 86.9713 23.9276 86.9713C12.5108 86.9713 3.33984 77.6367 3.33984 66.2485C12.1364 66.2485 33.4729 66.2485 44.7026 66.2485Z" stroke="url(#paint6_linear)" stroke-opacity="0.4" stroke-width="5" stroke-linecap="round" stroke-linejoin="round"/>
<path d="M24.1148 26.67L3.33984 66.2486H44.7026L24.1148 26.67Z" stroke="#FF577F" stroke-width="5" stroke-linecap="round" stroke-linejoin="round"/>
<path d="M24.1148 26.67L3.33984 66.2486H44.7026L24.1148 26.67Z" stroke="url(#paint7_linear)" stroke-opacity="0.4" stroke-width="5" stroke-linecap="round" stroke-linejoin="round"/>
<path d="M119.661 53.927C119.661 65.3152 110.303 74.6497 98.8863 74.6497C87.4694 74.6497 78.1113 65.5019 78.1113 53.927C87.0015 53.927 108.338 53.927 119.661 53.927Z" stroke="#FF577F" stroke-width="5" stroke-linecap="round" stroke-linejoin="round"/>
<path d="M119.661 53.927C119.661 65.3152 110.303 74.6497 98.8863 74.6497C87.4694 74.6497 78.1113 65.5019 78.1113 53.927C87.0015 53.927 108.338 53.927 119.661 53.927Z" stroke="url(#paint8_linear)" stroke-opacity="0.4" stroke-width="5" stroke-linecap="round" stroke-linejoin="round"/>
<path d="M98.98 14.3484L78.2051 53.9269H119.755L98.98 14.3484Z" stroke="#FF577F" stroke-width="5" stroke-linecap="round" stroke-linejoin="round"/>
<path d="M98.98 14.3484L78.2051 53.9269H119.755L98.98 14.3484Z" stroke="url(#paint9_linear)" stroke-opacity="0.4" stroke-width="5" stroke-linecap="round" stroke-linejoin="round"/>
<path d="M61.3594 3.33362V8.37428" stroke="#2453FF" stroke-width="5" stroke-miterlimit="10" stroke-linecap="round" stroke-linejoin="round"/>
<path d="M61.3594 3.33362V8.37428" stroke="url(#paint10_linear)" stroke-opacity="0.4" stroke-width="5" stroke-miterlimit="10" stroke-linecap="round" stroke-linejoin="round"/>
<path d="M61.3594 32.2708V99.6663" stroke="#2453FF" stroke-width="5" stroke-miterlimit="10" stroke-linecap="round" stroke-linejoin="round"/>
<path d="M61.3594 32.2708V99.6663" stroke="url(#paint11_linear)" stroke-opacity="0.4" stroke-width="5" stroke-miterlimit="10" stroke-linecap="round" stroke-linejoin="round"/>
<path d="M36.8418 99.6664H86.6268" stroke="#2453FF" stroke-width="5" stroke-miterlimit="10" stroke-linecap="round" stroke-linejoin="round"/>
<path d="M36.8418 99.6664H86.6268" stroke="url(#paint12_linear)" stroke-opacity="0.4" stroke-width="5" stroke-miterlimit="10" stroke-linecap="round" stroke-linejoin="round"/>
<path d="M73.1504 18.6423L112.829 12.1081" stroke="#2453FF" stroke-width="5" stroke-miterlimit="10" stroke-linecap="round" stroke-linejoin="round"/>
<path d="M73.1504 18.6423L112.829 12.1081" stroke="url(#paint13_linear)" stroke-opacity="0.4" stroke-width="5" stroke-miterlimit="10" stroke-linecap="round" stroke-linejoin="round"/>
<path d="M9.89062 28.9103L49.5689 22.3761" stroke="#FF577F" stroke-width="5" stroke-miterlimit="10" stroke-linecap="round" stroke-linejoin="round"/>
<path d="M9.89062 28.9103L49.5689 22.3761" stroke="url(#paint14_linear)" stroke-opacity="0.4" stroke-width="5" stroke-miterlimit="10" stroke-linecap="round" stroke-linejoin="round"/>
<path d="M61.3592 32.2708C68.0034 32.2708 73.3375 26.9501 73.3375 20.3225C73.3375 13.695 67.9099 8.37427 61.3592 8.37427C54.715 8.37427 49.3809 13.695 49.3809 20.3225C49.3809 26.9501 54.715 32.2708 61.3592 32.2708Z" stroke="#2453FF" stroke-width="5" stroke-miterlimit="10" stroke-linecap="round" stroke-linejoin="round"/>
<path d="M61.3592 32.2708C68.0034 32.2708 73.3375 26.9501 73.3375 20.3225C73.3375 13.695 67.9099 8.37427 61.3592 8.37427C54.715 8.37427 49.3809 13.695 49.3809 20.3225C49.3809 26.9501 54.715 32.2708 61.3592 32.2708Z" stroke="url(#paint15_linear)" stroke-opacity="0.4" stroke-width="5" stroke-miterlimit="10" stroke-linecap="round" stroke-linejoin="round"/>
<path d="M44.7026 66.2485C44.7026 77.6367 35.3445 86.9713 23.9276 86.9713C12.5108 86.9713 3.33984 77.6367 3.33984 66.2485C12.1364 66.2485 33.4729 66.2485 44.7026 66.2485Z" stroke="#FF577F" stroke-width="5" stroke-miterlimit="10" stroke-linecap="round" stroke-linejoin="round"/>
<path d="M44.7026 66.2485C44.7026 77.6367 35.3445 86.9713 23.9276 86.9713C12.5108 86.9713 3.33984 77.6367 3.33984 66.2485C12.1364 66.2485 33.4729 66.2485 44.7026 66.2485Z" stroke="url(#paint16_linear)" stroke-opacity="0.4" stroke-width="5" stroke-miterlimit="10" stroke-linecap="round" stroke-linejoin="round"/>
<path d="M24.1148 26.67L3.33984 66.2486H44.7026L24.1148 26.67Z" stroke="#2453FF" stroke-width="5" stroke-miterlimit="10" stroke-linecap="round" stroke-linejoin="round"/>
<path d="M24.1148 26.67L3.33984 66.2486H44.7026L24.1148 26.67Z" stroke="url(#paint17_linear)" stroke-opacity="0.4" stroke-width="5" stroke-miterlimit="10" stroke-linecap="round" stroke-linejoin="round"/>
<path d="M119.661 53.927C119.661 65.3152 110.303 74.6497 98.8863 74.6497C87.4694 74.6497 78.1113 65.5019 78.1113 53.927C87.0015 53.927 108.338 53.927 119.661 53.927Z" stroke="#2453FF" stroke-width="5" stroke-miterlimit="10" stroke-linecap="round" stroke-linejoin="round"/>
<path d="M119.661 53.927C119.661 65.3152 110.303 74.6497 98.8863 74.6497C87.4694 74.6497 78.1113 65.5019 78.1113 53.927C87.0015 53.927 108.338 53.927 119.661 53.927Z" stroke="url(#paint18_linear)" stroke-opacity="0.4" stroke-width="5" stroke-miterlimit="10" stroke-linecap="round" stroke-linejoin="round"/>
<path d="M98.98 14.3484L78.2051 53.9269H119.755L98.98 14.3484Z" stroke="#FF577F" stroke-width="5" stroke-miterlimit="10" stroke-linecap="round" stroke-linejoin="round"/>
<path d="M98.98 14.3484L78.2051 53.9269H119.755L98.98 14.3484Z" stroke="url(#paint19_linear)" stroke-opacity="0.4" stroke-width="5" stroke-miterlimit="10" stroke-linecap="round" stroke-linejoin="round"/>
<defs>
<linearGradient id="paint0_linear" x1="92.4835" y1="19.6909" x2="93.4017" y2="11.2055" gradientUnits="userSpaceOnUse">
<stop stop-color="white"/>
<stop offset="1" stop-color="white" stop-opacity="0"/>
</linearGradient>
<linearGradient id="paint1_linear" x1="29.2502" y1="29.9544" x2="30.168" y2="21.4689" gradientUnits="userSpaceOnUse">
<stop stop-color="white"/>
<stop offset="1" stop-color="white" stop-opacity="0"/>
</linearGradient>
<linearGradient id="paint2_linear" x1="53.9824" y1="31.4813" x2="68.3739" y2="9.51822" gradientUnits="userSpaceOnUse">
<stop stop-color="white"/>
<stop offset="1" stop-color="white" stop-opacity="0"/>
</linearGradient>
<linearGradient id="paint3_linear" x1="-nan" y1="-nan" x2="-nan" y2="-nan" gradientUnits="userSpaceOnUse">
<stop stop-color="white"/>
<stop offset="1" stop-color="white" stop-opacity="0"/>
</linearGradient>
<linearGradient id="paint4_linear" x1="-nan" y1="-nan" x2="-nan" y2="-nan" gradientUnits="userSpaceOnUse">
<stop stop-color="white"/>
<stop offset="1" stop-color="white" stop-opacity="0"/>
</linearGradient>
<linearGradient id="paint5_linear" x1="-nan" y1="-nan" x2="-nan" y2="-nan" gradientUnits="userSpaceOnUse">
<stop stop-color="white"/>
<stop offset="1" stop-color="white" stop-opacity="0"/>
</linearGradient>
<linearGradient id="paint6_linear" x1="17.2821" y1="88.2261" x2="25.3663" y2="63.6616" gradientUnits="userSpaceOnUse">
<stop stop-color="white"/>
<stop offset="1" stop-color="white" stop-opacity="0"/>
</linearGradient>
<linearGradient id="paint7_linear" x1="19.4745" y1="70.0611" x2="42.9015" y2="32.7909" gradientUnits="userSpaceOnUse">
<stop stop-color="white"/>
<stop offset="1" stop-color="white" stop-opacity="0"/>
</linearGradient>
<linearGradient id="paint8_linear" x1="92.2317" y1="75.9262" x2="100.287" y2="51.3409" gradientUnits="userSpaceOnUse">
<stop stop-color="white"/>
<stop offset="1" stop-color="white" stop-opacity="0"/>
</linearGradient>
<linearGradient id="paint9_linear" x1="94.4449" y1="57.784" x2="117.826" y2="20.4182" gradientUnits="userSpaceOnUse">
<stop stop-color="white"/>
<stop offset="1" stop-color="white" stop-opacity="0"/>
</linearGradient>
<linearGradient id="paint10_linear" x1="61.4961" y1="8.0239" x2="63.3296" y2="7.47021" gradientUnits="userSpaceOnUse">
<stop stop-color="white"/>
<stop offset="1" stop-color="white" stop-opacity="0"/>
</linearGradient>
<linearGradient id="paint11_linear" x1="61.4961" y1="94.9816" x2="62.1106" y2="37.6278" gradientUnits="userSpaceOnUse">
<stop stop-color="white"/>
<stop offset="1" stop-color="white" stop-opacity="0"/>
</linearGradient>
<linearGradient id="paint12_linear" x1="43.6497" y1="100.597" x2="78.7622" y2="99.8516" gradientUnits="userSpaceOnUse">
<stop stop-color="white"/>
<stop offset="1" stop-color="white" stop-opacity="0"/>
</linearGradient>
<linearGradient id="paint13_linear" x1="78.5762" y1="18.1881" x2="79.4945" y2="9.69973" gradientUnits="userSpaceOnUse">
<stop stop-color="white"/>
<stop offset="1" stop-color="white" stop-opacity="0"/>
</linearGradient>
<linearGradient id="paint14_linear" x1="15.3164" y1="28.4561" x2="15.317" y2="22.8928" gradientUnits="userSpaceOnUse">
<stop stop-color="white"/>
<stop offset="1" stop-color="white" stop-opacity="0"/>
</linearGradient>
<linearGradient id="paint15_linear" x1="52.6568" y1="30.6097" x2="67.0544" y2="8.63749" gradientUnits="userSpaceOnUse">
<stop stop-color="white"/>
<stop offset="1" stop-color="white" stop-opacity="0"/>
</linearGradient>
<linearGradient id="paint16_linear" x1="8.996" y1="85.5308" x2="9.00131" y2="67.8872" gradientUnits="userSpaceOnUse">
<stop stop-color="white"/>
<stop offset="1" stop-color="white" stop-opacity="0"/>
</linearGradient>
<linearGradient id="paint17_linear" x1="8.996" y1="63.4975" x2="32.4327" y2="26.2124" gradientUnits="userSpaceOnUse">
<stop stop-color="white"/>
<stop offset="1" stop-color="white" stop-opacity="0"/>
</linearGradient>
<linearGradient id="paint18_linear" x1="83.7931" y1="73.2093" x2="91.8512" y2="48.6141" gradientUnits="userSpaceOnUse">
<stop stop-color="white"/>
<stop offset="1" stop-color="white" stop-opacity="0"/>
</linearGradient>
<linearGradient id="paint19_linear" x1="83.8868" y1="51.1758" x2="83.9061" y2="17.4782" gradientUnits="userSpaceOnUse">
<stop stop-color="white"/>
<stop offset="1" stop-color="white" stop-opacity="0"/>
</linearGradient>
</defs>
</svg>
