<svg width="117" height="103" viewBox="0 0 117 103" fill="none" xmlns="http://www.w3.org/2000/svg">
<path d="M72.3304 90.8105V75.333H45.1303V90.8105C45.1303 95.9429 41.0306 100.033 36.0636 100.033H28.416V103H89.2024V100.033H81.5548C76.4302 100.033 72.3304 95.9429 72.3304 90.8105Z" fill="url(#paint0_linear)"/>
<path d="M95.7915 100.033H20.8926V103H95.7915V100.033Z" fill="url(#paint1_linear)"/>
<path d="M103.182 83.7253H13.8176C6.21384 83.7253 0 77.7544 0 70.4478V68.6408H117V70.4478C117 77.7544 110.786 83.7253 103.182 83.7253Z" fill="url(#paint2_linear)"/>
<path d="M117 68.6408H0V21.7732C0 14.3605 6.21384 8.30275 13.8176 8.30275H103.182C110.786 8.30275 117 14.3605 117 21.7732V68.6408Z" fill="url(#paint3_linear)"/>
<path d="M58.3574 77.7388C59.6637 77.7388 60.7226 76.6617 60.7226 75.333C60.7226 74.0043 59.6637 72.9272 58.3574 72.9272C57.0511 72.9272 55.9922 74.0043 55.9922 75.333C55.9922 76.6617 57.0511 77.7388 58.3574 77.7388Z" fill="url(#paint4_linear)"/>
<rect x="12" y="44" width="15" height="15" rx="7.5" fill="url(#paint5_linear)"/>
<rect x="35" y="44" width="71" height="15" rx="3" fill="url(#paint6_linear)"/>
<rect x="12" y="22" width="15" height="15" rx="3" fill="url(#paint7_linear)"/>
<rect x="35" y="22" width="71" height="15" rx="3" fill="url(#paint8_linear)"/>
<rect x="12" width="15" height="15" rx="3" fill="url(#paint9_linear)"/>
<rect x="35" width="71" height="15" rx="3" fill="url(#paint10_linear)"/>
<defs>
<linearGradient id="paint0_linear" x1="75.3387" y1="89.1478" x2="42.8247" y2="89.1478" gradientUnits="userSpaceOnUse">
<stop stop-color="#4C72FF"/>
<stop offset="1" stop-color="#001D7A"/>
</linearGradient>
<linearGradient id="paint1_linear" x1="34.6499" y1="127.636" x2="78.8166" y2="80.639" gradientUnits="userSpaceOnUse">
<stop stop-color="#4C72FF"/>
<stop offset="1" stop-color="#001D7A"/>
</linearGradient>
<linearGradient id="paint2_linear" x1="0" y1="76.1688" x2="116.98" y2="76.1688" gradientUnits="userSpaceOnUse">
<stop stop-color="#AEBDFF"/>
<stop offset="1" stop-color="#4C72FF"/>
</linearGradient>
<linearGradient id="paint3_linear" x1="5.33139" y1="98.666" x2="100.15" y2="-6.60619" gradientUnits="userSpaceOnUse">
<stop stop-color="#4C72FF"/>
<stop offset="1" stop-color="#001D7A"/>
</linearGradient>
<linearGradient id="paint4_linear" x1="56.2401" y1="77.658" x2="60.2329" y2="73.4093" gradientUnits="userSpaceOnUse">
<stop stop-color="#4C72FF"/>
<stop offset="1" stop-color="#001D7A"/>
</linearGradient>
<linearGradient id="paint5_linear" x1="11.9956" y1="51.5064" x2="26.9944" y2="51.5064" gradientUnits="userSpaceOnUse">
<stop stop-color="#C3D0FF"/>
<stop offset="1" stop-color="#7492FF"/>
</linearGradient>
<linearGradient id="paint6_linear" x1="35.1317" y1="51.4873" x2="106.11" y2="51.4873" gradientUnits="userSpaceOnUse">
<stop stop-color="#FFD5DF"/>
<stop offset="1" stop-color="#FF95AE"/>
</linearGradient>
<linearGradient id="paint7_linear" x1="11.9956" y1="29.5064" x2="26.9944" y2="29.5064" gradientUnits="userSpaceOnUse">
<stop stop-color="#C3D0FF"/>
<stop offset="1" stop-color="#7492FF"/>
</linearGradient>
<linearGradient id="paint8_linear" x1="35.1317" y1="29.4873" x2="106.11" y2="29.4873" gradientUnits="userSpaceOnUse">
<stop stop-color="#FFD5DF"/>
<stop offset="1" stop-color="#FF95AE"/>
</linearGradient>
<linearGradient id="paint9_linear" x1="11.9956" y1="7.50645" x2="26.9944" y2="7.50645" gradientUnits="userSpaceOnUse">
<stop stop-color="#C3D0FF"/>
<stop offset="1" stop-color="#7492FF"/>
</linearGradient>
<linearGradient id="paint10_linear" x1="35.1317" y1="7.4873" x2="106.11" y2="7.4873" gradientUnits="userSpaceOnUse">
<stop stop-color="#FFD5DF"/>
<stop offset="1" stop-color="#FF95AE"/>
</linearGradient>
</defs>
</svg>
