<svg width="109" height="106" viewBox="0 0 109 106" fill="none" xmlns="http://www.w3.org/2000/svg">
<path d="M102.369 53.2618C91.2844 63.1208 75.5517 78.8255 54.992 78.8255C34.4323 78.8255 21.0238 64.953 7.61523 53.2618C20.845 40.6108 34.4323 27.698 54.992 27.698C75.5517 27.698 88.1558 41.396 102.369 53.2618Z" stroke="#FF577F" stroke-width="5" stroke-linecap="round" stroke-linejoin="round"/>
<path d="M102.369 53.2618C91.2844 63.1208 75.5517 78.8255 54.992 78.8255C34.4323 78.8255 21.0238 64.953 7.61523 53.2618C20.845 40.6108 34.4323 27.698 54.992 27.698C75.5517 27.698 88.1558 41.396 102.369 53.2618Z" stroke="url(#paint0_linear)" stroke-opacity="0.4" stroke-width="5" stroke-linecap="round" stroke-linejoin="round"/>
<path d="M54.1874 78.9127C68.6686 78.9127 80.3787 67.4832 80.3787 53.349C80.3787 39.2147 68.6686 27.7852 54.1874 27.7852C39.7062 27.7852 27.9961 39.2147 27.9961 53.349C27.9961 67.396 39.7062 78.9127 54.1874 78.9127Z" stroke="#FF577F" stroke-width="5" stroke-linecap="round" stroke-linejoin="round"/>
<path d="M54.1874 78.9127C68.6686 78.9127 80.3787 67.4832 80.3787 53.349C80.3787 39.2147 68.6686 27.7852 54.1874 27.7852C39.7062 27.7852 27.9961 39.2147 27.9961 53.349C27.9961 67.396 39.7062 78.9127 54.1874 78.9127Z" stroke="url(#paint1_linear)" stroke-opacity="0.4" stroke-width="5" stroke-linecap="round" stroke-linejoin="round"/>
<path d="M54.1872 66C61.3384 66 67.1488 60.3289 67.1488 53.349C67.1488 46.3691 61.3384 40.698 54.1872 40.698C47.036 40.698 41.2256 46.3691 41.2256 53.349C41.1362 60.3289 46.9466 66 54.1872 66Z" stroke="#FF577F" stroke-width="5" stroke-linecap="round" stroke-linejoin="round"/>
<path d="M54.1872 66C61.3384 66 67.1488 60.3289 67.1488 53.349C67.1488 46.3691 61.3384 40.698 54.1872 40.698C47.036 40.698 41.2256 46.3691 41.2256 53.349C41.1362 60.3289 46.9466 66 54.1872 66Z" stroke="url(#paint2_linear)" stroke-opacity="0.4" stroke-width="5" stroke-linecap="round" stroke-linejoin="round"/>
<path d="M3.23438 34.8524V19.3222C3.23438 10.5101 10.5644 3.35571 19.5928 3.35571H35.9512" stroke="#FF577F" stroke-width="5" stroke-linecap="round" stroke-linejoin="round"/>
<path d="M3.23438 34.8524V19.3222C3.23438 10.5101 10.5644 3.35571 19.5928 3.35571H35.9512" stroke="url(#paint3_linear)" stroke-opacity="0.4" stroke-width="5" stroke-linecap="round" stroke-linejoin="round"/>
<path d="M73.4062 3.18121H89.3177C98.3461 3.18121 105.676 10.3356 105.676 19.1477V35.1141" stroke="#FF577F" stroke-width="5" stroke-linecap="round" stroke-linejoin="round"/>
<path d="M73.4062 3.18121H89.3177C98.3461 3.18121 105.676 10.3356 105.676 19.1477V35.1141" stroke="url(#paint4_linear)" stroke-opacity="0.4" stroke-width="5" stroke-linecap="round" stroke-linejoin="round"/>
<path d="M105.766 71.0604V86.5906C105.766 95.4027 98.4356 102.557 89.4072 102.557H73.0488" stroke="#FF577F" stroke-width="5" stroke-linecap="round" stroke-linejoin="round"/>
<path d="M105.766 71.0604V86.5906C105.766 95.4027 98.4356 102.557 89.4072 102.557H73.0488" stroke="url(#paint5_linear)" stroke-opacity="0.4" stroke-width="5" stroke-linecap="round" stroke-linejoin="round"/>
<path d="M35.5042 102.819H19.5928C10.5644 102.819 3.23438 95.6644 3.23438 86.8523V70.8859" stroke="#FF577F" stroke-width="5" stroke-linecap="round" stroke-linejoin="round"/>
<path d="M35.5042 102.819H19.5928C10.5644 102.819 3.23438 95.6644 3.23438 86.8523V70.8859" stroke="url(#paint6_linear)" stroke-opacity="0.4" stroke-width="5" stroke-linecap="round" stroke-linejoin="round"/>
<path d="M102.369 53.2618C91.2844 63.1208 75.5517 78.8255 54.992 78.8255C34.4323 78.8255 21.0238 64.953 7.61523 53.2618C20.845 40.6108 34.4323 27.698 54.992 27.698C75.5517 27.698 88.1558 41.396 102.369 53.2618Z" stroke="#2453FF" stroke-width="5" stroke-miterlimit="10" stroke-linecap="round" stroke-linejoin="round"/>
<path d="M102.369 53.2618C91.2844 63.1208 75.5517 78.8255 54.992 78.8255C34.4323 78.8255 21.0238 64.953 7.61523 53.2618C20.845 40.6108 34.4323 27.698 54.992 27.698C75.5517 27.698 88.1558 41.396 102.369 53.2618Z" stroke="url(#paint7_linear)" stroke-opacity="0.4" stroke-width="5" stroke-miterlimit="10" stroke-linecap="round" stroke-linejoin="round"/>
<path d="M54.1874 78.9127C68.6686 78.9127 80.3787 67.4832 80.3787 53.349C80.3787 39.2147 68.6686 27.7852 54.1874 27.7852C39.7062 27.7852 27.9961 39.2147 27.9961 53.349C27.9961 67.396 39.7062 78.9127 54.1874 78.9127Z" stroke="#2453FF" stroke-width="5" stroke-miterlimit="10" stroke-linecap="round" stroke-linejoin="round"/>
<path d="M54.1874 78.9127C68.6686 78.9127 80.3787 67.4832 80.3787 53.349C80.3787 39.2147 68.6686 27.7852 54.1874 27.7852C39.7062 27.7852 27.9961 39.2147 27.9961 53.349C27.9961 67.396 39.7062 78.9127 54.1874 78.9127Z" stroke="url(#paint8_linear)" stroke-opacity="0.4" stroke-width="5" stroke-miterlimit="10" stroke-linecap="round" stroke-linejoin="round"/>
<path d="M54.1872 66C61.3384 66 67.1488 60.3289 67.1488 53.349C67.1488 46.3691 61.3384 40.698 54.1872 40.698C47.036 40.698 41.2256 46.3691 41.2256 53.349C41.1362 60.3289 46.9466 66 54.1872 66Z" stroke="#FF577F" stroke-width="5" stroke-miterlimit="10" stroke-linecap="round" stroke-linejoin="round"/>
<path d="M54.1872 66C61.3384 66 67.1488 60.3289 67.1488 53.349C67.1488 46.3691 61.3384 40.698 54.1872 40.698C47.036 40.698 41.2256 46.3691 41.2256 53.349C41.1362 60.3289 46.9466 66 54.1872 66Z" stroke="url(#paint9_linear)" stroke-opacity="0.4" stroke-width="5" stroke-miterlimit="10" stroke-linecap="round" stroke-linejoin="round"/>
<path d="M3.23438 34.8524V19.3222C3.23438 10.5101 10.5644 3.35571 19.5928 3.35571H35.9512" stroke="#2453FF" stroke-width="5" stroke-miterlimit="10" stroke-linecap="round" stroke-linejoin="round"/>
<path d="M3.23438 34.8524V19.3222C3.23438 10.5101 10.5644 3.35571 19.5928 3.35571H35.9512" stroke="url(#paint10_linear)" stroke-opacity="0.4" stroke-width="5" stroke-miterlimit="10" stroke-linecap="round" stroke-linejoin="round"/>
<path d="M73.4062 3.18121H89.3177C98.3461 3.18121 105.676 10.3356 105.676 19.1477V35.1141" stroke="#FF577F" stroke-width="5" stroke-miterlimit="10" stroke-linecap="round" stroke-linejoin="round"/>
<path d="M73.4062 3.18121H89.3177C98.3461 3.18121 105.676 10.3356 105.676 19.1477V35.1141" stroke="url(#paint11_linear)" stroke-opacity="0.4" stroke-width="5" stroke-miterlimit="10" stroke-linecap="round" stroke-linejoin="round"/>
<path d="M105.766 71.0604V86.5906C105.766 95.4027 98.4356 102.557 89.4072 102.557H73.0488" stroke="#2453FF" stroke-width="5" stroke-miterlimit="10" stroke-linecap="round" stroke-linejoin="round"/>
<path d="M105.766 71.0604V86.5906C105.766 95.4027 98.4356 102.557 89.4072 102.557H73.0488" stroke="url(#paint12_linear)" stroke-opacity="0.4" stroke-width="5" stroke-miterlimit="10" stroke-linecap="round" stroke-linejoin="round"/>
<path d="M35.5042 102.819H19.5928C10.5644 102.819 3.23438 95.6644 3.23438 86.8523V70.8859" stroke="#FF577F" stroke-width="5" stroke-miterlimit="10" stroke-linecap="round" stroke-linejoin="round"/>
<path d="M35.5042 102.819H19.5928C10.5644 102.819 3.23438 95.6644 3.23438 86.8523V70.8859" stroke="url(#paint13_linear)" stroke-opacity="0.4" stroke-width="5" stroke-miterlimit="10" stroke-linecap="round" stroke-linejoin="round"/>
<defs>
<linearGradient id="paint0_linear" x1="43.7481" y1="83.5281" x2="64.921" y2="23.8235" gradientUnits="userSpaceOnUse">
<stop stop-color="white"/>
<stop offset="1" stop-color="white" stop-opacity="0"/>
</linearGradient>
<linearGradient id="paint1_linear" x1="38.0772" y1="77.2034" x2="68.617" y2="29.5723" gradientUnits="userSpaceOnUse">
<stop stop-color="white"/>
<stop offset="1" stop-color="white" stop-opacity="0"/>
</linearGradient>
<linearGradient id="paint2_linear" x1="46.1826" y1="65.1557" x2="61.3302" y2="41.5299" gradientUnits="userSpaceOnUse">
<stop stop-color="white"/>
<stop offset="1" stop-color="white" stop-opacity="0"/>
</linearGradient>
<linearGradient id="paint3_linear" x1="4.98553" y1="30.978" x2="23.6957" y2="1.41733" gradientUnits="userSpaceOnUse">
<stop stop-color="white"/>
<stop offset="1" stop-color="white" stop-opacity="0"/>
</linearGradient>
<linearGradient id="paint4_linear" x1="79.4926" y1="33.9371" x2="98.6514" y2="4.43961" gradientUnits="userSpaceOnUse">
<stop stop-color="white"/>
<stop offset="1" stop-color="white" stop-opacity="0"/>
</linearGradient>
<linearGradient id="paint5_linear" x1="84.2538" y1="104.685" x2="102.964" y2="75.1242" gradientUnits="userSpaceOnUse">
<stop stop-color="white"/>
<stop offset="1" stop-color="white" stop-opacity="0"/>
</linearGradient>
<linearGradient id="paint6_linear" x1="9.28224" y1="101.647" x2="28.4407" y2="72.1499" gradientUnits="userSpaceOnUse">
<stop stop-color="white"/>
<stop offset="1" stop-color="white" stop-opacity="0"/>
</linearGradient>
<linearGradient id="paint7_linear" x1="20.5723" y1="75.2716" x2="41.7319" y2="15.5765" gradientUnits="userSpaceOnUse">
<stop stop-color="white"/>
<stop offset="1" stop-color="white" stop-opacity="0"/>
</linearGradient>
<linearGradient id="paint8_linear" x1="35.1592" y1="75.3588" x2="65.6913" y2="27.7399" gradientUnits="userSpaceOnUse">
<stop stop-color="white"/>
<stop offset="1" stop-color="white" stop-opacity="0"/>
</linearGradient>
<linearGradient id="paint9_linear" x1="44.7696" y1="64.2412" x2="44.7813" y2="42.6996" gradientUnits="userSpaceOnUse">
<stop stop-color="white"/>
<stop offset="1" stop-color="white" stop-opacity="0"/>
</linearGradient>
<linearGradient id="paint10_linear" x1="7.70824" y1="32.663" x2="26.4081" y2="3.09402" gradientUnits="userSpaceOnUse">
<stop stop-color="white"/>
<stop offset="1" stop-color="white" stop-opacity="0"/>
</linearGradient>
<linearGradient id="paint11_linear" x1="77.819" y1="32.8944" x2="77.834" y2="5.7074" gradientUnits="userSpaceOnUse">
<stop stop-color="white"/>
<stop offset="1" stop-color="white" stop-opacity="0"/>
</linearGradient>
<linearGradient id="paint12_linear" x1="77.5227" y1="100.368" x2="96.2226" y2="70.7987" gradientUnits="userSpaceOnUse">
<stop stop-color="white"/>
<stop offset="1" stop-color="white" stop-opacity="0"/>
</linearGradient>
<linearGradient id="paint13_linear" x1="7.64712" y1="100.599" x2="7.66208" y2="73.4121" gradientUnits="userSpaceOnUse">
<stop stop-color="white"/>
<stop offset="1" stop-color="white" stop-opacity="0"/>
</linearGradient>
</defs>
</svg>
