<svg width="107" height="106" viewBox="0 0 107 106" fill="none" xmlns="http://www.w3.org/2000/svg">
<path d="M59.6233 101.604H17.7668C9.23491 101.604 2.50977 95.0074 2.50977 86.8582V18.1716C2.50977 9.92535 9.33528 3.42535 17.7668 3.42535H87.4272C95.9591 3.42535 102.684 10.0224 102.684 18.1716V58.4328" stroke="#FF577F" stroke-width="5" stroke-linecap="round" stroke-linejoin="round"/>
<path d="M59.6233 101.604H17.7668C9.23491 101.604 2.50977 95.0074 2.50977 86.8582V18.1716C2.50977 9.92535 9.33528 3.42535 17.7668 3.42535H87.4272C95.9591 3.42535 102.684 10.0224 102.684 18.1716V58.4328" stroke="url(#paint0_linear)" stroke-opacity="0.4" stroke-width="5" stroke-linecap="round" stroke-linejoin="round"/>
<path d="M82.6086 95.7835C91.0401 95.7835 97.8656 89.1865 97.8656 81.0373C97.8656 72.888 91.0401 66.291 82.6086 66.291C74.1771 66.291 67.3516 72.888 67.3516 81.0373C67.3516 89.1865 74.1771 95.7835 82.6086 95.7835Z" stroke="#FF577F" stroke-width="5" stroke-linecap="round" stroke-linejoin="round"/>
<path d="M82.6086 95.7835C91.0401 95.7835 97.8656 89.1865 97.8656 81.0373C97.8656 72.888 91.0401 66.291 82.6086 66.291C74.1771 66.291 67.3516 72.888 67.3516 81.0373C67.3516 89.1865 74.1771 95.7835 82.6086 95.7835Z" stroke="url(#paint1_linear)" stroke-opacity="0.4" stroke-width="5" stroke-linecap="round" stroke-linejoin="round"/>
<path d="M93.248 91.709L104.49 102.575" stroke="#2453FF" stroke-width="5" stroke-miterlimit="10" stroke-linecap="round" stroke-linejoin="round"/>
<path d="M93.248 91.709L104.49 102.575" stroke="url(#paint2_linear)" stroke-opacity="0.4" stroke-width="5" stroke-miterlimit="10" stroke-linecap="round" stroke-linejoin="round"/>
<path d="M59.6233 101.604H17.7668C9.23491 101.604 2.50977 95.0074 2.50977 86.8582V18.1716C2.50977 9.92535 9.33528 3.42535 17.7668 3.42535H87.4272C95.9591 3.42535 102.684 10.0224 102.684 18.1716V58.4328" stroke="#2453FF" stroke-width="5" stroke-miterlimit="10" stroke-linecap="round" stroke-linejoin="round"/>
<path d="M59.6233 101.604H17.7668C9.23491 101.604 2.50977 95.0074 2.50977 86.8582V18.1716C2.50977 9.92535 9.33528 3.42535 17.7668 3.42535H87.4272C95.9591 3.42535 102.684 10.0224 102.684 18.1716V58.4328" stroke="url(#paint3_linear)" stroke-opacity="0.4" stroke-width="5" stroke-miterlimit="10" stroke-linecap="round" stroke-linejoin="round"/>
<path d="M82.6086 95.7835C91.0401 95.7835 97.8656 89.1865 97.8656 81.0373C97.8656 72.888 91.0401 66.291 82.6086 66.291C74.1771 66.291 67.3516 72.888 67.3516 81.0373C67.3516 89.1865 74.1771 95.7835 82.6086 95.7835Z" stroke="#2453FF" stroke-width="5" stroke-miterlimit="10" stroke-linecap="round" stroke-linejoin="round"/>
<path d="M82.6086 95.7835C91.0401 95.7835 97.8656 89.1865 97.8656 81.0373C97.8656 72.888 91.0401 66.291 82.6086 66.291C74.1771 66.291 67.3516 72.888 67.3516 81.0373C67.3516 89.1865 74.1771 95.7835 82.6086 95.7835Z" stroke="url(#paint4_linear)" stroke-opacity="0.4" stroke-width="5" stroke-miterlimit="10" stroke-linecap="round" stroke-linejoin="round"/>
<path d="M34.7302 76.5746H20.1758V62.5075C20.1758 54.7463 26.7002 48.4403 34.7302 48.4403C42.7602 48.4403 49.2846 54.7463 49.2846 62.5075V76.5746H34.7302Z" stroke="#FF577F" stroke-width="5" stroke-miterlimit="10" stroke-linecap="round" stroke-linejoin="round"/>
<path d="M34.7302 76.5746H20.1758V62.5075C20.1758 54.7463 26.7002 48.4403 34.7302 48.4403C42.7602 48.4403 49.2846 54.7463 49.2846 62.5075V76.5746H34.7302Z" stroke="url(#paint5_linear)" stroke-opacity="0.4" stroke-width="5" stroke-miterlimit="10" stroke-linecap="round" stroke-linejoin="round"/>
<path d="M34.7293 40.194C40.3504 40.194 44.8672 35.8283 44.8672 30.3955C44.8672 24.9627 40.3504 20.597 34.7293 20.597C29.1083 20.597 24.5914 24.9627 24.5914 30.3955C24.4911 35.7313 29.1083 40.194 34.7293 40.194Z" stroke="#2453FF" stroke-width="5" stroke-miterlimit="10" stroke-linecap="round" stroke-linejoin="round"/>
<path d="M34.7293 40.194C40.3504 40.194 44.8672 35.8283 44.8672 30.3955C44.8672 24.9627 40.3504 20.597 34.7293 20.597C29.1083 20.597 24.5914 24.9627 24.5914 30.3955C24.4911 35.7313 29.1083 40.194 34.7293 40.194Z" stroke="url(#paint6_linear)" stroke-opacity="0.4" stroke-width="5" stroke-miterlimit="10" stroke-linecap="round" stroke-linejoin="round"/>
<path d="M72.0705 58.2387C70.3642 57.1716 68.3567 56.5895 66.1484 56.5895C63.0368 56.5895 60.2263 57.8507 58.2188 59.791" stroke="#2453FF" stroke-width="5" stroke-miterlimit="10" stroke-linecap="round" stroke-linejoin="round"/>
<path d="M72.0705 58.2387C70.3642 57.1716 68.3567 56.5895 66.1484 56.5895C63.0368 56.5895 60.2263 57.8507 58.2188 59.791" stroke="url(#paint7_linear)" stroke-opacity="0.4" stroke-width="5" stroke-miterlimit="10" stroke-linecap="round" stroke-linejoin="round"/>
<path d="M66.147 48.4403C70.4631 48.4403 73.8759 45.0448 73.8759 40.9702C73.8759 36.7985 70.3628 33.5 66.147 33.5C61.9312 33.5 58.4181 36.8955 58.4181 40.9702C58.3177 45.0448 61.8309 48.4403 66.147 48.4403Z" stroke="#FF577F" stroke-width="5" stroke-miterlimit="10" stroke-linecap="round" stroke-linejoin="round"/>
<path d="M66.147 48.4403C70.4631 48.4403 73.8759 45.0448 73.8759 40.9702C73.8759 36.7985 70.3628 33.5 66.147 33.5C61.9312 33.5 58.4181 36.8955 58.4181 40.9702C58.3177 45.0448 61.8309 48.4403 66.147 48.4403Z" stroke="url(#paint8_linear)" stroke-opacity="0.4" stroke-width="5" stroke-miterlimit="10" stroke-linecap="round" stroke-linejoin="round"/>
<defs>
<linearGradient id="paint0_linear" x1="13.4759" y1="92.9918" x2="72.1607" y2="1.72311" gradientUnits="userSpaceOnUse">
<stop stop-color="white"/>
<stop offset="1" stop-color="white" stop-opacity="0"/>
</linearGradient>
<linearGradient id="paint1_linear" x1="73.2106" y1="94.8667" x2="90.7968" y2="67.1699" gradientUnits="userSpaceOnUse">
<stop stop-color="white"/>
<stop offset="1" stop-color="white" stop-opacity="0"/>
</linearGradient>
<linearGradient id="paint2_linear" x1="94.7853" y1="101.819" x2="101.247" y2="91.6418" gradientUnits="userSpaceOnUse">
<stop stop-color="white"/>
<stop offset="1" stop-color="white" stop-opacity="0"/>
</linearGradient>
<linearGradient id="paint3_linear" x1="16.2082" y1="94.7799" x2="74.939" y2="3.55882" gradientUnits="userSpaceOnUse">
<stop stop-color="white"/>
<stop offset="1" stop-color="white" stop-opacity="0"/>
</linearGradient>
<linearGradient id="paint4_linear" x1="71.5242" y1="93.7335" x2="89.0639" y2="66.1087" gradientUnits="userSpaceOnUse">
<stop stop-color="white"/>
<stop offset="1" stop-color="white" stop-opacity="0"/>
</linearGradient>
<linearGradient id="paint5_linear" x1="24.1563" y1="74.619" x2="24.1691" y2="50.666" gradientUnits="userSpaceOnUse">
<stop stop-color="white"/>
<stop offset="1" stop-color="white" stop-opacity="0"/>
</linearGradient>
<linearGradient id="paint6_linear" x1="27.3627" y1="38.8318" x2="39.0169" y2="20.475" gradientUnits="userSpaceOnUse">
<stop stop-color="white"/>
<stop offset="1" stop-color="white" stop-opacity="0"/>
</linearGradient>
<linearGradient id="paint7_linear" x1="60.1129" y1="59.5684" x2="60.7374" y2="55.4556" gradientUnits="userSpaceOnUse">
<stop stop-color="white"/>
<stop offset="1" stop-color="white" stop-opacity="0"/>
</linearGradient>
<linearGradient id="paint8_linear" x1="60.5301" y1="47.4018" x2="60.5369" y2="34.6819" gradientUnits="userSpaceOnUse">
<stop stop-color="white"/>
<stop offset="1" stop-color="white" stop-opacity="0"/>
</linearGradient>
</defs>
</svg>
