<svg width="54" height="50" viewBox="0 0 54 50" fill="none" xmlns="http://www.w3.org/2000/svg">
<path d="M48.2508 41.3501H5.75078C3.75078 41.3501 2.05078 39.6501 2.05078 37.6501V12.3501C2.05078 10.3501 3.75078 8.65015 5.75078 8.65015H48.2508C50.2508 8.65015 51.9508 10.3501 51.9508 12.3501V37.7501C51.9508 39.7501 50.2508 41.3501 48.2508 41.3501Z" stroke="#2453FF" stroke-width="3" stroke-linecap="round" stroke-linejoin="round"/>
<path d="M48.2508 41.3501H5.75078C3.75078 41.3501 2.05078 39.6501 2.05078 37.6501V12.3501C2.05078 10.3501 3.75078 8.65015 5.75078 8.65015H48.2508C50.2508 8.65015 51.9508 10.3501 51.9508 12.3501V37.7501C51.9508 39.7501 50.2508 41.3501 48.2508 41.3501Z" stroke="url(#paint0_linear)" stroke-opacity="0.4" stroke-width="3" stroke-linecap="round" stroke-linejoin="round"/>
<path d="M5.55078 2.3501H48.1508" stroke="#FF577F" stroke-width="3" stroke-linecap="round" stroke-linejoin="round"/>
<path d="M5.55078 2.3501H48.1508" stroke="url(#paint1_linear)" stroke-opacity="0.4" stroke-width="3" stroke-linecap="round" stroke-linejoin="round"/>
<path d="M5.55078 47.6501H48.1508" stroke="#FF577F" stroke-width="3" stroke-linecap="round" stroke-linejoin="round"/>
<path d="M5.55078 47.6501H48.1508" stroke="url(#paint2_linear)" stroke-opacity="0.4" stroke-width="3" stroke-linecap="round" stroke-linejoin="round"/>
<path d="M15.6512 28.25L10.6512 31.45C10.1512 31.75 9.95117 32.25 9.95117 32.85V33.65C9.95117 34.55 10.6512 35.25 11.5512 35.25H26.3512C27.2512 35.25 27.9512 34.55 27.9512 33.65V32.85C27.9512 32.35 27.6512 31.75 27.2512 31.45L22.1512 28.05" stroke="#FF577F" stroke-width="3" stroke-linecap="round" stroke-linejoin="round"/>
<path d="M15.6512 28.25L10.6512 31.45C10.1512 31.75 9.95117 32.25 9.95117 32.85V33.65C9.95117 34.55 10.6512 35.25 11.5512 35.25H26.3512C27.2512 35.25 27.9512 34.55 27.9512 33.65V32.85C27.9512 32.35 27.6512 31.75 27.2512 31.45L22.1512 28.05" stroke="url(#paint3_linear)" stroke-opacity="0.4" stroke-width="3" stroke-linecap="round" stroke-linejoin="round"/>
<path d="M18.751 29.1501C15.751 29.1501 13.251 26.7501 13.251 23.6501V20.3501C13.251 17.3501 15.651 14.8501 18.751 14.8501C21.751 14.8501 24.251 17.2501 24.251 20.3501V23.6501C24.251 26.6501 21.851 29.1501 18.751 29.1501Z" stroke="#2453FF" stroke-width="3" stroke-linecap="round" stroke-linejoin="round"/>
<path d="M18.751 29.1501C15.751 29.1501 13.251 26.7501 13.251 23.6501V20.3501C13.251 17.3501 15.651 14.8501 18.751 14.8501C21.751 14.8501 24.251 17.2501 24.251 20.3501V23.6501C24.251 26.6501 21.851 29.1501 18.751 29.1501Z" stroke="url(#paint4_linear)" stroke-opacity="0.4" stroke-width="3" stroke-linecap="round" stroke-linejoin="round"/>
<path d="M34.4508 18.8501H45.2508" stroke="#FF577F" stroke-width="3" stroke-linecap="round" stroke-linejoin="round"/>
<path d="M34.4508 18.8501H45.2508" stroke="url(#paint5_linear)" stroke-opacity="0.4" stroke-width="3" stroke-linecap="round" stroke-linejoin="round"/>
<path d="M34.4508 25.7501H45.2508" stroke="#FF577F" stroke-width="3" stroke-linecap="round" stroke-linejoin="round"/>
<path d="M34.4508 25.7501H45.2508" stroke="url(#paint6_linear)" stroke-opacity="0.4" stroke-width="3" stroke-linecap="round" stroke-linejoin="round"/>
<path d="M34.4508 32.7501H45.2508" stroke="#FF577F" stroke-width="3" stroke-linecap="round" stroke-linejoin="round"/>
<path d="M34.4508 32.7501H45.2508" stroke="url(#paint7_linear)" stroke-opacity="0.4" stroke-width="3" stroke-linecap="round" stroke-linejoin="round"/>
<defs>
<linearGradient id="paint0_linear" x1="8.87437" y1="39.0771" x2="24.4826" y2="2.81962" gradientUnits="userSpaceOnUse">
<stop stop-color="white"/>
<stop offset="1" stop-color="white" stop-opacity="0"/>
</linearGradient>
<linearGradient id="paint1_linear" x1="11.3761" y1="3.28059" x2="41.4193" y2="2.4296" gradientUnits="userSpaceOnUse">
<stop stop-color="white"/>
<stop offset="1" stop-color="white" stop-opacity="0"/>
</linearGradient>
<linearGradient id="paint2_linear" x1="11.3761" y1="48.5806" x2="41.4193" y2="47.7296" gradientUnits="userSpaceOnUse">
<stop stop-color="white"/>
<stop offset="1" stop-color="white" stop-opacity="0"/>
</linearGradient>
<linearGradient id="paint3_linear" x1="12.4126" y1="34.7496" x2="14.7385" y2="25.898" gradientUnits="userSpaceOnUse">
<stop stop-color="white"/>
<stop offset="1" stop-color="white" stop-opacity="0"/>
</linearGradient>
<linearGradient id="paint4_linear" x1="14.7552" y1="28.1561" x2="24.0364" y2="17.2881" gradientUnits="userSpaceOnUse">
<stop stop-color="white"/>
<stop offset="1" stop-color="white" stop-opacity="0"/>
</linearGradient>
<linearGradient id="paint5_linear" x1="33.354" y1="18.8501" x2="46.8313" y2="18.8501" gradientUnits="userSpaceOnUse">
<stop stop-color="white"/>
<stop offset="1" stop-color="white" stop-opacity="0"/>
</linearGradient>
<linearGradient id="paint6_linear" x1="33.354" y1="25.7501" x2="46.8313" y2="25.7501" gradientUnits="userSpaceOnUse">
<stop stop-color="white"/>
<stop offset="1" stop-color="white" stop-opacity="0"/>
</linearGradient>
<linearGradient id="paint7_linear" x1="33.354" y1="32.7501" x2="46.8313" y2="32.7501" gradientUnits="userSpaceOnUse">
<stop stop-color="white"/>
<stop offset="1" stop-color="white" stop-opacity="0"/>
</linearGradient>
</defs>
</svg>
