<svg width="66" height="56" viewBox="0 0 66 56" fill="none" xmlns="http://www.w3.org/2000/svg">
<path d="M32.9004 2.19995V4.89995" stroke="#2453FF" stroke-width="3" stroke-linecap="round" stroke-linejoin="round"/>
<path d="M32.9004 2.19995V4.89995" stroke="url(#paint0_linear)" stroke-opacity="0.4" stroke-width="3" stroke-linecap="round" stroke-linejoin="round"/>
<path d="M32.9004 17.7V53.7999" stroke="#2453FF" stroke-width="3" stroke-linecap="round" stroke-linejoin="round"/>
<path d="M32.9004 17.7V53.7999" stroke="url(#paint1_linear)" stroke-opacity="0.4" stroke-width="3" stroke-linecap="round" stroke-linejoin="round"/>
<path d="M19.8008 53.8H46.4008" stroke="#2453FF" stroke-width="3" stroke-linecap="round" stroke-linejoin="round"/>
<path d="M19.8008 53.8H46.4008" stroke="url(#paint2_linear)" stroke-opacity="0.4" stroke-width="3" stroke-linecap="round" stroke-linejoin="round"/>
<path d="M39.2004 10.3999L60.4004 6.8999" stroke="#2453FF" stroke-width="3" stroke-linecap="round" stroke-linejoin="round"/>
<path d="M39.2004 10.3999L60.4004 6.8999" stroke="url(#paint3_linear)" stroke-opacity="0.4" stroke-width="3" stroke-linecap="round" stroke-linejoin="round"/>
<path d="M5.40039 15.8999L26.6004 12.3999" stroke="#FF577F" stroke-width="3" stroke-linecap="round" stroke-linejoin="round"/>
<path d="M5.40039 15.8999L26.6004 12.3999" stroke="url(#paint4_linear)" stroke-opacity="0.4" stroke-width="3" stroke-linecap="round" stroke-linejoin="round"/>
<path d="M32.9004 17.6999C36.435 17.6999 39.3004 14.8345 39.3004 11.2999C39.3004 7.76528 36.435 4.8999 32.9004 4.8999C29.3658 4.8999 26.5004 7.76528 26.5004 11.2999C26.5004 14.8345 29.3658 17.6999 32.9004 17.6999Z" stroke="#2453FF" stroke-width="3" stroke-linecap="round" stroke-linejoin="round"/>
<path d="M32.9004 17.6999C36.435 17.6999 39.3004 14.8345 39.3004 11.2999C39.3004 7.76528 36.435 4.8999 32.9004 4.8999C29.3658 4.8999 26.5004 7.76528 26.5004 11.2999C26.5004 14.8345 29.3658 17.6999 32.9004 17.6999Z" stroke="url(#paint5_linear)" stroke-opacity="0.4" stroke-width="3" stroke-linecap="round" stroke-linejoin="round"/>
<path d="M24.0004 35.8999C24.0004 41.9999 19.0004 46.9999 12.9004 46.9999C6.80039 46.9999 1.90039 41.9999 1.90039 35.8999C6.60039 35.8999 18.0004 35.8999 24.0004 35.8999Z" stroke="#FF577F" stroke-width="3" stroke-linecap="round" stroke-linejoin="round"/>
<path d="M24.0004 35.8999C24.0004 41.9999 19.0004 46.9999 12.9004 46.9999C6.80039 46.9999 1.90039 41.9999 1.90039 35.8999C6.60039 35.8999 18.0004 35.8999 24.0004 35.8999Z" stroke="url(#paint6_linear)" stroke-opacity="0.4" stroke-width="3" stroke-linecap="round" stroke-linejoin="round"/>
<path d="M13.0004 14.7L1.90039 35.9H24.0004L13.0004 14.7Z" stroke="#2453FF" stroke-width="3" stroke-linecap="round" stroke-linejoin="round"/>
<path d="M13.0004 14.7L1.90039 35.9H24.0004L13.0004 14.7Z" stroke="url(#paint7_linear)" stroke-opacity="0.4" stroke-width="3" stroke-linecap="round" stroke-linejoin="round"/>
<path d="M64.1004 29.2999C64.1004 35.3999 59.1004 40.3999 53.0004 40.3999C46.9004 40.3999 41.9004 35.4999 41.9004 29.2999C46.6004 29.2999 58.0004 29.2999 64.1004 29.2999Z" stroke="#2453FF" stroke-width="3" stroke-linecap="round" stroke-linejoin="round"/>
<path d="M64.1004 29.2999C64.1004 35.3999 59.1004 40.3999 53.0004 40.3999C46.9004 40.3999 41.9004 35.4999 41.9004 29.2999C46.6004 29.2999 58.0004 29.2999 64.1004 29.2999Z" stroke="url(#paint8_linear)" stroke-opacity="0.4" stroke-width="3" stroke-linecap="round" stroke-linejoin="round"/>
<path d="M53.0004 8.09998L41.9004 29.3H64.1004L53.0004 8.09998Z" stroke="#FF577F" stroke-width="3" stroke-linecap="round" stroke-linejoin="round"/>
<path d="M53.0004 8.09998L41.9004 29.3H64.1004L53.0004 8.09998Z" stroke="url(#paint9_linear)" stroke-opacity="0.4" stroke-width="3" stroke-linecap="round" stroke-linejoin="round"/>
<defs>
<linearGradient id="paint0_linear" x1="33.0371" y1="4.71227" x2="34.5552" y2="3.85636" gradientUnits="userSpaceOnUse">
<stop stop-color="white"/>
<stop offset="1" stop-color="white" stop-opacity="0"/>
</linearGradient>
<linearGradient id="paint1_linear" x1="33.0371" y1="51.2906" x2="35.0343" y2="51.2064" gradientUnits="userSpaceOnUse">
<stop stop-color="white"/>
<stop offset="1" stop-color="white" stop-opacity="0"/>
</linearGradient>
<linearGradient id="paint2_linear" x1="19.0617" y1="53.8" x2="47.9116" y2="53.8" gradientUnits="userSpaceOnUse">
<stop stop-color="white"/>
<stop offset="1" stop-color="white" stop-opacity="0"/>
</linearGradient>
<linearGradient id="paint3_linear" x1="42.0994" y1="10.1566" x2="42.5925" y2="5.61015" gradientUnits="userSpaceOnUse">
<stop stop-color="white"/>
<stop offset="1" stop-color="white" stop-opacity="0"/>
</linearGradient>
<linearGradient id="paint4_linear" x1="8.29939" y1="15.6566" x2="8.79247" y2="11.1101" gradientUnits="userSpaceOnUse">
<stop stop-color="white"/>
<stop offset="1" stop-color="white" stop-opacity="0"/>
</linearGradient>
<linearGradient id="paint5_linear" x1="28.2507" y1="16.8102" x2="35.9704" y2="5.0587" gradientUnits="userSpaceOnUse">
<stop stop-color="white"/>
<stop offset="1" stop-color="white" stop-opacity="0"/>
</linearGradient>
<linearGradient id="paint6_linear" x1="4.92246" y1="46.2283" x2="9.26326" y2="33.0722" gradientUnits="userSpaceOnUse">
<stop stop-color="white"/>
<stop offset="1" stop-color="white" stop-opacity="0"/>
</linearGradient>
<linearGradient id="paint7_linear" x1="4.92246" y1="34.4263" x2="17.4898" y2="14.4833" gradientUnits="userSpaceOnUse">
<stop stop-color="white"/>
<stop offset="1" stop-color="white" stop-opacity="0"/>
</linearGradient>
<linearGradient id="paint8_linear" x1="44.9361" y1="39.6284" x2="49.2612" y2="26.4606" gradientUnits="userSpaceOnUse">
<stop stop-color="white"/>
<stop offset="1" stop-color="white" stop-opacity="0"/>
</linearGradient>
<linearGradient id="paint9_linear" x1="44.9361" y1="27.8263" x2="57.4789" y2="7.83223" gradientUnits="userSpaceOnUse">
<stop stop-color="white"/>
<stop offset="1" stop-color="white" stop-opacity="0"/>
</linearGradient>
</defs>
</svg>
