<svg width="161" height="171" viewBox="0 0 161 171" fill="none" xmlns="http://www.w3.org/2000/svg">
<path d="M80.5 158C123.302 158 158 123.302 158 80.5C158 37.6979 123.302 3 80.5 3C37.6979 3 3 37.6979 3 80.5C3 123.302 37.6979 158 80.5 158Z" stroke="#8CA5FF" stroke-width="5" stroke-miterlimit="10"/>
<path d="M80.5 158C123.302 158 158 123.302 158 80.5C158 37.6979 123.302 3 80.5 3C37.6979 3 3 37.6979 3 80.5C3 123.302 37.6979 158 80.5 158Z" stroke="url(#paint0_linear)" stroke-width="6" stroke-miterlimit="10"/>
<path d="M81.2307 91.0491C86.6042 91.0491 90.9602 86.6931 90.9602 81.3196C90.9602 75.9461 86.6042 71.5901 81.2307 71.5901C75.8572 71.5901 71.5012 75.9461 71.5012 81.3196C71.5012 86.6931 75.8572 91.0491 81.2307 91.0491Z" stroke="#2453FF" stroke-width="3" stroke-linecap="round" stroke-linejoin="round"/>
<path d="M81.2307 91.0491C86.6042 91.0491 90.9602 86.6931 90.9602 81.3196C90.9602 75.9461 86.6042 71.5901 81.2307 71.5901C75.8572 71.5901 71.5012 75.9461 71.5012 81.3196C71.5012 86.6931 75.8572 91.0491 81.2307 91.0491Z" stroke="url(#paint1_linear)" stroke-opacity="0.4" stroke-width="3" stroke-linecap="round" stroke-linejoin="round"/>
<path d="M81.231 106.271C95.0108 106.271 106.182 95.0998 106.182 81.3199C106.182 67.5401 95.0108 56.3694 81.231 56.3694C67.4512 56.3694 56.2804 67.5401 56.2804 81.3199C56.2804 95.0998 67.4512 106.271 81.231 106.271Z" stroke="#2453FF" stroke-width="3" stroke-linecap="round" stroke-linejoin="round"/>
<path d="M81.231 106.271C95.0108 106.271 106.182 95.0998 106.182 81.3199C106.182 67.5401 95.0108 56.3694 81.231 56.3694C67.4512 56.3694 56.2804 67.5401 56.2804 81.3199C56.2804 95.0998 67.4512 106.271 81.231 106.271Z" stroke="url(#paint2_linear)" stroke-opacity="0.4" stroke-width="3" stroke-linecap="round" stroke-linejoin="round"/>
<path d="M101.048 46.3413C95.1988 43.0583 88.4538 41.1482 81.2313 41.1482C59.0265 41.1482 41 59.1747 41 81.3795C41 103.584 59.0265 121.611 81.2313 121.611C103.436 121.611 121.463 103.584 121.463 81.3795C121.463 74.2763 119.612 67.591 116.389 61.801" stroke="#2453FF" stroke-width="3" stroke-linecap="round" stroke-linejoin="round"/>
<path d="M101.048 46.3413C95.1988 43.0583 88.4538 41.1482 81.2313 41.1482C59.0265 41.1482 41 59.1747 41 81.3795C41 103.584 59.0265 121.611 81.2313 121.611C103.436 121.611 121.463 103.584 121.463 81.3795C121.463 74.2763 119.612 67.591 116.389 61.801" stroke="url(#paint3_linear)" stroke-opacity="0.4" stroke-width="3" stroke-linecap="round" stroke-linejoin="round"/>
<path d="M123.015 39.5962L81.2316 81.3197" stroke="#FF577F" stroke-width="3" stroke-linecap="round" stroke-linejoin="round"/>
<path d="M123.015 39.5962L81.2316 81.3197" stroke="url(#paint4_linear)" stroke-opacity="0.4" stroke-width="3" stroke-linecap="round" stroke-linejoin="round"/>
<path d="M98.6018 64.0095L96.7514 50.8179L112.569 35L114.42 48.1319L98.6018 64.0095Z" stroke="#FF577F" stroke-width="3" stroke-linecap="round" stroke-linejoin="round"/>
<path d="M98.6018 64.0095L96.7514 50.8179L112.569 35L114.42 48.1319L98.6018 64.0095Z" stroke="url(#paint5_linear)" stroke-opacity="0.4" stroke-width="3" stroke-linecap="round" stroke-linejoin="round"/>
<path d="M98.6004 64.0095L111.792 65.8599L127.61 49.9822L114.418 48.1318L98.6004 64.0095Z" stroke="#FF577F" stroke-width="3" stroke-linecap="round" stroke-linejoin="round"/>
<path d="M98.6004 64.0095L111.792 65.8599L127.61 49.9822L114.418 48.1318L98.6004 64.0095Z" stroke="url(#paint6_linear)" stroke-opacity="0.4" stroke-width="3" stroke-linecap="round" stroke-linejoin="round"/>
<path opacity="0.528" d="M91.3407 139.5V171H80.7207V147.51H75.3207V139.5H91.3407Z" fill="#9BB1FF"/>
<defs>
<linearGradient id="paint0_linear" x1="29.8511" y1="118.979" x2="344.729" y2="-195.899" gradientUnits="userSpaceOnUse">
<stop stop-color="white"/>
<stop offset="1" stop-color="white" stop-opacity="0"/>
</linearGradient>
<linearGradient id="paint1_linear" x1="74.1621" y1="89.6965" x2="85.8979" y2="71.8315" gradientUnits="userSpaceOnUse">
<stop stop-color="white"/>
<stop offset="1" stop-color="white" stop-opacity="0"/>
</linearGradient>
<linearGradient id="paint2_linear" x1="63.1042" y1="102.802" x2="93.1997" y2="56.9885" gradientUnits="userSpaceOnUse">
<stop stop-color="white"/>
<stop offset="1" stop-color="white" stop-opacity="0"/>
</linearGradient>
<linearGradient id="paint3_linear" x1="52.0029" y1="116.018" x2="100.53" y2="42.1464" gradientUnits="userSpaceOnUse">
<stop stop-color="white"/>
<stop offset="1" stop-color="white" stop-opacity="0"/>
</linearGradient>
<linearGradient id="paint4_linear" x1="86.9453" y1="78.4195" x2="112.095" y2="40.0808" gradientUnits="userSpaceOnUse">
<stop stop-color="white"/>
<stop offset="1" stop-color="white" stop-opacity="0"/>
</linearGradient>
<linearGradient id="paint5_linear" x1="99.1674" y1="61.993" x2="118.176" y2="44.3692" gradientUnits="userSpaceOnUse">
<stop stop-color="white"/>
<stop offset="1" stop-color="white" stop-opacity="0"/>
</linearGradient>
<linearGradient id="paint6_linear" x1="102.567" y1="64.6276" x2="110.623" y2="44.5619" gradientUnits="userSpaceOnUse">
<stop stop-color="white"/>
<stop offset="1" stop-color="white" stop-opacity="0"/>
</linearGradient>
</defs>
</svg>
