<svg width="161" height="171" viewBox="0 0 161 171" fill="none" xmlns="http://www.w3.org/2000/svg">
<path d="M80.5 158C123.302 158 158 123.302 158 80.5C158 37.6979 123.302 3 80.5 3C37.6979 3 3 37.6979 3 80.5C3 123.302 37.6979 158 80.5 158Z" stroke="#FF577F" stroke-width="5" stroke-miterlimit="10"/>
<path d="M80.5 158C123.302 158 158 123.302 158 80.5C158 37.6979 123.302 3 80.5 3C37.6979 3 3 37.6979 3 80.5C3 123.302 37.6979 158 80.5 158Z" stroke="url(#paint0_linear)" stroke-width="6" stroke-miterlimit="10"/>
<path d="M42.1503 51.6934V71.477L49.5583 78.8849" stroke="#FF577F" stroke-width="2.8" stroke-linecap="round" stroke-linejoin="round"/>
<path d="M42.1503 51.6934V71.477L49.5583 78.8849" stroke="url(#paint1_linear)" stroke-opacity="0.4" stroke-width="2.8" stroke-linecap="round" stroke-linejoin="round"/>
<path d="M68.8677 51.6841H39.0354C35.7985 51.6841 33.0864 49.0874 33.0864 45.9882V37.6958C33.0864 34.5966 35.7985 32 39.0354 32H68.8677C72.1046 32 74.8166 34.5966 74.8166 37.6958V45.9882C74.8166 49.1712 72.1046 51.6841 68.8677 51.6841Z" stroke="#FF577F" stroke-width="2.8" stroke-linecap="round" stroke-linejoin="round"/>
<path d="M68.8677 51.6841H39.0354C35.7985 51.6841 33.0864 49.0874 33.0864 45.9882V37.6958C33.0864 34.5966 35.7985 32 39.0354 32H68.8677C72.1046 32 74.8166 34.5966 74.8166 37.6958V45.9882C74.8166 49.1712 72.1046 51.6841 68.8677 51.6841Z" stroke="url(#paint2_linear)" stroke-opacity="0.4" stroke-width="2.8" stroke-linecap="round" stroke-linejoin="round"/>
<path d="M40.5817 38.2988H60.4525" stroke="#2453FF" stroke-width="2.8" stroke-linecap="round" stroke-linejoin="round"/>
<path d="M40.5817 38.2988H60.4525" stroke="url(#paint3_linear)" stroke-opacity="0.4" stroke-width="2.8" stroke-linecap="round" stroke-linejoin="round"/>
<path d="M40.5817 45.3853H66.3789" stroke="#2453FF" stroke-width="2.8" stroke-linecap="round" stroke-linejoin="round"/>
<path d="M40.5817 45.3853H66.3789" stroke="url(#paint4_linear)" stroke-opacity="0.4" stroke-width="2.8" stroke-linecap="round" stroke-linejoin="round"/>
<path d="M116.492 54.2207V72.9585L110.304 79.1463" stroke="#FF577F" stroke-width="2.8" stroke-linecap="round" stroke-linejoin="round"/>
<path d="M116.492 54.2207V72.9585L110.304 79.1463" stroke="url(#paint5_linear)" stroke-opacity="0.4" stroke-width="2.8" stroke-linecap="round" stroke-linejoin="round"/>
<path d="M120.496 53.2587H93.6133C90.6457 53.2587 88.2018 50.9682 88.2018 48.1868V45.7327C88.2018 42.9514 90.6457 40.6609 93.6133 40.6609H120.584C123.551 40.6609 125.995 42.9514 125.995 45.7327V48.1868C125.908 50.9682 123.464 53.2587 120.496 53.2587Z" stroke="#FF577F" stroke-width="2.8" stroke-linecap="round" stroke-linejoin="round"/>
<path d="M120.496 53.2587H93.6133C90.6457 53.2587 88.2018 50.9682 88.2018 48.1868V45.7327C88.2018 42.9514 90.6457 40.6609 93.6133 40.6609H120.584C123.551 40.6609 125.995 42.9514 125.995 45.7327V48.1868C125.908 50.9682 123.464 53.2587 120.496 53.2587Z" stroke="url(#paint6_linear)" stroke-opacity="0.4" stroke-width="2.8" stroke-linecap="round" stroke-linejoin="round"/>
<path d="M96.0754 46.96H107.318" stroke="#2453FF" stroke-width="2.8" stroke-linecap="round" stroke-linejoin="round"/>
<path d="M96.0754 46.96H107.318" stroke="url(#paint7_linear)" stroke-opacity="0.4" stroke-width="2.8" stroke-linecap="round" stroke-linejoin="round"/>
<path d="M114.185 46.96L118.122 46.96" stroke="#2453FF" stroke-width="2.8" stroke-linecap="round" stroke-linejoin="round"/>
<path d="M114.185 46.96L118.122 46.96" stroke="url(#paint8_linear)" stroke-opacity="0.4" stroke-width="2.8" stroke-linecap="round" stroke-linejoin="round"/>
<path d="M115.881 105.99V113.485C115.881 115.751 114.051 117.581 111.785 117.581H100.455" stroke="#FF577F" stroke-width="2.8" stroke-linecap="round" stroke-linejoin="round"/>
<path d="M115.881 105.99V113.485C115.881 115.751 114.051 117.581 111.785 117.581H100.455" stroke="url(#paint9_linear)" stroke-opacity="0.4" stroke-width="2.8" stroke-linecap="round" stroke-linejoin="round"/>
<path d="M46.9437 91.6965H70.7363" stroke="#2453FF" stroke-width="2.8" stroke-linecap="round" stroke-linejoin="round"/>
<path d="M46.9437 91.6965H70.7363" stroke="url(#paint10_linear)" stroke-opacity="0.4" stroke-width="2.8" stroke-linecap="round" stroke-linejoin="round"/>
<path d="M109.519 105.99C104.203 117.058 92.8733 124.64 79.8876 124.64C61.6727 124.64 46.944 109.911 46.944 91.6966C46.944 73.4817 61.6727 58.7529 79.8876 58.7529C96.5337 58.7529 108.212 70.3442 111.611 85.3344" stroke="#2453FF" stroke-width="2.8" stroke-linecap="round" stroke-linejoin="round"/>
<path d="M109.519 105.99C104.203 117.058 92.8733 124.64 79.8876 124.64C61.6727 124.64 46.944 109.911 46.944 91.6966C46.944 73.4817 61.6727 58.7529 79.8876 58.7529C96.5337 58.7529 108.212 70.3442 111.611 85.3344" stroke="url(#paint11_linear)" stroke-opacity="0.4" stroke-width="2.8" stroke-linecap="round" stroke-linejoin="round"/>
<path d="M98.4511 105.031C95.0522 115.576 87.8185 124.727 79.8876 124.727C68.5578 124.727 59.3197 109.999 59.3197 91.7837C59.3197 73.5689 68.5578 58.8401 79.8876 58.8401C89.823 58.8401 98.4511 70.6928 100.368 85.683" stroke="#2453FF" stroke-width="2.8" stroke-linecap="round" stroke-linejoin="round"/>
<path d="M98.4511 105.031C95.0522 115.576 87.8185 124.727 79.8876 124.727C68.5578 124.727 59.3197 109.999 59.3197 91.7837C59.3197 73.5689 68.5578 58.8401 79.8876 58.8401C89.823 58.8401 98.4511 70.6928 100.368 85.683" stroke="url(#paint12_linear)" stroke-opacity="0.4" stroke-width="2.8" stroke-linecap="round" stroke-linejoin="round"/>
<path d="M79.8876 84.2015V58.8401" stroke="#2453FF" stroke-width="2.8" stroke-linecap="round" stroke-linejoin="round"/>
<path d="M79.8876 84.2015V58.8401" stroke="url(#paint13_linear)" stroke-opacity="0.4" stroke-width="2.8" stroke-linecap="round" stroke-linejoin="round"/>
<path d="M79.8876 124.64V99.2788" stroke="#2453FF" stroke-width="2.8" stroke-linecap="round" stroke-linejoin="round"/>
<path d="M79.8876 124.64V99.2788" stroke="url(#paint14_linear)" stroke-opacity="0.4" stroke-width="2.8" stroke-linecap="round" stroke-linejoin="round"/>
<path d="M124.248 105.031H94.093C90.9555 105.031 88.341 102.503 88.341 99.2787V91.7836C88.341 88.6461 90.8684 86.0315 94.093 86.0315H124.248C127.385 86.0315 130 88.5589 130 91.7836V99.2787C130 102.416 127.385 105.031 124.248 105.031Z" stroke="#FF577F" stroke-width="2.8" stroke-linecap="round" stroke-linejoin="round"/>
<path d="M124.248 105.031H94.093C90.9555 105.031 88.341 102.503 88.341 99.2787V91.7836C88.341 88.6461 90.8684 86.0315 94.093 86.0315H124.248C127.385 86.0315 130 88.5589 130 91.7836V99.2787C130 102.416 127.385 105.031 124.248 105.031Z" stroke="url(#paint15_linear)" stroke-opacity="0.4" stroke-width="2.8" stroke-linecap="round" stroke-linejoin="round"/>
<path d="M95.2881 91.6965H117.599" stroke="#2453FF" stroke-width="2.8" stroke-linecap="round" stroke-linejoin="round"/>
<path d="M95.2881 91.6965H117.599" stroke="url(#paint16_linear)" stroke-opacity="0.4" stroke-width="2.8" stroke-linecap="round" stroke-linejoin="round"/>
<path d="M95.2881 97.7971H105.659" stroke="#2453FF" stroke-width="2.8" stroke-linecap="round" stroke-linejoin="round"/>
<path d="M95.2881 97.7971H105.659" stroke="url(#paint17_linear)" stroke-opacity="0.4" stroke-width="2.8" stroke-linecap="round" stroke-linejoin="round"/>
<path opacity="0.528" d="M94.816 162.765V171H69.571V164.475L80.956 153.945C81.946 153.015 82.606 152.22 82.936 151.56C83.266 150.9 83.431 150.255 83.431 149.625C83.431 148.845 83.161 148.245 82.621 147.825C82.111 147.375 81.361 147.15 80.371 147.15C79.411 147.15 78.511 147.405 77.671 147.915C76.831 148.425 76.186 149.145 75.736 150.075L67.726 146.07C68.926 143.82 70.681 142.05 72.991 140.76C75.301 139.44 78.091 138.78 81.361 138.78C83.851 138.78 86.056 139.185 87.976 139.995C89.896 140.805 91.396 141.96 92.476 143.46C93.556 144.96 94.096 146.685 94.096 148.635C94.096 150.375 93.721 152.01 92.971 153.54C92.251 155.04 90.826 156.75 88.696 158.67L84.196 162.765H94.816Z" fill="#FF8FAA"/>
<defs>
<linearGradient id="paint0_linear" x1="29.8511" y1="118.979" x2="344.729" y2="-195.899" gradientUnits="userSpaceOnUse">
<stop stop-color="white"/>
<stop offset="1" stop-color="white" stop-opacity="0"/>
</linearGradient>
<linearGradient id="paint1_linear" x1="43.1633" y1="76.9948" x2="55.8092" y2="71.7503" gradientUnits="userSpaceOnUse">
<stop stop-color="white"/>
<stop offset="1" stop-color="white" stop-opacity="0"/>
</linearGradient>
<linearGradient id="paint2_linear" x1="38.7928" y1="50.3158" x2="46.1068" y2="26.712" gradientUnits="userSpaceOnUse">
<stop stop-color="white"/>
<stop offset="1" stop-color="white" stop-opacity="0"/>
</linearGradient>
<linearGradient id="paint3_linear" x1="39.6602" y1="38.6995" x2="60.2806" y2="38.6995" gradientUnits="userSpaceOnUse">
<stop stop-color="white"/>
<stop offset="1" stop-color="white" stop-opacity="0"/>
</linearGradient>
<linearGradient id="paint4_linear" x1="39.3853" y1="45.7859" x2="66.1556" y2="45.7859" gradientUnits="userSpaceOnUse">
<stop stop-color="white"/>
<stop offset="1" stop-color="white" stop-opacity="0"/>
</linearGradient>
<linearGradient id="paint5_linear" x1="111.15" y1="77.4137" x2="121.983" y2="73.3199" gradientUnits="userSpaceOnUse">
<stop stop-color="white"/>
<stop offset="1" stop-color="white" stop-opacity="0"/>
</linearGradient>
<linearGradient id="paint6_linear" x1="93.3699" y1="52.383" x2="96.8295" y2="36.5837" gradientUnits="userSpaceOnUse">
<stop stop-color="white"/>
<stop offset="1" stop-color="white" stop-opacity="0"/>
</linearGradient>
<linearGradient id="paint7_linear" x1="95.554" y1="47.3606" x2="107.221" y2="47.3606" gradientUnits="userSpaceOnUse">
<stop stop-color="white"/>
<stop offset="1" stop-color="white" stop-opacity="0"/>
</linearGradient>
<linearGradient id="paint8_linear" x1="114.002" y1="47.3606" x2="118.087" y2="47.3606" gradientUnits="userSpaceOnUse">
<stop stop-color="white"/>
<stop offset="1" stop-color="white" stop-opacity="0"/>
</linearGradient>
<linearGradient id="paint9_linear" x1="102.565" y1="116.775" x2="108.611" y2="104.526" gradientUnits="userSpaceOnUse">
<stop stop-color="white"/>
<stop offset="1" stop-color="white" stop-opacity="0"/>
</linearGradient>
<linearGradient id="paint10_linear" x1="45.8402" y1="92.0972" x2="70.5304" y2="92.0972" gradientUnits="userSpaceOnUse">
<stop stop-color="white"/>
<stop offset="1" stop-color="white" stop-opacity="0"/>
</linearGradient>
<linearGradient id="paint11_linear" x1="55.7869" y1="120.06" x2="95.8138" y2="60.2571" gradientUnits="userSpaceOnUse">
<stop stop-color="white"/>
<stop offset="1" stop-color="white" stop-opacity="0"/>
</linearGradient>
<linearGradient id="paint12_linear" x1="64.9329" y1="120.147" x2="108.169" y2="79.1425" gradientUnits="userSpaceOnUse">
<stop stop-color="white"/>
<stop offset="1" stop-color="white" stop-opacity="0"/>
</linearGradient>
<linearGradient id="paint13_linear" x1="79.447" y1="86.7219" x2="79.4471" y2="58.7705" gradientUnits="userSpaceOnUse">
<stop stop-color="white"/>
<stop offset="1" stop-color="white" stop-opacity="0"/>
</linearGradient>
<linearGradient id="paint14_linear" x1="79.447" y1="127.161" x2="79.4471" y2="99.2092" gradientUnits="userSpaceOnUse">
<stop stop-color="white"/>
<stop offset="1" stop-color="white" stop-opacity="0"/>
</linearGradient>
<linearGradient id="paint15_linear" x1="94.0376" y1="103.71" x2="100.902" y2="80.7966" gradientUnits="userSpaceOnUse">
<stop stop-color="white"/>
<stop offset="1" stop-color="white" stop-opacity="0"/>
</linearGradient>
<linearGradient id="paint16_linear" x1="94.2533" y1="92.0972" x2="117.406" y2="92.0972" gradientUnits="userSpaceOnUse">
<stop stop-color="white"/>
<stop offset="1" stop-color="white" stop-opacity="0"/>
</linearGradient>
<linearGradient id="paint17_linear" x1="94.8071" y1="98.1978" x2="105.569" y2="98.1978" gradientUnits="userSpaceOnUse">
<stop stop-color="white"/>
<stop offset="1" stop-color="white" stop-opacity="0"/>
</linearGradient>
</defs>
</svg>
