<svg width="161" height="172" viewBox="0 0 161 172" fill="none" xmlns="http://www.w3.org/2000/svg">
<path d="M80.5 158C123.302 158 158 123.302 158 80.5C158 37.6979 123.302 3 80.5 3C37.6979 3 3 37.6979 3 80.5C3 123.302 37.6979 158 80.5 158Z" stroke="#8CA5FF" stroke-width="5" stroke-miterlimit="10"/>
<path d="M80.5 158C123.302 158 158 123.302 158 80.5C158 37.6979 123.302 3 80.5 3C37.6979 3 3 37.6979 3 80.5C3 123.302 37.6979 158 80.5 158Z" stroke="url(#paint0_linear)" stroke-width="6" stroke-miterlimit="10"/>
<path d="M83.1365 49.6531C76.4895 49.6531 66.857 49.6531 61.057 49.6531C58.3024 49.6531 56.0686 51.881 56.059 54.6355L55.9618 82.3498H50.206C46.7524 82.3498 44.922 86.432 47.2193 89.0106L73.0257 117.977C75.8067 121.099 80.686 121.102 83.4718 117.985L109.361 89.0152C111.665 86.438 109.835 82.3498 106.379 82.3498H100.527L100.718 67.3062" stroke="#2453FF" stroke-width="3" stroke-linecap="round" stroke-linejoin="round"/>
<path d="M83.1365 49.6531C76.4895 49.6531 66.857 49.6531 61.057 49.6531C58.3024 49.6531 56.0686 51.881 56.059 54.6355L55.9618 82.3498H50.206C46.7524 82.3498 44.922 86.432 47.2193 89.0106L73.0257 117.977C75.8067 121.099 80.686 121.102 83.4718 117.985L109.361 89.0152C111.665 86.438 109.835 82.3498 106.379 82.3498H100.527L100.718 67.3062" stroke="url(#paint1_linear)" stroke-opacity="0.4" stroke-width="3" stroke-linecap="round" stroke-linejoin="round"/>
<path d="M90.9098 121.374L120.659 87.8108" stroke="#2453FF" stroke-width="3" stroke-linecap="round" stroke-linejoin="round"/>
<path d="M90.9098 121.374L120.659 87.8108" stroke="url(#paint2_linear)" stroke-opacity="0.4" stroke-width="3" stroke-linecap="round" stroke-linejoin="round"/>
<path d="M85.9239 72.5253C85.1382 72.1143 84.3525 71.7375 83.5341 71.4635C82.3228 71.0524 81.1116 70.8126 79.933 70.7441L77.9688 70.8126C75.9391 70.9839 74.3677 71.6005 73.2873 72.6281C72.1743 73.7242 71.585 75.0601 71.585 76.6357C71.585 78.3141 72.207 79.65 73.4183 80.5406C74.4659 81.2942 75.9063 81.945 77.8051 82.4588L79.6711 82.9726C81.4389 83.4179 82.8794 83.8632 83.9924 84.3427C85.0073 84.7538 85.8257 85.3703 86.4805 86.2267C87.1025 87.0145 87.4298 88.0421 87.4298 89.378C87.4298 91.0564 86.8406 92.4265 85.5966 93.6254C84.3198 94.8243 82.421 95.5093 79.8675 95.6463L78.1325 95.6806C76.4629 95.5778 74.8587 95.2353 73.3856 94.653C72.2398 94.2077 71.2904 93.6596 70.5374 93.0088" stroke="#FF577F" stroke-width="3" stroke-linecap="round" stroke-linejoin="round"/>
<path d="M85.9239 72.5253C85.1382 72.1143 84.3525 71.7375 83.5341 71.4635C82.3228 71.0524 81.1116 70.8126 79.933 70.7441L77.9688 70.8126C75.9391 70.9839 74.3677 71.6005 73.2873 72.6281C72.1743 73.7242 71.585 75.0601 71.585 76.6357C71.585 78.3141 72.207 79.65 73.4183 80.5406C74.4659 81.2942 75.9063 81.945 77.8051 82.4588L79.6711 82.9726C81.4389 83.4179 82.8794 83.8632 83.9924 84.3427C85.0073 84.7538 85.8257 85.3703 86.4805 86.2267C87.1025 87.0145 87.4298 88.0421 87.4298 89.378C87.4298 91.0564 86.8406 92.4265 85.5966 93.6254C84.3198 94.8243 82.421 95.5093 79.8675 95.6463L78.1325 95.6806C76.4629 95.5778 74.8587 95.2353 73.3856 94.653C72.2398 94.2077 71.2904 93.6596 70.5374 93.0088" stroke="url(#paint3_linear)" stroke-opacity="0.4" stroke-width="3" stroke-linecap="round" stroke-linejoin="round"/>
<path d="M79.3858 65.9177V100.507" stroke="#FF577F" stroke-width="3" stroke-linecap="round" stroke-linejoin="round"/>
<path d="M79.3858 65.9177V100.507" stroke="url(#paint4_linear)" stroke-opacity="0.4" stroke-width="3" stroke-linecap="round" stroke-linejoin="round"/>
<path d="M100.756 67.3063C110.466 67.3063 118.338 59.4027 118.338 49.6532C118.338 39.9036 110.466 32 100.756 32C91.0464 32 83.1749 39.9036 83.1749 49.6532C83.1749 59.4027 91.0464 67.3063 100.756 67.3063Z" stroke="#2453FF" stroke-width="3" stroke-linecap="round" stroke-linejoin="round"/>
<path d="M100.756 67.3063C110.466 67.3063 118.338 59.4027 118.338 49.6532C118.338 39.9036 110.466 32 100.756 32C91.0464 32 83.1749 39.9036 83.1749 49.6532C83.1749 59.4027 91.0464 67.3063 100.756 67.3063Z" stroke="url(#paint5_linear)" stroke-opacity="0.4" stroke-width="3" stroke-linecap="round" stroke-linejoin="round"/>
<path d="M92.2708 51.2649L99.8384 58.0191L112.069 43.3977" stroke="#FF577F" stroke-width="3" stroke-linecap="round" stroke-linejoin="round"/>
<path d="M92.2708 51.2649L99.8384 58.0191L112.069 43.3977" stroke="url(#paint6_linear)" stroke-opacity="0.4" stroke-width="3" stroke-linecap="round" stroke-linejoin="round"/>
<path opacity="0.528" d="M89.1692 151.965C91.5992 152.565 93.4592 153.66 94.7492 155.25C96.0692 156.81 96.7292 158.7 96.7292 160.92C96.7292 162.81 96.2042 164.58 95.1542 166.23C94.1342 167.85 92.5442 169.17 90.3842 170.19C88.2242 171.21 85.5392 171.72 82.3292 171.72C80.1092 171.72 77.8892 171.48 75.6692 171C73.4792 170.52 71.5592 169.815 69.9092 168.885L73.5092 161.055C74.7992 161.805 76.1792 162.375 77.6492 162.765C79.1492 163.155 80.5892 163.35 81.9692 163.35C83.1992 163.35 84.1892 163.14 84.9392 162.72C85.6892 162.3 86.0642 161.7 86.0642 160.92C86.0642 159.48 84.8192 158.76 82.3292 158.76H78.1442V152.235L82.7792 147.51H71.5292V139.5H95.0192V146.025L89.1692 151.965Z" fill="#9BB1FF"/>
<defs>
<linearGradient id="paint0_linear" x1="29.8511" y1="118.979" x2="344.729" y2="-195.899" gradientUnits="userSpaceOnUse">
<stop stop-color="white"/>
<stop offset="1" stop-color="white" stop-opacity="0"/>
</linearGradient>
<linearGradient id="paint1_linear" x1="51.4088" y1="118.678" x2="96.1835" y2="50.6559" gradientUnits="userSpaceOnUse">
<stop stop-color="white"/>
<stop offset="1" stop-color="white" stop-opacity="0"/>
</linearGradient>
<linearGradient id="paint2_linear" x1="94.9779" y1="119.041" x2="116.08" y2="90.569" gradientUnits="userSpaceOnUse">
<stop stop-color="white"/>
<stop offset="1" stop-color="white" stop-opacity="0"/>
</linearGradient>
<linearGradient id="paint3_linear" x1="72.8474" y1="93.9472" x2="89.2262" y2="77.0571" gradientUnits="userSpaceOnUse">
<stop stop-color="white"/>
<stop offset="1" stop-color="white" stop-opacity="0"/>
</linearGradient>
<linearGradient id="paint4_linear" x1="79.5226" y1="98.1027" x2="79.8569" y2="68.6634" gradientUnits="userSpaceOnUse">
<stop stop-color="white"/>
<stop offset="1" stop-color="white" stop-opacity="0"/>
</linearGradient>
<linearGradient id="paint5_linear" x1="87.9833" y1="64.8521" x2="109.311" y2="32.5178" gradientUnits="userSpaceOnUse">
<stop stop-color="white"/>
<stop offset="1" stop-color="white" stop-opacity="0"/>
</linearGradient>
<linearGradient id="paint6_linear" x1="94.9781" y1="57.0028" x2="102.525" y2="41.4475" gradientUnits="userSpaceOnUse">
<stop stop-color="white"/>
<stop offset="1" stop-color="white" stop-opacity="0"/>
</linearGradient>
</defs>
</svg>
