<svg width="161" height="171" viewBox="0 0 161 171" fill="none" xmlns="http://www.w3.org/2000/svg">
<path d="M80.5 158C123.302 158 158 123.302 158 80.5C158 37.6979 123.302 3 80.5 3C37.6979 3 3 37.6979 3 80.5C3 123.302 37.6979 158 80.5 158Z" stroke="#FF577F" stroke-width="5" stroke-miterlimit="10"/>
<path d="M80.5 158C123.302 158 158 123.302 158 80.5C158 37.6979 123.302 3 80.5 3C37.6979 3 3 37.6979 3 80.5C3 123.302 37.6979 158 80.5 158Z" stroke="url(#paint0_linear)" stroke-width="6" stroke-miterlimit="10"/>
<path d="M57.6037 99.0212L44.8808 111.736C42.7674 113.85 42.7674 117.404 44.8808 119.517C46.9942 121.631 50.5485 121.631 52.6619 119.517L65.577 106.61" stroke="#FF577F" stroke-width="3" stroke-linecap="round" stroke-linejoin="round"/>
<path d="M57.6037 99.0212L44.8808 111.736C42.7674 113.85 42.7674 117.404 44.8808 119.517C46.9942 121.631 50.5485 121.631 52.6619 119.517L65.577 106.61" stroke="url(#paint1_linear)" stroke-opacity="0.4" stroke-width="3" stroke-linecap="round" stroke-linejoin="round"/>
<path d="M41.9281 77.9914C44.9566 77.9914 47.4116 75.5364 47.4116 72.5079C47.4116 69.4795 44.9566 67.0244 41.9281 67.0244C38.8996 67.0244 36.4446 69.4795 36.4446 72.5079C36.4446 75.5364 38.8996 77.9914 41.9281 77.9914Z" stroke="#2453FF" stroke-width="3" stroke-linecap="round" stroke-linejoin="round"/>
<path d="M41.9281 77.9914C44.9566 77.9914 47.4116 75.5364 47.4116 72.5079C47.4116 69.4795 44.9566 67.0244 41.9281 67.0244C38.8996 67.0244 36.4446 69.4795 36.4446 72.5079C36.4446 75.5364 38.8996 77.9914 41.9281 77.9914Z" stroke="url(#paint2_linear)" stroke-opacity="0.4" stroke-width="3" stroke-linecap="round" stroke-linejoin="round"/>
<path d="M122.072 77.9914C125.1 77.9914 127.555 75.5364 127.555 72.5079C127.555 69.4795 125.1 67.0244 122.072 67.0244C119.043 67.0244 116.588 69.4795 116.588 72.5079C116.588 75.5364 119.043 77.9914 122.072 77.9914Z" stroke="#2453FF" stroke-width="3" stroke-linecap="round" stroke-linejoin="round"/>
<path d="M122.072 77.9914C125.1 77.9914 127.555 75.5364 127.555 72.5079C127.555 69.4795 125.1 67.0244 122.072 67.0244C119.043 67.0244 116.588 69.4795 116.588 72.5079C116.588 75.5364 119.043 77.9914 122.072 77.9914Z" stroke="url(#paint3_linear)" stroke-opacity="0.4" stroke-width="3" stroke-linecap="round" stroke-linejoin="round"/>
<path d="M47.8334 83.8967H38.6819C33.2114 83.8967 28.8521 88.2294 28.8521 93.4786V97.3946H37.9952" stroke="#2453FF" stroke-width="3" stroke-linecap="round" stroke-linejoin="round"/>
<path d="M47.8334 83.8967H38.6819C33.2114 83.8967 28.8521 88.2294 28.8521 93.4786V97.3946H37.9952" stroke="url(#paint4_linear)" stroke-opacity="0.4" stroke-width="3" stroke-linecap="round" stroke-linejoin="round"/>
<path d="M124.266 97.3946H135.148V93.4786C135.148 88.1461 130.82 83.8967 125.577 83.8967H117.432" stroke="#2453FF" stroke-width="3" stroke-linecap="round" stroke-linejoin="round"/>
<path d="M124.266 97.3946H135.148V93.4786C135.148 88.1461 130.82 83.8967 125.577 83.8967H117.432" stroke="url(#paint5_linear)" stroke-opacity="0.4" stroke-width="3" stroke-linecap="round" stroke-linejoin="round"/>
<path d="M100.56 94.8639C98.2804 89.4845 93.5975 86.4277 87.4437 86.4277H77.5292C71.3755 86.4277 66.5632 89.4845 64.284 94.8639" stroke="#2453FF" stroke-width="3" stroke-linecap="round" stroke-linejoin="round"/>
<path d="M100.56 94.8639C98.2804 89.4845 93.5975 86.4277 87.4437 86.4277H77.5292C71.3755 86.4277 66.5632 89.4845 64.284 94.8639" stroke="url(#paint6_linear)" stroke-opacity="0.4" stroke-width="3" stroke-linecap="round" stroke-linejoin="round"/>
<path d="M82.8436 79.6788C87.0368 79.6788 90.4362 76.2795 90.4362 72.0862C90.4362 67.893 87.0368 64.4937 82.8436 64.4937C78.6503 64.4937 75.251 67.893 75.251 72.0862C75.251 76.2795 78.6503 79.6788 82.8436 79.6788Z" stroke="#2453FF" stroke-width="3" stroke-linecap="round" stroke-linejoin="round"/>
<path d="M82.8436 79.6788C87.0368 79.6788 90.4362 76.2795 90.4362 72.0862C90.4362 67.893 87.0368 64.4937 82.8436 64.4937C78.6503 64.4937 75.251 67.893 75.251 72.0862C75.251 76.2795 78.6503 79.6788 82.8436 79.6788Z" stroke="url(#paint7_linear)" stroke-opacity="0.4" stroke-width="3" stroke-linecap="round" stroke-linejoin="round"/>
<path d="M82.4218 109.205C98.4959 109.205 111.527 95.9858 111.527 79.6787C111.527 63.3716 98.4959 50.1521 82.4218 50.1521C66.3476 50.1521 53.317 63.3716 53.317 79.6787C53.317 95.9858 66.3476 109.205 82.4218 109.205Z" stroke="#FF577F" stroke-width="3" stroke-linecap="round" stroke-linejoin="round"/>
<path d="M82.4218 109.205C98.4959 109.205 111.527 95.9858 111.527 79.6787C111.527 63.3716 98.4959 50.1521 82.4218 50.1521C66.3476 50.1521 53.317 63.3716 53.317 79.6787C53.317 95.9858 66.3476 109.205 82.4218 109.205Z" stroke="url(#paint8_linear)" stroke-opacity="0.4" stroke-width="3" stroke-linecap="round" stroke-linejoin="round"/>
<path d="M82.5762 24V40.1599" stroke="#2453FF" stroke-width="3" stroke-linecap="round" stroke-linejoin="round"/>
<path d="M82.5762 24V40.1599" stroke="url(#paint9_linear)" stroke-opacity="0.4" stroke-width="3" stroke-linecap="round" stroke-linejoin="round"/>
<path d="M100.835 32.8142L94.5389 39.1103" stroke="#2453FF" stroke-width="3" stroke-linecap="round" stroke-linejoin="round"/>
<path d="M100.835 32.8142L94.5389 39.1103" stroke="url(#paint10_linear)" stroke-opacity="0.4" stroke-width="3" stroke-linecap="round" stroke-linejoin="round"/>
<path d="M64.4224 32.8142L70.7184 39.1103" stroke="#2453FF" stroke-width="3" stroke-linecap="round" stroke-linejoin="round"/>
<path d="M64.4224 32.8142L70.7184 39.1103" stroke="url(#paint11_linear)" stroke-opacity="0.4" stroke-width="3" stroke-linecap="round" stroke-linejoin="round"/>
<path opacity="0.528" d="M99.3419 165.6H95.1569V171H84.8519V165.6H68.5169V158.85L81.8819 139.5H92.7719L80.8919 157.365H85.1669V152.55H95.1569V157.365H99.3419V165.6Z" fill="#FF8FAA"/>
<defs>
<linearGradient id="paint0_linear" x1="29.8511" y1="118.979" x2="344.729" y2="-195.899" gradientUnits="userSpaceOnUse">
<stop stop-color="white"/>
<stop offset="1" stop-color="white" stop-opacity="0"/>
</linearGradient>
<linearGradient id="paint1_linear" x1="46.3426" y1="119.568" x2="59.6117" y2="99.1853" gradientUnits="userSpaceOnUse">
<stop stop-color="white"/>
<stop offset="1" stop-color="white" stop-opacity="0"/>
</linearGradient>
<linearGradient id="paint2_linear" x1="37.9443" y1="77.2291" x2="44.5585" y2="67.1605" gradientUnits="userSpaceOnUse">
<stop stop-color="white"/>
<stop offset="1" stop-color="white" stop-opacity="0"/>
</linearGradient>
<linearGradient id="paint3_linear" x1="118.088" y1="77.2291" x2="124.702" y2="67.1605" gradientUnits="userSpaceOnUse">
<stop stop-color="white"/>
<stop offset="1" stop-color="white" stop-opacity="0"/>
</linearGradient>
<linearGradient id="paint4_linear" x1="31.4477" y1="96.4564" x2="38.2502" y2="81.8942" gradientUnits="userSpaceOnUse">
<stop stop-color="white"/>
<stop offset="1" stop-color="white" stop-opacity="0"/>
</linearGradient>
<linearGradient id="paint5_linear" x1="119.854" y1="96.4564" x2="126.955" y2="82.2703" gradientUnits="userSpaceOnUse">
<stop stop-color="white"/>
<stop offset="1" stop-color="white" stop-opacity="0"/>
</linearGradient>
<linearGradient id="paint6_linear" x1="69.2445" y1="94.2775" x2="70.8997" y2="83.443" gradientUnits="userSpaceOnUse">
<stop stop-color="white"/>
<stop offset="1" stop-color="white" stop-opacity="0"/>
</linearGradient>
<linearGradient id="paint7_linear" x1="77.3275" y1="78.6232" x2="86.4857" y2="64.682" gradientUnits="userSpaceOnUse">
<stop stop-color="white"/>
<stop offset="1" stop-color="white" stop-opacity="0"/>
</linearGradient>
<linearGradient id="paint8_linear" x1="61.2768" y1="105.1" x2="97.0929" y2="51.3577" gradientUnits="userSpaceOnUse">
<stop stop-color="white"/>
<stop offset="1" stop-color="white" stop-opacity="0"/>
</linearGradient>
<linearGradient id="paint9_linear" x1="82.713" y1="39.0366" x2="84.6961" y2="38.8498" gradientUnits="userSpaceOnUse">
<stop stop-color="white"/>
<stop offset="1" stop-color="white" stop-opacity="0"/>
</linearGradient>
<linearGradient id="paint10_linear" x1="95.3998" y1="38.6726" x2="99.197" y2="32.8923" gradientUnits="userSpaceOnUse">
<stop stop-color="white"/>
<stop offset="1" stop-color="white" stop-opacity="0"/>
</linearGradient>
<linearGradient id="paint11_linear" x1="65.2833" y1="38.6726" x2="69.0805" y2="32.8923" gradientUnits="userSpaceOnUse">
<stop stop-color="white"/>
<stop offset="1" stop-color="white" stop-opacity="0"/>
</linearGradient>
</defs>
</svg>
