<svg width="160" height="51" viewBox="0 0 160 51" fill="none" xmlns="http://www.w3.org/2000/svg">
<path d="M25.6965 12.0189H19.9193C18.1942 12.0189 16.79 10.6167 16.79 8.89401V3.12492C16.79 1.40221 18.1942 0 19.9193 0H25.6965C27.4216 0 28.8258 1.40221 28.8258 3.12492V8.89401C28.8258 10.6167 27.4216 12.0189 25.6965 12.0189Z" fill="white"/>
<path d="M10.732 24.9599H4.19252C2.2668 24.9599 0.702148 23.3974 0.702148 21.4744V14.9441C0.702148 13.0211 2.2668 11.4586 4.19252 11.4586H10.732C12.6577 11.4586 14.2223 13.0211 14.2223 14.9441V21.4343C14.2223 23.3974 12.6577 24.9599 10.732 24.9599Z" fill="white"/>
<path d="M10.0901 38.4599H6.11826C4.95481 38.4599 3.99194 37.4984 3.99194 36.3365V32.3703C3.99194 31.1684 4.95481 30.2469 6.11826 30.2469H10.0901C11.2936 30.2469 12.2164 31.2085 12.2164 32.3703V36.3365C12.2565 37.4984 11.2936 38.4599 10.0901 38.4599Z" fill="white"/>
<path d="M20.7617 50.9997H16.0678C14.6636 50.9997 13.5403 49.878 13.5403 48.4758V43.7884C13.5403 42.3862 14.6636 41.2644 16.0678 41.2644H20.7617C22.1659 41.2644 23.2893 42.3862 23.2893 43.7884V48.4758C23.3294 49.878 22.1659 50.9997 20.7617 50.9997Z" fill="white"/>
<path d="M38.013 14.3825H34.7633C33.8004 14.3825 32.998 13.5812 32.998 12.6197V9.37459C32.998 8.41308 33.8004 7.61182 34.7633 7.61182H38.013C38.9758 7.61182 39.7782 8.41308 39.7782 9.37459V12.6197C39.7782 13.5812 38.9758 14.3825 38.013 14.3825Z" fill="white"/>
<path d="M109.746 17.1075C110.789 17.1075 111.632 16.2662 111.632 15.2245C111.632 14.1829 110.789 13.3416 109.746 13.3416C108.703 13.3416 107.861 14.1829 107.861 15.2245C107.861 16.2662 108.703 17.1075 109.746 17.1075Z" fill="white"/>
<path d="M41.2225 37.0983C40.9417 37.539 40.4602 37.7393 39.9387 37.7393C39.6578 37.7393 39.3369 37.6592 39.056 37.539C38.6549 37.2986 38.374 36.7377 38.374 36.2169C38.374 35.9765 38.4543 35.6961 38.5746 35.4958L42.9476 28.645L38.5746 21.7942C38.4141 21.5939 38.374 21.2734 38.374 21.033C38.374 20.5122 38.6147 19.9914 39.0962 19.7109C39.3369 19.5507 39.6177 19.5106 39.8986 19.5106C40.4201 19.5106 40.9015 19.7109 41.2225 20.1516L44.7931 25.7605L48.4038 20.1516C48.6847 19.7109 49.2062 19.5106 49.7278 19.5106C50.0086 19.5106 50.2894 19.5907 50.5301 19.7109C51.0116 19.9513 51.2523 20.5122 51.2523 21.033C51.2523 21.2734 51.1721 21.5939 51.0517 21.7942L46.6787 28.645L51.0517 35.4958C51.2122 35.6961 51.2523 35.9765 51.2523 36.2169C51.2523 36.7778 50.9715 37.2986 50.5703 37.539C50.3296 37.6993 50.0086 37.7393 49.6876 37.7393C49.1661 37.7393 48.7248 37.539 48.4038 37.0983L44.7931 31.5295L41.2225 37.0983Z" fill="white"/>
<path d="M56.7486 21.6343C58.3935 20.1519 60.6001 19.2305 63.0072 19.2305C68.2227 19.2305 72.3951 23.397 72.3951 28.6052C72.3951 33.7333 68.2227 37.9399 63.0072 37.9399C60.6001 37.9399 58.3935 37.0185 56.7486 35.5361V43.5488C56.7486 44.35 56.0265 45.0311 55.184 45.0311C54.4217 45.0311 53.6594 44.35 53.6594 43.5488V20.8731C53.6594 20.0718 54.4217 19.3907 55.184 19.3907C56.0265 19.3907 56.7486 20.0718 56.7486 20.8731V21.6343ZM62.9671 22.3554C59.4767 22.3554 56.7085 25.1197 56.7085 28.6453C56.7085 32.1308 59.4767 34.8951 62.9671 34.8951C66.4976 34.8951 69.2658 32.1308 69.2658 28.6453C69.2658 25.1197 66.4976 22.3554 62.9671 22.3554Z" fill="white"/>
<path d="M98.9542 26.9226V36.2973C98.9542 37.0986 98.1919 37.7797 97.4296 37.7797C96.5871 37.7797 95.865 37.0986 95.865 36.2973V20.8731C95.865 20.0718 96.5871 19.3907 97.4296 19.3907C98.1518 19.3907 98.9141 20.0317 98.9542 20.7929C100.238 19.8314 101.843 19.2705 103.648 19.2305C104.611 19.2305 105.373 19.9917 105.373 20.7529C105.373 21.5942 104.611 22.3554 103.648 22.3554C101.201 22.4355 98.9542 23.2768 98.9542 26.9226Z" fill="white"/>
<path d="M109.786 19.3914C108.944 19.3914 108.222 20.0724 108.222 20.8737V36.298C108.222 37.0992 108.944 37.7803 109.786 37.7803C110.549 37.7803 111.311 37.0992 111.311 36.298V20.8737C111.311 20.0724 110.549 19.3914 109.786 19.3914Z" fill="white"/>
<path d="M129.485 20.8731C129.485 20.0718 130.207 19.3907 131.05 19.3907C131.812 19.3907 132.574 20.0718 132.574 20.8731V36.2973C132.574 37.0986 131.812 37.7797 131.05 37.7797C130.207 37.7797 129.485 37.0986 129.485 36.2973V35.5361C127.8 37.0185 125.633 37.9399 123.226 37.9399C118.011 37.9399 113.838 33.7734 113.838 28.5652C113.838 23.4371 118.011 19.2305 123.226 19.2305C125.633 19.2305 127.8 20.1519 129.485 21.6343V20.8731ZM123.226 34.815C126.717 34.815 129.485 32.0507 129.485 28.5251C129.485 25.0396 126.717 22.2753 123.226 22.2753C119.696 22.2753 116.928 25.0396 116.928 28.5251C116.968 32.0507 119.736 34.815 123.226 34.815Z" fill="white"/>
<path d="M148.301 27.0828C148.301 24.5188 146.054 22.2753 143.486 22.2753C140.999 22.2753 138.672 23.2768 138.672 26.9226V36.2973C138.672 37.0986 137.91 37.7797 137.148 37.7797C136.305 37.7797 135.583 37.0986 135.583 36.2973V20.8731C135.583 20.0718 136.305 19.3907 137.148 19.3907C137.87 19.3907 138.632 20.0317 138.672 20.7929C139.996 19.7914 141.641 19.2305 143.446 19.2305C147.659 19.2305 151.39 22.5156 151.39 26.6421V36.2973C151.39 37.0986 150.628 37.7797 149.865 37.7797C149.023 37.7797 148.301 37.0986 148.301 36.2973V27.0828Z" fill="white"/>
<path d="M37.5316 28.0443C37.4513 23.2768 33.1987 19.2305 28.1838 19.2305C22.9683 19.2305 18.7959 23.397 18.7959 28.5652C18.7959 33.7734 22.9683 37.9399 28.1838 37.9399C30.6712 37.9399 32.9981 36.9784 34.6831 35.2958C35.0041 35.0153 35.2448 34.5746 35.2448 34.1339C35.2448 33.2926 34.5226 32.5715 33.6801 32.5715C33.1987 32.5715 32.7574 32.8519 32.4364 33.1724C31.3933 34.2942 29.8287 34.815 28.1838 34.815C25.0545 34.815 22.527 32.6917 21.9653 29.727H36.0071C36.0071 29.727 36.0071 29.727 36.0472 29.727H36.0873C36.1274 29.727 36.1274 29.727 36.1675 29.727C36.2076 29.727 36.2879 29.727 36.328 29.6869C36.9699 29.4866 37.5316 28.8456 37.5316 28.0443ZM28.1838 22.3153C30.9921 22.3153 33.3191 24.1182 34.1214 26.6421H22.206C23.0084 24.1182 25.3353 22.3153 28.1838 22.3153Z" fill="white"/>
<path d="M93.2572 28.0443C93.1769 23.2768 88.9243 19.2305 83.9094 19.2305C78.6939 19.2305 74.5215 23.397 74.5215 28.5652C74.5215 33.7734 78.6939 37.9399 83.9094 37.9399C86.3968 37.9399 88.7237 36.9784 90.4087 35.2958C90.7297 35.0153 90.9704 34.5746 90.9704 34.1339C90.9704 33.2926 90.2482 32.5715 89.4057 32.5715C88.9243 32.5715 88.483 32.8519 88.162 33.1724C87.1189 34.2942 85.5543 34.815 83.9094 34.815C80.7801 34.815 78.2526 32.6917 77.6909 29.727H91.6925C91.6925 29.727 91.6925 29.727 91.7326 29.727H91.8129C91.853 29.727 91.8931 29.727 91.9332 29.6869C91.9733 29.6869 91.9734 29.6869 92.0135 29.6869C92.6955 29.5267 93.2572 28.8857 93.2572 28.0443ZM83.9495 22.3153C86.7579 22.3153 89.1249 24.1182 89.8872 26.6421H77.9316C78.734 24.1182 81.101 22.3153 83.9495 22.3153Z" fill="white"/>
<path d="M154.64 37.8193C154.479 37.8193 154.399 37.6991 154.399 37.5789V34.9748H153.797C153.677 34.9748 153.556 34.8546 153.556 34.7344C153.556 34.5741 153.677 34.494 153.797 34.494H155.482C155.643 34.494 155.723 34.6142 155.723 34.7344C155.723 34.8946 155.602 34.9748 155.482 34.9748H154.88V37.5789C154.92 37.6991 154.8 37.8193 154.64 37.8193Z" fill="white"/>
<path d="M157.689 37.8193C157.528 37.8193 157.448 37.6991 157.448 37.619L156.726 35.4956V37.5789C156.726 37.7392 156.605 37.8193 156.485 37.8193C156.325 37.8193 156.244 37.6991 156.244 37.5789V34.8146C156.244 34.6143 156.445 34.4139 156.646 34.4139C156.806 34.4139 156.967 34.5341 157.007 34.6944L157.729 36.8578L158.451 34.6944C158.491 34.5341 158.652 34.4139 158.812 34.4139C159.013 34.4139 159.213 34.6143 159.213 34.8146V37.5789C159.213 37.7392 159.093 37.8193 158.972 37.8193C158.812 37.8193 158.732 37.6991 158.732 37.5789V35.4956C158.611 35.8161 158.451 36.337 158.29 36.7777C158.01 37.619 158.01 37.659 158.01 37.659C157.889 37.7392 157.809 37.8193 157.689 37.8193Z" fill="white"/>
</svg>
