<svg width="52" height="51" viewBox="0 0 52 51" fill="none" xmlns="http://www.w3.org/2000/svg">
<path d="M48.3637 26.015C43.1686 30.72 35.817 38.2676 26.211 38.2676C16.605 38.2676 10.3317 31.6022 4.05835 26.015C10.2336 19.9377 16.605 13.7625 26.211 13.7625C35.817 13.7625 41.6983 20.3298 48.3637 26.015Z" stroke="#FF577F" stroke-width="2.5" stroke-linecap="round" stroke-linejoin="round"/>
<path d="M48.3637 26.015C43.1686 30.72 35.817 38.2676 26.211 38.2676C16.605 38.2676 10.3317 31.6022 4.05835 26.015C10.2336 19.9377 16.605 13.7625 26.211 13.7625C35.817 13.7625 41.6983 20.3298 48.3637 26.015Z" stroke="url(#paint0_linear)" stroke-opacity="0.4" stroke-width="2.5" stroke-linecap="round" stroke-linejoin="round"/>
<path d="M25.819 38.2676C32.5859 38.2676 38.0716 32.7819 38.0716 26.015C38.0716 19.2481 32.5859 13.7625 25.819 13.7625C19.0521 13.7625 13.5664 19.2481 13.5664 26.015C13.5664 32.7819 19.0521 38.2676 25.819 38.2676Z" stroke="#FF577F" stroke-width="2.5" stroke-linecap="round" stroke-linejoin="round"/>
<path d="M25.819 38.2676C32.5859 38.2676 38.0716 32.7819 38.0716 26.015C38.0716 19.2481 32.5859 13.7625 25.819 13.7625C19.0521 13.7625 13.5664 19.2481 13.5664 26.015C13.5664 32.7819 19.0521 38.2676 25.819 38.2676Z" stroke="url(#paint1_linear)" stroke-opacity="0.4" stroke-width="2.5" stroke-linecap="round" stroke-linejoin="round"/>
<path d="M25.819 32.0923C29.1754 32.0923 31.8963 29.3714 31.8963 26.015C31.8963 22.6586 29.1754 19.9377 25.819 19.9377C22.4626 19.9377 19.7417 22.6586 19.7417 26.015C19.7417 29.3714 22.4626 32.0923 25.819 32.0923Z" stroke="#FF577F" stroke-width="2.5" stroke-linecap="round" stroke-linejoin="round"/>
<path d="M25.819 32.0923C29.1754 32.0923 31.8963 29.3714 31.8963 26.015C31.8963 22.6586 29.1754 19.9377 25.819 19.9377C22.4626 19.9377 19.7417 22.6586 19.7417 26.015C19.7417 29.3714 22.4626 32.0923 25.819 32.0923Z" stroke="url(#paint2_linear)" stroke-opacity="0.4" stroke-width="2.5" stroke-linecap="round" stroke-linejoin="round"/>
<path d="M2 17.1933V9.74375C2 5.52887 5.43072 2.09814 9.64561 2.09814H17.2912" stroke="#FF577F" stroke-width="2.5" stroke-linecap="round" stroke-linejoin="round"/>
<path d="M2 17.1933V9.74375C2 5.52887 5.43072 2.09814 9.64561 2.09814H17.2912" stroke="url(#paint3_linear)" stroke-opacity="0.4" stroke-width="2.5" stroke-linecap="round" stroke-linejoin="round"/>
<path d="M34.8369 2H42.2865C46.5014 2 49.9321 5.43072 49.9321 9.64561V17.2912" stroke="#FF577F" stroke-width="2.5" stroke-linecap="round" stroke-linejoin="round"/>
<path d="M34.8369 2H42.2865C46.5014 2 49.9321 5.43072 49.9321 9.64561V17.2912" stroke="url(#paint4_linear)" stroke-opacity="0.4" stroke-width="2.5" stroke-linecap="round" stroke-linejoin="round"/>
<path d="M49.9321 34.543V41.9925C49.9321 46.2074 46.5014 49.6381 42.2865 49.6381H34.6409" stroke="#FF577F" stroke-width="2.5" stroke-linecap="round" stroke-linejoin="round"/>
<path d="M49.9321 34.543V41.9925C49.9321 46.2074 46.5014 49.6381 42.2865 49.6381H34.6409" stroke="url(#paint5_linear)" stroke-opacity="0.4" stroke-width="2.5" stroke-linecap="round" stroke-linejoin="round"/>
<path d="M17.0952 49.7363H9.64561C5.43072 49.7363 2 46.3056 2 42.0907V34.4451" stroke="#FF577F" stroke-width="2.5" stroke-linecap="round" stroke-linejoin="round"/>
<path d="M17.0952 49.7363H9.64561C5.43072 49.7363 2 46.3056 2 42.0907V34.4451" stroke="url(#paint6_linear)" stroke-opacity="0.4" stroke-width="2.5" stroke-linecap="round" stroke-linejoin="round"/>
<path d="M48.3637 26.015C43.1686 30.72 35.817 38.2676 26.211 38.2676C16.605 38.2676 10.3317 31.6022 4.05835 26.015C10.2336 19.9377 16.605 13.7625 26.211 13.7625C35.817 13.7625 41.6983 20.3298 48.3637 26.015Z" stroke="#2453FF" stroke-width="2.5" stroke-linecap="round" stroke-linejoin="round"/>
<path d="M48.3637 26.015C43.1686 30.72 35.817 38.2676 26.211 38.2676C16.605 38.2676 10.3317 31.6022 4.05835 26.015C10.2336 19.9377 16.605 13.7625 26.211 13.7625C35.817 13.7625 41.6983 20.3298 48.3637 26.015Z" stroke="url(#paint7_linear)" stroke-opacity="0.4" stroke-width="2.5" stroke-linecap="round" stroke-linejoin="round"/>
<path d="M25.819 38.2676C32.5859 38.2676 38.0716 32.7819 38.0716 26.015C38.0716 19.2481 32.5859 13.7625 25.819 13.7625C19.0521 13.7625 13.5664 19.2481 13.5664 26.015C13.5664 32.7819 19.0521 38.2676 25.819 38.2676Z" stroke="#2453FF" stroke-width="2.5" stroke-linecap="round" stroke-linejoin="round"/>
<path d="M25.819 38.2676C32.5859 38.2676 38.0716 32.7819 38.0716 26.015C38.0716 19.2481 32.5859 13.7625 25.819 13.7625C19.0521 13.7625 13.5664 19.2481 13.5664 26.015C13.5664 32.7819 19.0521 38.2676 25.819 38.2676Z" stroke="url(#paint8_linear)" stroke-opacity="0.4" stroke-width="2.5" stroke-linecap="round" stroke-linejoin="round"/>
<path d="M25.819 32.0923C29.1754 32.0923 31.8963 29.3714 31.8963 26.015C31.8963 22.6586 29.1754 19.9377 25.819 19.9377C22.4626 19.9377 19.7417 22.6586 19.7417 26.015C19.7417 29.3714 22.4626 32.0923 25.819 32.0923Z" stroke="#FF577F" stroke-width="2.5" stroke-linecap="round" stroke-linejoin="round"/>
<path d="M25.819 32.0923C29.1754 32.0923 31.8963 29.3714 31.8963 26.015C31.8963 22.6586 29.1754 19.9377 25.819 19.9377C22.4626 19.9377 19.7417 22.6586 19.7417 26.015C19.7417 29.3714 22.4626 32.0923 25.819 32.0923Z" stroke="url(#paint9_linear)" stroke-opacity="0.4" stroke-width="2.5" stroke-linecap="round" stroke-linejoin="round"/>
<path d="M2 17.1933V9.74375C2 5.52887 5.43072 2.09814 9.64561 2.09814H17.2912" stroke="#2453FF" stroke-width="2.5" stroke-linecap="round" stroke-linejoin="round"/>
<path d="M2 17.1933V9.74375C2 5.52887 5.43072 2.09814 9.64561 2.09814H17.2912" stroke="url(#paint10_linear)" stroke-opacity="0.4" stroke-width="2.5" stroke-linecap="round" stroke-linejoin="round"/>
<path d="M34.8369 2H42.2865C46.5014 2 49.9321 5.43072 49.9321 9.64561V17.2912" stroke="#2453FF" stroke-width="2.5" stroke-linecap="round" stroke-linejoin="round"/>
<path d="M34.8369 2H42.2865C46.5014 2 49.9321 5.43072 49.9321 9.64561V17.2912" stroke="url(#paint11_linear)" stroke-opacity="0.4" stroke-width="2.5" stroke-linecap="round" stroke-linejoin="round"/>
<path d="M49.9321 34.543V41.9925C49.9321 46.2074 46.5014 49.6381 42.2865 49.6381H34.6409" stroke="#2453FF" stroke-width="2.5" stroke-linecap="round" stroke-linejoin="round"/>
<path d="M49.9321 34.543V41.9925C49.9321 46.2074 46.5014 49.6381 42.2865 49.6381H34.6409" stroke="url(#paint12_linear)" stroke-opacity="0.4" stroke-width="2.5" stroke-linecap="round" stroke-linejoin="round"/>
<path d="M17.0952 49.7363H9.64561C5.43072 49.7363 2 46.3056 2 42.0907V34.4451" stroke="#2453FF" stroke-width="2.5" stroke-linecap="round" stroke-linejoin="round"/>
<path d="M17.0952 49.7363H9.64561C5.43072 49.7363 2 46.3056 2 42.0907V34.4451" stroke="url(#paint13_linear)" stroke-opacity="0.4" stroke-width="2.5" stroke-linecap="round" stroke-linejoin="round"/>
<defs>
<linearGradient id="paint0_linear" x1="10.1169" y1="36.5642" x2="20.454" y2="8.11373" gradientUnits="userSpaceOnUse">
<stop stop-color="white"/>
<stop offset="1" stop-color="white" stop-opacity="0"/>
</linearGradient>
<linearGradient id="paint1_linear" x1="16.9174" y1="36.5642" x2="31.6965" y2="14.0665" gradientUnits="userSpaceOnUse">
<stop stop-color="white"/>
<stop offset="1" stop-color="white" stop-opacity="0"/>
</linearGradient>
<linearGradient id="paint2_linear" x1="21.4038" y1="31.2474" x2="28.7342" y2="20.0885" gradientUnits="userSpaceOnUse">
<stop stop-color="white"/>
<stop offset="1" stop-color="white" stop-opacity="0"/>
</linearGradient>
<linearGradient id="paint3_linear" x1="4.091" y1="16.144" x2="13.1478" y2="2.17816" gradientUnits="userSpaceOnUse">
<stop stop-color="white"/>
<stop offset="1" stop-color="white" stop-opacity="0"/>
</linearGradient>
<linearGradient id="paint4_linear" x1="36.9011" y1="16.2283" x2="46.17" y2="2.29948" gradientUnits="userSpaceOnUse">
<stop stop-color="white"/>
<stop offset="1" stop-color="white" stop-opacity="0"/>
</linearGradient>
<linearGradient id="paint5_linear" x1="36.7319" y1="48.5889" x2="45.7886" y2="34.623" gradientUnits="userSpaceOnUse">
<stop stop-color="white"/>
<stop offset="1" stop-color="white" stop-opacity="0"/>
</linearGradient>
<linearGradient id="paint6_linear" x1="4.06419" y1="48.6734" x2="13.3331" y2="34.7445" gradientUnits="userSpaceOnUse">
<stop stop-color="white"/>
<stop offset="1" stop-color="white" stop-opacity="0"/>
</linearGradient>
<linearGradient id="paint7_linear" x1="10.1169" y1="36.5642" x2="20.454" y2="8.11373" gradientUnits="userSpaceOnUse">
<stop stop-color="white"/>
<stop offset="1" stop-color="white" stop-opacity="0"/>
</linearGradient>
<linearGradient id="paint8_linear" x1="16.9174" y1="36.5642" x2="31.6965" y2="14.0665" gradientUnits="userSpaceOnUse">
<stop stop-color="white"/>
<stop offset="1" stop-color="white" stop-opacity="0"/>
</linearGradient>
<linearGradient id="paint9_linear" x1="21.4038" y1="31.2474" x2="28.7342" y2="20.0885" gradientUnits="userSpaceOnUse">
<stop stop-color="white"/>
<stop offset="1" stop-color="white" stop-opacity="0"/>
</linearGradient>
<linearGradient id="paint10_linear" x1="4.091" y1="16.144" x2="13.1478" y2="2.17816" gradientUnits="userSpaceOnUse">
<stop stop-color="white"/>
<stop offset="1" stop-color="white" stop-opacity="0"/>
</linearGradient>
<linearGradient id="paint11_linear" x1="36.9011" y1="16.2283" x2="46.17" y2="2.29948" gradientUnits="userSpaceOnUse">
<stop stop-color="white"/>
<stop offset="1" stop-color="white" stop-opacity="0"/>
</linearGradient>
<linearGradient id="paint12_linear" x1="36.7319" y1="48.5889" x2="45.7886" y2="34.623" gradientUnits="userSpaceOnUse">
<stop stop-color="white"/>
<stop offset="1" stop-color="white" stop-opacity="0"/>
</linearGradient>
<linearGradient id="paint13_linear" x1="4.06419" y1="48.6734" x2="13.3331" y2="34.7445" gradientUnits="userSpaceOnUse">
<stop stop-color="white"/>
<stop offset="1" stop-color="white" stop-opacity="0"/>
</linearGradient>
</defs>
</svg>
