<svg width="53" height="48" viewBox="0 0 53 48" fill="none" xmlns="http://www.w3.org/2000/svg">
<path d="M47.2477 40.1956H5.62373C3.66496 40.1956 2 38.5307 2 36.5719V11.7934C2 9.83464 3.66496 8.16968 5.62373 8.16968H47.2477C49.2064 8.16968 50.8714 9.83464 50.8714 11.7934V36.6698C50.8714 38.6286 49.2064 40.1956 47.2477 40.1956Z" stroke="#2453FF" stroke-width="2.5" stroke-linecap="round" stroke-linejoin="round"/>
<path d="M47.2477 40.1956H5.62373C3.66496 40.1956 2 38.5307 2 36.5719V11.7934C2 9.83464 3.66496 8.16968 5.62373 8.16968H47.2477C49.2064 8.16968 50.8714 9.83464 50.8714 11.7934V36.6698C50.8714 38.6286 49.2064 40.1956 47.2477 40.1956Z" stroke="url(#paint0_linear)" stroke-opacity="0.4" stroke-width="2.5" stroke-linecap="round" stroke-linejoin="round"/>
<path d="M5.42773 2H47.1496" stroke="#FF577F" stroke-width="2.5" stroke-linecap="round" stroke-linejoin="round"/>
<path d="M5.42773 2H47.1496" stroke="url(#paint1_linear)" stroke-opacity="0.4" stroke-width="2.5" stroke-linecap="round" stroke-linejoin="round"/>
<path d="M5.42773 46.3662H47.1496" stroke="#FF577F" stroke-width="2.5" stroke-linecap="round" stroke-linejoin="round"/>
<path d="M5.42773 46.3662H47.1496" stroke="url(#paint2_linear)" stroke-opacity="0.4" stroke-width="2.5" stroke-linecap="round" stroke-linejoin="round"/>
<path d="M15.3201 27.366L10.4231 30.5001C9.93343 30.7939 9.73755 31.2836 9.73755 31.8712V32.6547C9.73755 33.5362 10.4231 34.2217 11.3046 34.2217H25.7995C26.6809 34.2217 27.3665 33.5362 27.3665 32.6547V31.8712C27.3665 31.3815 27.0727 30.7939 26.6809 30.5001L21.6861 27.1702" stroke="#FF577F" stroke-width="2.5" stroke-linecap="round" stroke-linejoin="round"/>
<path d="M15.3201 27.366L10.4231 30.5001C9.93343 30.7939 9.73755 31.2836 9.73755 31.8712V32.6547C9.73755 33.5362 10.4231 34.2217 11.3046 34.2217H25.7995C26.6809 34.2217 27.3665 33.5362 27.3665 32.6547V31.8712C27.3665 31.3815 27.0727 30.7939 26.6809 30.5001L21.6861 27.1702" stroke="url(#paint3_linear)" stroke-opacity="0.4" stroke-width="2.5" stroke-linecap="round" stroke-linejoin="round"/>
<path d="M18.3559 28.2479C15.4177 28.2479 12.9692 25.8974 12.9692 22.8613V19.6293C12.9692 16.6911 15.3198 14.2427 18.3559 14.2427C21.294 14.2427 23.7425 16.5932 23.7425 19.6293V22.8613C23.7425 25.7994 21.392 28.2479 18.3559 28.2479Z" stroke="#2453FF" stroke-width="2.5" stroke-linecap="round" stroke-linejoin="round"/>
<path d="M18.3559 28.2479C15.4177 28.2479 12.9692 25.8974 12.9692 22.8613V19.6293C12.9692 16.6911 15.3198 14.2427 18.3559 14.2427C21.294 14.2427 23.7425 16.5932 23.7425 19.6293V22.8613C23.7425 25.7994 21.392 28.2479 18.3559 28.2479Z" stroke="url(#paint4_linear)" stroke-opacity="0.4" stroke-width="2.5" stroke-linecap="round" stroke-linejoin="round"/>
<path d="M33.7322 18.1602H44.3096" stroke="#FF577F" stroke-width="2.5" stroke-linecap="round" stroke-linejoin="round"/>
<path d="M33.7322 18.1602H44.3096" stroke="url(#paint5_linear)" stroke-opacity="0.4" stroke-width="2.5" stroke-linecap="round" stroke-linejoin="round"/>
<path d="M33.7322 24.9177H44.3096" stroke="#FF577F" stroke-width="2.5" stroke-linecap="round" stroke-linejoin="round"/>
<path d="M33.7322 24.9177H44.3096" stroke="url(#paint6_linear)" stroke-opacity="0.4" stroke-width="2.5" stroke-linecap="round" stroke-linejoin="round"/>
<path d="M33.7322 31.7732H44.3096" stroke="#FF577F" stroke-width="2.5" stroke-linecap="round" stroke-linejoin="round"/>
<path d="M33.7322 31.7732H44.3096" stroke="url(#paint7_linear)" stroke-opacity="0.4" stroke-width="2.5" stroke-linecap="round" stroke-linejoin="round"/>
<defs>
<linearGradient id="paint0_linear" x1="8.68293" y1="37.9695" x2="23.9695" y2="2.45933" gradientUnits="userSpaceOnUse">
<stop stop-color="white"/>
<stop offset="1" stop-color="white" stop-opacity="0"/>
</linearGradient>
<linearGradient id="paint1_linear" x1="11.133" y1="2.93049" x2="40.5578" y2="2.1142" gradientUnits="userSpaceOnUse">
<stop stop-color="white"/>
<stop offset="1" stop-color="white" stop-opacity="0"/>
</linearGradient>
<linearGradient id="paint2_linear" x1="11.133" y1="47.2967" x2="40.5578" y2="46.4804" gradientUnits="userSpaceOnUse">
<stop stop-color="white"/>
<stop offset="1" stop-color="white" stop-opacity="0"/>
</linearGradient>
<linearGradient id="paint3_linear" x1="12.1482" y1="33.7316" x2="14.4262" y2="25.0625" gradientUnits="userSpaceOnUse">
<stop stop-color="white"/>
<stop offset="1" stop-color="white" stop-opacity="0"/>
</linearGradient>
<linearGradient id="paint4_linear" x1="14.4424" y1="27.2744" x2="23.5323" y2="16.6304" gradientUnits="userSpaceOnUse">
<stop stop-color="white"/>
<stop offset="1" stop-color="white" stop-opacity="0"/>
</linearGradient>
<linearGradient id="paint5_linear" x1="32.658" y1="18.1602" x2="45.8575" y2="18.1602" gradientUnits="userSpaceOnUse">
<stop stop-color="white"/>
<stop offset="1" stop-color="white" stop-opacity="0"/>
</linearGradient>
<linearGradient id="paint6_linear" x1="32.658" y1="24.9177" x2="45.8575" y2="24.9177" gradientUnits="userSpaceOnUse">
<stop stop-color="white"/>
<stop offset="1" stop-color="white" stop-opacity="0"/>
</linearGradient>
<linearGradient id="paint7_linear" x1="32.658" y1="31.7732" x2="45.8575" y2="31.7732" gradientUnits="userSpaceOnUse">
<stop stop-color="white"/>
<stop offset="1" stop-color="white" stop-opacity="0"/>
</linearGradient>
</defs>
</svg>
