<svg width="50" height="51" viewBox="0 0 50 51" fill="none" xmlns="http://www.w3.org/2000/svg">
<path d="M22.2625 42.525C33.4532 42.525 42.525 33.4532 42.525 22.2625C42.525 11.0718 33.4532 2 22.2625 2C11.0718 2 2 11.0718 2 22.2625C2 33.4532 11.0718 42.525 22.2625 42.525Z" stroke="#2453FF" stroke-width="2.5" stroke-linecap="round" stroke-linejoin="round"/>
<path d="M22.2625 42.525C33.4532 42.525 42.525 33.4532 42.525 22.2625C42.525 11.0718 33.4532 2 22.2625 2C11.0718 2 2 11.0718 2 22.2625C2 33.4532 11.0718 42.525 22.2625 42.525Z" stroke="url(#paint0_linear)" stroke-opacity="0.4" stroke-width="2.5" stroke-linecap="round" stroke-linejoin="round"/>
<path d="M38.6133 34.467L47.6884 43.4639C48.9401 44.7156 48.9401 46.6715 47.6884 47.9232C46.4366 49.175 44.4808 49.175 43.229 47.9232L34.2322 38.9264" stroke="#2453FF" stroke-width="2.5" stroke-linecap="round" stroke-linejoin="round"/>
<path d="M38.6133 34.467L47.6884 43.4639C48.9401 44.7156 48.9401 46.6715 47.6884 47.9232C46.4366 49.175 44.4808 49.175 43.229 47.9232L34.2322 38.9264" stroke="url(#paint1_linear)" stroke-opacity="0.4" stroke-width="2.5" stroke-linecap="round" stroke-linejoin="round"/>
<path d="M13.3438 30.8679L31.3375 12.7959" stroke="#FF577F" stroke-width="2.5" stroke-linecap="round" stroke-linejoin="round"/>
<path d="M13.3438 30.8679L31.3375 12.7959" stroke="url(#paint2_linear)" stroke-opacity="0.4" stroke-width="2.5" stroke-linecap="round" stroke-linejoin="round"/>
<path d="M13.3438 12.7959L31.3375 30.8679" stroke="#FF577F" stroke-width="2.5" stroke-linecap="round" stroke-linejoin="round"/>
<path d="M13.3438 12.7959L31.3375 30.8679" stroke="url(#paint3_linear)" stroke-opacity="0.4" stroke-width="2.5" stroke-linecap="round" stroke-linejoin="round"/>
<defs>
<linearGradient id="paint0_linear" x1="7.5416" y1="39.7081" x2="31.9823" y2="2.50277" gradientUnits="userSpaceOnUse">
<stop stop-color="white"/>
<stop offset="1" stop-color="white" stop-opacity="0"/>
</linearGradient>
<linearGradient id="paint1_linear" x1="36.2006" y1="47.8614" x2="44.8823" y2="34.6456" gradientUnits="userSpaceOnUse">
<stop stop-color="white"/>
<stop offset="1" stop-color="white" stop-opacity="0"/>
</linearGradient>
<linearGradient id="paint2_linear" x1="15.8043" y1="29.6117" x2="26.7223" y2="13.0636" gradientUnits="userSpaceOnUse">
<stop stop-color="white"/>
<stop offset="1" stop-color="white" stop-opacity="0"/>
</linearGradient>
<linearGradient id="paint3_linear" x1="15.8043" y1="29.6117" x2="26.7223" y2="13.0636" gradientUnits="userSpaceOnUse">
<stop stop-color="white"/>
<stop offset="1" stop-color="white" stop-opacity="0"/>
</linearGradient>
</defs>
</svg>
