<svg width="63" height="63" viewBox="0 0 63 63" fill="none" xmlns="http://www.w3.org/2000/svg">
<circle cx="31.5" cy="31.5" r="31.5" fill="white"/>
<path d="M16.9094 34.2985L16.9094 42.0119M24.1064 28.9391V42.0119M31.3034 29.2453V42.0119M38.5006 32.6141V42.0119M45.6974 24.9578V42.0119" stroke="#FF577F" stroke-width="1.8" stroke-miterlimit="10" stroke-linecap="round" stroke-linejoin="round"/>
<path d="M16.9094 34.2985L16.9094 42.0119M24.1064 28.9391V42.0119M31.3034 29.2453V42.0119M38.5006 32.6141V42.0119M45.6974 24.9578V42.0119" stroke="url(#paint0_linear)" stroke-opacity="0.4" stroke-width="1.8" stroke-miterlimit="10" stroke-linecap="round" stroke-linejoin="round"/>
<path d="M16.3245 45.783H45.9764" stroke="#2453FF" stroke-width="1.8" stroke-miterlimit="10" stroke-linecap="round" stroke-linejoin="bevel"/>
<path d="M16.3245 45.783H45.9764" stroke="url(#paint1_linear)" stroke-opacity="0.4" stroke-width="1.8" stroke-miterlimit="10" stroke-linecap="round" stroke-linejoin="bevel"/>
<path d="M19.0532 26.9482L24.4127 22.9668M29.1596 22.2012L34.9785 25.1106M38.9598 23.8856L44.013 18.8324" stroke="#2453FF" stroke-width="1.8" stroke-miterlimit="10" stroke-linecap="round" stroke-linejoin="bevel"/>
<path d="M19.0532 26.9482L24.4127 22.9668M29.1596 22.2012L34.9785 25.1106M38.9598 23.8856L44.013 18.8324" stroke="url(#paint2_linear)" stroke-opacity="0.4" stroke-width="1.8" stroke-miterlimit="10" stroke-linecap="round" stroke-linejoin="bevel"/>
<path d="M16.9888 30.6289C18.2166 30.6289 19.212 29.6335 19.212 28.4057C19.212 27.1778 18.2166 26.1825 16.9888 26.1825C15.761 26.1825 14.7656 27.1778 14.7656 28.4057C14.7656 29.6335 15.761 30.6289 16.9888 30.6289Z" stroke="#FF577F" stroke-width="1.8" stroke-miterlimit="10" stroke-linecap="round" stroke-linejoin="round"/>
<path d="M16.9888 30.6289C18.2166 30.6289 19.212 29.6335 19.212 28.4057C19.212 27.1778 18.2166 26.1825 16.9888 26.1825C15.761 26.1825 14.7656 27.1778 14.7656 28.4057C14.7656 29.6335 15.761 30.6289 16.9888 30.6289Z" stroke="url(#paint3_linear)" stroke-opacity="0.4" stroke-width="1.8" stroke-miterlimit="10" stroke-linecap="round" stroke-linejoin="round"/>
<path d="M26.7891 23.8911C28.0169 23.8911 29.0123 22.8957 29.0123 21.6679C29.0123 20.4401 28.0169 19.4447 26.7891 19.4447C25.5613 19.4447 24.5659 20.4401 24.5659 21.6679C24.5659 22.8957 25.5613 23.8911 26.7891 23.8911Z" stroke="#FF577F" stroke-width="1.8" stroke-miterlimit="10" stroke-linecap="round" stroke-linejoin="round"/>
<path d="M26.7891 23.8911C28.0169 23.8911 29.0123 22.8957 29.0123 21.6679C29.0123 20.4401 28.0169 19.4447 26.7891 19.4447C25.5613 19.4447 24.5659 20.4401 24.5659 21.6679C24.5659 22.8957 25.5613 23.8911 26.7891 23.8911Z" stroke="url(#paint4_linear)" stroke-opacity="0.4" stroke-width="1.8" stroke-miterlimit="10" stroke-linecap="round" stroke-linejoin="round"/>
<path d="M37.2017 28.1794C38.4295 28.1794 39.4249 27.184 39.4249 25.9562C39.4249 24.7284 38.4295 23.733 37.2017 23.733C35.9739 23.733 34.9785 24.7284 34.9785 25.9562C34.9785 27.184 35.9739 28.1794 37.2017 28.1794Z" stroke="#FF577F" stroke-width="1.8" stroke-miterlimit="10" stroke-linecap="round" stroke-linejoin="round"/>
<path d="M37.2017 28.1794C38.4295 28.1794 39.4249 27.184 39.4249 25.9562C39.4249 24.7284 38.4295 23.733 37.2017 23.733C35.9739 23.733 34.9785 24.7284 34.9785 25.9562C34.9785 27.184 35.9739 28.1794 37.2017 28.1794Z" stroke="url(#paint5_linear)" stroke-opacity="0.4" stroke-width="1.8" stroke-miterlimit="10" stroke-linecap="round" stroke-linejoin="round"/>
<path d="M45.7769 19.2974C47.0047 19.2974 48.0001 18.3021 48.0001 17.0743C48.0001 15.8464 47.0047 14.8511 45.7769 14.8511C44.5491 14.8511 43.5537 15.8464 43.5537 17.0743C43.5537 18.3021 44.5491 19.2974 45.7769 19.2974Z" stroke="#FF577F" stroke-width="1.8" stroke-miterlimit="10" stroke-linecap="round" stroke-linejoin="round"/>
<path d="M45.7769 19.2974C47.0047 19.2974 48.0001 18.3021 48.0001 17.0743C48.0001 15.8464 47.0047 14.8511 45.7769 14.8511C44.5491 14.8511 43.5537 15.8464 43.5537 17.0743C43.5537 18.3021 44.5491 19.2974 45.7769 19.2974Z" stroke="url(#paint6_linear)" stroke-opacity="0.4" stroke-width="1.8" stroke-miterlimit="10" stroke-linecap="round" stroke-linejoin="round"/>
<defs>
<linearGradient id="paint0_linear" x1="45.7393" y1="39.9128" x2="45.7847" y2="35.4767" gradientUnits="userSpaceOnUse">
<stop stop-color="white"/>
<stop offset="1" stop-color="white" stop-opacity="0"/>
</linearGradient>
<linearGradient id="paint1_linear" x1="20.3792" y1="46.7134" x2="48.4952" y2="46.1708" gradientUnits="userSpaceOnUse">
<stop stop-color="white"/>
<stop offset="1" stop-color="white" stop-opacity="0"/>
</linearGradient>
<linearGradient id="paint2_linear" x1="22.4664" y1="26.384" x2="46.1419" y2="26.3366" gradientUnits="userSpaceOnUse">
<stop stop-color="white"/>
<stop offset="1" stop-color="white" stop-opacity="0"/>
</linearGradient>
<linearGradient id="paint3_linear" x1="15.3736" y1="30.3198" x2="18.0553" y2="26.2377" gradientUnits="userSpaceOnUse">
<stop stop-color="white"/>
<stop offset="1" stop-color="white" stop-opacity="0"/>
</linearGradient>
<linearGradient id="paint4_linear" x1="25.1739" y1="23.582" x2="27.8555" y2="19.4999" gradientUnits="userSpaceOnUse">
<stop stop-color="white"/>
<stop offset="1" stop-color="white" stop-opacity="0"/>
</linearGradient>
<linearGradient id="paint5_linear" x1="35.5865" y1="27.8703" x2="38.2681" y2="23.7882" gradientUnits="userSpaceOnUse">
<stop stop-color="white"/>
<stop offset="1" stop-color="white" stop-opacity="0"/>
</linearGradient>
<linearGradient id="paint6_linear" x1="44.1617" y1="18.9884" x2="46.8433" y2="14.9062" gradientUnits="userSpaceOnUse">
<stop stop-color="white"/>
<stop offset="1" stop-color="white" stop-opacity="0"/>
</linearGradient>
</defs>
</svg>
