<svg width="63" height="63" viewBox="0 0 63 63" fill="none" xmlns="http://www.w3.org/2000/svg">
<circle cx="31.5" cy="31.5" r="31.5" fill="white"/>
<path d="M14 31.7915H22.99" stroke="#FF577F" stroke-width="1.8" stroke-linecap="round" stroke-linejoin="round"/>
<path d="M14 31.7915H22.99" stroke="url(#paint0_linear)" stroke-opacity="0.4" stroke-width="1.8" stroke-linecap="round" stroke-linejoin="round"/>
<path d="M43.3591 18.2122L40.6559 21.8585C38.3298 19.7838 35.2493 18.5265 31.8544 18.5265C28.4596 18.5265 25.3791 19.7838 23.053 21.8585L20.2869 18.2122" stroke="#2453FF" stroke-width="1.8" stroke-linecap="round" stroke-linejoin="round"/>
<path d="M43.3591 18.2122L40.6559 21.8585C38.3298 19.7838 35.2493 18.5265 31.8544 18.5265C28.4596 18.5265 25.3791 19.7838 23.053 21.8585L20.2869 18.2122" stroke="url(#paint1_linear)" stroke-opacity="0.4" stroke-width="1.8" stroke-linecap="round" stroke-linejoin="round"/>
<path d="M40.593 31.7915H49.583" stroke="#FF577F" stroke-width="1.8" stroke-linecap="round" stroke-linejoin="round"/>
<path d="M40.593 31.7915H49.583" stroke="url(#paint2_linear)" stroke-opacity="0.4" stroke-width="1.8" stroke-linecap="round" stroke-linejoin="round"/>
<path d="M31.7916 40.5932C36.6525 40.5932 40.5931 36.6527 40.5931 31.7918C40.5931 26.9309 36.6525 22.9904 31.7916 22.9904C26.9308 22.9904 22.9902 26.9309 22.9902 31.7918C22.9902 36.6527 26.9308 40.5932 31.7916 40.5932Z" stroke="#FF577F" stroke-width="1.8" stroke-linecap="round" stroke-linejoin="round"/>
<path d="M31.7916 40.5932C36.6525 40.5932 40.5931 36.6527 40.5931 31.7918C40.5931 26.9309 36.6525 22.9904 31.7916 22.9904C26.9308 22.9904 22.9902 26.9309 22.9902 31.7918C22.9902 36.6527 26.9308 40.5932 31.7916 40.5932Z" stroke="url(#paint3_linear)" stroke-opacity="0.4" stroke-width="1.8" stroke-linecap="round" stroke-linejoin="round"/>
<path d="M31.7914 36.5068C33.3539 36.5068 34.6205 35.2402 34.6205 33.6778C34.6205 32.1154 33.3539 30.8488 31.7914 30.8488C30.229 30.8488 28.9624 32.1154 28.9624 33.6778C28.9624 35.2402 30.229 36.5068 31.7914 36.5068Z" stroke="#2453FF" stroke-width="1.8" stroke-linecap="round" stroke-linejoin="round"/>
<path d="M31.7914 36.5068C33.3539 36.5068 34.6205 35.2402 34.6205 33.6778C34.6205 32.1154 33.3539 30.8488 31.7914 30.8488C30.229 30.8488 28.9624 32.1154 28.9624 33.6778C28.9624 35.2402 30.229 36.5068 31.7914 36.5068Z" stroke="url(#paint4_linear)" stroke-opacity="0.4" stroke-width="1.8" stroke-linecap="round" stroke-linejoin="round"/>
<path d="M38.5185 47.7598C37.2612 45.308 34.6836 43.6735 31.7917 43.6735C28.837 43.6735 26.3223 45.3709 25.0649 47.7598" stroke="#2453FF" stroke-width="1.8" stroke-linecap="round" stroke-linejoin="round"/>
<path d="M38.5185 47.7598C37.2612 45.308 34.6836 43.6735 31.7917 43.6735C28.837 43.6735 26.3223 45.3709 25.0649 47.7598" stroke="url(#paint5_linear)" stroke-opacity="0.4" stroke-width="1.8" stroke-linecap="round" stroke-linejoin="round"/>
<path d="M31.7914 49.5829C41.6174 49.5829 49.5829 41.6174 49.5829 31.7914C49.5829 21.9655 41.6174 14 31.7914 14C21.9655 14 14 21.9655 14 31.7914C14 41.6174 21.9655 49.5829 31.7914 49.5829Z" stroke="#2453FF" stroke-width="1.8" stroke-linecap="round" stroke-linejoin="round"/>
<path d="M31.7914 49.5829C41.6174 49.5829 49.5829 41.6174 49.5829 31.7914C49.5829 21.9655 41.6174 14 31.7914 14C21.9655 14 14 21.9655 14 31.7914C14 41.6174 21.9655 49.5829 31.7914 49.5829Z" stroke="url(#paint6_linear)" stroke-opacity="0.4" stroke-width="1.8" stroke-linecap="round" stroke-linejoin="round"/>
<path d="M27.6423 28.7113H27.0137V29.34H27.6423V28.7113Z" fill="#2453FF"/>
<path d="M27.6423 28.7113H27.0137V29.34H27.6423V28.7113Z" stroke="#2453FF" stroke-width="1.8" stroke-linecap="round" stroke-linejoin="round"/>
<path d="M27.6423 28.7113H27.0137V29.34H27.6423V28.7113Z" stroke="url(#paint7_linear)" stroke-opacity="0.4" stroke-width="1.8" stroke-linecap="round" stroke-linejoin="round"/>
<path d="M31.9172 26.4479H31.2886V27.0765H31.9172V26.4479Z" fill="#2453FF"/>
<path d="M31.9172 26.4479H31.2886V27.0765H31.9172V26.4479Z" stroke="#2453FF" stroke-width="1.8" stroke-linecap="round" stroke-linejoin="round"/>
<path d="M31.9172 26.4479H31.2886V27.0765H31.9172V26.4479Z" stroke="url(#paint8_linear)" stroke-opacity="0.4" stroke-width="1.8" stroke-linecap="round" stroke-linejoin="round"/>
<path d="M36.2551 28.7113H35.6265V29.34H36.2551V28.7113Z" fill="#2453FF"/>
<path d="M36.2551 28.7113H35.6265V29.34H36.2551V28.7113Z" stroke="#2453FF" stroke-width="1.8" stroke-linecap="round" stroke-linejoin="round"/>
<path d="M36.2551 28.7113H35.6265V29.34H36.2551V28.7113Z" stroke="url(#paint9_linear)" stroke-opacity="0.4" stroke-width="1.8" stroke-linecap="round" stroke-linejoin="round"/>
<defs>
<linearGradient id="paint0_linear" x1="14.7368" y1="31.7915" x2="22.3439" y2="31.7915" gradientUnits="userSpaceOnUse">
<stop stop-color="white"/>
<stop offset="1" stop-color="white" stop-opacity="0"/>
</linearGradient>
<linearGradient id="paint1_linear" x1="23.4419" y1="21.605" x2="23.9341" y2="16.8639" gradientUnits="userSpaceOnUse">
<stop stop-color="white"/>
<stop offset="1" stop-color="white" stop-opacity="0"/>
</linearGradient>
<linearGradient id="paint2_linear" x1="41.3298" y1="31.7915" x2="48.9369" y2="31.7915" gradientUnits="userSpaceOnUse">
<stop stop-color="white"/>
<stop offset="1" stop-color="white" stop-opacity="0"/>
</linearGradient>
<linearGradient id="paint3_linear" x1="24.4329" y1="22.9904" x2="39.3279" y2="22.9904" gradientUnits="userSpaceOnUse">
<stop stop-color="white"/>
<stop offset="1" stop-color="white" stop-opacity="0"/>
</linearGradient>
<linearGradient id="paint4_linear" x1="29.7361" y1="36.1135" x2="33.1485" y2="30.919" gradientUnits="userSpaceOnUse">
<stop stop-color="white"/>
<stop offset="1" stop-color="white" stop-opacity="0"/>
</linearGradient>
<linearGradient id="paint5_linear" x1="26.9047" y1="47.4758" x2="27.9352" y2="42.3108" gradientUnits="userSpaceOnUse">
<stop stop-color="white"/>
<stop offset="1" stop-color="white" stop-opacity="0"/>
</linearGradient>
<linearGradient id="paint6_linear" x1="18.8658" y1="47.1095" x2="40.3259" y2="14.4415" gradientUnits="userSpaceOnUse">
<stop stop-color="white"/>
<stop offset="1" stop-color="white" stop-opacity="0"/>
</linearGradient>
<linearGradient id="paint7_linear" x1="25.8549" y1="30.1049" x2="28.8838" y2="27.5248" gradientUnits="userSpaceOnUse">
<stop stop-color="white"/>
<stop offset="1" stop-color="white" stop-opacity="0"/>
</linearGradient>
<linearGradient id="paint8_linear" x1="30.1298" y1="27.8415" x2="33.1587" y2="25.2614" gradientUnits="userSpaceOnUse">
<stop stop-color="white"/>
<stop offset="1" stop-color="white" stop-opacity="0"/>
</linearGradient>
<linearGradient id="paint9_linear" x1="34.4677" y1="30.1049" x2="37.4966" y2="27.5248" gradientUnits="userSpaceOnUse">
<stop stop-color="white"/>
<stop offset="1" stop-color="white" stop-opacity="0"/>
</linearGradient>
</defs>
</svg>
