<svg width="63" height="63" viewBox="0 0 63 63" fill="none" xmlns="http://www.w3.org/2000/svg">
<circle cx="31.5" cy="31.5" r="31.5" fill="white"/>
<path d="M20.6365 40.2836V38.6074C20.6365 34.455 23.9672 31.068 28.0927 31.068H34.4892C38.5958 31.068 41.9454 27.7001 41.9454 23.5286V13.999" stroke="#2453FF" stroke-width="1.8" stroke-miterlimit="10" stroke-linecap="round" stroke-linejoin="round"/>
<path d="M20.6365 40.2836V38.6074C20.6365 34.455 23.9672 31.068 28.0927 31.068H34.4892C38.5958 31.068 41.9454 27.7001 41.9454 23.5286V13.999" stroke="url(#paint0_linear)" stroke-opacity="0.4" stroke-width="1.8" stroke-miterlimit="10" stroke-linecap="round" stroke-linejoin="round"/>
<path d="M36.9502 40.1818L46.1664 49.5008" stroke="#FF577F" stroke-width="1.8" stroke-miterlimit="10" stroke-linecap="round" stroke-linejoin="round"/>
<path d="M36.9502 40.1818L46.1664 49.5008" stroke="url(#paint1_linear)" stroke-opacity="0.4" stroke-width="1.8" stroke-miterlimit="10" stroke-linecap="round" stroke-linejoin="round"/>
<path d="M36.97 49.4821L46.1483 40.2013" stroke="#FF577F" stroke-width="1.8" stroke-miterlimit="10" stroke-linecap="round" stroke-linejoin="round"/>
<path d="M36.97 49.4821L46.1483 40.2013" stroke="url(#paint2_linear)" stroke-opacity="0.4" stroke-width="1.8" stroke-miterlimit="10" stroke-linecap="round" stroke-linejoin="round"/>
<path d="M36.9502 40.1818L46.1664 49.5008" stroke="#FF577F" stroke-width="1.8" stroke-miterlimit="10" stroke-linecap="round" stroke-linejoin="round"/>
<path d="M36.9502 40.1818L46.1664 49.5008" stroke="url(#paint3_linear)" stroke-opacity="0.4" stroke-width="1.8" stroke-miterlimit="10" stroke-linecap="round" stroke-linejoin="round"/>
<path d="M36.97 49.4821L46.1483 40.2013" stroke="#FF577F" stroke-width="1.8" stroke-miterlimit="10" stroke-linecap="round" stroke-linejoin="round"/>
<path d="M36.97 49.4821L46.1483 40.2013" stroke="url(#paint4_linear)" stroke-opacity="0.4" stroke-width="1.8" stroke-miterlimit="10" stroke-linecap="round" stroke-linejoin="round"/>
<path d="M16.228 15.2429L25.4442 24.562" stroke="#FF577F" stroke-width="1.8" stroke-miterlimit="10" stroke-linecap="round" stroke-linejoin="round"/>
<path d="M16.228 15.2429L25.4442 24.562" stroke="url(#paint5_linear)" stroke-opacity="0.4" stroke-width="1.8" stroke-miterlimit="10" stroke-linecap="round" stroke-linejoin="round"/>
<path d="M16.2473 24.5422L25.4257 15.2423" stroke="#FF577F" stroke-width="1.8" stroke-miterlimit="10" stroke-linecap="round" stroke-linejoin="round"/>
<path d="M16.2473 24.5422L25.4257 15.2423" stroke="url(#paint6_linear)" stroke-opacity="0.4" stroke-width="1.8" stroke-miterlimit="10" stroke-linecap="round" stroke-linejoin="round"/>
<path d="M16.228 15.2429L25.4442 24.562" stroke="#FF577F" stroke-width="1.8" stroke-miterlimit="10" stroke-linecap="round" stroke-linejoin="round"/>
<path d="M16.228 15.2429L25.4442 24.562" stroke="url(#paint7_linear)" stroke-opacity="0.4" stroke-width="1.8" stroke-miterlimit="10" stroke-linecap="round" stroke-linejoin="round"/>
<path d="M16.2473 24.5422L25.4257 15.2423" stroke="#FF577F" stroke-width="1.8" stroke-miterlimit="10" stroke-linecap="round" stroke-linejoin="round"/>
<path d="M16.2473 24.5422L25.4257 15.2423" stroke="url(#paint8_linear)" stroke-opacity="0.4" stroke-width="1.8" stroke-miterlimit="10" stroke-linecap="round" stroke-linejoin="round"/>
<path d="M35.8503 20.1416L41.9251 13.999L47.9999 20.1416" stroke="#2453FF" stroke-width="1.8" stroke-miterlimit="10" stroke-linecap="round" stroke-linejoin="round"/>
<path d="M35.8503 20.1416L41.9251 13.999L47.9999 20.1416" stroke="url(#paint9_linear)" stroke-opacity="0.4" stroke-width="1.8" stroke-miterlimit="10" stroke-linecap="round" stroke-linejoin="round"/>
<path d="M20.6355 49.942C23.1962 49.942 25.272 47.843 25.272 45.2537C25.272 42.6645 23.1962 40.5655 20.6355 40.5655C18.0749 40.5655 15.999 42.6645 15.999 45.2537C15.999 47.843 18.0749 49.942 20.6355 49.942Z" stroke="#2453FF" stroke-width="1.8" stroke-miterlimit="10" stroke-linecap="round" stroke-linejoin="round"/>
<path d="M20.6355 49.942C23.1962 49.942 25.272 47.843 25.272 45.2537C25.272 42.6645 23.1962 40.5655 20.6355 40.5655C18.0749 40.5655 15.999 42.6645 15.999 45.2537C15.999 47.843 18.0749 49.942 20.6355 49.942Z" stroke="url(#paint10_linear)" stroke-opacity="0.4" stroke-width="1.8" stroke-miterlimit="10" stroke-linecap="round" stroke-linejoin="round"/>
<defs>
<linearGradient id="paint0_linear" x1="23.5504" y1="38.4566" x2="40.4477" y2="17.6035" gradientUnits="userSpaceOnUse">
<stop stop-color="white"/>
<stop offset="1" stop-color="white" stop-opacity="0"/>
</linearGradient>
<linearGradient id="paint1_linear" x1="38.2105" y1="48.853" x2="43.8553" y2="40.3549" gradientUnits="userSpaceOnUse">
<stop stop-color="white"/>
<stop offset="1" stop-color="white" stop-opacity="0"/>
</linearGradient>
<linearGradient id="paint2_linear" x1="38.2251" y1="48.837" x2="43.8468" y2="40.3737" gradientUnits="userSpaceOnUse">
<stop stop-color="white"/>
<stop offset="1" stop-color="white" stop-opacity="0"/>
</linearGradient>
<linearGradient id="paint3_linear" x1="38.2105" y1="48.853" x2="43.8553" y2="40.3549" gradientUnits="userSpaceOnUse">
<stop stop-color="white"/>
<stop offset="1" stop-color="white" stop-opacity="0"/>
</linearGradient>
<linearGradient id="paint4_linear" x1="38.2251" y1="48.837" x2="43.8468" y2="40.3737" gradientUnits="userSpaceOnUse">
<stop stop-color="white"/>
<stop offset="1" stop-color="white" stop-opacity="0"/>
</linearGradient>
<linearGradient id="paint5_linear" x1="17.4883" y1="23.9142" x2="23.1332" y2="15.416" gradientUnits="userSpaceOnUse">
<stop stop-color="white"/>
<stop offset="1" stop-color="white" stop-opacity="0"/>
</linearGradient>
<linearGradient id="paint6_linear" x1="17.5024" y1="23.8958" x2="23.1402" y2="15.4258" gradientUnits="userSpaceOnUse">
<stop stop-color="white"/>
<stop offset="1" stop-color="white" stop-opacity="0"/>
</linearGradient>
<linearGradient id="paint7_linear" x1="17.4883" y1="23.9142" x2="23.1332" y2="15.416" gradientUnits="userSpaceOnUse">
<stop stop-color="white"/>
<stop offset="1" stop-color="white" stop-opacity="0"/>
</linearGradient>
<linearGradient id="paint8_linear" x1="17.5024" y1="23.8958" x2="23.1402" y2="15.4258" gradientUnits="userSpaceOnUse">
<stop stop-color="white"/>
<stop offset="1" stop-color="white" stop-opacity="0"/>
</linearGradient>
<linearGradient id="paint9_linear" x1="37.5117" y1="19.7146" x2="39.9266" y2="12.4437" gradientUnits="userSpaceOnUse">
<stop stop-color="white"/>
<stop offset="1" stop-color="white" stop-opacity="0"/>
</linearGradient>
<linearGradient id="paint10_linear" x1="17.2671" y1="49.2902" x2="22.9467" y2="40.7397" gradientUnits="userSpaceOnUse">
<stop stop-color="white"/>
<stop offset="1" stop-color="white" stop-opacity="0"/>
</linearGradient>
</defs>
</svg>
