<svg width="315" height="315" viewBox="0 0 315 315" fill="none" xmlns="http://www.w3.org/2000/svg">
<path d="M157.159 314.87C243.863 314.87 314.151 244.582 314.151 157.878C314.151 71.1737 243.863 0.886002 157.159 0.886002C70.4547 0.886002 0.167007 71.1737 0.167007 157.878C0.167007 244.582 70.4547 314.87 157.159 314.87Z" fill="#9BB1FF"/>
<path d="M226.71 104.041H213.566C209.476 104.041 206.117 100.754 206.117 96.592V82.8634" stroke="#FF577F" stroke-width="6" stroke-linecap="round" stroke-linejoin="round"/>
<path d="M226.71 104.041H213.566C209.476 104.041 206.117 100.754 206.117 96.592V82.8634" stroke="url(#paint0_linear)" stroke-opacity="0.4" stroke-width="6" stroke-linecap="round" stroke-linejoin="round"/>
<path d="M127.324 185.432H141.426" stroke="white" stroke-width="6" stroke-miterlimit="10" stroke-linecap="round" stroke-linejoin="round"/>
<path d="M164.75 232.375H94.4329C90.1101 232.375 86.2484 229.666 84.8075 225.574L83.77 222.576H175.413L174.376 225.574C172.935 229.666 169.073 232.375 164.75 232.375Z" stroke="#FF577F" stroke-width="6" stroke-linecap="round" stroke-linejoin="round"/>
<path d="M164.75 232.375H94.4329C90.1101 232.375 86.2484 229.666 84.8075 225.574L83.77 222.576H175.413L174.376 225.574C172.935 229.666 169.073 232.375 164.75 232.375Z" stroke="url(#paint1_linear)" stroke-opacity="0.4" stroke-width="6" stroke-linecap="round" stroke-linejoin="round"/>
<path d="M139.63 129.204V90.1833C139.63 86.1487 142.915 82.8634 146.95 82.8634H210.572L226.71 99.5782V202.756C226.71 206.79 223.425 210.076 219.391 210.076H179.949" stroke="white" stroke-width="6" stroke-miterlimit="10" stroke-linecap="round" stroke-linejoin="round"/>
<path d="M140.831 198.945H118.352L114.317 156.293H144.865L140.831 198.945Z" stroke="white" stroke-width="6" stroke-miterlimit="10" stroke-linecap="round" stroke-linejoin="round"/>
<path d="M165.031 107.414H186.939" stroke="white" stroke-width="6" stroke-miterlimit="10" stroke-linecap="round" stroke-linejoin="round"/>
<path d="M165.298 118.874H208.845" stroke="white" stroke-width="6" stroke-miterlimit="10" stroke-linecap="round" stroke-linejoin="round"/>
<path d="M165.298 130.333H208.845" stroke="white" stroke-width="6" stroke-miterlimit="10" stroke-linecap="round" stroke-linejoin="round"/>
<path d="M165.298 141.794H208.845" stroke="white" stroke-width="6" stroke-miterlimit="10" stroke-linecap="round" stroke-linejoin="round"/>
<path d="M191.289 189.467C200.985 189.467 208.845 181.607 208.845 171.911C208.845 162.215 200.985 154.355 191.289 154.355C181.593 154.355 173.733 162.215 173.733 171.911C173.733 181.607 181.593 189.467 191.289 189.467Z" stroke="#FF577F" stroke-width="6" stroke-linecap="round" stroke-linejoin="round"/>
<path d="M191.289 189.467C200.985 189.467 208.845 181.607 208.845 171.911C208.845 162.215 200.985 154.355 191.289 154.355C181.593 154.355 173.733 162.215 173.733 171.911C173.733 181.607 181.593 189.467 191.289 189.467Z" stroke="url(#paint2_linear)" stroke-opacity="0.4" stroke-width="6" stroke-linecap="round" stroke-linejoin="round"/>
<path d="M181.971 173.637L189.036 179.571L200.057 166.855" stroke="#FF577F" stroke-width="6" stroke-linecap="round" stroke-linejoin="round"/>
<path d="M181.971 173.637L189.036 179.571L200.057 166.855" stroke="url(#paint3_linear)" stroke-opacity="0.4" stroke-width="6" stroke-linecap="round" stroke-linejoin="round"/>
<path d="M144.462 156.293H114.779C110.86 156.293 107.689 153.123 107.689 149.204V136.236C107.689 132.316 110.86 129.146 114.779 129.146H144.462C148.381 129.146 151.551 132.316 151.551 136.236V149.204C151.494 153.123 148.324 156.293 144.462 156.293Z" stroke="#FF577F" stroke-width="6" stroke-linecap="round" stroke-linejoin="round"/>
<path d="M144.462 156.293H114.779C110.86 156.293 107.689 153.123 107.689 149.204V136.236C107.689 132.316 110.86 129.146 114.779 129.146H144.462C148.381 129.146 151.551 132.316 151.551 136.236V149.204C151.494 153.123 148.324 156.293 144.462 156.293Z" stroke="url(#paint4_linear)" stroke-opacity="0.4" stroke-width="6" stroke-linecap="round" stroke-linejoin="round"/>
<path d="M169.534 198.945H89.6489C83.5393 198.945 78.5825 203.902 78.5825 210.011V218.369C78.5825 220.732 80.4846 222.576 82.79 222.576H176.335C178.699 222.576 180.543 220.674 180.543 218.369V210.011C180.601 203.902 175.644 198.945 169.534 198.945Z" stroke="white" stroke-width="6" stroke-miterlimit="10" stroke-linecap="round" stroke-linejoin="round"/>
<defs>
<linearGradient id="paint0_linear" x1="208.933" y1="102.569" x2="221.844" y2="83.4576" gradientUnits="userSpaceOnUse">
<stop stop-color="white"/>
<stop offset="1" stop-color="white" stop-opacity="0"/>
</linearGradient>
<linearGradient id="paint1_linear" x1="96.3018" y1="231.694" x2="97.2019" y2="218.879" gradientUnits="userSpaceOnUse">
<stop stop-color="white"/>
<stop offset="1" stop-color="white" stop-opacity="0"/>
</linearGradient>
<linearGradient id="paint2_linear" x1="178.535" y1="187.026" x2="199.711" y2="154.79" gradientUnits="userSpaceOnUse">
<stop stop-color="white"/>
<stop offset="1" stop-color="white" stop-opacity="0"/>
</linearGradient>
<linearGradient id="paint3_linear" x1="184.444" y1="178.687" x2="190.806" y2="164.913" gradientUnits="userSpaceOnUse">
<stop stop-color="white"/>
<stop offset="1" stop-color="white" stop-opacity="0"/>
</linearGradient>
<linearGradient id="paint4_linear" x1="113.687" y1="154.406" x2="126.136" y2="123.789" gradientUnits="userSpaceOnUse">
<stop stop-color="white"/>
<stop offset="1" stop-color="white" stop-opacity="0"/>
</linearGradient>
</defs>
</svg>
