<svg width="314" height="315" viewBox="0 0 314 315" fill="none" xmlns="http://www.w3.org/2000/svg">
<circle cx="157.008" cy="157.15" r="156.992" fill="white"/>
<path d="M128.914 123.338V138.711H142.18V123.376C142.18 115.182 148.853 108.549 157.008 108.549C165.163 108.549 171.835 115.221 171.835 123.376V138.711H185.101V123.338C185.101 107.847 172.498 95.2439 157.008 95.2439C141.517 95.2439 128.914 107.847 128.914 123.338Z" stroke="#FF577F" stroke-width="6" stroke-linecap="round" stroke-linejoin="round"/>
<path d="M128.914 123.338V138.711H142.18V123.376C142.18 115.182 148.853 108.549 157.008 108.549C165.163 108.549 171.835 115.221 171.835 123.376V138.711H185.101V123.338C185.101 107.847 172.498 95.2439 157.008 95.2439C141.517 95.2439 128.914 107.847 128.914 123.338Z" stroke="url(#paint0_linear)" stroke-opacity="0.4" stroke-width="6" stroke-linecap="round" stroke-linejoin="round"/>
<path d="M195.09 155.68V145.42C195.09 141.728 191.773 138.711 187.715 138.711H126.338C122.28 138.711 118.964 141.728 118.964 145.42V155.68" stroke="#4C72FF" stroke-width="6" stroke-miterlimit="10" stroke-linecap="round" stroke-linejoin="round"/>
<path d="M195.09 155.68V145.42C195.09 141.728 191.773 138.711 187.715 138.711H126.338C122.28 138.711 118.964 141.728 118.964 145.42V155.68" stroke="url(#paint1_linear)" stroke-width="6" stroke-miterlimit="10" stroke-linecap="round" stroke-linejoin="round"/>
<path d="M195.09 170.121V157.752H118.925V197.318C118.925 201.376 122.241 204.692 126.299 204.692H135.82H149.282H187.676C191.734 204.692 195.051 201.376 195.051 197.318V183.622L195.09 170.121Z" stroke="#4C72FF" stroke-width="6" stroke-miterlimit="10" stroke-linecap="round" stroke-linejoin="round"/>
<path d="M195.09 170.121V157.752H118.925V197.318C118.925 201.376 122.241 204.692 126.299 204.692H135.82H149.282H187.676C191.734 204.692 195.051 201.376 195.051 197.318V183.622L195.09 170.121Z" stroke="url(#paint2_linear)" stroke-width="6" stroke-miterlimit="10" stroke-linecap="round" stroke-linejoin="round"/>
<path d="M157.203 183.934V192.089V183.934Z" fill="white"/>
<path d="M157.203 183.934V192.089" stroke="#FF577F" stroke-width="6" stroke-linecap="round" stroke-linejoin="round"/>
<path d="M157.203 183.934V192.089" stroke="url(#paint3_linear)" stroke-opacity="0.4" stroke-width="6" stroke-linecap="round" stroke-linejoin="round"/>
<path d="M157.007 170.785C153.379 170.785 150.413 173.75 150.413 177.379C150.413 181.008 153.379 183.973 157.007 183.973C160.636 183.973 163.601 181.008 163.601 177.379C163.601 173.75 160.636 170.785 157.007 170.785Z" stroke="#FF577F" stroke-width="6" stroke-linecap="round" stroke-linejoin="round"/>
<path d="M157.007 170.785C153.379 170.785 150.413 173.75 150.413 177.379C150.413 181.008 153.379 183.973 157.007 183.973C160.636 183.973 163.601 181.008 163.601 177.379C163.601 173.75 160.636 170.785 157.007 170.785Z" stroke="url(#paint4_linear)" stroke-opacity="0.4" stroke-width="6" stroke-linecap="round" stroke-linejoin="round"/>
<path d="M207.537 152.446H219.243L231.846 139.843C231.885 139.804 231.924 139.804 232.002 139.804H241.562" stroke="#4C72FF" stroke-width="6" stroke-miterlimit="10" stroke-linecap="round" stroke-linejoin="round"/>
<path d="M207.537 152.446H219.243L231.846 139.843C231.885 139.804 231.924 139.804 232.002 139.804H241.562" stroke="url(#paint5_linear)" stroke-width="6" stroke-miterlimit="10" stroke-linecap="round" stroke-linejoin="round"/>
<path d="M247.688 133.873C244.332 133.873 241.601 136.604 241.601 139.96C241.601 143.315 244.332 146.047 247.688 146.047C251.043 146.047 253.775 143.315 253.775 139.96C253.775 136.604 251.043 133.873 247.688 133.873Z" stroke="#4C72FF" stroke-width="6" stroke-miterlimit="10" stroke-linecap="round" stroke-linejoin="round"/>
<path d="M247.688 133.873C244.332 133.873 241.601 136.604 241.601 139.96C241.601 143.315 244.332 146.047 247.688 146.047C251.043 146.047 253.775 143.315 253.775 139.96C253.775 136.604 251.043 133.873 247.688 133.873Z" stroke="url(#paint6_linear)" stroke-width="6" stroke-miterlimit="10" stroke-linecap="round" stroke-linejoin="round"/>
<path d="M207.537 172.97H219.36C219.399 172.97 219.477 173.009 219.516 173.009L232.119 185.612H241.601" stroke="#FF577F" stroke-width="6" stroke-linecap="round" stroke-linejoin="round"/>
<path d="M207.537 172.97H219.36C219.399 172.97 219.477 173.009 219.516 173.009L232.119 185.612H241.601" stroke="url(#paint7_linear)" stroke-opacity="0.4" stroke-width="6" stroke-linecap="round" stroke-linejoin="round"/>
<path d="M247.688 179.72C244.332 179.72 241.601 182.451 241.601 185.807C241.601 189.163 244.332 191.894 247.688 191.894C251.043 191.894 253.775 189.163 253.775 185.807C253.775 182.451 251.043 179.72 247.688 179.72Z" stroke="#FF577F" stroke-width="6" stroke-linecap="round" stroke-linejoin="round"/>
<path d="M247.688 179.72C244.332 179.72 241.601 182.451 241.601 185.807C241.601 189.163 244.332 191.894 247.688 191.894C251.043 191.894 253.775 189.163 253.775 185.807C253.775 182.451 251.043 179.72 247.688 179.72Z" stroke="url(#paint8_linear)" stroke-opacity="0.4" stroke-width="6" stroke-linecap="round" stroke-linejoin="round"/>
<path d="M106.478 173.36H94.7724L82.1693 185.963C82.1303 186.002 82.0913 186.002 82.0133 186.002H66.3276" stroke="#4C72FF" stroke-width="6" stroke-miterlimit="10" stroke-linecap="round" stroke-linejoin="round"/>
<path d="M106.478 173.36H94.7724L82.1693 185.963C82.1303 186.002 82.0913 186.002 82.0133 186.002H66.3276" stroke="url(#paint9_linear)" stroke-width="6" stroke-miterlimit="10" stroke-linecap="round" stroke-linejoin="round"/>
<path d="M71.7905 119.67H93.7972C93.8362 119.67 93.9143 119.709 93.9533 119.709L106.634 132.39" stroke="#4C72FF" stroke-width="6" stroke-miterlimit="10" stroke-linecap="round" stroke-linejoin="round"/>
<path d="M71.7905 119.67H93.7972C93.8362 119.67 93.9143 119.709 93.9533 119.709L106.634 132.39" stroke="url(#paint10_linear)" stroke-width="6" stroke-miterlimit="10" stroke-linecap="round" stroke-linejoin="round"/>
<path d="M105.854 152.875H72.4927" stroke="#FF577F" stroke-width="6" stroke-linecap="round" stroke-linejoin="round"/>
<path d="M105.854 152.875H72.4927" stroke="url(#paint11_linear)" stroke-opacity="0.4" stroke-width="6" stroke-linecap="round" stroke-linejoin="round"/>
<path d="M66.3277 146.593C62.972 146.593 60.2407 149.324 60.2407 152.68C60.2407 156.036 62.972 158.767 66.3277 158.767C69.6833 158.767 72.4146 156.036 72.4146 152.68C72.4146 149.324 69.7223 146.593 66.3277 146.593Z" stroke="#FF577F" stroke-width="6" stroke-linecap="round" stroke-linejoin="round"/>
<path d="M66.3277 146.593C62.972 146.593 60.2407 149.324 60.2407 152.68C60.2407 156.036 62.972 158.767 66.3277 158.767C69.6833 158.767 72.4146 156.036 72.4146 152.68C72.4146 149.324 69.7223 146.593 66.3277 146.593Z" stroke="url(#paint12_linear)" stroke-opacity="0.4" stroke-width="6" stroke-linecap="round" stroke-linejoin="round"/>
<path d="M103.591 237.858V216.476C103.591 216.437 103.63 216.359 103.63 216.32L111.082 208.867" stroke="#4C72FF" stroke-width="6" stroke-miterlimit="10" stroke-linecap="round" stroke-linejoin="round"/>
<path d="M103.591 237.858V216.476C103.591 216.437 103.63 216.359 103.63 216.32L111.082 208.867" stroke="url(#paint13_linear)" stroke-width="6" stroke-miterlimit="10" stroke-linecap="round" stroke-linejoin="round"/>
<path d="M103.786 237.858C100.43 237.858 97.6987 240.59 97.6987 243.945C97.6987 247.301 100.43 250.032 103.786 250.032C107.141 250.032 109.873 247.301 109.873 243.945C109.873 240.59 107.141 237.858 103.786 237.858Z" stroke="#4C72FF" stroke-width="6" stroke-miterlimit="10" stroke-linecap="round" stroke-linejoin="round"/>
<path d="M103.786 237.858C100.43 237.858 97.6987 240.59 97.6987 243.945C97.6987 247.301 100.43 250.032 103.786 250.032C107.141 250.032 109.873 247.301 109.873 243.945C109.873 240.59 107.141 237.858 103.786 237.858Z" stroke="url(#paint14_linear)" stroke-width="6" stroke-miterlimit="10" stroke-linecap="round" stroke-linejoin="round"/>
<path d="M204.377 208.867L211.83 216.32C211.869 216.359 211.869 216.398 211.869 216.476V243.984" stroke="#FF577F" stroke-width="6" stroke-linecap="round" stroke-linejoin="round"/>
<path d="M204.377 208.867L211.83 216.32C211.869 216.359 211.869 216.398 211.869 216.476V243.984" stroke="url(#paint15_linear)" stroke-opacity="0.4" stroke-width="6" stroke-linecap="round" stroke-linejoin="round"/>
<path d="M211.869 87.6353V102.736C211.869 102.775 211.83 102.853 211.83 102.892L204.377 110.344" stroke="#4C72FF" stroke-width="6" stroke-miterlimit="10" stroke-linecap="round" stroke-linejoin="round"/>
<path d="M211.869 87.6353V102.736C211.869 102.775 211.83 102.853 211.83 102.892L204.377 110.344" stroke="url(#paint16_linear)" stroke-width="6" stroke-miterlimit="10" stroke-linecap="round" stroke-linejoin="round"/>
<path d="M211.673 74.759C208.317 74.759 205.586 77.4904 205.586 80.846C205.586 84.2016 208.317 86.9329 211.673 86.9329C215.029 86.9329 217.76 84.2016 217.76 80.846C217.76 77.4904 215.029 74.759 211.673 74.759Z" stroke="#4C72FF" stroke-width="6" stroke-miterlimit="10" stroke-linecap="round" stroke-linejoin="round"/>
<path d="M211.673 74.759C208.317 74.759 205.586 77.4904 205.586 80.846C205.586 84.2016 208.317 86.9329 211.673 86.9329C215.029 86.9329 217.76 84.2016 217.76 80.846C217.76 77.4904 215.029 74.759 211.673 74.759Z" stroke="url(#paint17_linear)" stroke-width="6" stroke-miterlimit="10" stroke-linecap="round" stroke-linejoin="round"/>
<path d="M103.981 79.6757V102.658L111.356 110.032" stroke="#FF577F" stroke-width="6" stroke-linecap="round" stroke-linejoin="round"/>
<path d="M103.981 79.6757V102.658L111.356 110.032" stroke="url(#paint18_linear)" stroke-opacity="0.4" stroke-width="6" stroke-linecap="round" stroke-linejoin="round"/>
<path d="M204.221 128.332H217.253L235.865 109.72V94.9711" stroke="#FF577F" stroke-width="6" stroke-linecap="round" stroke-linejoin="round"/>
<path d="M204.221 128.332H217.253L235.865 109.72V94.9711" stroke="url(#paint19_linear)" stroke-opacity="0.4" stroke-width="6" stroke-linecap="round" stroke-linejoin="round"/>
<path d="M209.84 189.826L229.466 209.452H241.367" stroke="#4C72FF" stroke-width="6" stroke-miterlimit="10" stroke-linecap="round" stroke-linejoin="round"/>
<path d="M209.84 189.826L229.466 209.452H241.367" stroke="url(#paint20_linear)" stroke-width="6" stroke-miterlimit="10" stroke-linecap="round" stroke-linejoin="round"/>
<path d="M75.8872 212.73L95.6308 192.986C95.6698 192.947 95.7088 192.947 95.7869 192.947H106.478" stroke="#FF577F" stroke-width="6" stroke-linecap="round" stroke-linejoin="round"/>
<path d="M75.8872 212.73L95.6308 192.986C95.6698 192.947 95.7088 192.947 95.7869 192.947H106.478" stroke="url(#paint21_linear)" stroke-opacity="0.4" stroke-width="6" stroke-linecap="round" stroke-linejoin="round"/>
<path d="M71.7906 211.13C68.4349 211.13 65.7036 213.861 65.7036 217.217C65.7036 220.573 68.4349 223.304 71.7906 223.304C75.1462 223.304 77.8775 220.573 77.8775 217.217C77.8775 213.861 75.1852 211.13 71.7906 211.13Z" stroke="#FF577F" stroke-width="6" stroke-linecap="round" stroke-linejoin="round"/>
<path d="M71.7906 211.13C68.4349 211.13 65.7036 213.861 65.7036 217.217C65.7036 220.573 68.4349 223.304 71.7906 223.304C75.1462 223.304 77.8775 220.573 77.8775 217.217C77.8775 213.861 75.1852 211.13 71.7906 211.13Z" stroke="url(#paint22_linear)" stroke-opacity="0.4" stroke-width="6" stroke-linecap="round" stroke-linejoin="round"/>
<path d="M140.23 234.815C136.523 234.815 133.519 231.81 133.519 228.103C133.519 224.397 136.523 221.392 140.23 221.392H173.747C177.454 221.392 180.458 224.397 180.458 228.103C180.458 231.81 177.454 234.815 173.747 234.815H140.23Z" stroke="#4C72FF" stroke-width="6" stroke-miterlimit="10" stroke-linecap="round" stroke-linejoin="round"/>
<path d="M140.23 234.815C136.523 234.815 133.519 231.81 133.519 228.103C133.519 224.397 136.523 221.392 140.23 221.392H173.747C177.454 221.392 180.458 224.397 180.458 228.103C180.458 231.81 177.454 234.815 173.747 234.815H140.23Z" stroke="url(#paint23_linear)" stroke-width="6" stroke-miterlimit="10" stroke-linecap="round" stroke-linejoin="round"/>
<defs>
<linearGradient id="paint0_linear" x1="136.597" y1="135.69" x2="159.67" y2="90.2877" gradientUnits="userSpaceOnUse">
<stop stop-color="white"/>
<stop offset="1" stop-color="white" stop-opacity="0"/>
</linearGradient>
<linearGradient id="paint1_linear" x1="81.723" y1="154.846" x2="170.82" y2="135.722" gradientUnits="userSpaceOnUse">
<stop stop-color="white"/>
<stop offset="1" stop-color="white" stop-opacity="0"/>
</linearGradient>
<linearGradient id="paint2_linear" x1="81.6649" y1="202.385" x2="174.356" y2="195.19" gradientUnits="userSpaceOnUse">
<stop stop-color="white"/>
<stop offset="1" stop-color="white" stop-opacity="0"/>
</linearGradient>
<linearGradient id="paint3_linear" x1="157.34" y1="191.522" x2="159.273" y2="191.161" gradientUnits="userSpaceOnUse">
<stop stop-color="white"/>
<stop offset="1" stop-color="white" stop-opacity="0"/>
</linearGradient>
<linearGradient id="paint4_linear" x1="152.217" y1="183.056" x2="160.17" y2="170.948" gradientUnits="userSpaceOnUse">
<stop stop-color="white"/>
<stop offset="1" stop-color="white" stop-opacity="0"/>
</linearGradient>
<linearGradient id="paint5_linear" x1="190.892" y1="151.824" x2="231.869" y2="146.548" gradientUnits="userSpaceOnUse">
<stop stop-color="white"/>
<stop offset="1" stop-color="white" stop-opacity="0"/>
</linearGradient>
<linearGradient id="paint6_linear" x1="235.645" y1="145.448" x2="250.516" y2="144.737" gradientUnits="userSpaceOnUse">
<stop stop-color="white"/>
<stop offset="1" stop-color="white" stop-opacity="0"/>
</linearGradient>
<linearGradient id="paint7_linear" x1="212.195" y1="184.733" x2="216.019" y2="169.05" gradientUnits="userSpaceOnUse">
<stop stop-color="white"/>
<stop offset="1" stop-color="white" stop-opacity="0"/>
</linearGradient>
<linearGradient id="paint8_linear" x1="243.265" y1="191.048" x2="250.607" y2="179.871" gradientUnits="userSpaceOnUse">
<stop stop-color="white"/>
<stop offset="1" stop-color="white" stop-opacity="0"/>
</linearGradient>
<linearGradient id="paint9_linear" x1="46.686" y1="185.381" x2="94.7333" y2="178.08" gradientUnits="userSpaceOnUse">
<stop stop-color="white"/>
<stop offset="1" stop-color="white" stop-opacity="0"/>
</linearGradient>
<linearGradient id="paint10_linear" x1="54.7449" y1="131.765" x2="96.6843" y2="126.269" gradientUnits="userSpaceOnUse">
<stop stop-color="white"/>
<stop offset="1" stop-color="white" stop-opacity="0"/>
</linearGradient>
<linearGradient id="paint11_linear" x1="77.0547" y1="153.805" x2="77.0805" y2="152.492" gradientUnits="userSpaceOnUse">
<stop stop-color="white"/>
<stop offset="1" stop-color="white" stop-opacity="0"/>
</linearGradient>
<linearGradient id="paint12_linear" x1="61.9054" y1="157.921" x2="69.2476" y2="146.744" gradientUnits="userSpaceOnUse">
<stop stop-color="white"/>
<stop offset="1" stop-color="white" stop-opacity="0"/>
</linearGradient>
<linearGradient id="paint13_linear" x1="99.9259" y1="236.433" x2="109.097" y2="236.32" gradientUnits="userSpaceOnUse">
<stop stop-color="white"/>
<stop offset="1" stop-color="white" stop-opacity="0"/>
</linearGradient>
<linearGradient id="paint14_linear" x1="91.7433" y1="249.434" x2="106.614" y2="248.722" gradientUnits="userSpaceOnUse">
<stop stop-color="white"/>
<stop offset="1" stop-color="white" stop-opacity="0"/>
</linearGradient>
<linearGradient id="paint15_linear" x1="205.401" y1="241.543" x2="218.96" y2="237.14" gradientUnits="userSpaceOnUse">
<stop stop-color="white"/>
<stop offset="1" stop-color="white" stop-opacity="0"/>
</linearGradient>
<linearGradient id="paint16_linear" x1="200.712" y1="109.228" x2="209.882" y2="109.083" gradientUnits="userSpaceOnUse">
<stop stop-color="white"/>
<stop offset="1" stop-color="white" stop-opacity="0"/>
</linearGradient>
<linearGradient id="paint17_linear" x1="199.63" y1="86.3346" x2="214.501" y2="85.6232" gradientUnits="userSpaceOnUse">
<stop stop-color="white"/>
<stop offset="1" stop-color="white" stop-opacity="0"/>
</linearGradient>
<linearGradient id="paint18_linear" x1="104.989" y1="107.922" x2="117.969" y2="103.123" gradientUnits="userSpaceOnUse">
<stop stop-color="white"/>
<stop offset="1" stop-color="white" stop-opacity="0"/>
</linearGradient>
<linearGradient id="paint19_linear" x1="208.548" y1="126.013" x2="229.07" y2="96.3805" gradientUnits="userSpaceOnUse">
<stop stop-color="white"/>
<stop offset="1" stop-color="white" stop-opacity="0"/>
</linearGradient>
<linearGradient id="paint20_linear" x1="194.417" y1="208.488" x2="232.789" y2="205.539" gradientUnits="userSpaceOnUse">
<stop stop-color="white"/>
<stop offset="1" stop-color="white" stop-opacity="0"/>
</linearGradient>
<linearGradient id="paint21_linear" x1="80.0704" y1="211.355" x2="89.4269" y2="189.33" gradientUnits="userSpaceOnUse">
<stop stop-color="white"/>
<stop offset="1" stop-color="white" stop-opacity="0"/>
</linearGradient>
<linearGradient id="paint22_linear" x1="67.3683" y1="222.458" x2="74.7105" y2="211.281" gradientUnits="userSpaceOnUse">
<stop stop-color="white"/>
<stop offset="1" stop-color="white" stop-opacity="0"/>
</linearGradient>
<linearGradient id="paint23_linear" x1="110.556" y1="234.155" x2="166.46" y2="224.802" gradientUnits="userSpaceOnUse">
<stop stop-color="white"/>
<stop offset="1" stop-color="white" stop-opacity="0"/>
</linearGradient>
</defs>
</svg>
