<svg width="315" height="314" viewBox="0 0 315 314" fill="none" xmlns="http://www.w3.org/2000/svg">
<circle cx="157.492" cy="156.992" r="156.992" fill="#FFABBF"/>
<path d="M179.976 143.599H130.739C124.118 143.599 118.694 138.175 118.694 131.554V130.779C118.694 124.158 124.118 118.734 130.739 118.734H179.976C186.598 118.734 192.021 124.158 192.021 130.779V131.554C192.021 138.175 186.598 143.599 179.976 143.599Z" stroke="#4C72FF" stroke-width="6" stroke-miterlimit="10" stroke-linecap="round" stroke-linejoin="round"/>
<path d="M179.976 143.599H130.739C124.118 143.599 118.694 138.175 118.694 131.554V130.779C118.694 124.158 124.118 118.734 130.739 118.734H179.976C186.598 118.734 192.021 124.158 192.021 130.779V131.554C192.021 138.175 186.598 143.599 179.976 143.599Z" stroke="url(#paint0_linear)" stroke-width="6" stroke-miterlimit="10" stroke-linecap="round" stroke-linejoin="round"/>
<path d="M155.252 205.234V193.259" stroke="white" stroke-width="6" stroke-miterlimit="10" stroke-linecap="round" stroke-linejoin="round"/>
<path d="M158.422 130.498H130.598" stroke="white" stroke-width="6" stroke-miterlimit="10" stroke-linecap="round" stroke-linejoin="round"/>
<path d="M167.367 133.502C169.026 133.502 170.371 132.157 170.371 130.498C170.371 128.839 169.026 127.494 167.367 127.494C165.708 127.494 164.363 128.839 164.363 130.498C164.363 132.157 165.708 133.502 167.367 133.502Z" fill="white"/>
<path d="M178.074 133.502C179.733 133.502 181.078 132.157 181.078 130.498C181.078 128.838 179.733 127.493 178.074 127.493C176.415 127.493 175.07 128.838 175.07 130.498C175.07 132.157 176.415 133.502 178.074 133.502Z" fill="white"/>
<path d="M179.976 168.464H130.739C124.118 168.464 118.694 163.041 118.694 156.419V155.644C118.694 149.023 124.118 143.599 130.739 143.599H179.976C186.598 143.599 192.021 149.023 192.021 155.644V156.419C192.021 163.041 186.598 168.464 179.976 168.464Z" stroke="#4C72FF" stroke-width="6" stroke-miterlimit="10" stroke-linecap="round" stroke-linejoin="round"/>
<path d="M179.976 168.464H130.739C124.118 168.464 118.694 163.041 118.694 156.419V155.644C118.694 149.023 124.118 143.599 130.739 143.599H179.976C186.598 143.599 192.021 149.023 192.021 155.644V156.419C192.021 163.041 186.598 168.464 179.976 168.464Z" stroke="url(#paint1_linear)" stroke-width="6" stroke-miterlimit="10" stroke-linecap="round" stroke-linejoin="round"/>
<path d="M158.422 155.363H130.598" stroke="white" stroke-width="6" stroke-miterlimit="10" stroke-linecap="round" stroke-linejoin="round"/>
<path d="M167.367 158.367C169.026 158.367 170.371 157.022 170.371 155.363C170.371 153.703 169.026 152.359 167.367 152.359C165.708 152.359 164.363 153.703 164.363 155.363C164.363 157.022 165.708 158.367 167.367 158.367Z" fill="white"/>
<path d="M178.074 158.367C179.733 158.367 181.078 157.022 181.078 155.363C181.078 153.703 179.733 152.358 178.074 152.358C176.415 152.358 175.07 153.703 175.07 155.363C175.07 157.022 176.415 158.367 178.074 158.367Z" fill="white"/>
<path d="M179.976 193.259H130.739C124.118 193.259 118.694 187.835 118.694 181.214V180.439C118.694 173.818 124.118 168.394 130.739 168.394H179.976C186.598 168.394 192.021 173.818 192.021 180.439V181.214C192.021 187.835 186.598 193.259 179.976 193.259Z" stroke="#4C72FF" stroke-width="6" stroke-miterlimit="10" stroke-linecap="round" stroke-linejoin="round"/>
<path d="M179.976 193.259H130.739C124.118 193.259 118.694 187.835 118.694 181.214V180.439C118.694 173.818 124.118 168.394 130.739 168.394H179.976C186.598 168.394 192.021 173.818 192.021 180.439V181.214C192.021 187.835 186.598 193.259 179.976 193.259Z" stroke="url(#paint2_linear)" stroke-width="6" stroke-miterlimit="10" stroke-linecap="round" stroke-linejoin="round"/>
<path d="M158.422 180.157H130.598" stroke="white" stroke-width="6" stroke-miterlimit="10" stroke-linecap="round" stroke-linejoin="round"/>
<path d="M167.367 183.162C169.026 183.162 170.371 181.817 170.371 180.158C170.371 178.498 169.026 177.153 167.367 177.153C165.708 177.153 164.363 178.498 164.363 180.158C164.363 181.817 165.708 183.162 167.367 183.162Z" fill="white"/>
<path d="M178.074 183.102C179.701 183.102 181.019 181.784 181.019 180.158C181.019 178.531 179.701 177.213 178.074 177.213C176.448 177.213 175.13 178.531 175.13 180.158C175.13 181.784 176.448 183.102 178.074 183.102Z" fill="white"/>
<path d="M103.619 168.394C87.7705 165.788 77.0637 150.855 79.67 135.006C82.2763 119.157 96.4346 108.309 112.283 110.986C114.819 85.9093 135.951 66.3271 161.662 66.3271C174.693 66.3271 186.597 71.3284 195.473 79.5698C201.883 85.4867 206.672 93.0942 209.279 101.617C216.323 104.224 222.38 109.084 226.466 115.353C229.988 120.777 232.101 127.257 232.101 134.16C232.101 153.249 216.604 168.817 197.445 168.817" stroke="white" stroke-width="6" stroke-miterlimit="10" stroke-linecap="round" stroke-linejoin="round"/>
<path d="M155.252 220.871C159.57 220.871 163.071 217.371 163.071 213.053C163.071 208.734 159.57 205.234 155.252 205.234C150.934 205.234 147.433 208.734 147.433 213.053C147.433 217.371 150.934 220.871 155.252 220.871Z" stroke="white" stroke-width="6" stroke-miterlimit="10" stroke-linecap="round" stroke-linejoin="round"/>
<path d="M76.2891 213.053H135.81" stroke="#4C72FF" stroke-width="6" stroke-miterlimit="10" stroke-linecap="round" stroke-linejoin="round"/>
<path d="M76.2891 213.053H135.81" stroke="url(#paint3_linear)" stroke-width="6" stroke-miterlimit="10" stroke-linecap="round" stroke-linejoin="round"/>
<path d="M173.354 213.053H194.205" stroke="#4C72FF" stroke-width="6" stroke-miterlimit="10" stroke-linecap="round" stroke-linejoin="round"/>
<path d="M173.354 213.053H194.205" stroke="url(#paint4_linear)" stroke-width="6" stroke-miterlimit="10" stroke-linecap="round" stroke-linejoin="round"/>
<path d="M221.606 240.454C236.739 240.454 249.007 228.186 249.007 213.053C249.007 197.919 236.739 185.652 221.606 185.652C206.472 185.652 194.205 197.919 194.205 213.053C194.205 228.186 206.472 240.454 221.606 240.454Z" stroke="#4C72FF" stroke-width="6" stroke-miterlimit="10" stroke-linecap="round" stroke-linejoin="round"/>
<path d="M221.606 240.454C236.739 240.454 249.007 228.186 249.007 213.053C249.007 197.919 236.739 185.652 221.606 185.652C206.472 185.652 194.205 197.919 194.205 213.053C194.205 228.186 206.472 240.454 221.606 240.454Z" stroke="url(#paint5_linear)" stroke-width="6" stroke-miterlimit="10" stroke-linecap="round" stroke-linejoin="round"/>
<path d="M209.404 215.333L217.94 222.752L235.216 206.594" stroke="white" stroke-width="6" stroke-miterlimit="10" stroke-linecap="round" stroke-linejoin="round"/>
<defs>
<linearGradient id="paint0_linear" x1="82.822" y1="142.377" x2="170.845" y2="129.958" gradientUnits="userSpaceOnUse">
<stop stop-color="white"/>
<stop offset="1" stop-color="white" stop-opacity="0"/>
</linearGradient>
<linearGradient id="paint1_linear" x1="82.822" y1="167.242" x2="170.845" y2="154.823" gradientUnits="userSpaceOnUse">
<stop stop-color="white"/>
<stop offset="1" stop-color="white" stop-opacity="0"/>
</linearGradient>
<linearGradient id="paint2_linear" x1="82.822" y1="192.037" x2="170.845" y2="179.618" gradientUnits="userSpaceOnUse">
<stop stop-color="white"/>
<stop offset="1" stop-color="white" stop-opacity="0"/>
</linearGradient>
<linearGradient id="paint3_linear" x1="47.1712" y1="214.004" x2="55.171" y2="191.223" gradientUnits="userSpaceOnUse">
<stop stop-color="white"/>
<stop offset="1" stop-color="white" stop-opacity="0"/>
</linearGradient>
<linearGradient id="paint4_linear" x1="163.155" y1="214.004" x2="175.95" y2="201.24" gradientUnits="userSpaceOnUse">
<stop stop-color="white"/>
<stop offset="1" stop-color="white" stop-opacity="0"/>
</linearGradient>
<linearGradient id="paint5_linear" x1="167.395" y1="237.76" x2="234.337" y2="234.557" gradientUnits="userSpaceOnUse">
<stop stop-color="white"/>
<stop offset="1" stop-color="white" stop-opacity="0"/>
</linearGradient>
</defs>
</svg>
