<svg width="107" height="114" viewBox="0 0 107 114" fill="none" xmlns="http://www.w3.org/2000/svg">
<path d="M17.5585 57.0193V90.686" stroke="#FF577F" stroke-width="5" stroke-miterlimit="10" stroke-linecap="round" stroke-linejoin="round"/>
<path d="M17.5585 57.0193V90.686" stroke="url(#paint0_linear)" stroke-opacity="0.4" stroke-width="5" stroke-miterlimit="10" stroke-linecap="round" stroke-linejoin="round"/>
<path d="M35.7567 47.0104V79.7671" stroke="#FF577F" stroke-width="5" stroke-miterlimit="10" stroke-linecap="round" stroke-linejoin="round"/>
<path d="M35.7567 47.0104V79.7671" stroke="url(#paint1_linear)" stroke-opacity="0.4" stroke-width="5" stroke-miterlimit="10" stroke-linecap="round" stroke-linejoin="round"/>
<path d="M53.955 57V89.7567" stroke="#FF577F" stroke-width="5" stroke-miterlimit="10" stroke-linecap="round" stroke-linejoin="round"/>
<path d="M53.955 57V89.7567" stroke="url(#paint2_linear)" stroke-opacity="0.4" stroke-width="5" stroke-miterlimit="10" stroke-linecap="round" stroke-linejoin="round"/>
<path d="M72.1533 47L72.1533 80.6666" stroke="#FF577F" stroke-width="5" stroke-miterlimit="10" stroke-linecap="round" stroke-linejoin="round"/>
<path d="M72.1533 47L72.1533 80.6666" stroke="url(#paint3_linear)" stroke-opacity="0.4" stroke-width="5" stroke-miterlimit="10" stroke-linecap="round" stroke-linejoin="round"/>
<path d="M90.3515 57L90.3515 89.7567" stroke="#FF577F" stroke-width="5" stroke-miterlimit="10" stroke-linecap="round" stroke-linejoin="round"/>
<path d="M90.3515 57L90.3515 89.7567" stroke="url(#paint4_linear)" stroke-opacity="0.4" stroke-width="5" stroke-miterlimit="10" stroke-linecap="round" stroke-linejoin="round"/>
<path d="M101.875 110.968H5.09724C3.92868 110.968 3.008 110.047 3.008 108.879V93.121C3.008 91.9524 3.92868 91.0317 5.09724 91.0317H101.911C103.079 91.0317 104 91.9524 104 93.121V108.879C104 110.047 103.044 110.968 101.875 110.968Z" stroke="#2453FF" stroke-width="5" stroke-miterlimit="10" stroke-linecap="round" stroke-linejoin="round"/>
<path d="M101.875 110.968H5.09724C3.92868 110.968 3.008 110.047 3.008 108.879V93.121C3.008 91.9524 3.92868 91.0317 5.09724 91.0317H101.911C103.079 91.0317 104 91.9524 104 93.121V108.879C104 110.047 103.044 110.968 101.875 110.968Z" stroke="url(#paint5_linear)" stroke-opacity="0.4" stroke-width="5" stroke-miterlimit="10" stroke-linecap="round" stroke-linejoin="round"/>
<path d="M101.875 110.968H5.09724C3.92868 110.968 3.008 110.047 3.008 108.879V93.121C3.008 91.9524 3.92868 91.0317 5.09724 91.0317H101.911C103.079 91.0317 104 91.9524 104 93.121V108.879C104 110.047 103.044 110.968 101.875 110.968Z" stroke="url(#paint6_linear)" stroke-width="5" stroke-miterlimit="10" stroke-linecap="round" stroke-linejoin="round"/>
<path d="M101.584 46.5555H5.37253C4.06233 46.5555 3 45.4932 3 44.183V28.1419C3 27.2212 3.53116 26.3713 4.38103 25.9818L52.4691 3.67291C53.1065 3.38963 53.8501 3.38963 54.4875 3.67291L102.611 25.9818C103.461 26.3713 103.992 27.2212 103.992 28.1419V44.183C103.992 45.4578 102.894 46.5555 101.584 46.5555Z" stroke="#2453FF" stroke-width="5" stroke-miterlimit="10" stroke-linecap="round" stroke-linejoin="round"/>
<path d="M101.584 46.5555H5.37253C4.06233 46.5555 3 45.4932 3 44.183V28.1419C3 27.2212 3.53116 26.3713 4.38103 25.9818L52.4691 3.67291C53.1065 3.38963 53.8501 3.38963 54.4875 3.67291L102.611 25.9818C103.461 26.3713 103.992 27.2212 103.992 28.1419V44.183C103.992 45.4578 102.894 46.5555 101.584 46.5555Z" stroke="url(#paint7_linear)" stroke-opacity="0.4" stroke-width="5" stroke-miterlimit="10" stroke-linecap="round" stroke-linejoin="round"/>
<path d="M101.584 46.5555H5.37253C4.06233 46.5555 3 45.4932 3 44.183V28.1419C3 27.2212 3.53116 26.3713 4.38103 25.9818L52.4691 3.67291C53.1065 3.38963 53.8501 3.38963 54.4875 3.67291L102.611 25.9818C103.461 26.3713 103.992 27.2212 103.992 28.1419V44.183C103.992 45.4578 102.894 46.5555 101.584 46.5555Z" stroke="url(#paint8_linear)" stroke-width="5" stroke-miterlimit="10" stroke-linecap="round" stroke-linejoin="round"/>
<path d="M53.4657 34.162C57.4749 34.162 60.7249 30.912 60.7249 26.9028C60.7249 22.8936 57.4749 19.6436 53.4657 19.6436C49.4565 19.6436 46.2065 22.8936 46.2065 26.9028C46.2065 30.912 49.4565 34.162 53.4657 34.162Z" stroke="#FF577F" stroke-width="5" stroke-miterlimit="10" stroke-linecap="round" stroke-linejoin="round"/>
<path d="M53.4657 34.162C57.4749 34.162 60.7249 30.912 60.7249 26.9028C60.7249 22.8936 57.4749 19.6436 53.4657 19.6436C49.4565 19.6436 46.2065 22.8936 46.2065 26.9028C46.2065 30.912 49.4565 34.162 53.4657 34.162Z" stroke="url(#paint9_linear)" stroke-opacity="0.4" stroke-width="5" stroke-miterlimit="10" stroke-linecap="round" stroke-linejoin="round"/>
<defs>
<linearGradient id="paint0_linear" x1="17.6953" y1="88.3458" x2="18.2315" y2="59.6927" gradientUnits="userSpaceOnUse">
<stop stop-color="white"/>
<stop offset="1" stop-color="white" stop-opacity="0"/>
</linearGradient>
<linearGradient id="paint1_linear" x1="35.8935" y1="77.4902" x2="36.4427" y2="49.6115" gradientUnits="userSpaceOnUse">
<stop stop-color="white"/>
<stop offset="1" stop-color="white" stop-opacity="0"/>
</linearGradient>
<linearGradient id="paint2_linear" x1="54.0918" y1="87.4798" x2="54.641" y2="59.6011" gradientUnits="userSpaceOnUse">
<stop stop-color="white"/>
<stop offset="1" stop-color="white" stop-opacity="0"/>
</linearGradient>
<linearGradient id="paint3_linear" x1="72.29" y1="78.3264" x2="72.8262" y2="49.6734" gradientUnits="userSpaceOnUse">
<stop stop-color="white"/>
<stop offset="1" stop-color="white" stop-opacity="0"/>
</linearGradient>
<linearGradient id="paint4_linear" x1="90.4882" y1="87.4798" x2="91.0375" y2="59.6011" gradientUnits="userSpaceOnUse">
<stop stop-color="white"/>
<stop offset="1" stop-color="white" stop-opacity="0"/>
</linearGradient>
<linearGradient id="paint5_linear" x1="16.8182" y1="109.582" x2="20.1598" y2="83.8139" gradientUnits="userSpaceOnUse">
<stop stop-color="white"/>
<stop offset="1" stop-color="white" stop-opacity="0"/>
</linearGradient>
<linearGradient id="paint6_linear" x1="53.9549" y1="85.6815" x2="53.9549" y2="118.438" gradientUnits="userSpaceOnUse">
<stop stop-color="white"/>
<stop offset="1" stop-color="white" stop-opacity="0"/>
</linearGradient>
<linearGradient id="paint7_linear" x1="16.8102" y1="43.56" x2="31.5303" y2="-8.95231" gradientUnits="userSpaceOnUse">
<stop stop-color="white"/>
<stop offset="1" stop-color="white" stop-opacity="0"/>
</linearGradient>
<linearGradient id="paint8_linear" x1="53.496" y1="3.46045" x2="53.496" y2="46.5555" gradientUnits="userSpaceOnUse">
<stop stop-color="white"/>
<stop offset="1" stop-color="white" stop-opacity="0"/>
</linearGradient>
<linearGradient id="paint9_linear" x1="48.1918" y1="33.1528" x2="56.9479" y2="19.8237" gradientUnits="userSpaceOnUse">
<stop stop-color="white"/>
<stop offset="1" stop-color="white" stop-opacity="0"/>
</linearGradient>
</defs>
</svg>
