<svg width="113" height="112" viewBox="0 0 113 112" fill="none" xmlns="http://www.w3.org/2000/svg">
<path d="M18.8262 73.0432V50.8967" stroke="url(#paint0_linear)" stroke-width="5" stroke-miterlimit="10" stroke-linecap="round" stroke-linejoin="bevel"/>
<path d="M94.0889 61.999V38.6533" stroke="#2453FF" stroke-width="5" stroke-miterlimit="10" stroke-linecap="round" stroke-linejoin="bevel"/>
<path d="M94.0889 61.999V38.6533" stroke="url(#paint1_linear)" stroke-opacity="0.4" stroke-width="5" stroke-miterlimit="10" stroke-linecap="round" stroke-linejoin="bevel"/>
<path d="M94.0889 61.999V38.6533" stroke="url(#paint2_linear)" stroke-width="5" stroke-miterlimit="10" stroke-linecap="round" stroke-linejoin="bevel"/>
<path d="M36.6237 22L66.2142 22" stroke="#2453FF" stroke-width="5" stroke-miterlimit="10" stroke-linecap="round" stroke-linejoin="bevel"/>
<path d="M36.6237 22L66.2142 22" stroke="url(#paint3_linear)" stroke-opacity="0.4" stroke-width="5" stroke-miterlimit="10" stroke-linecap="round" stroke-linejoin="bevel"/>
<path d="M36.6237 22L66.2142 22" stroke="url(#paint4_linear)" stroke-width="5" stroke-miterlimit="10" stroke-linecap="round" stroke-linejoin="bevel"/>
<path d="M47.2612 92.3464H76.8266" stroke="#2453FF" stroke-width="5" stroke-miterlimit="10" stroke-linecap="round" stroke-linejoin="bevel"/>
<path d="M47.2612 92.3464H76.8266" stroke="url(#paint5_linear)" stroke-opacity="0.4" stroke-width="5" stroke-miterlimit="10" stroke-linecap="round" stroke-linejoin="bevel"/>
<path d="M47.2612 92.3464H76.8266" stroke="url(#paint6_linear)" stroke-width="5" stroke-miterlimit="10" stroke-linecap="round" stroke-linejoin="bevel"/>
<path d="M34.8813 12.0387L37.3813 12.039C37.3814 11.1488 36.9081 10.3257 36.1387 9.87792L34.8813 12.0387ZM18.8275 21.9998L17.5082 24.1234C18.3157 24.625 19.3378 24.6253 20.1456 24.1241L18.8275 21.9998ZM2.79302 12.0387L1.53448 9.87858C0.765884 10.3264 0.293127 11.1489 0.29302 12.0384L2.79302 12.0387ZM18.8275 2.69653L20.0849 0.535765C19.3072 0.08322 18.3464 0.083472 17.5689 0.536425L18.8275 2.69653ZM34.8793 28.7114L36.1955 30.8369C36.9314 30.3811 37.3792 29.5772 37.3793 28.7117L34.8793 28.7114ZM18.8255 38.6532L17.5081 40.7779C18.3147 41.278 19.3349 41.2783 20.1417 40.7786L18.8255 38.6532ZM2.79102 28.7114L0.291016 28.7111C0.290912 29.5764 0.738241 30.3802 1.47363 30.8361L2.79102 28.7114ZM21.3248 21.9997C21.3247 20.6189 20.2054 19.4997 18.8247 19.4998C17.444 19.4998 16.3247 20.6192 16.3248 21.9999L21.3248 21.9997ZM33.5632 9.91439L17.5094 19.8755L20.1456 24.1241L36.1994 14.163L33.5632 9.91439ZM20.1467 19.8762L4.11226 9.9151L1.47378 14.1623L17.5082 24.1234L20.1467 19.8762ZM4.05156 14.1988L20.086 4.85664L17.5689 0.536425L1.53448 9.87858L4.05156 14.1988ZM17.5701 4.8573L33.6239 14.1995L36.1387 9.87792L20.0849 0.535765L17.5701 4.8573ZM32.3813 12.0384L32.3793 28.7111L37.3793 28.7117L37.3813 12.039L32.3813 12.0384ZM33.563 26.586L17.5092 36.5277L20.1417 40.7786L36.1955 30.8369L33.563 26.586ZM20.1429 36.5284L4.1084 26.5867L1.47363 30.8361L17.5081 40.7779L20.1429 36.5284ZM5.29102 28.7117L5.29302 12.039L0.29302 12.0384L0.291016 28.7111L5.29102 28.7117ZM16.3248 21.9999L16.3255 38.6533L21.3255 38.6531L21.3248 21.9997L16.3248 21.9999Z" fill="#FF577F"/>
<path d="M34.8813 12.0387L37.3813 12.039C37.3814 11.1488 36.9081 10.3257 36.1387 9.87792L34.8813 12.0387ZM18.8275 21.9998L17.5082 24.1234C18.3157 24.625 19.3378 24.6253 20.1456 24.1241L18.8275 21.9998ZM2.79302 12.0387L1.53448 9.87858C0.765884 10.3264 0.293127 11.1489 0.29302 12.0384L2.79302 12.0387ZM18.8275 2.69653L20.0849 0.535765C19.3072 0.08322 18.3464 0.083472 17.5689 0.536425L18.8275 2.69653ZM34.8793 28.7114L36.1955 30.8369C36.9314 30.3811 37.3792 29.5772 37.3793 28.7117L34.8793 28.7114ZM18.8255 38.6532L17.5081 40.7779C18.3147 41.278 19.3349 41.2783 20.1417 40.7786L18.8255 38.6532ZM2.79102 28.7114L0.291016 28.7111C0.290912 29.5764 0.738241 30.3802 1.47363 30.8361L2.79102 28.7114ZM21.3248 21.9997C21.3247 20.6189 20.2054 19.4997 18.8247 19.4998C17.444 19.4998 16.3247 20.6192 16.3248 21.9999L21.3248 21.9997ZM33.5632 9.91439L17.5094 19.8755L20.1456 24.1241L36.1994 14.163L33.5632 9.91439ZM20.1467 19.8762L4.11226 9.9151L1.47378 14.1623L17.5082 24.1234L20.1467 19.8762ZM4.05156 14.1988L20.086 4.85664L17.5689 0.536425L1.53448 9.87858L4.05156 14.1988ZM17.5701 4.8573L33.6239 14.1995L36.1387 9.87792L20.0849 0.535765L17.5701 4.8573ZM32.3813 12.0384L32.3793 28.7111L37.3793 28.7117L37.3813 12.039L32.3813 12.0384ZM33.563 26.586L17.5092 36.5277L20.1417 40.7786L36.1955 30.8369L33.563 26.586ZM20.1429 36.5284L4.1084 26.5867L1.47363 30.8361L17.5081 40.7779L20.1429 36.5284ZM5.29102 28.7117L5.29302 12.039L0.29302 12.0384L0.291016 28.7111L5.29102 28.7117ZM16.3248 21.9999L16.3255 38.6533L21.3255 38.6531L21.3248 21.9997L16.3248 21.9999Z" fill="url(#paint7_linear)" fill-opacity="0.4"/>
<path d="M110.131 12.0387L112.631 12.039C112.631 11.1488 112.158 10.3257 111.388 9.87792L110.131 12.0387ZM94.077 21.9998L92.7578 24.1234C93.5652 24.625 94.5873 24.6253 95.3951 24.1241L94.077 21.9998ZM78.0425 12.0387L76.784 9.87858C76.0154 10.3264 75.5426 11.1489 75.5425 12.0384L78.0425 12.0387ZM94.077 2.69653L95.3344 0.535765C94.5567 0.08322 93.5959 0.083472 92.8184 0.536425L94.077 2.69653ZM110.129 28.7114L111.445 30.8369C112.181 30.3811 112.629 29.5772 112.629 28.7117L110.129 28.7114ZM94.075 38.6532L92.7576 40.7779C93.5642 41.278 94.5844 41.2783 95.3912 40.7786L94.075 38.6532ZM78.0405 28.7114L75.5405 28.7111C75.5404 29.5764 75.9878 30.3802 76.7231 30.8361L78.0405 28.7114ZM96.5743 21.9997C96.5742 20.6189 95.4549 19.4997 94.0742 19.4998C92.6935 19.4998 91.5742 20.6192 91.5743 21.9999L96.5743 21.9997ZM108.813 9.91439L92.7589 19.8755L95.3951 24.1241L111.449 14.163L108.813 9.91439ZM95.3962 19.8762L79.3618 9.9151L76.7233 14.1623L92.7578 24.1234L95.3962 19.8762ZM79.3011 14.1988L95.3355 4.85664L92.8184 0.536425L76.784 9.87858L79.3011 14.1988ZM92.8196 4.8573L108.873 14.1995L111.388 9.87792L95.3344 0.535765L92.8196 4.8573ZM107.631 12.0384L107.629 28.7111L112.629 28.7117L112.631 12.039L107.631 12.0384ZM108.813 26.586L92.7587 36.5277L95.3912 40.7786L111.445 30.8369L108.813 26.586ZM95.3924 36.5284L79.3579 26.5867L76.7231 30.8361L92.7576 40.7779L95.3924 36.5284ZM80.5405 28.7117L80.5425 12.039L75.5425 12.0384L75.5405 28.7111L80.5405 28.7117ZM91.5743 21.9999L91.575 38.6533L96.575 38.6531L96.5743 21.9997L91.5743 21.9999Z" fill="#FF577F"/>
<path d="M110.131 12.0387L112.631 12.039C112.631 11.1488 112.158 10.3257 111.388 9.87792L110.131 12.0387ZM94.077 21.9998L92.7578 24.1234C93.5652 24.625 94.5873 24.6253 95.3951 24.1241L94.077 21.9998ZM78.0425 12.0387L76.784 9.87858C76.0154 10.3264 75.5426 11.1489 75.5425 12.0384L78.0425 12.0387ZM94.077 2.69653L95.3344 0.535765C94.5567 0.08322 93.5959 0.083472 92.8184 0.536425L94.077 2.69653ZM110.129 28.7114L111.445 30.8369C112.181 30.3811 112.629 29.5772 112.629 28.7117L110.129 28.7114ZM94.075 38.6532L92.7576 40.7779C93.5642 41.278 94.5844 41.2783 95.3912 40.7786L94.075 38.6532ZM78.0405 28.7114L75.5405 28.7111C75.5404 29.5764 75.9878 30.3802 76.7231 30.8361L78.0405 28.7114ZM96.5743 21.9997C96.5742 20.6189 95.4549 19.4997 94.0742 19.4998C92.6935 19.4998 91.5742 20.6192 91.5743 21.9999L96.5743 21.9997ZM108.813 9.91439L92.7589 19.8755L95.3951 24.1241L111.449 14.163L108.813 9.91439ZM95.3962 19.8762L79.3618 9.9151L76.7233 14.1623L92.7578 24.1234L95.3962 19.8762ZM79.3011 14.1988L95.3355 4.85664L92.8184 0.536425L76.784 9.87858L79.3011 14.1988ZM92.8196 4.8573L108.873 14.1995L111.388 9.87792L95.3344 0.535765L92.8196 4.8573ZM107.631 12.0384L107.629 28.7111L112.629 28.7117L112.631 12.039L107.631 12.0384ZM108.813 26.586L92.7587 36.5277L95.3912 40.7786L111.445 30.8369L108.813 26.586ZM95.3924 36.5284L79.3579 26.5867L76.7231 30.8361L92.7576 40.7779L95.3924 36.5284ZM80.5405 28.7117L80.5425 12.039L75.5425 12.0384L75.5405 28.7111L80.5405 28.7117ZM91.5743 21.9999L91.575 38.6533L96.575 38.6531L96.5743 21.9997L91.5743 21.9999Z" fill="url(#paint8_linear)" fill-opacity="0.4"/>
<path d="M34.8813 82.3854L37.3813 82.3857C37.3814 81.4955 36.9081 80.6723 36.1387 80.2246L34.8813 82.3854ZM18.8275 92.3465L17.5082 94.47C18.3157 94.9717 19.3378 94.9719 20.1456 94.4708L18.8275 92.3465ZM2.79302 82.3854L1.53448 80.2253C0.765884 80.6731 0.293127 81.4955 0.29302 82.3851L2.79302 82.3854ZM18.8275 73.0432L20.0849 70.8824C19.3072 70.4299 18.3464 70.4302 17.5689 70.8831L18.8275 73.0432ZM34.8793 99.0581L36.1955 101.184C36.9314 100.728 37.3792 99.9239 37.3793 99.0584L34.8793 99.0581ZM18.8255 109L17.5081 111.125C18.3147 111.625 19.3349 111.625 20.1417 111.125L18.8255 109ZM2.79102 99.0581L0.291016 99.0578C0.290912 99.9231 0.738241 100.727 1.47363 101.183L2.79102 99.0581ZM21.3248 92.3463C21.3247 90.9656 20.2054 89.8464 18.8247 89.8464C17.444 89.8465 16.3247 90.9658 16.3248 92.3465L21.3248 92.3463ZM33.5632 80.2611L17.5094 90.2222L20.1456 94.4708L36.1994 84.5097L33.5632 80.2611ZM20.1467 90.2229L4.11226 80.2618L1.47378 84.5089L17.5082 94.47L20.1467 90.2229ZM4.05156 84.5455L20.086 75.2033L17.5689 70.8831L1.53448 80.2253L4.05156 84.5455ZM17.5701 75.204L33.6239 84.5461L36.1387 80.2246L20.0849 70.8824L17.5701 75.204ZM32.3813 82.3851L32.3793 99.0578L37.3793 99.0584L37.3813 82.3857L32.3813 82.3851ZM33.563 96.9326L17.5092 106.874L20.1417 111.125L36.1955 101.184L33.563 96.9326ZM20.1429 106.875L4.1084 96.9334L1.47363 101.183L17.5081 111.125L20.1429 106.875ZM5.29102 99.0584L5.29302 82.3857L0.29302 82.3851L0.291016 99.0578L5.29102 99.0584ZM16.3248 92.3465L16.3255 109L21.3255 109L21.3248 92.3463L16.3248 92.3465Z" fill="#FF577F"/>
<path d="M34.8813 82.3854L37.3813 82.3857C37.3814 81.4955 36.9081 80.6723 36.1387 80.2246L34.8813 82.3854ZM18.8275 92.3465L17.5082 94.47C18.3157 94.9717 19.3378 94.9719 20.1456 94.4708L18.8275 92.3465ZM2.79302 82.3854L1.53448 80.2253C0.765884 80.6731 0.293127 81.4955 0.29302 82.3851L2.79302 82.3854ZM18.8275 73.0432L20.0849 70.8824C19.3072 70.4299 18.3464 70.4302 17.5689 70.8831L18.8275 73.0432ZM34.8793 99.0581L36.1955 101.184C36.9314 100.728 37.3792 99.9239 37.3793 99.0584L34.8793 99.0581ZM18.8255 109L17.5081 111.125C18.3147 111.625 19.3349 111.625 20.1417 111.125L18.8255 109ZM2.79102 99.0581L0.291016 99.0578C0.290912 99.9231 0.738241 100.727 1.47363 101.183L2.79102 99.0581ZM21.3248 92.3463C21.3247 90.9656 20.2054 89.8464 18.8247 89.8464C17.444 89.8465 16.3247 90.9658 16.3248 92.3465L21.3248 92.3463ZM33.5632 80.2611L17.5094 90.2222L20.1456 94.4708L36.1994 84.5097L33.5632 80.2611ZM20.1467 90.2229L4.11226 80.2618L1.47378 84.5089L17.5082 94.47L20.1467 90.2229ZM4.05156 84.5455L20.086 75.2033L17.5689 70.8831L1.53448 80.2253L4.05156 84.5455ZM17.5701 75.204L33.6239 84.5461L36.1387 80.2246L20.0849 70.8824L17.5701 75.204ZM32.3813 82.3851L32.3793 99.0578L37.3793 99.0584L37.3813 82.3857L32.3813 82.3851ZM33.563 96.9326L17.5092 106.874L20.1417 111.125L36.1955 101.184L33.563 96.9326ZM20.1429 106.875L4.1084 96.9334L1.47363 101.183L17.5081 111.125L20.1429 106.875ZM5.29102 99.0584L5.29302 82.3857L0.29302 82.3851L0.291016 99.0578L5.29102 99.0584ZM16.3248 92.3465L16.3255 109L21.3255 109L21.3248 92.3463L16.3248 92.3465Z" fill="url(#paint9_linear)" fill-opacity="0.4"/>
<path d="M110.131 82.3854L112.631 82.3857C112.631 81.4955 112.158 80.6723 111.388 80.2246L110.131 82.3854ZM94.077 92.3465L92.7578 94.47C93.5652 94.9717 94.5873 94.9719 95.3951 94.4708L94.077 92.3465ZM78.0425 82.3854L76.784 80.2253C76.0154 80.6731 75.5426 81.4955 75.5425 82.3851L78.0425 82.3854ZM94.077 73.0432L95.3344 70.8824C94.5567 70.4299 93.5959 70.4302 92.8184 70.8831L94.077 73.0432ZM110.129 99.0581L111.445 101.184C112.181 100.728 112.629 99.9239 112.629 99.0584L110.129 99.0581ZM94.075 109L92.7576 111.125C93.5642 111.625 94.5844 111.625 95.3912 111.125L94.075 109ZM78.0405 99.0581L75.5405 99.0578C75.5404 99.9231 75.9878 100.727 76.7231 101.183L78.0405 99.0581ZM96.5743 92.3463C96.5742 90.9656 95.4549 89.8464 94.0742 89.8464C92.6935 89.8465 91.5742 90.9658 91.5743 92.3465L96.5743 92.3463ZM108.813 80.2611L92.7589 90.2222L95.3951 94.4708L111.449 84.5097L108.813 80.2611ZM95.3962 90.2229L79.3618 80.2618L76.7233 84.5089L92.7578 94.47L95.3962 90.2229ZM79.3011 84.5455L95.3355 75.2033L92.8184 70.8831L76.784 80.2253L79.3011 84.5455ZM92.8196 75.204L108.873 84.5461L111.388 80.2246L95.3344 70.8824L92.8196 75.204ZM107.631 82.3851L107.629 99.0578L112.629 99.0584L112.631 82.3857L107.631 82.3851ZM108.813 96.9326L92.7587 106.874L95.3912 111.125L111.445 101.184L108.813 96.9326ZM95.3924 106.875L79.3579 96.9334L76.7231 101.183L92.7576 111.125L95.3924 106.875ZM80.5405 99.0584L80.5425 82.3857L75.5425 82.3851L75.5405 99.0578L80.5405 99.0584ZM91.5743 92.3465L91.575 109L96.575 109L96.5743 92.3463L91.5743 92.3465Z" fill="#FF577F"/>
<path d="M110.131 82.3854L112.631 82.3857C112.631 81.4955 112.158 80.6723 111.388 80.2246L110.131 82.3854ZM94.077 92.3465L92.7578 94.47C93.5652 94.9717 94.5873 94.9719 95.3951 94.4708L94.077 92.3465ZM78.0425 82.3854L76.784 80.2253C76.0154 80.6731 75.5426 81.4955 75.5425 82.3851L78.0425 82.3854ZM94.077 73.0432L95.3344 70.8824C94.5567 70.4299 93.5959 70.4302 92.8184 70.8831L94.077 73.0432ZM110.129 99.0581L111.445 101.184C112.181 100.728 112.629 99.9239 112.629 99.0584L110.129 99.0581ZM94.075 109L92.7576 111.125C93.5642 111.625 94.5844 111.625 95.3912 111.125L94.075 109ZM78.0405 99.0581L75.5405 99.0578C75.5404 99.9231 75.9878 100.727 76.7231 101.183L78.0405 99.0581ZM96.5743 92.3463C96.5742 90.9656 95.4549 89.8464 94.0742 89.8464C92.6935 89.8465 91.5742 90.9658 91.5743 92.3465L96.5743 92.3463ZM108.813 80.2611L92.7589 90.2222L95.3951 94.4708L111.449 84.5097L108.813 80.2611ZM95.3962 90.2229L79.3618 80.2618L76.7233 84.5089L92.7578 94.47L95.3962 90.2229ZM79.3011 84.5455L95.3355 75.2033L92.8184 70.8831L76.784 80.2253L79.3011 84.5455ZM92.8196 75.204L108.873 84.5461L111.388 80.2246L95.3344 70.8824L92.8196 75.204ZM107.631 82.3851L107.629 99.0578L112.629 99.0584L112.631 82.3857L107.631 82.3851ZM108.813 96.9326L92.7587 106.874L95.3912 111.125L111.445 101.184L108.813 96.9326ZM95.3924 106.875L79.3579 96.9334L76.7231 101.183L92.7576 111.125L95.3924 106.875ZM80.5405 99.0584L80.5425 82.3857L75.5425 82.3851L75.5405 99.0578L80.5405 99.0584ZM91.5743 92.3465L91.575 109L96.575 109L96.5743 92.3463L91.5743 92.3465Z" fill="url(#paint10_linear)" fill-opacity="0.4"/>
<path d="M72.5031 46.4286L75.0031 46.4289C75.0032 45.5387 74.5299 44.7156 73.7605 44.2678L72.5031 46.4286ZM56.4493 56.3897L55.1301 58.5133C55.9375 59.0149 56.9596 59.0152 57.7674 58.514L56.4493 56.3897ZM40.4148 46.4286L39.1563 44.2685C38.3877 44.7163 37.915 45.5387 37.9148 46.4283L40.4148 46.4286ZM56.4493 37.0864L57.7067 34.9257C56.929 34.4731 55.9682 34.4734 55.1908 34.9263L56.4493 37.0864ZM72.5011 63.1013L73.8173 65.2267C74.5532 64.771 75.001 63.9671 75.0011 63.1016L72.5011 63.1013ZM56.4473 73.043L55.1299 75.1678C55.9365 75.6679 56.9567 75.6682 57.7635 75.1685L56.4473 73.043ZM40.4128 63.1013L37.9128 63.101C37.9127 63.9663 38.3601 64.7701 39.0955 65.226L40.4128 63.1013ZM58.9466 56.3895C58.9465 55.0088 57.8272 53.8896 56.4465 53.8897C55.0658 53.8897 53.9465 55.009 53.9466 56.3898L58.9466 56.3895ZM71.185 44.3043L55.1312 54.2654L57.7674 58.514L73.8212 48.5529L71.185 44.3043ZM57.7685 54.2661L41.7341 44.305L39.0956 48.5522L55.1301 58.5133L57.7685 54.2661ZM41.6734 48.5887L57.7078 39.2465L55.1908 34.9263L39.1563 44.2685L41.6734 48.5887ZM55.1919 39.2472L71.2457 48.5893L73.7605 44.2678L57.7067 34.9257L55.1919 39.2472ZM70.0031 46.4283L70.0011 63.101L75.0011 63.1016L75.0031 46.4289L70.0031 46.4283ZM71.1849 60.9759L55.1311 70.9176L57.7635 75.1685L73.8173 65.2267L71.1849 60.9759ZM57.7647 70.9183L41.7302 60.9766L39.0955 65.226L55.1299 75.1678L57.7647 70.9183ZM42.9128 63.1016L42.9148 46.4289L37.9148 46.4283L37.9128 63.101L42.9128 63.1016ZM53.9466 56.3898L53.9473 73.0432L58.9473 73.0429L58.9466 56.3895L53.9466 56.3898Z" fill="#2453FF"/>
<path d="M72.5031 46.4286L75.0031 46.4289C75.0032 45.5387 74.5299 44.7156 73.7605 44.2678L72.5031 46.4286ZM56.4493 56.3897L55.1301 58.5133C55.9375 59.0149 56.9596 59.0152 57.7674 58.514L56.4493 56.3897ZM40.4148 46.4286L39.1563 44.2685C38.3877 44.7163 37.915 45.5387 37.9148 46.4283L40.4148 46.4286ZM56.4493 37.0864L57.7067 34.9257C56.929 34.4731 55.9682 34.4734 55.1908 34.9263L56.4493 37.0864ZM72.5011 63.1013L73.8173 65.2267C74.5532 64.771 75.001 63.9671 75.0011 63.1016L72.5011 63.1013ZM56.4473 73.043L55.1299 75.1678C55.9365 75.6679 56.9567 75.6682 57.7635 75.1685L56.4473 73.043ZM40.4128 63.1013L37.9128 63.101C37.9127 63.9663 38.3601 64.7701 39.0955 65.226L40.4128 63.1013ZM58.9466 56.3895C58.9465 55.0088 57.8272 53.8896 56.4465 53.8897C55.0658 53.8897 53.9465 55.009 53.9466 56.3898L58.9466 56.3895ZM71.185 44.3043L55.1312 54.2654L57.7674 58.514L73.8212 48.5529L71.185 44.3043ZM57.7685 54.2661L41.7341 44.305L39.0956 48.5522L55.1301 58.5133L57.7685 54.2661ZM41.6734 48.5887L57.7078 39.2465L55.1908 34.9263L39.1563 44.2685L41.6734 48.5887ZM55.1919 39.2472L71.2457 48.5893L73.7605 44.2678L57.7067 34.9257L55.1919 39.2472ZM70.0031 46.4283L70.0011 63.101L75.0011 63.1016L75.0031 46.4289L70.0031 46.4283ZM71.1849 60.9759L55.1311 70.9176L57.7635 75.1685L73.8173 65.2267L71.1849 60.9759ZM57.7647 70.9183L41.7302 60.9766L39.0955 65.226L55.1299 75.1678L57.7647 70.9183ZM42.9128 63.1016L42.9148 46.4289L37.9148 46.4283L37.9128 63.101L42.9128 63.1016ZM53.9466 56.3898L53.9473 73.0432L58.9473 73.0429L58.9466 56.3895L53.9466 56.3898Z" fill="url(#paint11_linear)" fill-opacity="0.4"/>
<path d="M72.5031 46.4286L75.0031 46.4289C75.0032 45.5387 74.5299 44.7156 73.7605 44.2678L72.5031 46.4286ZM56.4493 56.3897L55.1301 58.5133C55.9375 59.0149 56.9596 59.0152 57.7674 58.514L56.4493 56.3897ZM40.4148 46.4286L39.1563 44.2685C38.3877 44.7163 37.915 45.5387 37.9148 46.4283L40.4148 46.4286ZM56.4493 37.0864L57.7067 34.9257C56.929 34.4731 55.9682 34.4734 55.1908 34.9263L56.4493 37.0864ZM72.5011 63.1013L73.8173 65.2267C74.5532 64.771 75.001 63.9671 75.0011 63.1016L72.5011 63.1013ZM56.4473 73.043L55.1299 75.1678C55.9365 75.6679 56.9567 75.6682 57.7635 75.1685L56.4473 73.043ZM40.4128 63.1013L37.9128 63.101C37.9127 63.9663 38.3601 64.7701 39.0955 65.226L40.4128 63.1013ZM58.9466 56.3895C58.9465 55.0088 57.8272 53.8896 56.4465 53.8897C55.0658 53.8897 53.9465 55.009 53.9466 56.3898L58.9466 56.3895ZM71.185 44.3043L55.1312 54.2654L57.7674 58.514L73.8212 48.5529L71.185 44.3043ZM57.7685 54.2661L41.7341 44.305L39.0956 48.5522L55.1301 58.5133L57.7685 54.2661ZM41.6734 48.5887L57.7078 39.2465L55.1908 34.9263L39.1563 44.2685L41.6734 48.5887ZM55.1919 39.2472L71.2457 48.5893L73.7605 44.2678L57.7067 34.9257L55.1919 39.2472ZM70.0031 46.4283L70.0011 63.101L75.0011 63.1016L75.0031 46.4289L70.0031 46.4283ZM71.1849 60.9759L55.1311 70.9176L57.7635 75.1685L73.8173 65.2267L71.1849 60.9759ZM57.7647 70.9183L41.7302 60.9766L39.0955 65.226L55.1299 75.1678L57.7647 70.9183ZM42.9128 63.1016L42.9148 46.4289L37.9148 46.4283L37.9128 63.101L42.9128 63.1016ZM53.9466 56.3898L53.9473 73.0432L58.9473 73.0429L58.9466 56.3895L53.9466 56.3898Z" fill="url(#paint12_linear)"/>
<defs>
<linearGradient id="paint0_linear" x1="19.3262" y1="50.8967" x2="19.3262" y2="73.0432" gradientUnits="userSpaceOnUse">
<stop stop-color="white"/>
<stop offset="1" stop-color="white" stop-opacity="0"/>
</linearGradient>
<linearGradient id="paint1_linear" x1="94.2256" y1="60.3762" x2="94.7302" y2="40.5042" gradientUnits="userSpaceOnUse">
<stop stop-color="white"/>
<stop offset="1" stop-color="white" stop-opacity="0"/>
</linearGradient>
<linearGradient id="paint2_linear" x1="94.5889" y1="38.6533" x2="94.5889" y2="61.999" gradientUnits="userSpaceOnUse">
<stop stop-color="white"/>
<stop offset="1" stop-color="white" stop-opacity="0"/>
</linearGradient>
<linearGradient id="paint3_linear" x1="40.67" y1="22.9305" x2="68.7278" y2="22.3901" gradientUnits="userSpaceOnUse">
<stop stop-color="white"/>
<stop offset="1" stop-color="white" stop-opacity="0"/>
</linearGradient>
<linearGradient id="paint4_linear" x1="68.3008" y1="22.1751" x2="37.4322" y2="22.1751" gradientUnits="userSpaceOnUse">
<stop stop-color="white"/>
<stop offset="1" stop-color="white" stop-opacity="0"/>
</linearGradient>
<linearGradient id="paint5_linear" x1="51.3042" y1="93.2769" x2="72.5378" y2="92.6076" gradientUnits="userSpaceOnUse">
<stop stop-color="white"/>
<stop offset="1" stop-color="white" stop-opacity="0"/>
</linearGradient>
<linearGradient id="paint6_linear" x1="77.1808" y1="92.3415" x2="45.0437" y2="92.3415" gradientUnits="userSpaceOnUse">
<stop stop-color="white"/>
<stop offset="1" stop-color="white" stop-opacity="0"/>
</linearGradient>
<linearGradient id="paint7_linear" x1="7.17921" y1="36.1538" x2="29.74" y2="5.50321" gradientUnits="userSpaceOnUse">
<stop stop-color="white"/>
<stop offset="1" stop-color="white" stop-opacity="0"/>
</linearGradient>
<linearGradient id="paint8_linear" x1="82.4287" y1="36.1538" x2="104.989" y2="5.50321" gradientUnits="userSpaceOnUse">
<stop stop-color="white"/>
<stop offset="1" stop-color="white" stop-opacity="0"/>
</linearGradient>
<linearGradient id="paint9_linear" x1="7.17921" y1="106.5" x2="29.74" y2="75.8499" gradientUnits="userSpaceOnUse">
<stop stop-color="white"/>
<stop offset="1" stop-color="white" stop-opacity="0"/>
</linearGradient>
<linearGradient id="paint10_linear" x1="82.4287" y1="106.5" x2="104.989" y2="75.8499" gradientUnits="userSpaceOnUse">
<stop stop-color="white"/>
<stop offset="1" stop-color="white" stop-opacity="0"/>
</linearGradient>
<linearGradient id="paint11_linear" x1="58.9979" y1="67.8164" x2="67.3681" y2="39.9258" gradientUnits="userSpaceOnUse">
<stop stop-color="white"/>
<stop offset="1" stop-color="white" stop-opacity="0"/>
</linearGradient>
<linearGradient id="paint12_linear" x1="56.458" y1="37.0864" x2="56.458" y2="73.043" gradientUnits="userSpaceOnUse">
<stop stop-color="white"/>
<stop offset="1" stop-color="white" stop-opacity="0"/>
</linearGradient>
</defs>
</svg>
