<svg width="195" height="282" viewBox="0 0 195 282" fill="none" xmlns="http://www.w3.org/2000/svg">
<path opacity="0.75" fill-rule="evenodd" clip-rule="evenodd" d="M20 0C16.6863 0 14 2.68629 14 6V15.1421L0 29.1421L14 43.1421V276C14 279.314 16.6863 282 20 282H189C192.314 282 195 279.314 195 276V6C195 2.68629 192.314 0 189 0H20Z" fill="#190E9A"/>
<rect x="30" y="214" width="16" height="16" rx="8" transform="rotate(-90 30 214)" fill="url(#paint0_linear)"/>
<path d="M34 206.176L36.88 209L43 203" stroke="white" stroke-width="2" stroke-linecap="round" stroke-linejoin="round"/>
<rect x="30" y="263" width="16" height="16" rx="8" transform="rotate(-90 30 263)" fill="url(#paint1_linear)"/>
<path d="M34 255.176L36.88 258L43 252" stroke="white" stroke-width="2" stroke-linecap="round" stroke-linejoin="round"/>
<path d="M33.9 21.6V25.3H40.38V27.9H33.9V33H30.66V19H41.24V21.6H33.9ZM44.4334 19H47.6734V33H44.4334V19ZM64.8359 19V33H62.1759L55.1959 24.5V33H51.9959V19H54.6759L61.6359 27.5V19H64.8359ZM72.0483 21.64H67.5683V19H79.7683V21.64H75.2883V33H72.0483V21.64ZM93.3516 30.4V33H82.5116V19H93.0916V21.6H85.7316V24.64H92.2316V27.16H85.7316V30.4H93.3516ZM103.59 33.24C102.164 33.24 100.87 32.9333 99.7105 32.32C98.5638 31.6933 97.6571 30.8333 96.9905 29.74C96.3371 28.6333 96.0105 27.3867 96.0105 26C96.0105 24.6133 96.3371 23.3733 96.9905 22.28C97.6571 21.1733 98.5638 20.3133 99.7105 19.7C100.87 19.0733 102.17 18.76 103.61 18.76C104.824 18.76 105.917 18.9733 106.89 19.4C107.877 19.8267 108.704 20.44 109.37 21.24L107.29 23.16C106.344 22.0667 105.17 21.52 103.77 21.52C102.904 21.52 102.13 21.7133 101.45 22.1C100.77 22.4733 100.237 23 99.8505 23.68C99.4771 24.36 99.2905 25.1333 99.2905 26C99.2905 26.8667 99.4771 27.64 99.8505 28.32C100.237 29 100.77 29.5333 101.45 29.92C102.13 30.2933 102.904 30.48 103.77 30.48C105.17 30.48 106.344 29.9267 107.29 28.82L109.37 30.74C108.704 31.5533 107.877 32.1733 106.89 32.6C105.904 33.0267 104.804 33.24 103.59 33.24ZM125.398 19V33H122.158V27.26H115.798V33H112.558V19H115.798V24.52H122.158V19H125.398ZM147.135 33.24L145.455 31.68C144.122 32.72 142.562 33.24 140.775 33.24C139.762 33.24 138.848 33.08 138.035 32.76C137.222 32.4267 136.582 31.9667 136.115 31.38C135.662 30.7933 135.435 30.1333 135.435 29.4C135.435 28.5333 135.675 27.7733 136.155 27.12C136.648 26.4533 137.435 25.82 138.515 25.22C138.008 24.7 137.642 24.2067 137.415 23.74C137.188 23.26 137.075 22.7667 137.075 22.26C137.075 21.58 137.255 20.98 137.615 20.46C137.975 19.94 138.482 19.54 139.135 19.26C139.802 18.9667 140.568 18.82 141.435 18.82C142.648 18.82 143.622 19.1133 144.355 19.7C145.088 20.2733 145.455 21.0533 145.455 22.04C145.455 22.76 145.235 23.4 144.795 23.96C144.368 24.52 143.675 25.06 142.715 25.58L145.275 27.96C145.582 27.32 145.815 26.5933 145.975 25.78L148.475 26.56C148.208 27.8 147.782 28.86 147.195 29.74L148.835 31.26L147.135 33.24ZM141.435 20.94C140.968 20.94 140.595 21.06 140.315 21.3C140.048 21.54 139.915 21.8467 139.915 22.22C139.915 22.5 139.988 22.7667 140.135 23.02C140.282 23.26 140.568 23.5867 140.995 24C141.675 23.64 142.148 23.32 142.415 23.04C142.682 22.7467 142.815 22.4333 142.815 22.1C142.815 21.7533 142.695 21.4733 142.455 21.26C142.215 21.0467 141.875 20.94 141.435 20.94ZM140.995 30.8C141.968 30.8 142.842 30.5267 143.615 29.98L140.235 26.82C139.608 27.18 139.162 27.5333 138.895 27.88C138.628 28.2267 138.495 28.62 138.495 29.06C138.495 29.58 138.722 30 139.175 30.32C139.628 30.64 140.235 30.8 140.995 30.8ZM40.94 49.72C41.74 49.9733 42.3667 50.4 42.82 51C43.2733 51.5867 43.5 52.3133 43.5 53.18C43.5 54.4067 43.02 55.3533 42.06 56.02C41.1133 56.6733 39.7267 57 37.9 57H30.66V43H37.5C39.2067 43 40.5133 43.3267 41.42 43.98C42.34 44.6333 42.8 45.52 42.8 46.64C42.8 47.32 42.6333 47.9267 42.3 48.46C41.98 48.9933 41.5267 49.4133 40.94 49.72ZM33.88 45.44V48.74H37.1C37.9 48.74 38.5067 48.6 38.92 48.32C39.3333 48.04 39.54 47.6267 39.54 47.08C39.54 46.5333 39.3333 46.1267 38.92 45.86C38.5067 45.58 37.9 45.44 37.1 45.44H33.88ZM37.66 54.56C38.5133 54.56 39.1533 54.42 39.58 54.14C40.02 53.86 40.24 53.4267 40.24 52.84C40.24 51.68 39.38 51.1 37.66 51.1H33.88V54.56H37.66ZM56.173 54H49.673L48.433 57H45.113L51.353 43H54.553L60.813 57H57.413L56.173 54ZM55.153 51.54L52.933 46.18L50.713 51.54H55.153ZM76.1055 43V57H73.4455L66.4655 48.5V57H63.2655V43H65.9455L72.9055 51.5V43H76.1055ZM85.5178 51.5L83.6378 53.46V57H80.4178V43H83.6378V49.54L89.8378 43H93.4378L87.6378 49.24L93.7778 57H89.9978L85.5178 51.5ZM96.2225 43H99.4625V57H96.2225V43ZM116.625 43V57H113.965L106.985 48.5V57H103.785V43H106.465L113.425 51.5V43H116.625ZM130.397 49.78H133.357V55.46C132.597 56.0333 131.717 56.4733 130.717 56.78C129.717 57.0867 128.711 57.24 127.697 57.24C126.244 57.24 124.937 56.9333 123.777 56.32C122.617 55.6933 121.704 54.8333 121.037 53.74C120.384 52.6333 120.057 51.3867 120.057 50C120.057 48.6133 120.384 47.3733 121.037 46.28C121.704 45.1733 122.624 44.3133 123.797 43.7C124.971 43.0733 126.291 42.76 127.757 42.76C128.984 42.76 130.097 42.9667 131.097 43.38C132.097 43.7933 132.937 44.3933 133.617 45.18L131.537 47.1C130.537 46.0467 129.331 45.52 127.917 45.52C127.024 45.52 126.231 45.7067 125.537 46.08C124.844 46.4533 124.304 46.98 123.917 47.66C123.531 48.34 123.337 49.12 123.337 50C123.337 50.8667 123.531 51.64 123.917 52.32C124.304 53 124.837 53.5333 125.517 53.92C126.211 54.2933 126.997 54.48 127.877 54.48C128.811 54.48 129.651 54.28 130.397 53.88V49.78Z" fill="white"/>
<path d="M40.456 102.8V114H38.376V109.2H32.584V114H30.504V102.8H32.584V107.424H38.376V102.8H40.456ZM51.8571 112.256V114H43.4571V102.8H51.6331V104.544H45.5371V107.456H50.9451V109.168H45.5371V112.256H51.8571ZM54.1759 102.8H56.2559V112.24H62.1119V114H54.1759V102.8ZM72.154 112.256V114H63.754V102.8H71.93V104.544H65.834V107.456H71.242V109.168H65.834V112.256H72.154ZM84.4248 102.8V114H82.7128L76.5368 106.416V114H74.4728V102.8H76.1848L82.3608 110.384V102.8H84.4248ZM99.1758 114L96.8878 110.72C96.7918 110.731 96.6478 110.736 96.4558 110.736H93.9278V114H91.8478V102.8H96.4558C97.4264 102.8 98.2691 102.96 98.9838 103.28C99.7091 103.6 100.264 104.059 100.648 104.656C101.032 105.253 101.224 105.963 101.224 106.784C101.224 107.627 101.016 108.352 100.6 108.96C100.194 109.568 99.6078 110.021 98.8398 110.32L101.416 114H99.1758ZM99.1278 106.784C99.1278 106.069 98.8931 105.52 98.4237 105.136C97.9544 104.752 97.2664 104.56 96.3598 104.56H93.9278V109.024H96.3598C97.2664 109.024 97.9544 108.832 98.4237 108.448C98.8931 108.053 99.1278 107.499 99.1278 106.784ZM103.551 102.8H105.631V114H103.551V102.8ZM113.268 102.8C114.239 102.8 115.082 102.96 115.796 103.28C116.522 103.6 117.076 104.059 117.46 104.656C117.844 105.253 118.036 105.963 118.036 106.784C118.036 107.595 117.844 108.304 117.46 108.912C117.076 109.509 116.522 109.968 115.796 110.288C115.082 110.608 114.239 110.768 113.268 110.768H110.74V114H108.66V102.8H113.268ZM113.172 109.008C114.079 109.008 114.767 108.816 115.236 108.432C115.706 108.048 115.94 107.499 115.94 106.784C115.94 106.069 115.706 105.52 115.236 105.136C114.767 104.752 114.079 104.56 113.172 104.56H110.74V109.008H113.172ZM120.113 102.8H122.193V112.24H128.049V114H120.113V102.8ZM138.092 112.256V114H129.692V102.8H137.868V104.544H131.772V107.456H137.18V109.168H131.772V112.256H138.092ZM145.117 110.048V114H143.037V110.08L138.637 102.8H140.861L144.141 108.256L147.453 102.8H149.501L145.117 110.048Z" fill="white"/>
<path opacity="0.5" d="M36.875 91.1042V82.5H37.9542V93H36.875L31.1 84.3812V93H30.0208V82.5H31.1L36.875 91.1042ZM45.2513 93V91.7312C44.9207 92.2368 44.4978 92.6111 43.9826 92.8542C43.4673 93.0972 42.8548 93.2188 42.1451 93.2188C41.3867 93.2188 40.7645 93.0049 40.2784 92.5771C39.802 92.1396 39.5638 91.5562 39.5638 90.8271C39.5638 90.3021 39.7096 89.8549 40.0013 89.4854C40.3027 89.116 40.7548 88.8437 41.3576 88.6687C41.7464 88.5521 42.1402 88.4646 42.5388 88.4062C42.9374 88.3382 43.5451 88.2507 44.3617 88.1437L45.1492 88.0417C45.1298 87.3417 44.9451 86.8118 44.5951 86.4521C44.2451 86.0924 43.7492 85.9125 43.1076 85.9125C41.902 85.9125 41.1582 86.3986 40.8763 87.3708L39.8555 87.05C40.0499 86.3694 40.4339 85.8444 41.0076 85.475C41.5909 85.0958 42.3103 84.9062 43.1659 84.9062C43.9242 84.9062 44.5464 85.0812 45.0326 85.4312C45.5284 85.7715 45.8735 86.2625 46.068 86.9042C46.1652 87.2833 46.2138 87.6965 46.2138 88.1437V93H45.2513ZM44.8284 90.9437C45.0423 90.5062 45.1492 89.85 45.1492 88.975C45.0228 88.9944 44.8332 89.0139 44.5805 89.0333C43.9291 89.1111 43.4235 89.1792 43.0638 89.2375C42.7041 89.2861 42.3492 89.359 41.9992 89.4562C41.0951 89.7187 40.643 90.1806 40.643 90.8417C40.643 91.2889 40.7937 91.6437 41.0951 91.9062C41.3964 92.1687 41.8048 92.3 42.3201 92.3C42.8839 92.3 43.3846 92.1833 43.8221 91.95C44.2596 91.7167 44.5951 91.3812 44.8284 90.9437ZM57.6754 85.5042C57.9476 85.7278 58.1469 85.9708 58.2733 86.2333C58.3997 86.4861 58.4775 86.7535 58.5066 87.0354C58.5455 87.3174 58.565 87.6917 58.565 88.1583L58.5504 93H57.5004V88.2021C57.5004 87.7062 57.4615 87.3271 57.3837 87.0646C57.3059 86.7924 57.1309 86.5396 56.8587 86.3062C56.5379 86.0146 56.1587 85.8687 55.7212 85.8687C55.4393 85.8687 55.1719 85.9271 54.9191 86.0437C54.6664 86.1604 54.4573 86.3257 54.2921 86.5396C54.1268 86.7437 54.015 86.9528 53.9566 87.1667C53.8983 87.3806 53.8691 87.6333 53.8691 87.925V88.1583V93H52.8046L52.8191 88.2021C52.8191 87.7062 52.7803 87.3271 52.7025 87.0646C52.6247 86.7924 52.4497 86.5396 52.1775 86.3062C52.0219 86.1701 51.8421 86.0632 51.6379 85.9854C51.4434 85.9076 51.2393 85.8687 51.0254 85.8687C50.7532 85.8687 50.4907 85.9271 50.2379 86.0437C49.9851 86.1604 49.7712 86.3257 49.5962 86.5396C49.4309 86.7437 49.3191 86.9528 49.2608 87.1667C49.2122 87.3806 49.1879 87.6333 49.1879 87.925V93H48.1087V85.125H49.0712V85.9854C49.3143 85.6451 49.6303 85.3826 50.0191 85.1979C50.4178 85.0132 50.8309 84.9208 51.2587 84.9208C51.5698 84.9208 51.8761 84.9694 52.1775 85.0667C52.4789 85.1639 52.7462 85.3097 52.9796 85.5042C53.2518 85.7181 53.4559 85.966 53.5921 86.2479L53.7233 86.0437C53.9664 85.6937 54.2872 85.4215 54.6858 85.2271C55.0844 85.0229 55.5073 84.9208 55.9546 84.9208C56.2657 84.9208 56.5719 84.9694 56.8733 85.0667C57.1747 85.1639 57.4421 85.3097 57.6754 85.5042ZM61.128 89.3687C61.1766 90.2535 61.4197 90.9486 61.8572 91.4542C62.2947 91.95 62.912 92.1979 63.7092 92.1979C64.2634 92.1979 64.7495 92.0715 65.1676 91.8187C65.5954 91.5562 65.9308 91.1771 66.1738 90.6812L67.1801 91.0604C66.869 91.7507 66.4072 92.2854 65.7947 92.6646C65.1919 93.034 64.5065 93.2188 63.7384 93.2188C62.9704 93.2188 62.2995 93.0437 61.7259 92.6937C61.162 92.3437 60.7294 91.8576 60.428 91.2354C60.1266 90.6132 59.9759 89.8986 59.9759 89.0917C59.9759 88.2653 60.1266 87.5361 60.428 86.9042C60.7294 86.2722 61.1572 85.7812 61.7113 85.4312C62.2752 85.0812 62.9412 84.9062 63.7092 84.9062C64.9148 84.9062 65.8287 85.3097 66.4509 86.1167C67.0731 86.9236 67.3648 88.0076 67.3259 89.3687H61.128ZM63.7384 85.8833C62.9606 85.8833 62.353 86.1118 61.9155 86.5687C61.4877 87.0257 61.2301 87.6528 61.1426 88.45H66.203C66.028 86.7389 65.2065 85.8833 63.7384 85.8833Z" fill="white"/>
<path d="M61.768 209.408H56.168L55.064 212H52.92L57.96 200.8H60.008L65.064 212H62.888L61.768 209.408ZM61.08 207.776L58.968 202.88L56.872 207.776H61.08ZM71.0324 203.36C71.8644 203.36 72.6057 203.541 73.2564 203.904C73.9177 204.267 74.435 204.779 74.8084 205.44C75.1817 206.101 75.3684 206.864 75.3684 207.728C75.3684 208.592 75.1817 209.36 74.8084 210.032C74.435 210.693 73.9177 211.205 73.2564 211.568C72.6057 211.931 71.8644 212.112 71.0324 212.112C69.8804 212.112 68.9684 211.728 68.2964 210.96V215.104H66.2964V203.456H68.2004V204.576C68.531 204.171 68.9364 203.867 69.4164 203.664C69.907 203.461 70.4457 203.36 71.0324 203.36ZM70.8084 210.4C71.5444 210.4 72.147 210.155 72.6164 209.664C73.0964 209.173 73.3364 208.528 73.3364 207.728C73.3364 206.928 73.0964 206.283 72.6164 205.792C72.147 205.301 71.5444 205.056 70.8084 205.056C70.3284 205.056 69.8964 205.168 69.5124 205.392C69.1284 205.605 68.8244 205.915 68.6004 206.32C68.3764 206.725 68.2644 207.195 68.2644 207.728C68.2644 208.261 68.3764 208.731 68.6004 209.136C68.8244 209.541 69.1284 209.856 69.5124 210.08C69.8964 210.293 70.3284 210.4 70.8084 210.4ZM82.0011 203.36C82.8331 203.36 83.5745 203.541 84.2251 203.904C84.8865 204.267 85.4038 204.779 85.7771 205.44C86.1505 206.101 86.3371 206.864 86.3371 207.728C86.3371 208.592 86.1505 209.36 85.7771 210.032C85.4038 210.693 84.8865 211.205 84.2251 211.568C83.5745 211.931 82.8331 212.112 82.0011 212.112C80.8491 212.112 79.9371 211.728 79.2651 210.96V215.104H77.2651V203.456H79.1691V204.576C79.4998 204.171 79.9051 203.867 80.3851 203.664C80.8758 203.461 81.4145 203.36 82.0011 203.36ZM81.7771 210.4C82.5131 210.4 83.1158 210.155 83.5851 209.664C84.0651 209.173 84.3051 208.528 84.3051 207.728C84.3051 206.928 84.0651 206.283 83.5851 205.792C83.1158 205.301 82.5131 205.056 81.7771 205.056C81.2971 205.056 80.8651 205.168 80.4811 205.392C80.0971 205.605 79.7931 205.915 79.5691 206.32C79.3451 206.725 79.2331 207.195 79.2331 207.728C79.2331 208.261 79.3451 208.731 79.5691 209.136C79.7931 209.541 80.0971 209.856 80.4811 210.08C80.8651 210.293 81.2971 210.4 81.7771 210.4ZM90.1379 204.704C90.7139 203.808 91.7272 203.36 93.1779 203.36V205.264C93.0072 205.232 92.8525 205.216 92.7139 205.216C91.9352 205.216 91.3272 205.445 90.8899 205.904C90.4525 206.352 90.2339 207.003 90.2339 207.856V212H88.2339V203.456H90.1379V204.704ZM98.6364 212.112C97.7724 212.112 96.9937 211.925 96.3004 211.552C95.607 211.179 95.063 210.661 94.6684 210C94.2844 209.328 94.0924 208.571 94.0924 207.728C94.0924 206.885 94.2844 206.133 94.6684 205.472C95.063 204.811 95.607 204.293 96.3004 203.92C96.9937 203.547 97.7724 203.36 98.6364 203.36C99.511 203.36 100.295 203.547 100.988 203.92C101.682 204.293 102.22 204.811 102.604 205.472C102.999 206.133 103.196 206.885 103.196 207.728C103.196 208.571 102.999 209.328 102.604 210C102.22 210.661 101.682 211.179 100.988 211.552C100.295 211.925 99.511 212.112 98.6364 212.112ZM98.6364 210.4C99.3724 210.4 99.9804 210.155 100.46 209.664C100.94 209.173 101.18 208.528 101.18 207.728C101.18 206.928 100.94 206.283 100.46 205.792C99.9804 205.301 99.3724 205.056 98.6364 205.056C97.9004 205.056 97.2924 205.301 96.8124 205.792C96.343 206.283 96.1084 206.928 96.1084 207.728C96.1084 208.528 96.343 209.173 96.8124 209.664C97.2924 210.155 97.9004 210.4 98.6364 210.4ZM112.875 203.456L109.211 212H107.147L103.482 203.456H105.562L108.219 209.792L110.955 203.456H112.875ZM121.922 207.776C121.922 207.915 121.911 208.112 121.89 208.368H115.186C115.303 208.997 115.607 209.499 116.098 209.872C116.599 210.235 117.218 210.416 117.954 210.416C118.893 210.416 119.666 210.107 120.274 209.488L121.346 210.72C120.962 211.179 120.477 211.525 119.89 211.76C119.303 211.995 118.642 212.112 117.906 212.112C116.967 212.112 116.141 211.925 115.426 211.552C114.711 211.179 114.157 210.661 113.762 210C113.378 209.328 113.186 208.571 113.186 207.728C113.186 206.896 113.373 206.149 113.746 205.488C114.13 204.816 114.658 204.293 115.33 203.92C116.002 203.547 116.759 203.36 117.602 203.36C118.434 203.36 119.175 203.547 119.826 203.92C120.487 204.283 120.999 204.8 121.362 205.472C121.735 206.133 121.922 206.901 121.922 207.776ZM117.602 204.96C116.962 204.96 116.418 205.152 115.97 205.536C115.533 205.909 115.266 206.411 115.17 207.04H120.018C119.933 206.421 119.671 205.92 119.234 205.536C118.797 205.152 118.253 204.96 117.602 204.96ZM132.211 200.128V212H130.291V210.896C129.961 211.301 129.55 211.605 129.059 211.808C128.579 212.011 128.046 212.112 127.459 212.112C126.638 212.112 125.897 211.931 125.235 211.568C124.585 211.205 124.073 210.693 123.699 210.032C123.326 209.36 123.139 208.592 123.139 207.728C123.139 206.864 123.326 206.101 123.699 205.44C124.073 204.779 124.585 204.267 125.235 203.904C125.897 203.541 126.638 203.36 127.459 203.36C128.025 203.36 128.542 203.456 129.011 203.648C129.481 203.84 129.881 204.128 130.211 204.512V200.128H132.211ZM127.699 210.4C128.179 210.4 128.611 210.293 128.995 210.08C129.379 209.856 129.683 209.541 129.907 209.136C130.131 208.731 130.243 208.261 130.243 207.728C130.243 207.195 130.131 206.725 129.907 206.32C129.683 205.915 129.379 205.605 128.995 205.392C128.611 205.168 128.179 205.056 127.699 205.056C127.219 205.056 126.787 205.168 126.403 205.392C126.019 205.605 125.715 205.915 125.491 206.32C125.267 206.725 125.155 207.195 125.155 207.728C125.155 208.261 125.267 208.731 125.491 209.136C125.715 209.541 126.019 209.856 126.403 210.08C126.787 210.293 127.219 210.4 127.699 210.4Z" fill="white"/>
<path opacity="0.5" d="M36.8313 186.231C37.0451 186.455 37.2104 186.722 37.3271 187.033C37.4438 187.344 37.5021 187.66 37.5021 187.981C37.5021 188.39 37.4389 188.778 37.3125 189.148C37.1958 189.508 37.0111 189.819 36.7583 190.081C36.4278 190.431 36.0729 190.674 35.6938 190.81C35.3146 190.937 34.7993 191 34.1479 191H30.0208V180.5H34.075C34.9306 180.5 35.65 180.772 36.2333 181.317C36.4764 181.56 36.6611 181.851 36.7875 182.192C36.9236 182.522 36.9965 182.872 37.0063 183.242C37.0063 183.543 36.9528 183.835 36.8458 184.117C36.7389 184.399 36.5931 184.647 36.4083 184.86C36.2236 185.084 36 185.274 35.7375 185.429C36.1847 185.614 36.5493 185.881 36.8313 186.231ZM31.1 181.521V184.977H34.0604C34.3521 184.977 34.6292 184.914 34.8917 184.787C35.1639 184.661 35.3826 184.486 35.5479 184.262C35.7813 183.961 35.8979 183.592 35.8979 183.154C35.8979 182.717 35.7424 182.342 35.4313 182.031C35.091 181.691 34.634 181.521 34.0604 181.521H31.1ZM35.8833 189.337C36.2236 189.007 36.3938 188.589 36.3938 188.083C36.3938 187.587 36.2576 187.16 35.9854 186.8C35.8007 186.547 35.5528 186.353 35.2417 186.217C34.9306 186.071 34.6292 185.998 34.3375 185.998H31.1V189.965H34.1479C34.5271 189.965 34.8479 189.921 35.1104 189.833C35.3729 189.746 35.6306 189.581 35.8833 189.337ZM40.2137 180.325V181.535H39.1491V180.325H40.2137ZM40.2137 183.125V191H39.1491V183.125H40.2137ZM45.7034 191.219C44.9353 191.219 44.2694 191.044 43.7055 190.694C43.1416 190.344 42.7089 189.853 42.4076 189.221C42.1159 188.589 41.9701 187.865 41.9701 187.048C41.9701 186.231 42.1207 185.512 42.4221 184.89C42.7235 184.258 43.1562 183.772 43.7201 183.431C44.2839 183.081 44.9451 182.906 45.7034 182.906C46.4714 182.906 47.1374 183.081 47.7013 183.431C48.2652 183.781 48.693 184.267 48.9846 184.89C49.286 185.512 49.4367 186.231 49.4367 187.048C49.4367 187.874 49.286 188.603 48.9846 189.235C48.6832 189.858 48.2506 190.344 47.6867 190.694C47.1326 191.044 46.4714 191.219 45.7034 191.219ZM48.2992 187.048C48.2992 186.076 48.0756 185.312 47.6284 184.758C47.1909 184.204 46.5492 183.927 45.7034 183.927C44.8478 183.927 44.2013 184.209 43.7638 184.773C43.3263 185.337 43.1076 186.095 43.1076 187.048C43.1076 188.02 43.3312 188.788 43.7784 189.352C44.2256 189.916 44.8673 190.198 45.7034 190.198C46.5492 190.198 47.1909 189.916 47.6284 189.352C48.0756 188.778 48.2992 188.01 48.2992 187.048ZM60.6012 183.504C60.8734 183.728 61.0727 183.971 61.1991 184.233C61.3255 184.486 61.4033 184.753 61.4324 185.035C61.4713 185.317 61.4908 185.692 61.4908 186.158L61.4762 191H60.4262V186.202C60.4262 185.706 60.3873 185.327 60.3095 185.065C60.2317 184.792 60.0567 184.54 59.7845 184.306C59.4637 184.015 59.0845 183.869 58.647 183.869C58.3651 183.869 58.0977 183.927 57.8449 184.044C57.5921 184.16 57.3831 184.326 57.2178 184.54C57.0526 184.744 56.9408 184.953 56.8824 185.167C56.8241 185.381 56.7949 185.633 56.7949 185.925V186.158V191H55.7303L55.7449 186.202C55.7449 185.706 55.706 185.327 55.6283 185.065C55.5505 184.792 55.3755 184.54 55.1033 184.306C54.9477 184.17 54.7678 184.063 54.5637 183.985C54.3692 183.908 54.1651 183.869 53.9512 183.869C53.6789 183.869 53.4164 183.927 53.1637 184.044C52.9109 184.16 52.697 184.326 52.522 184.54C52.3567 184.744 52.2449 184.953 52.1866 185.167C52.138 185.381 52.1137 185.633 52.1137 185.925V191H51.0345V183.125H51.997V183.985C52.2401 183.645 52.556 183.383 52.9449 183.198C53.3435 183.013 53.7567 182.921 54.1845 182.921C54.4956 182.921 54.8019 182.969 55.1033 183.067C55.4046 183.164 55.672 183.31 55.9053 183.504C56.1776 183.718 56.3817 183.966 56.5178 184.248L56.6491 184.044C56.8921 183.694 57.213 183.422 57.6116 183.227C58.0102 183.023 58.4331 182.921 58.8803 182.921C59.1915 182.921 59.4977 182.969 59.7991 183.067C60.1005 183.164 60.3678 183.31 60.6012 183.504ZM64.0538 187.369C64.1024 188.253 64.3454 188.949 64.7829 189.454C65.2204 189.95 65.8378 190.198 66.635 190.198C67.1892 190.198 67.6753 190.072 68.0934 189.819C68.5211 189.556 68.8566 189.177 69.0996 188.681L70.1059 189.06C69.7947 189.751 69.3329 190.285 68.7204 190.665C68.1177 191.034 67.4322 191.219 66.6642 191.219C65.8961 191.219 65.2253 191.044 64.6517 190.694C64.0878 190.344 63.6552 189.858 63.3538 189.235C63.0524 188.613 62.9017 187.899 62.9017 187.092C62.9017 186.265 63.0524 185.536 63.3538 184.904C63.6552 184.272 64.0829 183.781 64.6371 183.431C65.201 183.081 65.867 182.906 66.635 182.906C67.8406 182.906 68.7545 183.31 69.3767 184.117C69.9989 184.924 70.2906 186.008 70.2517 187.369H64.0538ZM66.6642 183.883C65.8864 183.883 65.2788 184.112 64.8413 184.569C64.4135 185.026 64.1559 185.653 64.0684 186.45H69.1288C68.9538 184.739 68.1322 183.883 66.6642 183.883ZM73.7517 188.112V188.637C73.7517 188.851 73.7614 189.026 73.7809 189.162C73.8003 189.289 73.8441 189.41 73.9121 189.527C73.9899 189.702 74.1114 189.843 74.2767 189.95C74.4517 190.047 74.6461 190.106 74.86 190.125C74.9475 190.135 75.0836 190.14 75.2684 190.14C75.5503 190.14 75.8468 190.115 76.1579 190.067V191C75.8274 191.078 75.4822 191.117 75.1225 191.117C74.8892 191.117 74.6704 191.102 74.4663 191.073C74.1066 191.024 73.8003 190.922 73.5475 190.767C73.3045 190.601 73.1003 190.373 72.935 190.081C72.8086 189.838 72.7309 189.59 72.7017 189.337C72.6822 189.085 72.6725 188.686 72.6725 188.142V184.044H70.9954V183.125H72.6725V180.937H73.7517V183.125H76.1579V184.044H73.7517V188.112ZM79.297 183.635C79.5109 183.441 79.7734 183.295 80.0845 183.198C80.3956 183.101 80.7067 183.052 81.0178 183.052C81.2123 183.052 81.4067 183.076 81.6012 183.125V184.131C81.3873 184.083 81.188 184.058 81.0033 184.058C80.4977 184.058 80.0651 184.199 79.7053 184.481C79.3359 184.773 79.0928 185.157 78.9762 185.633C78.8595 186.11 78.8012 186.717 78.8012 187.456V191H77.722V183.125H78.6845V184.379C78.8303 184.117 79.0345 183.869 79.297 183.635ZM84.1961 180.325V181.535H83.1315V180.325H84.1961ZM84.1961 183.125V191H83.1315V183.125H84.1961ZM91.9025 185.429C91.7178 184.953 91.4261 184.583 91.0275 184.321C90.6289 184.058 90.1719 183.927 89.6566 183.927C88.8205 183.927 88.1837 184.214 87.7462 184.787C87.3184 185.351 87.0997 186.11 87.09 187.062C87.0997 188.025 87.3233 188.788 87.7608 189.352C88.1983 189.916 88.8303 190.198 89.6566 190.198C90.1816 190.198 90.6337 190.076 91.0129 189.833C91.3921 189.581 91.6837 189.221 91.8879 188.754L92.9525 189.06C92.6608 189.77 92.233 190.31 91.6691 190.679C91.1053 191.039 90.4344 191.219 89.6566 191.219C88.8789 191.219 88.2129 191.044 87.6587 190.694C87.1143 190.344 86.6962 189.858 86.4046 189.235C86.1129 188.603 85.9622 187.879 85.9525 187.062C85.9719 185.799 86.3073 184.792 86.9587 184.044C87.6101 183.285 88.5143 182.906 89.6712 182.906C90.4684 182.906 91.1587 183.101 91.7421 183.49C92.3254 183.878 92.7289 184.408 92.9525 185.079L91.9025 185.429ZM103.478 183.125L100.62 191H99.5113L96.653 183.125H97.7467L100.065 189.6L102.384 183.125H103.478ZM105.439 187.369C105.487 188.253 105.73 188.949 106.168 189.454C106.605 189.95 107.223 190.198 108.02 190.198C108.574 190.198 109.06 190.072 109.478 189.819C109.906 189.556 110.241 189.177 110.484 188.681L111.491 189.06C111.18 189.751 110.718 190.285 110.105 190.665C109.502 191.034 108.817 191.219 108.049 191.219C107.281 191.219 106.61 191.044 106.036 190.694C105.473 190.344 105.04 189.858 104.739 189.235C104.437 188.613 104.286 187.899 104.286 187.092C104.286 186.265 104.437 185.536 104.739 184.904C105.04 184.272 105.468 183.781 106.022 183.431C106.586 183.081 107.252 182.906 108.02 182.906C109.225 182.906 110.139 183.31 110.761 184.117C111.384 184.924 111.675 186.008 111.636 187.369H105.439ZM108.049 183.883C107.271 183.883 106.664 184.112 106.226 184.569C105.798 185.026 105.541 185.653 105.453 186.45H110.514C110.339 184.739 109.517 183.883 108.049 183.883ZM114.83 183.635C115.044 183.441 115.307 183.295 115.618 183.198C115.929 183.101 116.24 183.052 116.551 183.052C116.745 183.052 116.94 183.076 117.134 183.125V184.131C116.92 184.083 116.721 184.058 116.536 184.058C116.031 184.058 115.598 184.199 115.239 184.481C114.869 184.773 114.626 185.157 114.509 185.633C114.393 186.11 114.334 186.717 114.334 187.456V191H113.255V183.125H114.218V184.379C114.364 184.117 114.568 183.869 114.83 183.635ZM119.729 180.325V181.535H118.665V180.325H119.729ZM119.729 183.125V191H118.665V183.125H119.729ZM125 181.185C124.582 181.185 124.271 181.287 124.067 181.492C123.872 181.686 123.775 181.997 123.775 182.425V183.125H125.934V184.044H123.775V191H122.711V184.044H121.34V183.125H122.711V182.542C122.701 182.182 122.725 181.866 122.784 181.594C122.852 181.322 122.988 181.074 123.192 180.85C123.406 180.617 123.654 180.466 123.936 180.398C124.218 180.32 124.548 180.281 124.927 180.281H125.934V181.185H125ZM128.534 180.325V181.535H127.469V180.325H128.534ZM128.534 183.125V191H127.469V183.125H128.534ZM136.24 185.429C136.056 184.953 135.764 184.583 135.365 184.321C134.967 184.058 134.51 183.927 133.995 183.927C133.158 183.927 132.522 184.214 132.084 184.787C131.656 185.351 131.438 186.11 131.428 187.062C131.438 188.025 131.661 188.788 132.099 189.352C132.536 189.916 133.168 190.198 133.995 190.198C134.52 190.198 134.972 190.076 135.351 189.833C135.73 189.581 136.022 189.221 136.226 188.754L137.29 189.06C136.999 189.77 136.571 190.31 136.007 190.679C135.443 191.039 134.772 191.219 133.995 191.219C133.217 191.219 132.551 191.044 131.997 190.694C131.452 190.344 131.034 189.858 130.742 189.235C130.451 188.603 130.3 187.879 130.29 187.062C130.31 185.799 130.645 184.792 131.297 184.044C131.948 183.285 132.852 182.906 134.009 182.906C134.806 182.906 135.497 183.101 136.08 183.49C136.663 183.878 137.067 184.408 137.29 185.079L136.24 185.429ZM144.017 191V189.731C143.686 190.237 143.263 190.611 142.748 190.854C142.233 191.097 141.62 191.219 140.911 191.219C140.152 191.219 139.53 191.005 139.044 190.577C138.568 190.14 138.329 189.556 138.329 188.827C138.329 188.302 138.475 187.855 138.767 187.485C139.068 187.116 139.52 186.844 140.123 186.669C140.512 186.552 140.906 186.465 141.304 186.406C141.703 186.338 142.311 186.251 143.127 186.144L143.915 186.042C143.895 185.342 143.711 184.812 143.361 184.452C143.011 184.092 142.515 183.912 141.873 183.912C140.668 183.912 139.924 184.399 139.642 185.371L138.621 185.05C138.816 184.369 139.2 183.844 139.773 183.475C140.357 183.096 141.076 182.906 141.932 182.906C142.69 182.906 143.312 183.081 143.798 183.431C144.294 183.772 144.639 184.262 144.834 184.904C144.931 185.283 144.979 185.697 144.979 186.144V191H144.017ZM143.594 188.944C143.808 188.506 143.915 187.85 143.915 186.975C143.788 186.994 143.599 187.014 143.346 187.033C142.695 187.111 142.189 187.179 141.829 187.237C141.47 187.286 141.115 187.359 140.765 187.456C139.861 187.719 139.409 188.181 139.409 188.842C139.409 189.289 139.559 189.644 139.861 189.906C140.162 190.169 140.57 190.3 141.086 190.3C141.65 190.3 142.15 190.183 142.588 189.95C143.025 189.717 143.361 189.381 143.594 188.944ZM148.756 188.112V188.637C148.756 188.851 148.765 189.026 148.785 189.162C148.804 189.289 148.848 189.41 148.916 189.527C148.994 189.702 149.115 189.843 149.281 189.95C149.456 190.047 149.65 190.106 149.864 190.125C149.951 190.135 150.088 190.14 150.272 190.14C150.554 190.14 150.851 190.115 151.162 190.067V191C150.831 191.078 150.486 191.117 150.126 191.117C149.893 191.117 149.674 191.102 149.47 191.073C149.11 191.024 148.804 190.922 148.551 190.767C148.308 190.601 148.104 190.373 147.939 190.081C147.813 189.838 147.735 189.59 147.706 189.337C147.686 189.085 147.676 188.686 147.676 188.142V184.044H145.999V183.125H147.676V180.937H148.756V183.125H151.162V184.044H148.756V188.112ZM153.936 180.325V181.535H152.872V180.325H153.936ZM153.936 183.125V191H152.872V183.125H153.936ZM159.426 191.219C158.658 191.219 157.992 191.044 157.428 190.694C156.864 190.344 156.432 189.853 156.13 189.221C155.839 188.589 155.693 187.865 155.693 187.048C155.693 186.231 155.843 185.512 156.145 184.89C156.446 184.258 156.879 183.772 157.443 183.431C158.007 183.081 158.668 182.906 159.426 182.906C160.194 182.906 160.86 183.081 161.424 183.431C161.988 183.781 162.416 184.267 162.707 184.89C163.009 185.512 163.159 186.231 163.159 187.048C163.159 187.874 163.009 188.603 162.707 189.235C162.406 189.858 161.973 190.344 161.409 190.694C160.855 191.044 160.194 191.219 159.426 191.219ZM162.022 187.048C162.022 186.076 161.798 185.312 161.351 184.758C160.914 184.204 160.272 183.927 159.426 183.927C158.57 183.927 157.924 184.209 157.486 184.773C157.049 185.337 156.83 186.095 156.83 187.048C156.83 188.02 157.054 188.788 157.501 189.352C157.948 189.916 158.59 190.198 159.426 190.198C160.272 190.198 160.914 189.916 161.351 189.352C161.798 188.778 162.022 188.01 162.022 187.048ZM170.299 183.562C170.795 183.932 171.125 184.418 171.29 185.021C171.456 185.624 171.534 186.343 171.524 187.179V191H170.445V187.208C170.445 186.508 170.381 185.93 170.255 185.473C170.129 185.016 169.886 184.651 169.526 184.379C169.127 184.097 168.665 183.956 168.14 183.956C167.518 183.956 167.022 184.126 166.653 184.467C166.274 184.797 166.031 185.249 165.924 185.823C165.865 186.095 165.836 186.469 165.836 186.946V191H164.757V183.125H165.72V184.233C165.827 184.068 165.953 183.912 166.099 183.767C166.352 183.504 166.648 183.31 166.988 183.183C167.338 183.047 167.698 182.969 168.068 182.95C168.136 182.94 168.243 182.935 168.388 182.935C169.137 182.935 169.774 183.144 170.299 183.562Z" fill="white"/>
<path d="M61.768 258.408H56.168L55.064 261H52.92L57.96 249.8H60.008L65.064 261H62.888L61.768 258.408ZM61.08 256.776L58.968 251.88L56.872 256.776H61.08ZM71.0324 252.36C71.8644 252.36 72.6057 252.541 73.2564 252.904C73.9177 253.267 74.435 253.779 74.8084 254.44C75.1817 255.101 75.3684 255.864 75.3684 256.728C75.3684 257.592 75.1817 258.36 74.8084 259.032C74.435 259.693 73.9177 260.205 73.2564 260.568C72.6057 260.931 71.8644 261.112 71.0324 261.112C69.8804 261.112 68.9684 260.728 68.2964 259.96V264.104H66.2964V252.456H68.2004V253.576C68.531 253.171 68.9364 252.867 69.4164 252.664C69.907 252.461 70.4457 252.36 71.0324 252.36ZM70.8084 259.4C71.5444 259.4 72.147 259.155 72.6164 258.664C73.0964 258.173 73.3364 257.528 73.3364 256.728C73.3364 255.928 73.0964 255.283 72.6164 254.792C72.147 254.301 71.5444 254.056 70.8084 254.056C70.3284 254.056 69.8964 254.168 69.5124 254.392C69.1284 254.605 68.8244 254.915 68.6004 255.32C68.3764 255.725 68.2644 256.195 68.2644 256.728C68.2644 257.261 68.3764 257.731 68.6004 258.136C68.8244 258.541 69.1284 258.856 69.5124 259.08C69.8964 259.293 70.3284 259.4 70.8084 259.4ZM82.0011 252.36C82.8331 252.36 83.5745 252.541 84.2251 252.904C84.8865 253.267 85.4038 253.779 85.7771 254.44C86.1505 255.101 86.3371 255.864 86.3371 256.728C86.3371 257.592 86.1505 258.36 85.7771 259.032C85.4038 259.693 84.8865 260.205 84.2251 260.568C83.5745 260.931 82.8331 261.112 82.0011 261.112C80.8491 261.112 79.9371 260.728 79.2651 259.96V264.104H77.2651V252.456H79.1691V253.576C79.4998 253.171 79.9051 252.867 80.3851 252.664C80.8758 252.461 81.4145 252.36 82.0011 252.36ZM81.7771 259.4C82.5131 259.4 83.1158 259.155 83.5851 258.664C84.0651 258.173 84.3051 257.528 84.3051 256.728C84.3051 255.928 84.0651 255.283 83.5851 254.792C83.1158 254.301 82.5131 254.056 81.7771 254.056C81.2971 254.056 80.8651 254.168 80.4811 254.392C80.0971 254.605 79.7931 254.915 79.5691 255.32C79.3451 255.725 79.2331 256.195 79.2331 256.728C79.2331 257.261 79.3451 257.731 79.5691 258.136C79.7931 258.541 80.0971 258.856 80.4811 259.08C80.8651 259.293 81.2971 259.4 81.7771 259.4ZM90.1379 253.704C90.7139 252.808 91.7272 252.36 93.1779 252.36V254.264C93.0072 254.232 92.8525 254.216 92.7139 254.216C91.9352 254.216 91.3272 254.445 90.8899 254.904C90.4525 255.352 90.2339 256.003 90.2339 256.856V261H88.2339V252.456H90.1379V253.704ZM98.6364 261.112C97.7724 261.112 96.9937 260.925 96.3004 260.552C95.607 260.179 95.063 259.661 94.6684 259C94.2844 258.328 94.0924 257.571 94.0924 256.728C94.0924 255.885 94.2844 255.133 94.6684 254.472C95.063 253.811 95.607 253.293 96.3004 252.92C96.9937 252.547 97.7724 252.36 98.6364 252.36C99.511 252.36 100.295 252.547 100.988 252.92C101.682 253.293 102.22 253.811 102.604 254.472C102.999 255.133 103.196 255.885 103.196 256.728C103.196 257.571 102.999 258.328 102.604 259C102.22 259.661 101.682 260.179 100.988 260.552C100.295 260.925 99.511 261.112 98.6364 261.112ZM98.6364 259.4C99.3724 259.4 99.9804 259.155 100.46 258.664C100.94 258.173 101.18 257.528 101.18 256.728C101.18 255.928 100.94 255.283 100.46 254.792C99.9804 254.301 99.3724 254.056 98.6364 254.056C97.9004 254.056 97.2924 254.301 96.8124 254.792C96.343 255.283 96.1084 255.928 96.1084 256.728C96.1084 257.528 96.343 258.173 96.8124 258.664C97.2924 259.155 97.9004 259.4 98.6364 259.4ZM112.875 252.456L109.211 261H107.147L103.482 252.456H105.562L108.219 258.792L110.955 252.456H112.875ZM121.922 256.776C121.922 256.915 121.911 257.112 121.89 257.368H115.186C115.303 257.997 115.607 258.499 116.098 258.872C116.599 259.235 117.218 259.416 117.954 259.416C118.893 259.416 119.666 259.107 120.274 258.488L121.346 259.72C120.962 260.179 120.477 260.525 119.89 260.76C119.303 260.995 118.642 261.112 117.906 261.112C116.967 261.112 116.141 260.925 115.426 260.552C114.711 260.179 114.157 259.661 113.762 259C113.378 258.328 113.186 257.571 113.186 256.728C113.186 255.896 113.373 255.149 113.746 254.488C114.13 253.816 114.658 253.293 115.33 252.92C116.002 252.547 116.759 252.36 117.602 252.36C118.434 252.36 119.175 252.547 119.826 252.92C120.487 253.283 120.999 253.8 121.362 254.472C121.735 255.133 121.922 255.901 121.922 256.776ZM117.602 253.96C116.962 253.96 116.418 254.152 115.97 254.536C115.533 254.909 115.266 255.411 115.17 256.04H120.018C119.933 255.421 119.671 254.92 119.234 254.536C118.797 254.152 118.253 253.96 117.602 253.96ZM132.211 249.128V261H130.291V259.896C129.961 260.301 129.55 260.605 129.059 260.808C128.579 261.011 128.046 261.112 127.459 261.112C126.638 261.112 125.897 260.931 125.235 260.568C124.585 260.205 124.073 259.693 123.699 259.032C123.326 258.36 123.139 257.592 123.139 256.728C123.139 255.864 123.326 255.101 123.699 254.44C124.073 253.779 124.585 253.267 125.235 252.904C125.897 252.541 126.638 252.36 127.459 252.36C128.025 252.36 128.542 252.456 129.011 252.648C129.481 252.84 129.881 253.128 130.211 253.512V249.128H132.211ZM127.699 259.4C128.179 259.4 128.611 259.293 128.995 259.08C129.379 258.856 129.683 258.541 129.907 258.136C130.131 257.731 130.243 257.261 130.243 256.728C130.243 256.195 130.131 255.725 129.907 255.32C129.683 254.915 129.379 254.605 128.995 254.392C128.611 254.168 128.179 254.056 127.699 254.056C127.219 254.056 126.787 254.168 126.403 254.392C126.019 254.605 125.715 254.915 125.491 255.32C125.267 255.725 125.155 256.195 125.155 256.728C125.155 257.261 125.267 257.731 125.491 258.136C125.715 258.541 126.019 258.856 126.403 259.08C126.787 259.293 127.219 259.4 127.699 259.4Z" fill="white"/>
<path opacity="0.5" d="M34.8188 229.558C35.616 229.675 36.2382 230.03 36.6854 230.623C37.1424 231.206 37.3708 231.916 37.3708 232.752C37.3708 233.598 37.1424 234.312 36.6854 234.896C36.2382 235.479 35.616 235.834 34.8188 235.96C34.5757 235.999 34.3278 236.019 34.075 236.019H31.0854V240H30.0208V229.5H34.075C34.3278 229.5 34.5757 229.519 34.8188 229.558ZM34.7021 234.925C35.2076 234.818 35.5917 234.56 35.8542 234.152C36.1264 233.744 36.2625 233.277 36.2625 232.752C36.2625 232.227 36.1264 231.765 35.8542 231.367C35.5917 230.958 35.2076 230.701 34.7021 230.594C34.5076 230.545 34.2889 230.521 34.0458 230.521H31.0854V234.983H34.0458C34.2792 234.983 34.4979 234.964 34.7021 234.925ZM40.4005 232.635C40.6144 232.441 40.8769 232.295 41.188 232.198C41.4991 232.101 41.8102 232.052 42.1214 232.052C42.3158 232.052 42.5102 232.076 42.7047 232.125V233.131C42.4908 233.083 42.2915 233.058 42.1068 233.058C41.6012 233.058 41.1686 233.199 40.8089 233.481C40.4394 233.773 40.1964 234.157 40.0797 234.633C39.963 235.11 39.9047 235.717 39.9047 236.456V240H38.8255V232.125H39.788V233.379C39.9339 233.117 40.138 232.869 40.4005 232.635ZM47.0979 240.219C46.3299 240.219 45.6639 240.044 45.1 239.694C44.5361 239.344 44.1035 238.853 43.8021 238.221C43.5104 237.589 43.3646 236.865 43.3646 236.048C43.3646 235.231 43.5153 234.512 43.8167 233.89C44.1181 233.258 44.5507 232.772 45.1146 232.431C45.6785 232.081 46.3396 231.906 47.0979 231.906C47.866 231.906 48.5319 232.081 49.0958 232.431C49.6597 232.781 50.0875 233.267 50.3792 233.89C50.6806 234.512 50.8313 235.231 50.8313 236.048C50.8313 236.874 50.6806 237.603 50.3792 238.235C50.0778 238.858 49.6451 239.344 49.0813 239.694C48.5271 240.044 47.866 240.219 47.0979 240.219ZM49.6938 236.048C49.6938 235.076 49.4701 234.312 49.0229 233.758C48.5854 233.204 47.9438 232.927 47.0979 232.927C46.2424 232.927 45.5958 233.209 45.1583 233.773C44.7208 234.337 44.5021 235.095 44.5021 236.048C44.5021 237.02 44.7257 237.788 45.1729 238.352C45.6201 238.916 46.2618 239.198 47.0979 239.198C47.9438 239.198 48.5854 238.916 49.0229 238.352C49.4701 237.778 49.6938 237.01 49.6938 236.048ZM55.7249 240.219C54.9568 240.219 54.2908 240.044 53.727 239.694C53.1631 239.344 52.7304 238.853 52.429 238.221C52.1374 237.589 51.9915 236.865 51.9915 236.048C51.9915 235.231 52.1422 234.512 52.4436 233.89C52.745 233.258 53.1776 232.772 53.7415 232.431C54.3054 232.081 54.9665 231.906 55.7249 231.906C56.4929 231.906 57.1589 232.081 57.7228 232.431C58.2867 232.781 58.7145 233.267 59.0061 233.89C59.3075 234.512 59.4582 235.231 59.4582 236.048C59.4582 236.874 59.3075 237.603 59.0061 238.235C58.7047 238.858 58.2721 239.344 57.7082 239.694C57.154 240.044 56.4929 240.219 55.7249 240.219ZM58.3207 236.048C58.3207 235.076 58.0971 234.312 57.6499 233.758C57.2124 233.204 56.5707 232.927 55.7249 232.927C54.8693 232.927 54.2228 233.209 53.7853 233.773C53.3478 234.337 53.129 235.095 53.129 236.048C53.129 237.02 53.3526 237.788 53.7999 238.352C54.2471 238.916 54.8888 239.198 55.7249 239.198C56.5707 239.198 57.2124 238.916 57.6499 238.352C58.0971 237.778 58.3207 237.01 58.3207 236.048ZM64.1331 230.185C63.715 230.185 63.4039 230.287 63.1997 230.492C63.0053 230.686 62.9081 230.997 62.9081 231.425V232.125H65.0664V233.044H62.9081V240H61.8435V233.044H60.4727V232.125H61.8435V231.542C61.8338 231.182 61.8581 230.866 61.9164 230.594C61.9845 230.322 62.1206 230.074 62.3247 229.85C62.5386 229.617 62.7865 229.466 63.0685 229.398C63.3504 229.32 63.681 229.281 64.0602 229.281H65.0664V230.185H64.1331ZM72.4456 240.219C71.6775 240.219 71.0115 240.044 70.4477 239.694C69.8838 239.344 69.4511 238.853 69.1497 238.221C68.8581 237.589 68.7122 236.865 68.7122 236.048C68.7122 235.231 68.8629 234.512 69.1643 233.89C69.4657 233.258 69.8984 232.772 70.4622 232.431C71.0261 232.081 71.6872 231.906 72.4456 231.906C73.2136 231.906 73.8796 232.081 74.4435 232.431C75.0074 232.781 75.4352 233.267 75.7268 233.89C76.0282 234.512 76.1789 235.231 76.1789 236.048C76.1789 236.874 76.0282 237.603 75.7268 238.235C75.4254 238.858 74.9928 239.344 74.4289 239.694C73.8747 240.044 73.2136 240.219 72.4456 240.219ZM75.0414 236.048C75.0414 235.076 74.8178 234.312 74.3706 233.758C73.9331 233.204 73.2914 232.927 72.4456 232.927C71.59 232.927 70.9435 233.209 70.506 233.773C70.0685 234.337 69.8497 235.095 69.8497 236.048C69.8497 237.02 70.0734 237.788 70.5206 238.352C70.9678 238.916 71.6095 239.198 72.4456 239.198C73.2914 239.198 73.9331 238.916 74.3706 238.352C74.8178 237.778 75.0414 237.01 75.0414 236.048ZM80.8538 230.185C80.4357 230.185 80.1246 230.287 79.9204 230.492C79.726 230.686 79.6288 230.997 79.6288 231.425V232.125H81.7871V233.044H79.6288V240H78.5642V233.044H77.1934V232.125H78.5642V231.542C78.5545 231.182 78.5788 230.866 78.6371 230.594C78.7052 230.322 78.8413 230.074 79.0454 229.85C79.2593 229.617 79.5072 229.466 79.7892 229.398C80.0711 229.32 80.4017 229.281 80.7809 229.281H81.7871V230.185H80.8538ZM91.7913 237.448H87.1392L86.2642 240H85.1413L88.7579 229.5H90.1871L93.8038 240H92.6809L91.7913 237.448ZM91.4413 236.442L89.4579 230.71L87.4892 236.442H91.4413ZM101.704 229.5V240H100.742V238.921C100.45 239.329 100.086 239.65 99.648 239.883C99.2203 240.107 98.7293 240.219 98.1751 240.219C97.4557 240.219 96.8286 240.039 96.2939 239.679C95.7689 239.319 95.3654 238.824 95.0835 238.192C94.8112 237.56 94.6751 236.845 94.6751 236.048C94.6751 235.26 94.8112 234.556 95.0835 233.933C95.3654 233.301 95.764 232.806 96.2793 232.446C96.8043 232.086 97.4217 231.906 98.1314 231.906C99.2008 231.906 100.037 232.29 100.64 233.058V229.5H101.704ZM98.2772 239.227C99.0842 239.227 99.6967 238.94 100.115 238.367C100.533 237.783 100.742 237.01 100.742 236.048C100.742 235.095 100.533 234.332 100.115 233.758C99.6967 233.185 99.0939 232.898 98.3064 232.898C97.4897 232.898 96.8675 233.19 96.4397 233.773C96.0217 234.356 95.8126 235.115 95.8126 236.048C95.8126 236.991 96.0217 237.759 96.4397 238.352C96.8675 238.935 97.48 239.227 98.2772 239.227ZM110.331 229.5V240H109.369V238.921C109.077 239.329 108.713 239.65 108.275 239.883C107.847 240.107 107.356 240.219 106.802 240.219C106.083 240.219 105.456 240.039 104.921 239.679C104.396 239.319 103.992 238.824 103.71 238.192C103.438 237.56 103.302 236.845 103.302 236.048C103.302 235.26 103.438 234.556 103.71 233.933C103.992 233.301 104.391 232.806 104.906 232.446C105.431 232.086 106.049 231.906 106.758 231.906C107.828 231.906 108.664 232.29 109.267 233.058V229.5H110.331ZM106.904 239.227C107.711 239.227 108.324 238.94 108.742 238.367C109.16 237.783 109.369 237.01 109.369 236.048C109.369 235.095 109.16 234.332 108.742 233.758C108.324 233.185 107.721 232.898 106.933 232.898C106.117 232.898 105.494 233.19 105.067 233.773C104.649 234.356 104.44 235.115 104.44 236.048C104.44 236.991 104.649 237.759 105.067 238.352C105.494 238.935 106.107 239.227 106.904 239.227ZM113.942 232.635C114.155 232.441 114.418 232.295 114.729 232.198C115.04 232.101 115.351 232.052 115.662 232.052C115.857 232.052 116.051 232.076 116.246 232.125V233.131C116.032 233.083 115.833 233.058 115.648 233.058C115.142 233.058 114.71 233.199 114.35 233.481C113.98 233.773 113.737 234.157 113.621 234.633C113.504 235.11 113.446 235.717 113.446 236.456V240H112.367V232.125H113.329V233.379C113.475 233.117 113.679 232.869 113.942 232.635ZM118.058 236.369C118.106 237.253 118.349 237.949 118.787 238.454C119.224 238.95 119.842 239.198 120.639 239.198C121.193 239.198 121.679 239.072 122.097 238.819C122.525 238.556 122.86 238.177 123.104 237.681L124.11 238.06C123.799 238.751 123.337 239.285 122.724 239.665C122.122 240.034 121.436 240.219 120.668 240.219C119.9 240.219 119.229 240.044 118.656 239.694C118.092 239.344 117.659 238.858 117.358 238.235C117.056 237.613 116.906 236.899 116.906 236.092C116.906 235.265 117.056 234.536 117.358 233.904C117.659 233.272 118.087 232.781 118.641 232.431C119.205 232.081 119.871 231.906 120.639 231.906C121.844 231.906 122.758 232.31 123.381 233.117C124.003 233.924 124.294 235.008 124.256 236.369H118.058ZM120.668 232.883C119.89 232.883 119.283 233.112 118.845 233.569C118.417 234.026 118.16 234.653 118.072 235.45H123.133C122.958 233.739 122.136 232.883 120.668 232.883ZM130.804 234.4C130.726 233.885 130.478 233.506 130.06 233.262C129.651 233.01 129.156 232.883 128.572 232.883C128.038 232.883 127.6 232.995 127.26 233.219C126.929 233.442 126.764 233.729 126.764 234.079C126.764 234.351 126.866 234.58 127.07 234.765C127.274 234.94 127.585 235.085 128.004 235.202C128.266 235.28 128.538 235.353 128.82 235.421L129.579 235.625C130.347 235.819 130.925 236.082 131.314 236.412C131.713 236.743 131.912 237.205 131.912 237.798C131.912 238.566 131.63 239.159 131.066 239.577C130.512 239.995 129.778 240.204 128.864 240.204C127.96 240.204 127.201 240.019 126.589 239.65C125.976 239.271 125.592 238.702 125.437 237.944L126.531 237.769C126.657 238.255 126.939 238.619 127.376 238.862C127.814 239.106 128.324 239.227 128.908 239.227C129.452 239.227 129.904 239.11 130.264 238.877C130.624 238.634 130.804 238.299 130.804 237.871C130.804 237.492 130.677 237.215 130.424 237.04C130.181 236.865 129.797 236.709 129.272 236.573C128.757 236.437 128.217 236.286 127.654 236.121C127.041 235.946 126.56 235.703 126.21 235.392C125.86 235.081 125.685 234.658 125.685 234.123C125.685 233.656 125.821 233.258 126.093 232.927C126.365 232.587 126.725 232.334 127.172 232.169C127.629 231.994 128.12 231.906 128.645 231.906C129.54 231.906 130.283 232.115 130.876 232.533C131.479 232.951 131.819 233.506 131.897 234.196L130.804 234.4ZM138.46 234.4C138.382 233.885 138.134 233.506 137.716 233.262C137.308 233.01 136.812 232.883 136.229 232.883C135.694 232.883 135.256 232.995 134.916 233.219C134.585 233.442 134.42 233.729 134.42 234.079C134.42 234.351 134.522 234.58 134.726 234.765C134.931 234.94 135.242 235.085 135.66 235.202C135.922 235.28 136.194 235.353 136.476 235.421L137.235 235.625C138.003 235.819 138.581 236.082 138.97 236.412C139.369 236.743 139.568 237.205 139.568 237.798C139.568 238.566 139.286 239.159 138.722 239.577C138.168 239.995 137.434 240.204 136.52 240.204C135.616 240.204 134.858 240.019 134.245 239.65C133.633 239.271 133.249 238.702 133.093 237.944L134.187 237.769C134.313 238.255 134.595 238.619 135.033 238.862C135.47 239.106 135.981 239.227 136.564 239.227C137.108 239.227 137.56 239.11 137.92 238.877C138.28 238.634 138.46 238.299 138.46 237.871C138.46 237.492 138.333 237.215 138.081 237.04C137.838 236.865 137.454 236.709 136.929 236.573C136.413 236.437 135.874 236.286 135.31 236.121C134.697 235.946 134.216 235.703 133.866 235.392C133.516 235.081 133.341 234.658 133.341 234.123C133.341 233.656 133.477 233.258 133.749 232.927C134.022 232.587 134.381 232.334 134.829 232.169C135.285 231.994 135.776 231.906 136.301 231.906C137.196 231.906 137.94 232.115 138.533 232.533C139.135 232.951 139.476 233.506 139.554 234.196L138.46 234.4Z" fill="white"/>
<path d="M55.504 151.8H57.584V163H55.504V151.8ZM60.6134 151.8H65.5094C66.704 151.8 67.7654 152.035 68.6934 152.504C69.6214 152.963 70.3414 153.619 70.8534 154.472C71.3654 155.315 71.6214 156.291 71.6214 157.4C71.6214 158.509 71.3654 159.491 70.8534 160.344C70.3414 161.187 69.6214 161.843 68.6934 162.312C67.7654 162.771 66.704 163 65.5094 163H60.6134V151.8ZM65.4134 161.24C66.2347 161.24 66.9547 161.085 67.5734 160.776C68.2027 160.456 68.6827 160.008 69.0134 159.432C69.3547 158.845 69.5254 158.168 69.5254 157.4C69.5254 156.632 69.3547 155.96 69.0134 155.384C68.6827 154.797 68.2027 154.349 67.5734 154.04C66.9547 153.72 66.2347 153.56 65.4134 153.56H62.6934V161.24H65.4134ZM83.438 163.16C82.3073 163.16 81.2833 162.915 80.366 162.424C79.4593 161.923 78.7447 161.235 78.222 160.36C77.71 159.485 77.454 158.499 77.454 157.4C77.454 156.301 77.7153 155.315 78.238 154.44C78.7607 153.565 79.4753 152.883 80.382 152.392C81.2993 151.891 82.3233 151.64 83.454 151.64C84.3713 151.64 85.2087 151.8 85.966 152.12C86.7233 152.44 87.3633 152.904 87.886 153.512L86.542 154.776C85.7313 153.901 84.734 153.464 83.55 153.464C82.782 153.464 82.094 153.635 81.486 153.976C80.878 154.307 80.4033 154.771 80.062 155.368C79.7207 155.965 79.55 156.643 79.55 157.4C79.55 158.157 79.7207 158.835 80.062 159.432C80.4033 160.029 80.878 160.499 81.486 160.84C82.094 161.171 82.782 161.336 83.55 161.336C84.734 161.336 85.7313 160.893 86.542 160.008L87.886 161.288C87.3633 161.896 86.718 162.36 85.95 162.68C85.1927 163 84.3553 163.16 83.438 163.16ZM96.9086 160.408H91.3086L90.2046 163H88.0606L93.1006 151.8H95.1486L100.205 163H98.0286L96.9086 160.408ZM96.2206 158.776L94.1086 153.88L92.0126 158.776H96.2206ZM108.957 163L106.669 159.72C106.573 159.731 106.429 159.736 106.237 159.736H103.709V163H101.629V151.8H106.237C107.208 151.8 108.05 151.96 108.765 152.28C109.49 152.6 110.045 153.059 110.429 153.656C110.813 154.253 111.005 154.963 111.005 155.784C111.005 156.627 110.797 157.352 110.381 157.96C109.976 158.568 109.389 159.021 108.621 159.32L111.197 163H108.957ZM108.909 155.784C108.909 155.069 108.674 154.52 108.205 154.136C107.736 153.752 107.048 153.56 106.141 153.56H103.709V158.024H106.141C107.048 158.024 107.736 157.832 108.205 157.448C108.674 157.053 108.909 156.499 108.909 155.784ZM113.332 151.8H118.228C119.423 151.8 120.484 152.035 121.412 152.504C122.34 152.963 123.06 153.619 123.572 154.472C124.084 155.315 124.34 156.291 124.34 157.4C124.34 158.509 124.084 159.491 123.572 160.344C123.06 161.187 122.34 161.843 121.412 162.312C120.484 162.771 119.423 163 118.228 163H113.332V151.8ZM118.132 161.24C118.953 161.24 119.673 161.085 120.292 160.776C120.921 160.456 121.401 160.008 121.732 159.432C122.073 158.845 122.244 158.168 122.244 157.4C122.244 156.632 122.073 155.96 121.732 155.384C121.401 154.797 120.921 154.349 120.292 154.04C119.673 153.72 118.953 153.56 118.132 153.56H115.412V161.24H118.132Z" fill="white"/>
<path d="M47 152H31V162.5H47V152Z" fill="#4891D9"/>
<path d="M47 155.5H31V162.5H47V155.5Z" fill="black"/>
<path d="M47 159H31V162.5H47V159Z" fill="white"/>
<path opacity="0.5" d="M31.2313 131.5V142H30.1667V131.5H31.2313ZM41.5626 136.75C41.5626 135.846 41.4265 135.024 41.1543 134.285C40.8821 133.537 40.4737 132.924 39.9293 132.448C39.3849 131.972 38.7237 131.68 37.946 131.573C37.6446 131.524 37.1974 131.5 36.6043 131.5H33.4251V142H36.6043C37.1974 142 37.6446 141.976 37.946 141.927C38.7237 141.82 39.3849 141.528 39.9293 141.052C40.4737 140.576 40.8821 139.968 41.1543 139.229C41.4265 138.481 41.5626 137.654 41.5626 136.75ZM40.4251 136.75C40.4251 137.858 40.221 138.782 39.8126 139.521C39.4043 140.26 38.7529 140.717 37.8585 140.892C37.6057 140.94 37.1876 140.965 36.6043 140.965H34.5335V132.535H36.6043C37.1876 132.535 37.6057 132.56 37.8585 132.608C38.7529 132.783 39.4043 133.24 39.8126 133.979C40.221 134.718 40.4251 135.642 40.4251 136.75ZM54.2638 136.75C54.2638 135.846 54.1277 135.024 53.8555 134.285C53.5832 133.537 53.1749 132.924 52.6305 132.448C52.086 131.972 51.4249 131.68 50.6471 131.573C50.3457 131.524 49.8985 131.5 49.3055 131.5H46.1263V142H49.3055C49.8985 142 50.3457 141.976 50.6471 141.927C51.4249 141.82 52.086 141.528 52.6305 141.052C53.1749 140.576 53.5832 139.968 53.8555 139.229C54.1277 138.481 54.2638 137.654 54.2638 136.75ZM53.1263 136.75C53.1263 137.858 52.9221 138.782 52.5138 139.521C52.1055 140.26 51.4541 140.717 50.5596 140.892C50.3069 140.94 49.8888 140.965 49.3055 140.965H47.2346V132.535H49.3055C49.8888 132.535 50.3069 132.56 50.5596 132.608C51.4541 132.783 52.1055 133.24 52.5138 133.979C52.9221 134.718 53.1263 135.642 53.1263 136.75ZM59.2112 142.219C58.4431 142.219 57.7772 142.044 57.2133 141.694C56.6494 141.344 56.2168 140.853 55.9154 140.221C55.6237 139.589 55.4779 138.865 55.4779 138.048C55.4779 137.231 55.6286 136.512 55.9299 135.89C56.2313 135.258 56.664 134.772 57.2279 134.431C57.7918 134.081 58.4529 133.906 59.2112 133.906C59.9793 133.906 60.6452 134.081 61.2091 134.431C61.773 134.781 62.2008 135.267 62.4924 135.89C62.7938 136.512 62.9445 137.231 62.9445 138.048C62.9445 138.874 62.7938 139.603 62.4924 140.235C62.1911 140.858 61.7584 141.344 61.1945 141.694C60.6404 142.044 59.9793 142.219 59.2112 142.219ZM61.807 138.048C61.807 137.076 61.5834 136.312 61.1362 135.758C60.6987 135.204 60.057 134.927 59.2112 134.927C58.3556 134.927 57.7091 135.209 57.2716 135.773C56.8341 136.337 56.6154 137.095 56.6154 138.048C56.6154 139.02 56.839 139.788 57.2862 140.352C57.7334 140.916 58.3751 141.198 59.2112 141.198C60.057 141.198 60.6987 140.916 61.1362 140.352C61.5834 139.778 61.807 139.01 61.807 138.048ZM70.0548 136.429C69.8701 135.953 69.5784 135.583 69.1798 135.321C68.7812 135.058 68.3243 134.927 67.809 134.927C66.9729 134.927 66.3361 135.214 65.8986 135.787C65.4708 136.351 65.252 137.11 65.2423 138.062C65.252 139.025 65.4757 139.788 65.9132 140.352C66.3507 140.916 66.9826 141.198 67.809 141.198C68.334 141.198 68.7861 141.076 69.1652 140.833C69.5444 140.581 69.8361 140.221 70.0402 139.754L71.1048 140.06C70.8132 140.77 70.3854 141.31 69.8215 141.679C69.2576 142.039 68.5868 142.219 67.809 142.219C67.0312 142.219 66.3652 142.044 65.8111 141.694C65.2666 141.344 64.8486 140.858 64.5569 140.235C64.2652 139.603 64.1145 138.879 64.1048 138.062C64.1243 136.799 64.4597 135.792 65.1111 135.044C65.7625 134.285 66.6666 133.906 67.8236 133.906C68.6208 133.906 69.3111 134.101 69.8944 134.49C70.4777 134.878 70.8812 135.408 71.1048 136.079L70.0548 136.429ZM79.2432 134.125V142H78.2807V140.892C78.1738 141.047 78.0474 141.203 77.9016 141.358C77.6488 141.621 77.3474 141.82 76.9974 141.956C76.6571 142.083 76.3023 142.156 75.9328 142.175C75.8648 142.185 75.7578 142.19 75.612 142.19C74.8634 142.19 74.2266 141.981 73.7016 141.562C73.2057 141.193 72.8752 140.707 72.7099 140.104C72.5446 139.501 72.4668 138.782 72.4766 137.946V134.125H73.5557V137.917C73.5557 138.617 73.6189 139.195 73.7453 139.652C73.8717 140.109 74.1148 140.474 74.4745 140.746C74.8731 141.028 75.3349 141.169 75.8599 141.169C76.4821 141.169 76.978 140.999 77.3474 140.658C77.7266 140.328 77.9696 139.876 78.0766 139.302C78.1349 139.03 78.1641 138.656 78.1641 138.179V134.125H79.2432ZM90.857 134.504C91.1293 134.728 91.3286 134.971 91.4549 135.233C91.5813 135.486 91.6591 135.753 91.6883 136.035C91.7272 136.317 91.7466 136.692 91.7466 137.158L91.732 142H90.682V137.202C90.682 136.706 90.6431 136.327 90.5654 136.065C90.4876 135.792 90.3126 135.54 90.0404 135.306C89.7195 135.015 89.3404 134.869 88.9029 134.869C88.6209 134.869 88.3536 134.927 88.1008 135.044C87.848 135.16 87.639 135.326 87.4737 135.54C87.3084 135.744 87.1966 135.953 87.1383 136.167C87.0799 136.381 87.0508 136.633 87.0508 136.925V137.158V142H85.9862L86.0008 137.202C86.0008 136.706 85.9619 136.327 85.8841 136.065C85.8063 135.792 85.6313 135.54 85.3591 135.306C85.2036 135.17 85.0237 135.063 84.8195 134.985C84.6251 134.908 84.4209 134.869 84.207 134.869C83.9348 134.869 83.6723 134.927 83.4195 135.044C83.1668 135.16 82.9529 135.326 82.7779 135.54C82.6126 135.744 82.5008 135.953 82.4424 136.167C82.3938 136.381 82.3695 136.633 82.3695 136.925V142H81.2904V134.125H82.2529V134.985C82.4959 134.645 82.8119 134.383 83.2008 134.198C83.5994 134.013 84.0126 133.921 84.4404 133.921C84.7515 133.921 85.0577 133.969 85.3591 134.067C85.6605 134.164 85.9279 134.31 86.1612 134.504C86.4334 134.718 86.6376 134.966 86.7737 135.248L86.9049 135.044C87.148 134.694 87.4688 134.422 87.8674 134.227C88.2661 134.023 88.689 133.921 89.1362 133.921C89.4473 133.921 89.7536 133.969 90.0549 134.067C90.3563 134.164 90.6237 134.31 90.857 134.504ZM94.3096 138.369C94.3582 139.253 94.6013 139.949 95.0388 140.454C95.4763 140.95 96.0937 141.198 96.8909 141.198C97.4451 141.198 97.9312 141.072 98.3492 140.819C98.777 140.556 99.1124 140.177 99.3555 139.681L100.362 140.06C100.051 140.751 99.5888 141.285 98.9763 141.665C98.3735 142.034 97.6881 142.219 96.9201 142.219C96.152 142.219 95.4812 142.044 94.9076 141.694C94.3437 141.344 93.911 140.858 93.6096 140.235C93.3082 139.613 93.1576 138.899 93.1576 138.092C93.1576 137.265 93.3082 136.536 93.6096 135.904C93.911 135.272 94.3388 134.781 94.893 134.431C95.4569 134.081 96.1228 133.906 96.8909 133.906C98.0964 133.906 99.0103 134.31 99.6326 135.117C100.255 135.924 100.546 137.008 100.508 138.369H94.3096ZM96.9201 134.883C96.1423 134.883 95.5346 135.112 95.0971 135.569C94.6694 136.026 94.4117 136.653 94.3242 137.45H99.3846C99.2096 135.739 98.3881 134.883 96.9201 134.883ZM107.449 134.562C107.945 134.932 108.276 135.418 108.441 136.021C108.606 136.624 108.684 137.343 108.674 138.179V142H107.595V138.208C107.595 137.508 107.532 136.93 107.405 136.473C107.279 136.016 107.036 135.651 106.676 135.379C106.278 135.097 105.816 134.956 105.291 134.956C104.669 134.956 104.173 135.126 103.803 135.467C103.424 135.797 103.181 136.249 103.074 136.823C103.016 137.095 102.987 137.469 102.987 137.946V142H101.908V134.125H102.87V135.233C102.977 135.068 103.103 134.912 103.249 134.767C103.502 134.504 103.799 134.31 104.139 134.183C104.489 134.047 104.849 133.969 105.218 133.95C105.286 133.94 105.393 133.935 105.539 133.935C106.287 133.935 106.924 134.144 107.449 134.562ZM112.457 139.112V139.637C112.457 139.851 112.466 140.026 112.486 140.162C112.505 140.289 112.549 140.41 112.617 140.527C112.695 140.702 112.816 140.843 112.982 140.95C113.157 141.047 113.351 141.106 113.565 141.125C113.653 141.135 113.789 141.14 113.973 141.14C114.255 141.14 114.552 141.115 114.863 141.067V142C114.532 142.078 114.187 142.117 113.828 142.117C113.594 142.117 113.376 142.102 113.171 142.073C112.812 142.024 112.505 141.922 112.253 141.767C112.01 141.601 111.805 141.373 111.64 141.081C111.514 140.838 111.436 140.59 111.407 140.337C111.387 140.085 111.378 139.686 111.378 139.142V135.044H109.701V134.125H111.378V131.937H112.457V134.125H114.863V135.044H112.457V139.112Z" fill="white"/>
<defs>
<linearGradient id="paint0_linear" x1="46" y1="222" x2="30" y2="222" gradientUnits="userSpaceOnUse">
<stop stop-color="#3AEAB5"/>
<stop offset="1" stop-color="#A7FFE5"/>
</linearGradient>
<linearGradient id="paint1_linear" x1="46" y1="271" x2="30" y2="271" gradientUnits="userSpaceOnUse">
<stop stop-color="#3AEAB5"/>
<stop offset="1" stop-color="#A7FFE5"/>
</linearGradient>
</defs>
</svg>
