<svg width="84" height="84" viewBox="0 0 84 84" fill="none" xmlns="http://www.w3.org/2000/svg">
<path d="M14.0573 74.1025C13.4612 74.1155 12.8656 74.1883 12.4906 74.3161C11.7122 74.5815 10.9085 75.2516 10.5409 75.9419C10.2907 76.4118 10.2617 76.6697 10.2238 78.7682C10.1964 80.2867 10.232 81.2442 10.3276 81.5643C10.6479 82.6375 11.4784 83.4708 12.5881 83.8325C12.9392 83.947 13.5369 83.9952 14.308 83.9712C16.1623 83.9136 17.214 83.3109 17.8076 81.966C18.0498 81.4173 18.0967 81.0613 18.1397 79.443C18.1973 77.276 18.0625 76.4041 17.551 75.6399C17.1462 75.035 16.3569 74.4645 15.6258 74.2478C15.2497 74.1364 14.6533 74.0895 14.0573 74.1025ZM14.222 75.9683C14.7533 75.9832 15.2774 76.169 15.6282 76.536L15.9873 76.9117L16.0226 78.932C16.0625 81.2212 15.9701 81.5364 15.1435 81.9299C14.2458 82.3574 13.0582 82.0952 12.513 81.349C12.2783 81.0278 12.2555 80.822 12.2555 79.0398C12.2555 77.3266 12.2846 77.0397 12.4906 76.7347C12.8439 76.2118 13.5389 75.949 14.222 75.9683Z" fill="white"/>
<path d="M39.7793 83.8878C38.7635 83.5809 38.1227 82.8374 37.9547 81.771L37.8555 81.1411H38.8792C39.9022 81.1411 39.9029 81.1414 40.0594 81.5204C40.3324 82.1817 41.121 82.3538 41.7181 81.8825L42.0441 81.6252L42.077 77.9194L42.1099 74.2135H43.1051H44.1003L44.1333 77.8884C44.1719 82.1871 44.1084 82.5951 43.2918 83.2965C43.0191 83.5307 42.5792 83.7875 42.3141 83.8672C41.7694 84.0309 40.2929 84.0429 39.7793 83.8878Z" fill="white"/>
<path d="M50.5075 74.0985C49.4767 74.0975 49.2303 74.1415 48.5796 74.4435C47.6579 74.8712 47.3394 75.1632 46.9229 75.9611C46.6154 76.5501 46.5942 76.7059 46.5497 78.7272C46.5118 80.447 46.5426 81.0076 46.7062 81.572C47.0274 82.6809 48.0204 83.6054 49.2013 83.8951C49.9155 84.0704 51.454 84.0186 52.1414 83.7964C53.0918 83.4891 54.0243 82.5571 54.2899 81.6491C54.5586 80.7302 54.5679 77.3376 54.3042 76.4465C54.0453 75.5715 53.4164 74.8881 52.4745 74.4581C51.7869 74.1442 51.5422 74.0995 50.5075 74.0985ZM50.5357 75.9767C50.9533 75.9847 51.372 76.0765 51.6506 76.2493C52.3042 76.6546 52.3734 76.9303 52.3734 79.1331C52.3734 80.9695 52.3546 81.1316 52.1037 81.4516C51.9554 81.6408 51.6492 81.873 51.4235 81.9677C50.499 82.3553 49.3244 82.0763 48.8933 81.3668C48.6707 81.0004 48.6421 80.7389 48.6421 79.0385C48.6421 76.9184 48.7231 76.6247 49.428 76.2069C49.7018 76.0446 50.1181 75.9687 50.5357 75.9767Z" fill="white"/>
<path d="M78.2704 83.8267C77.5535 83.6022 76.846 83.0962 76.4646 82.5353C76.1269 82.0384 75.8284 81.0847 75.9493 80.8885C75.9906 80.8214 76.4588 80.7666 76.9898 80.7666C77.9542 80.7666 77.9553 80.7669 78.1331 81.1633C78.4344 81.8351 78.8923 82.0772 79.862 82.0772C80.8674 82.0772 81.2343 81.8436 81.2343 81.2034C81.2343 80.6179 80.9144 80.4108 79.4084 80.0217C77.675 79.5738 77.4913 79.4956 76.8877 78.9483C75.8178 77.9785 75.7329 76.2333 76.7032 75.1557C78.1396 73.5602 81.5159 73.7594 82.6688 75.5076C82.8432 75.772 83.0189 76.1928 83.0594 76.4427L83.1328 76.8971H82.1318C81.2036 76.8971 81.114 76.874 80.9009 76.5806C80.1927 75.605 78.1244 75.8377 78.1244 76.8929C78.1244 77.4281 78.5611 77.6934 80.0641 78.0713C81.5783 78.4521 82.0023 78.6402 82.575 79.1857C82.9994 79.5899 83.3496 80.4998 83.3484 81.1949C83.3463 82.3997 82.5425 83.4604 81.3663 83.8109C80.555 84.0526 79.017 84.0605 78.2704 83.8267Z" fill="white"/>
<path d="M0.0651134 74.2135L0.0325567 79.0504L0 83.8872H2.38782C5.24191 83.8872 5.92219 83.7472 6.78929 82.9813C7.79314 82.0946 7.89417 81.7724 7.94263 79.3007C7.9766 77.5677 7.9456 77.03 7.78373 76.541C7.49444 75.667 6.87475 75.0048 5.95059 74.5816C5.16793 74.2232 5.15664 74.2218 2.61523 74.2176L0.0651134 74.2135ZM2.11764 76.1482H3.44008C4.53787 76.1482 4.83011 76.1901 5.15854 76.3937C5.82685 76.8082 5.91172 77.1125 5.91172 79.0921C5.91172 81.0907 5.81674 81.3628 4.96976 81.7962C4.65014 81.9597 4.23933 82.0145 3.3305 82.0147L2.11764 82.0149V79.0816V76.1483V76.1482Z" fill="white"/>
<path d="M21.8351 83.6067C21.6306 82.748 20.0312 74.5626 20.0312 74.3749C20.0312 74.179 20.1526 74.1514 21.0161 74.1514H22.001L22.1223 74.7443C22.189 75.0704 22.4559 76.5017 22.7155 77.9249C22.975 79.3481 23.2042 80.4957 23.2249 80.475C23.2455 80.4543 23.5468 79.4864 23.8945 78.3241C24.2422 77.1619 24.6669 75.7448 24.8385 75.175L25.1503 74.139L25.7873 74.1764L26.4243 74.2138L27.3536 77.3656C27.8646 79.0991 28.2988 80.5013 28.3184 80.4817C28.338 80.462 28.609 79.0799 28.9205 77.4103C29.2321 75.7406 29.5179 74.3244 29.5557 74.263C29.6386 74.1285 31.437 74.112 31.5181 74.245C31.5494 74.2965 31.1476 76.4872 30.6252 79.1131L29.6752 83.8875H28.551H27.4268L26.6333 81.3287C26.1969 79.9213 25.8064 78.7709 25.7656 78.7722C25.7247 78.7736 25.5137 79.3493 25.2967 80.0517C25.0797 80.754 24.7223 81.9044 24.5026 82.6081L24.103 83.8875H23.0025C21.9639 83.8875 21.8982 83.8717 21.8351 83.6067Z" fill="white"/>
<path d="M56.8802 79.0499L56.9128 74.2131L57.9079 74.1789L58.9031 74.1447L60.8312 77.2358L62.7594 80.3269L62.7926 77.2388L62.8259 74.1507H63.8189H64.8119V79.0187V83.8867L63.7856 83.8862L62.7594 83.8857L60.8934 80.8964L59.0275 77.9071L58.9942 80.8969L58.9609 83.8866H57.9043H56.8477L56.8802 79.0498V79.0499Z" fill="white"/>
<path d="M67.4258 79.0177V74.1475L70.629 74.1808L73.8322 74.2141V75.1503V76.0865L71.6864 76.1206L69.5405 76.1548V77.0848V78.0147L71.4376 78.0492L73.3346 78.0836L73.3712 78.9886L73.4077 79.8936H71.4741H69.5405V80.9546V82.0156H71.7175H73.8944V82.9517V83.8879H70.6601H67.4258V79.0177Z" fill="white"/>
<path d="M18.5391 27.8386V0L33.8087 0.0383517L49.0783 0.0767034L50.3844 0.404967C56.7175 1.99657 61.3625 6.05546 63.6355 11.984C64.1827 13.4111 64.6845 15.7233 64.7767 17.2418L64.8519 18.4803H60.2381H55.6243L55.5525 17.8874C55.314 15.9171 54.6947 14.3475 53.5848 12.9002C52.4747 11.4527 50.8045 10.279 48.9539 9.64618L47.9587 9.30588L37.9137 9.27046L27.8688 9.23505V27.8377V46.4404H32.4714H37.0741V51.0588V55.6773H27.8066H18.5391V27.8386Z" fill="white"/>
<path d="M44.0391 51.0955V46.4782L45.6873 46.3941C46.5938 46.3479 47.69 46.2266 48.1232 46.1246C50.7823 45.4983 53.3575 43.458 54.5567 41.0271C55.5598 38.9938 55.5237 39.3143 55.5757 31.9921L55.622 25.4702H60.225H64.828L64.781 32.5538L64.7341 39.6374L64.4123 40.9481C63.5079 44.6314 61.9383 47.4497 59.3383 50.0586C57.228 52.1761 54.8962 53.6501 52.1445 54.6057C50.0895 55.3194 48.7369 55.5565 46.2471 55.6394L44.0391 55.7129V51.0955Z" fill="white"/>
</svg>
