<svg width="103" height="34" viewBox="0 0 103 34" fill="none" xmlns="http://www.w3.org/2000/svg">
<path d="M30.3457 0.762023L21.6926 22.7518L18.1835 4.04647C17.7847 1.96365 16.1498 0.762023 14.3554 0.762023H0.199381L0 1.68327C2.91096 2.32414 6.22067 3.36555 8.21448 4.44701C9.45064 5.12793 9.76965 5.68869 10.2083 7.29086L16.8277 33.0858H25.6403L39.1185 0.762023H30.3457ZM42.6674 0.762023L35.7689 33.0457H44.103L51.0016 0.721968H42.6674V0.762023ZM90.3992 9.49385L92.9113 21.6303H86.0128L90.3992 9.49385ZM89.163 0.762023C87.568 0.762023 86.2122 1.68327 85.614 3.12522L73.1328 33.0858H81.8657L83.6202 28.2392H94.307L95.3039 33.0858H103L96.2609 0.762023H89.163ZM53.2745 10.8557C53.2346 15.502 57.4216 18.1055 60.5718 19.6676C63.8018 21.2698 64.9183 22.2711 64.8784 23.673C64.8386 25.836 62.2865 26.7973 59.8939 26.8373C55.7069 26.9174 53.2745 25.7158 51.3604 24.7946L49.8451 31.8441C51.7991 32.7253 55.3879 33.5264 59.0964 33.5664C67.8293 33.5664 73.5714 29.2406 73.5714 22.5115C73.6113 13.9799 61.8479 13.4993 61.9276 9.69412C61.9675 8.53254 63.0441 7.29086 65.4766 6.97043C66.6729 6.81021 69.9427 6.69005 73.6911 8.41238L75.1665 1.56311C73.1727 0.842131 70.5807 0.121155 67.3906 0.121155C59.0964 0.161209 53.3144 4.56718 53.2745 10.8557Z" fill="white"/>
</svg>
