<svg width="183" height="33" viewBox="0 0 183 33" fill="none" xmlns="http://www.w3.org/2000/svg">
<path d="M17.507 8.10632H8.75348V16.2121H0V32.4236H26.2604V8.10632H17.507ZM17.507 16.2121V24.3178H12.9625H8.75348V16.2121H17.507Z" fill="white"/>
<path d="M0 8.1058H8.75348V0H0V8.1058Z" fill="white"/>
<path d="M54.1388 28.6179C57.6158 28.6179 58.8968 27.6859 58.8968 25.2852C58.8968 22.828 57.5548 21.9243 53.6813 21.9243H48.4658V28.6179H54.1388ZM53.5288 18.1397C56.8838 18.1397 58.0733 17.3206 58.0733 15.0047C58.0733 12.717 56.8838 11.8979 53.6813 11.8979H48.4658V18.1397H53.5288ZM43.7688 8.11334H54.1083C60.0558 8.11334 62.7398 10.0904 62.7398 14.4398C62.7398 17.1229 61.7028 18.7893 59.2323 19.6083V19.6931C62.3128 20.5403 63.5938 22.4326 63.5938 25.6241C63.5938 30.3125 60.8793 32.4025 54.9013 32.4025H43.7383L43.7688 8.11334Z" fill="white"/>
<path d="M67.832 32.4046H72.529V8.08716H67.832V32.4046ZM82.8075 12.013H75.4265V8.1154H94.8855V12.013H87.5045V32.4328H82.8075V12.013ZM97.783 8.1154H115.076V11.9282H102.48V18.2265H113.124V22.0393H102.48V32.4046H97.783V8.1154ZM117.882 24.327V8.08716H122.579V24.214C122.579 27.7162 123.921 29.0154 127.612 29.0154C131.302 29.0154 132.644 27.7162 132.644 24.214V8.08716H137.189V24.327C137.189 30.2581 134.322 32.8282 127.551 32.8282C120.78 32.8564 117.882 30.2581 117.882 24.327ZM151.371 19.215C154.696 19.215 155.855 18.17 155.855 15.5716C155.855 12.9167 154.696 11.9282 151.371 11.9282H146.125V19.215H151.371ZM141.398 8.1154H151.829C158.051 8.1154 160.552 10.2901 160.552 15.5716C160.552 19.6104 159.057 21.8134 155.519 22.6607L161.528 32.4046H156.129L150.426 22.9996H146.095V32.4046H141.398V8.1154ZM174.124 22.0958V32.4328H169.427V22.1805L160.552 8.1154H165.95L171.959 17.7746L177.937 8.1154H183L174.124 22.0958Z" fill="white"/>
</svg>
