<svg width="198" height="40" viewBox="0 0 198 40" fill="none" xmlns="http://www.w3.org/2000/svg">
<path d="M197.75 40H191.402L169.203 17.802H194.577V22.242H179.991L197.75 40ZM194.574 0H154.574V40H159.021V4.443H194.574V0Z" fill="white"/>
<path d="M10.834 29.863H14.773L10.4 21L10.547 20.957C12.838 20.305 14.127 18.476 14.109 15.944C14.077 12.26 11.793 10.148 7.844 10.148H0V29.876H3.58V21.726H7.086L10.834 29.865V29.863ZM3.58 18.884V12.98H7.197C9.398 12.98 10.566 14 10.566 15.934C10.566 18.028 9.395 18.884 6.534 18.884H3.58ZM29.323 21.064V18.11H22.47V13.097H31.865V10.137H18.908V29.864H32.184V26.91H22.47V21.063H29.323V21.064ZM47.261 18.111H40.601V13.098H49.513V10.138H37.04V29.865H40.62V21.065H47.262V18.11L47.261 18.111ZM53.774 10.137V29.865H57.336V10.136H53.774V10.137ZM84.64 10.137V29.865H88.203V10.136H84.64V10.137ZM106.58 10.137H92.568V13.091H97.799V29.865H101.379V13.09H106.61L106.582 10.136L106.58 10.137ZM110.91 10.137V29.865H114.472V10.136H110.909L110.91 10.137ZM75.285 10.137V24.118H75.231L67.164 10.155H63.391V29.883H66.731V15.274H66.785L71.189 22.954L75.156 29.864H78.636V10.136H75.285V10.137ZM131.343 10.137L126.745 26.137H126.713L122.091 10.137H118.601L124.687 29.865H128.757L134.844 10.137H131.343Z" fill="white"/>
</svg>
