<svg width="160" height="52" viewBox="0 0 160 52" fill="none" xmlns="http://www.w3.org/2000/svg">
<path d="M25.1499 12.2378H19.3299C17.5679 12.2378 16.1797 10.8433 16.1797 9.07344V3.22745C16.1797 1.5112 17.5679 0.0631104 19.3299 0.0631104H25.1499C26.8585 0.0631104 28.3002 1.45757 28.3002 3.22745V9.07344C28.3002 10.8433 26.9119 12.2378 25.1499 12.2378Z" fill="white"/>
<path d="M10.0381 25.3781H3.52402C1.54843 25.3781 0 23.7691 0 21.8383V15.2415C0 13.3107 1.60183 11.7017 3.52402 11.7017H10.0915C12.0671 11.7017 13.6155 13.3107 13.6155 15.2415V21.8383C13.6155 23.8227 12.0137 25.3781 10.0381 25.3781Z" fill="white"/>
<path d="M9.44894 39.0553H5.44437C4.26969 39.0553 3.30859 38.09 3.30859 36.9101V32.8877C3.30859 31.7077 4.26969 30.7424 5.44437 30.7424H9.44894C10.6236 30.7424 11.5847 31.7077 11.5847 32.8877V36.9101C11.5847 38.09 10.6236 39.0553 9.44894 39.0553Z" fill="white"/>
<path d="M20.1822 51.766H15.4301C14.0419 51.766 12.8672 50.6397 12.8672 49.1916V44.4183C12.8672 43.0238 13.9885 41.8439 15.4301 41.8439H20.1822C21.5704 41.8439 22.7451 42.9702 22.7451 44.4183V49.1916C22.7451 50.6397 21.6238 51.766 20.1822 51.766Z" fill="white"/>
<path d="M37.5347 14.6521H34.2776C33.3165 14.6521 32.5156 13.8476 32.5156 12.8822V9.61053C32.5156 8.64513 33.3165 7.84064 34.2776 7.84064H37.5347C38.4958 7.84064 39.2967 8.64513 39.2967 9.61053V12.8822C39.3501 13.8476 38.5492 14.6521 37.5347 14.6521Z" fill="white"/>
<path d="M109.403 16.8487C110.471 16.8487 111.271 15.9906 111.271 14.9715C111.271 13.8989 110.417 13.0944 109.403 13.0944C108.335 13.0944 107.48 13.9525 107.48 14.9715C107.48 15.9906 108.335 16.8487 109.403 16.8487Z" fill="white"/>
<path d="M40.3651 37.1245C40.0981 37.5535 39.6175 37.768 39.0836 37.768C38.8166 37.768 38.4429 37.7144 38.2293 37.5535C37.8021 37.2854 37.5352 36.749 37.5352 36.2127C37.5352 35.9445 37.5886 35.6764 37.7487 35.4618L42.1271 28.5432L37.7487 21.6246C37.5886 21.41 37.5352 21.0882 37.5352 20.8737C37.5352 20.3374 37.8021 19.8011 38.2827 19.5329C38.5496 19.372 38.8166 19.3184 39.0836 19.3184C39.6175 19.3184 40.0981 19.5329 40.4184 19.962L43.9959 25.647L47.6267 19.962C47.8936 19.5329 48.4276 19.3184 48.9615 19.3184C49.2285 19.3184 49.4955 19.372 49.7624 19.5329C50.243 19.8011 50.5099 20.3374 50.5099 20.8737C50.5099 21.1419 50.4566 21.41 50.2964 21.6246L45.918 28.5432L50.2964 35.4618C50.4566 35.6764 50.5099 35.9445 50.5099 36.2127C50.5099 36.749 50.243 37.339 49.8158 37.5535C49.5489 37.7144 49.2285 37.768 48.9615 37.768C48.4276 37.768 48.0004 37.5535 47.6801 37.1245L44.0493 31.493L40.3651 37.1245Z" fill="white"/>
<path d="M56.0109 21.4084C57.6661 19.9067 59.9087 18.9949 62.3114 18.9949C67.5975 18.9949 71.7622 23.2319 71.7622 28.488C71.7622 33.6904 67.5441 37.9274 62.3114 37.9274C59.9087 37.9274 57.6661 37.0156 56.0109 35.5139V43.6125C56.0109 44.417 55.2634 45.1142 54.4625 45.1142C53.715 45.1142 52.9141 44.417 52.9141 43.6125V20.6576C52.9141 19.8531 53.6616 19.1558 54.4625 19.1558C55.3168 19.1558 56.0109 19.8531 56.0109 20.6576V21.4084ZM62.258 22.1593C58.734 22.1593 55.9575 24.9482 55.9575 28.488C55.9575 32.0278 58.734 34.8167 62.258 34.8167C65.7821 34.8167 68.5586 32.0278 68.5586 28.488C68.612 24.9482 65.8355 22.1593 62.258 22.1593Z" fill="white"/>
<path d="M98.5109 26.7718V36.2648C98.5109 37.0693 97.7634 37.7666 96.9625 37.7666C96.1082 37.7666 95.4141 37.0693 95.4141 36.2648V20.6577C95.4141 19.8532 96.1616 19.156 96.9625 19.156C97.71 19.156 98.4575 19.7996 98.5109 20.6041C99.7924 19.6387 101.448 19.0487 103.21 19.0487C104.171 19.0487 104.918 19.7996 104.918 20.6041C104.918 21.4622 104.171 22.213 103.21 22.213C100.807 22.2667 98.5109 23.1248 98.5109 26.7718Z" fill="white"/>
<path d="M109.404 19.1571C108.55 19.1571 107.855 19.8543 107.855 20.6588V36.3196C107.855 37.1241 108.603 37.8213 109.404 37.8213C110.151 37.8213 110.952 37.1241 110.952 36.3196V20.6588C110.952 19.8543 110.205 19.1571 109.404 19.1571Z" fill="white"/>
<path d="M129.267 20.6577C129.267 19.8532 130.014 19.156 130.815 19.156C131.563 19.156 132.364 19.8532 132.364 20.6577V36.3184C132.364 37.1229 131.616 37.8201 130.815 37.8201C129.961 37.8201 129.267 37.1229 129.267 36.3184V35.5676C127.558 37.0693 125.369 37.981 122.966 37.981C117.68 37.981 113.516 33.7441 113.516 28.4881C113.516 23.2857 117.734 19.0487 122.966 19.0487C125.369 19.0487 127.558 19.9605 129.267 21.4622V20.6577ZM122.966 34.8167C126.49 34.8167 129.267 32.0278 129.267 28.4881C129.267 24.9483 126.49 22.1594 122.966 22.1594C119.442 22.1594 116.666 24.9483 116.666 28.4881C116.666 32.0278 119.442 34.8167 122.966 34.8167Z" fill="white"/>
<path d="M148.221 26.9864C148.221 24.3583 145.978 22.1058 143.362 22.1058C140.852 22.1058 138.503 23.1248 138.503 26.8255V36.3184C138.503 37.1229 137.756 37.8202 136.955 37.8202C136.1 37.8202 135.406 37.1229 135.406 36.3184V20.6577C135.406 19.8532 136.154 19.156 136.955 19.156C137.702 19.156 138.45 19.7996 138.503 20.6041C139.838 19.585 141.493 19.0487 143.309 19.0487C147.527 19.0487 151.318 22.3739 151.318 26.5573V36.3184C151.318 37.1229 150.57 37.8202 149.769 37.8202C148.915 37.8202 148.221 37.1229 148.221 36.3184V26.9864Z" fill="white"/>
<path d="M36.6294 27.9517C36.576 23.1248 32.3045 19.0487 27.232 19.0487C21.946 19.0487 17.7812 23.2857 17.7812 28.4881C17.7812 33.7977 21.9994 37.981 27.232 37.981C29.7415 37.981 32.0909 37.0157 33.7995 35.2994C34.1199 35.0312 34.3334 34.5486 34.3334 34.1195C34.3334 33.2614 33.5859 32.5641 32.785 32.5641C32.3045 32.5641 31.8773 32.8323 31.5569 33.2077C30.4891 34.334 28.9406 34.8703 27.2854 34.8703C24.1352 34.8703 21.5722 32.725 21.0383 29.7216H35.1344C35.1344 29.7216 35.1344 29.7216 35.1878 29.7216H35.2411H35.2945C35.3479 29.7216 35.4013 29.7216 35.4547 29.668C36.0955 29.3998 36.6294 28.7562 36.6294 27.9517ZM27.232 22.1594C30.0619 22.1594 32.4113 23.9829 33.2122 26.5573H21.1985C21.9994 23.9829 24.3487 22.1594 27.232 22.1594Z" fill="white"/>
<path d="M92.7974 27.9517C92.744 23.1248 88.419 19.0487 83.4 19.0487C78.114 19.0487 73.9492 23.2857 73.9492 28.4881C73.9492 33.7977 78.1674 37.981 83.4 37.981C85.9095 37.981 88.2589 37.0157 89.9675 35.2994C90.2878 35.0312 90.5014 34.5486 90.5014 34.1195C90.5014 33.2614 89.7539 32.5641 88.953 32.5641C88.4724 32.5641 88.0453 32.8323 87.7249 33.2077C86.657 34.334 85.1086 34.8703 83.4534 34.8703C80.3031 34.8703 77.7402 32.725 77.2063 29.7216H91.3023C91.3023 29.7216 91.3023 29.7216 91.3557 29.7216H91.4091C91.4625 29.7216 91.5159 29.7216 91.5159 29.7216H91.5693C92.21 29.4534 92.7974 28.7562 92.7974 27.9517ZM83.4 22.1594C86.2299 22.1594 88.5792 23.9829 89.3801 26.5573H77.3665C78.1674 23.9829 80.5167 22.1594 83.4 22.1594Z" fill="white"/>
<path d="M154.629 37.8201C154.469 37.8201 154.362 37.7128 154.362 37.5519V34.9239H153.775C153.615 34.9239 153.508 34.8166 153.508 34.6557C153.508 34.4948 153.615 34.3876 153.775 34.3876H155.483C155.644 34.3876 155.75 34.4948 155.75 34.6557C155.75 34.8166 155.644 34.9239 155.483 34.9239H154.896V37.5519C154.896 37.7128 154.789 37.8201 154.629 37.8201Z" fill="white"/>
<path d="M157.673 37.8201C157.513 37.8201 157.46 37.7128 157.406 37.6056L156.659 35.4602V37.5519C156.659 37.7128 156.552 37.8201 156.392 37.8201C156.232 37.8201 156.125 37.7128 156.125 37.5519V34.763C156.125 34.5485 156.285 34.3876 156.499 34.3876C156.659 34.3876 156.819 34.4948 156.873 34.6557L157.62 36.8547L158.368 34.6557C158.421 34.4948 158.581 34.3876 158.741 34.3876C158.955 34.3876 159.115 34.5485 159.115 34.763V37.5519C159.115 37.7128 159.008 37.8201 158.848 37.8201C158.688 37.8201 158.581 37.7128 158.581 37.5519V35.4602C158.474 35.782 158.314 36.3184 158.154 36.7474C157.887 37.6056 157.834 37.6056 157.834 37.6056C157.887 37.7665 157.78 37.8201 157.673 37.8201Z" fill="white"/>
</svg>
