<svg width="129" height="49" viewBox="0 0 129 49" fill="none" xmlns="http://www.w3.org/2000/svg">
<path d="M15.2604 36.3976H13.6202L6.41791 19.3644C5.41957 16.9613 4.42123 14.417 3.35157 11.6606H3.20895C3.42288 15.6185 3.49419 19.2937 3.49419 22.6155V36.4682H0V7.84399H5.06302L11.8375 24.0291C12.6219 25.8667 13.4776 28.1283 14.4046 30.7434H14.5473C15.6169 27.8456 16.4726 25.6546 17.1144 24.0291L23.8889 7.84399H28.9519V36.4682H25.4577V22.6155C25.4577 19.3644 25.529 15.7598 25.7429 11.6606H25.6003C24.5307 14.5583 23.5323 17.1734 22.6053 19.3644L15.2604 36.3976Z" fill="white"/>
<path d="M32.375 16.1132H35.7266L42.0732 32.0156H42.2158L48.7763 16.1132H52.1279L39.4347 46.363H36.0831L40.5044 36.0442L32.375 16.1132Z" fill="white"/>
<path d="M70.8104 21.8382C70.8104 19.9299 70.8104 19.6472 69.4555 18.7991L69.0276 18.5164C68.8137 18.3044 68.8137 17.8096 69.0989 17.5976C70.2399 17.1735 73.0923 15.9014 74.0907 15.1946C74.3046 15.1946 74.5185 15.2653 74.6611 15.548C74.5898 16.6788 74.5898 17.4562 74.5898 17.8803C74.5898 18.163 74.8038 18.4457 75.1603 18.4457C77.2283 17.1735 79.5815 15.9014 82.1487 15.9014C86.2847 15.9014 87.9961 18.7284 87.9961 22.0503V30.5315C87.9961 34.0654 88.0674 34.5601 89.9215 34.8428L90.9912 34.9842C91.3477 35.1962 91.2051 36.0443 90.9198 36.1857C89.4223 36.115 87.9961 36.0443 86.2134 36.0443C84.4306 36.0443 82.9331 36.115 81.5782 36.1857C81.2217 36.0443 81.1504 35.1962 81.5069 34.9842L82.4339 34.8428C84.288 34.5601 84.3593 34.1361 84.3593 30.5315V23.1104C84.3593 20.2833 83.0757 18.2337 79.6528 18.2337C77.7275 18.2337 76.0873 19.0111 75.4455 19.93C74.8038 20.7781 74.7324 21.4848 74.7324 22.8984V30.4608C74.7324 33.9947 74.8038 34.4894 76.6578 34.7722L77.5849 34.9135C77.9414 35.1255 77.7988 35.9737 77.5135 36.115C76.1586 36.0443 74.7324 35.9737 72.9497 35.9737C71.1669 35.9737 69.6694 36.0443 68.2432 36.115C67.8867 35.9737 67.8154 35.1255 68.1719 34.9135L69.2416 34.7722C71.0956 34.5601 71.1669 34.0654 71.1669 30.4608L70.8104 21.8382Z" fill="white"/>
<path d="M101.331 18.5865C100.476 18.5865 100.476 18.6572 100.476 20.0001V30.3896C100.476 33.9235 100.547 34.5596 102.401 34.7009L104.184 34.8423C104.54 35.0543 104.398 35.9024 104.112 36.0438C101.902 35.9731 100.404 35.9024 98.6929 35.9024C96.9101 35.9024 95.4126 35.9731 93.9151 36.0438C93.5585 35.9024 93.4872 35.0543 93.8438 34.8423L94.9847 34.7009C96.8388 34.4889 96.9101 33.9941 96.9101 30.3896V20.0707C96.9101 18.7279 96.9101 18.6572 95.9118 18.6572H94.2003C93.9151 18.4452 93.8438 18.0211 94.0577 17.7384L96.197 16.6782C96.6249 16.4662 96.9101 16.1835 96.9101 15.6888C96.9101 12.8617 97.2667 9.75188 98.4789 6.99547C99.6912 4.16838 102.544 0.7052 107.464 0.7052C110.102 0.7052 112.313 1.90671 112.313 3.67364C112.313 4.66312 111.386 5.44057 110.388 5.44057C109.817 5.44057 109.532 5.22854 109.175 4.87515C108.248 3.815 106.822 2.68416 105.182 2.68416C103.613 2.68416 102.401 3.60296 101.617 5.36989C100.69 7.63156 100.547 11.2361 100.547 13.7098V15.1233C100.547 16.4662 100.547 16.5369 101.403 16.5369H107.107C107.678 17.0316 107.321 18.4452 106.751 18.5865C106.68 18.5865 101.331 18.5865 101.331 18.5865Z" fill="white"/>
<path d="M129 26.0788C129 32.2277 124.722 36.6804 118.518 36.6804C112.813 36.6804 108.32 32.6518 108.32 26.5029C108.32 20.2833 113.027 15.8306 118.946 15.8306C124.436 15.8306 129 20.0006 129 26.0788ZM118.232 17.3148C114.952 17.3148 112.528 20.4246 112.528 25.8668C112.528 30.3901 114.596 35.1962 118.946 35.1962C123.295 35.1962 124.65 30.6728 124.65 26.8563C124.65 22.6863 123.01 17.3148 118.232 17.3148Z" fill="white"/>
<path d="M61.1841 5.58194C61.4693 7.13684 60.471 8.55039 58.9021 8.90377C57.3333 9.18648 55.8358 8.197 55.5506 6.6421L55.4079 5.93533C55.1227 4.38043 56.121 2.96689 57.6899 2.6135C59.2587 2.3308 60.7562 3.32028 61.0414 4.87517L61.1841 5.58194Z" fill="white"/>
<path d="M41.9297 11.3782C41.9297 11.3782 61.8965 14.5587 73.5914 1.76611C73.5914 1.76611 72.3791 8.26841 61.1121 11.6609C52.0557 14.3466 41.9297 11.3782 41.9297 11.3782Z" fill="white"/>
<path d="M56.9778 18.1639C56.9778 18.1639 56.6212 13.9233 59.1884 13.6406C59.1884 13.6406 62.0408 12.3684 63.1818 16.397C63.1818 16.397 65.0358 21.9098 61.9695 38.1656L59.331 48.4137C59.331 48.4137 59.7589 38.4483 59.331 35.5505C59.4023 35.6212 56.9778 20.779 56.9778 18.1639Z" fill="white"/>
</svg>
