<svg width="1900" height="400" viewBox="0 0 1900 400" fill="none" xmlns="http://www.w3.org/2000/svg">
<path d="M0 0H1900V180C1900 301.503 1801.5 400 1680 400H220C98.4974 400 0 301.503 0 180V0Z" fill="#2E5BFF"/>
<path d="M0 0H1900V180C1900 301.503 1801.5 400 1680 400H220C98.4974 400 0 301.503 0 180V0Z" fill="url(#paint0_linear)" fill-opacity="0.228"/>
<mask id="mask0" mask-type="alpha" maskUnits="userSpaceOnUse" x="0" y="0" width="1900" height="400">
<path d="M1900 0.5H0V180C0 301.503 98.4974 400 220 400H1680C1801.5 400 1900 301.503 1900 180V0.5Z" fill="#2E5BFF"/>
<path d="M1900 0.5H0V180C0 301.503 98.4974 400 220 400H1680C1801.5 400 1900 301.503 1900 180V0.5Z" fill="url(#paint1_linear)" fill-opacity="0.228"/>
</mask>
<g mask="url(#mask0)">
<path d="M1586 -130H1901V181H1586V-130Z" fill="#002899"/>
<path d="M1900 -127L1900 181L1586 181C1758.88 181 1899.13 43.2872 1900 -127Z" fill="#2453FF"/>
<path d="M0.13817 15.6701H316.248C313.338 -67.4873 243.716 -134 158.193 -134C72.6701 -134 3.04757 -67.4873 0.13817 15.6701Z" fill="#FF5596"/>
<path d="M0.000238304 175.02L0.000242129 489.429L316.38 489.429C141.681 489.429 0.000240416 348.631 0.000238304 175.02Z" fill="#FF577F"/>
<path d="M1900 491L1900 181L1584 181C1758.49 181 1900 319.757 1900 491Z" fill="black"/>
<path d="M-1.85182 211.338V16.0444H198.626V16.1771C198.626 123.937 109.517 211.338 -0.498606 211.338H-1.85182Z" fill="#002899"/>
</g>
<defs>
<linearGradient id="paint0_linear" x1="134" y1="342.09" x2="1358.75" y2="-429.528" gradientUnits="userSpaceOnUse">
<stop stop-color="white"/>
<stop offset="1" stop-color="white" stop-opacity="0"/>
</linearGradient>
<linearGradient id="paint1_linear" x1="1766" y1="342.163" x2="542.118" y2="-429.872" gradientUnits="userSpaceOnUse">
<stop stop-color="white"/>
<stop offset="1" stop-color="white" stop-opacity="0"/>
</linearGradient>
</defs>
</svg>
