<svg width="175" height="176" viewBox="0 0 175 176" fill="none" xmlns="http://www.w3.org/2000/svg">
<path d="M25.3729 32.8625C14.5148 46.3538 8 63.4053 8 82.0495C8 88.0456 8.66093 93.948 9.98278 99.5694L87.5 82.0495L25.3729 32.8625Z" fill="#F5F6FF"/>
<path d="M87.4999 2.70703C62.2859 2.70703 39.9049 14.4149 25.362 32.6376L87.4999 82.207V2.70703V2.70703Z" fill="#F5F6FF"/>
<path d="M10.7414 99.8617C16.1706 123.526 32.084 143.153 53.333 153.483L87.5 82.207L10.7414 99.8617Z" fill="#F5F6FF"/>
<path d="M149.638 32.6376C135.001 14.4149 112.62 2.70703 87.5 2.70703V82.207L149.638 32.6376Z" fill="#F5F6FF"/>
<path d="M52.7759 153.861C63.2407 158.871 75.0374 161.707 87.5 161.707C99.9626 161.707 111.759 158.871 122.224 153.861L87.5951 82.207L52.7759 153.861Z" fill="#F5F6FF"/>
<path d="M149.627 32.8625L87.5 82.0495L165.017 99.5694C166.339 93.948 167 88.0456 167 82.0495C166.906 63.4053 160.485 46.3538 149.627 32.8625Z" fill="#F5F6FF"/>
<path d="M122.074 153.483C143.67 143.139 159.773 123.487 165.172 99.7909L87.5 82.207L122.074 153.483Z" fill="#F5F6FF"/>
<circle cx="87.5" cy="82.207" r="70.2759" fill="white" stroke="white" stroke-width="2"/>
<g filter="url(#filter0_d)">
<circle cx="87.4973" cy="82.2068" r="52.3977" fill="white"/>
<circle cx="87.4973" cy="82.2068" r="51.3977" stroke="white" stroke-width="2"/>
</g>
<path fill-rule="evenodd" clip-rule="evenodd" d="M81.1003 66.4849C81.1541 63.0962 83.9448 60.3928 87.3334 60.4466C90.7221 60.5004 93.4255 63.2911 93.3717 66.6797C93.3179 70.0684 90.5272 72.7718 87.1386 72.718C83.7499 72.6642 81.0465 69.8735 81.1003 66.4849ZM87.4605 52.4476C79.6541 52.3237 73.2253 58.5515 73.1013 66.3578C72.9773 74.1642 79.2052 80.593 87.0115 80.717C94.8179 80.8409 101.247 74.6131 101.371 66.8068C101.495 59.0004 95.2668 52.5716 87.4605 52.4476ZM76.8425 82.6924C73.0937 82.6329 69.4749 84.065 66.782 86.6736C64.0891 89.2823 62.5429 92.8539 62.4833 96.6026L62.4029 101.67C62.3678 103.879 64.13 105.698 66.3388 105.733C68.5477 105.768 70.3668 104.006 70.4019 101.797L70.4823 96.7296C70.5082 95.1024 71.1794 93.552 72.3483 92.4196C73.5173 91.2872 75.0882 90.6656 76.7154 90.6914L96.9858 91.0133C98.6131 91.0391 100.163 91.7104 101.296 92.8793C102.428 94.0482 103.05 95.6191 103.024 97.2464L102.944 102.314C102.908 104.523 104.671 106.342 106.88 106.377C109.088 106.412 110.907 104.65 110.943 102.441L111.023 97.3735C111.083 93.6247 109.65 90.0058 107.042 87.313C104.433 84.6201 100.862 83.0738 97.1128 83.0143L76.8425 82.6924Z" fill="#DEE5FF"/>
<defs>
<filter id="filter0_d" x="0.0996094" y="0.809082" width="174.795" height="174.795" filterUnits="userSpaceOnUse" color-interpolation-filters="sRGB">
<feFlood flood-opacity="0" result="BackgroundImageFix"/>
<feColorMatrix in="SourceAlpha" type="matrix" values="0 0 0 0 0 0 0 0 0 0 0 0 0 0 0 0 0 0 127 0"/>
<feOffset dy="6"/>
<feGaussianBlur stdDeviation="17.5"/>
<feColorMatrix type="matrix" values="0 0 0 0 0.0799999 0 0 0 0 0 0 0 0 0 1 0 0 0 0.12 0"/>
<feBlend mode="normal" in2="BackgroundImageFix" result="effect1_dropShadow"/>
<feBlend mode="normal" in="SourceGraphic" in2="effect1_dropShadow" result="shape"/>
</filter>
</defs>
</svg>
