<svg width="208" height="27" viewBox="0 0 208 27" fill="none" xmlns="http://www.w3.org/2000/svg">
<path d="M5.28516 7.5332C6.03516 7.5332 6.6862 7.72591 7.23828 8.11133C7.80078 8.49674 8.22786 9.02799 8.51953 9.70508C8.82162 10.3717 8.97266 11.127 8.97266 11.9707C8.97266 12.8249 8.82162 13.5905 8.51953 14.2676C8.22786 14.9447 7.80078 15.4759 7.23828 15.8613C6.67578 16.2467 6.00911 16.4395 5.23828 16.4395C4.6862 16.4395 4.1862 16.3353 3.73828 16.127C3.29036 15.9082 2.91016 15.6009 2.59766 15.2051V19.9551H1.44141V7.76758H2.47266V8.92383C2.78516 8.47591 3.17578 8.13216 3.64453 7.89258C4.1237 7.65299 4.67057 7.5332 5.28516 7.5332ZM5.11328 15.377C5.96745 15.377 6.61849 15.0645 7.06641 14.4395C7.52474 13.804 7.75391 12.9811 7.75391 11.9707C7.75391 10.9707 7.52995 10.1582 7.08203 9.5332C6.63412 8.9082 5.97266 8.5957 5.09766 8.5957C4.24349 8.5957 3.59245 8.90299 3.14453 9.51758C2.69661 10.1322 2.47266 10.9499 2.47266 11.9707C2.47266 13.002 2.69661 13.8301 3.14453 14.4551C3.59245 15.0697 4.2487 15.377 5.11328 15.377ZM14.0658 16.4395C13.2429 16.4395 12.5294 16.252 11.9252 15.877C11.321 15.502 10.8575 14.9759 10.5346 14.2988C10.2221 13.6217 10.0658 12.8457 10.0658 11.9707C10.0658 11.0957 10.2273 10.3249 10.5502 9.6582C10.8731 8.98112 11.3367 8.46029 11.9408 8.0957C12.545 7.7207 13.2533 7.5332 14.0658 7.5332C14.8887 7.5332 15.6023 7.7207 16.2064 8.0957C16.8106 8.4707 17.2689 8.99154 17.5814 9.6582C17.9044 10.3249 18.0658 11.0957 18.0658 11.9707C18.0658 12.8561 17.9044 13.6374 17.5814 14.3145C17.2585 14.9811 16.795 15.502 16.1908 15.877C15.5971 16.252 14.8887 16.4395 14.0658 16.4395ZM16.8471 11.9707C16.8471 10.929 16.6075 10.1113 16.1283 9.51758C15.6596 8.92383 14.9721 8.62695 14.0658 8.62695C13.1492 8.62695 12.4564 8.92904 11.9877 9.5332C11.5189 10.1374 11.2846 10.9499 11.2846 11.9707C11.2846 13.0124 11.5242 13.8353 12.0033 14.4395C12.4825 15.0436 13.17 15.3457 14.0658 15.3457C14.9721 15.3457 15.6596 15.0436 16.1283 14.4395C16.6075 13.8249 16.8471 13.002 16.8471 11.9707ZM29.9422 7.76758L27.3641 16.2051H26.3172L24.2703 9.48633L22.1609 16.2051H21.1609L18.5828 7.76758H19.7391L21.7391 14.3145L23.7391 7.76758H24.7859L26.8016 14.3145L28.8016 7.76758H29.9422ZM31.6545 12.3145C31.7066 13.2624 31.967 14.0072 32.4357 14.5488C32.9045 15.0801 33.5659 15.3457 34.4201 15.3457C35.0139 15.3457 35.5347 15.2103 35.9826 14.9395C36.4409 14.6582 36.8003 14.252 37.0607 13.7207L38.1389 14.127C37.8055 14.8665 37.3107 15.4395 36.6545 15.8457C36.0087 16.2415 35.2743 16.4395 34.4514 16.4395C33.6284 16.4395 32.9097 16.252 32.2951 15.877C31.6909 15.502 31.2274 14.9811 30.9045 14.3145C30.5816 13.6478 30.4201 12.8822 30.4201 12.0176C30.4201 11.1322 30.5816 10.3509 30.9045 9.67383C31.2274 8.99674 31.6857 8.4707 32.2795 8.0957C32.8837 7.7207 33.5972 7.5332 34.4201 7.5332C35.7118 7.5332 36.691 7.96549 37.3576 8.83008C38.0243 9.69466 38.3368 10.8561 38.2951 12.3145H31.6545ZM34.4514 8.58008C33.618 8.58008 32.967 8.82487 32.4982 9.31445C32.0399 9.80404 31.7639 10.4759 31.6701 11.3301H37.092C36.9045 9.49674 36.0243 8.58008 34.4514 8.58008ZM41.567 8.31445C41.7962 8.10612 42.0774 7.94987 42.4107 7.8457C42.7441 7.74154 43.0774 7.68945 43.4107 7.68945C43.6191 7.68945 43.8274 7.71549 44.0357 7.76758V8.8457C43.8066 8.79362 43.593 8.76758 43.3951 8.76758C42.8535 8.76758 42.3899 8.91862 42.0045 9.2207C41.6087 9.5332 41.3482 9.94466 41.2232 10.4551C41.0982 10.9655 41.0357 11.6165 41.0357 12.4082V16.2051H39.8795V7.76758H40.9107V9.11133C41.067 8.83008 41.2857 8.56445 41.567 8.31445ZM45.8271 12.3145C45.8792 13.2624 46.1396 14.0072 46.6084 14.5488C47.0771 15.0801 47.7386 15.3457 48.5928 15.3457C49.1865 15.3457 49.7074 15.2103 50.1553 14.9395C50.6136 14.6582 50.973 14.252 51.2334 13.7207L52.3115 14.127C51.9782 14.8665 51.4834 15.4395 50.8271 15.8457C50.1813 16.2415 49.4469 16.4395 48.624 16.4395C47.8011 16.4395 47.0824 16.252 46.4678 15.877C45.8636 15.502 45.4001 14.9811 45.0771 14.3145C44.7542 13.6478 44.5928 12.8822 44.5928 12.0176C44.5928 11.1322 44.7542 10.3509 45.0771 9.67383C45.4001 8.99674 45.8584 8.4707 46.4521 8.0957C47.0563 7.7207 47.7699 7.5332 48.5928 7.5332C49.8844 7.5332 50.8636 7.96549 51.5303 8.83008C52.1969 9.69466 52.5094 10.8561 52.4678 12.3145H45.8271ZM48.624 8.58008C47.7907 8.58008 47.1396 8.82487 46.6709 9.31445C46.2126 9.80404 45.9365 10.4759 45.8428 11.3301H51.2646C51.0771 9.49674 50.1969 8.58008 48.624 8.58008ZM61.1146 4.95508V16.2051H60.0834V15.0488C59.7709 15.4863 59.3803 15.8301 58.9115 16.0801C58.4532 16.3197 57.9271 16.4395 57.3334 16.4395C56.5626 16.4395 55.8907 16.2467 55.3178 15.8613C54.7553 15.4759 54.323 14.9447 54.0209 14.2676C53.7292 13.5905 53.5834 12.8249 53.5834 11.9707C53.5834 11.127 53.7292 10.3717 54.0209 9.70508C54.323 9.02799 54.7501 8.49674 55.3021 8.11133C55.8646 7.72591 56.5261 7.5332 57.2865 7.5332C58.4324 7.5332 59.3282 7.94466 59.974 8.76758V4.95508H61.1146ZM57.4428 15.377C58.3074 15.377 58.9636 15.0697 59.4115 14.4551C59.8594 13.8301 60.0834 13.002 60.0834 11.9707C60.0834 10.9499 59.8594 10.1322 59.4115 9.51758C58.9636 8.90299 58.3178 8.5957 57.474 8.5957C56.599 8.5957 55.9324 8.9082 55.474 9.5332C55.0261 10.1582 54.8021 10.9707 54.8021 11.9707C54.8021 12.9811 55.0261 13.804 55.474 14.4395C55.9324 15.0645 56.5886 15.377 57.4428 15.377ZM69.9592 7.5332C70.7092 7.5332 71.3602 7.72591 71.9123 8.11133C72.4748 8.49674 72.9019 9.02799 73.1936 9.70508C73.4956 10.3717 73.6467 11.127 73.6467 11.9707C73.6467 12.8249 73.4956 13.5905 73.1936 14.2676C72.9019 14.9447 72.4748 15.4759 71.9123 15.8613C71.3498 16.2467 70.6831 16.4395 69.9123 16.4395C69.3186 16.4395 68.7873 16.3197 68.3186 16.0801C67.8498 15.8301 67.4592 15.4811 67.1467 15.0332V16.2051H66.1154V4.95508H67.2717V8.75195C67.5842 8.35612 67.9644 8.05404 68.4123 7.8457C68.8706 7.63737 69.3863 7.5332 69.9592 7.5332ZM69.7873 15.377C70.6415 15.377 71.2925 15.0645 71.7404 14.4395C72.1988 13.804 72.4279 12.9811 72.4279 11.9707C72.4279 10.9707 72.204 10.1582 71.7561 9.5332C71.3081 8.9082 70.6467 8.5957 69.7717 8.5957C68.9175 8.5957 68.2665 8.90299 67.8186 9.51758C67.3706 10.1322 67.1467 10.9499 67.1467 11.9707C67.1467 13.002 67.3706 13.8301 67.8186 14.4551C68.2665 15.0697 68.9227 15.377 69.7873 15.377ZM81.8941 7.76758L77.3473 19.9551H76.2066L77.5973 16.2051V16.1895L74.1754 7.76758H75.3785L78.1598 14.6895L80.7066 7.76758H81.8941Z" fill="#9094A4"/>
<path d="M108.575 12.3177C108.278 11.7078 107.852 11.1697 107.327 10.7404C107.113 10.5648 106.88 10.4135 106.633 10.2894L105.916 9.93245L106.621 9.55059C107.079 9.29846 107.481 8.95797 107.806 8.5489C108.407 7.78284 108.722 6.83021 108.694 5.85652C108.714 5.25041 108.604 4.64708 108.373 4.08653C108.141 3.52599 107.793 3.02104 107.352 2.60517C106.464 1.77504 105.235 1.34337 103.699 1.34337H96.7817C96.4004 1.31869 96.0247 1.44491 95.7357 1.6948C95.6074 1.83326 95.5089 1.9965 95.4461 2.17448C95.3832 2.35245 95.3575 2.5414 95.3704 2.72969V17.7135C95.359 17.9 95.3855 18.0869 95.4483 18.2628C95.5111 18.4388 95.6088 18.6002 95.7357 18.7374C96.023 18.9912 96.3989 19.1215 96.7817 19.0999H103.915C105.501 19.0999 106.768 18.6571 107.676 17.7855C108.583 16.9138 109.04 15.7489 109.04 14.31C109.04 13.619 108.881 12.9373 108.575 12.3177ZM97.9798 3.63453H103.193C104.081 3.63453 104.756 3.87804 105.257 4.37888C105.506 4.62827 105.7 4.92634 105.829 5.25442C105.957 5.5825 106.016 5.9335 106.002 6.28542C106.015 6.6349 105.955 6.98329 105.828 7.3089C105.7 7.63452 105.507 7.93039 105.26 8.17811C104.756 8.67066 104.081 8.90863 103.193 8.90863H97.9798V3.63453ZM105.54 16.0533C104.986 16.5624 104.269 16.8087 103.326 16.8087H97.9798V11.1915H103.329C104.289 11.1915 105.017 11.4516 105.542 11.9884C105.803 12.2477 106.008 12.5573 106.145 12.8984C106.282 13.2395 106.348 13.6049 106.339 13.9724C106.363 14.3563 106.304 14.7409 106.166 15.0999C106.028 15.4589 105.814 15.7841 105.54 16.0533Z" fill="black"/>
<path d="M138.752 19.5966C140.271 19.5966 141.547 19.3503 142.546 18.866C143.462 18.458 144.234 17.7829 144.76 16.9291C145.227 16.1175 145.468 15.1953 145.457 14.2588C145.457 13.0966 145.158 12.1503 144.569 11.4474C143.99 10.7526 143.25 10.2101 142.413 9.86743C141.349 9.44617 140.26 9.09311 139.151 8.8104C138.215 8.58349 137.46 8.36489 136.912 8.1712C136.401 8.00394 135.931 7.73364 135.529 7.37704C135.351 7.21829 135.21 7.02319 135.114 6.805C135.019 6.5868 134.971 6.35062 134.975 6.11247C134.972 5.74342 135.063 5.37967 135.239 5.05537C135.415 4.73107 135.671 4.45687 135.982 4.25852C136.624 3.79364 137.504 3.55844 138.592 3.55844C139.36 3.55884 140.125 3.67641 140.858 3.9071C141.602 4.14051 142.296 4.50918 142.906 4.99457C143.115 5.13756 143.363 5.21377 143.617 5.21317C143.778 5.21485 143.937 5.18327 144.085 5.12042C144.233 5.05756 144.367 4.96479 144.477 4.84791C144.595 4.73313 144.688 4.59527 144.751 4.44293C144.813 4.29058 144.844 4.12702 144.84 3.96244C144.849 3.76701 144.804 3.57289 144.711 3.40084C144.618 3.22879 144.48 3.08527 144.311 2.98565C143.518 2.42029 142.645 1.97636 141.721 1.66851C140.78 1.3807 139.8 1.24068 138.816 1.25345C137.648 1.23139 136.489 1.45383 135.412 1.90648C134.501 2.28662 133.711 2.90855 133.127 3.7051C132.589 4.46475 132.306 5.37548 132.319 6.30617C132.319 7.41301 132.612 8.31509 133.193 8.98472C133.759 9.64344 134.475 10.1576 135.28 10.4845C136.319 10.8875 137.384 11.2221 138.467 11.4862C139.254 11.6785 140.031 11.9112 140.794 12.1835C141.325 12.3726 141.81 12.6704 142.219 13.0579C142.408 13.2457 142.556 13.4704 142.654 13.7179C142.752 13.9655 142.798 14.2306 142.789 14.4968C142.786 14.876 142.697 15.2495 142.529 15.5893C142.361 15.9292 142.118 16.2264 141.818 16.4587C141.173 17.0121 140.177 17.2888 138.86 17.2888C137.125 17.2814 135.446 16.6699 134.112 15.5594C133.889 15.3884 133.615 15.2985 133.334 15.3048C133.17 15.3027 133.007 15.334 132.855 15.3968C132.704 15.4596 132.566 15.5525 132.452 15.67C132.329 15.7825 132.233 15.9196 132.167 16.0722C132.102 16.2248 132.07 16.3895 132.072 16.5555C132.074 16.7482 132.119 16.9381 132.205 17.1104C132.292 17.2827 132.417 17.4328 132.571 17.5489C134.211 18.9075 136.29 19.5966 138.747 19.5966" fill="black"/>
<path d="M151.389 1.25226C151.212 1.24839 151.036 1.28132 150.873 1.34896C150.71 1.41661 150.562 1.51748 150.44 1.64519C150.315 1.76214 150.216 1.90362 150.148 2.06075C150.08 2.21788 150.046 2.38727 150.047 2.55833V17.9711C150.046 18.1421 150.08 18.3115 150.148 18.4687C150.216 18.6258 150.315 18.7673 150.44 18.8842C150.561 19.0105 150.708 19.1104 150.87 19.1775C151.031 19.2446 151.205 19.2776 151.381 19.2744C151.55 19.2764 151.717 19.2427 151.872 19.1755C152.027 19.1082 152.166 19.009 152.28 18.8842C152.401 18.7655 152.498 18.6234 152.563 18.4664C152.628 18.3095 152.661 18.141 152.659 17.9711V2.55833C152.66 2.38846 152.628 2.22006 152.562 2.06317C152.497 1.90629 152.401 1.76413 152.28 1.64519C152.167 1.52097 152.03 1.42181 151.876 1.35412C151.723 1.28643 151.557 1.25173 151.389 1.25226Z" fill="black"/>
<path d="M164.047 19.5964C165.566 19.5964 166.842 19.3501 167.84 18.8659C168.756 18.4578 169.528 17.7827 170.054 16.9289C170.523 16.1186 170.765 15.1974 170.757 14.2614C170.757 13.0992 170.458 12.1529 169.869 11.4501C169.295 10.7574 168.561 10.215 167.73 9.87004C166.666 9.44868 165.576 9.09561 164.467 8.81301C163.532 8.58334 162.777 8.3675 162.229 8.17381C161.718 8.00633 161.247 7.73606 160.845 7.37965C160.668 7.2209 160.526 7.0258 160.431 6.80761C160.335 6.58941 160.288 6.35323 160.292 6.11508C160.286 5.74762 160.373 5.38466 160.545 5.06001C160.718 4.73536 160.969 4.45958 161.277 4.25836C161.922 3.79349 162.799 3.55828 163.886 3.55828C164.655 3.55855 165.419 3.67613 166.153 3.90694C166.896 4.14059 167.59 4.50923 168.2 4.99441C168.409 5.13751 168.656 5.21375 168.909 5.21301C169.069 5.21469 169.229 5.18311 169.377 5.12026C169.525 5.05741 169.659 4.96463 169.769 4.84775C169.888 4.73322 169.981 4.59546 170.044 4.4431C170.107 4.29075 170.138 4.12706 170.134 3.96228C170.143 3.76685 170.098 3.57273 170.005 3.40068C169.912 3.22863 169.774 3.08512 169.606 2.98549C168.813 2.41999 167.94 1.97605 167.016 1.66835C166.071 1.37949 165.087 1.23946 164.099 1.25329C162.934 1.23248 161.778 1.45489 160.704 1.90633C159.794 2.2869 159.004 2.90879 158.421 3.70494C157.883 4.46459 157.6 5.37532 157.613 6.30601C157.613 7.41285 157.907 8.31493 158.488 8.98457C159.054 9.64328 159.769 10.1574 160.574 10.4843C161.614 10.8873 162.678 11.2219 163.762 11.486C164.549 11.6782 165.326 11.911 166.089 12.1833C166.62 12.3724 167.105 12.6702 167.514 13.0577C167.703 13.2455 167.851 13.4702 167.949 13.7178C168.047 13.9654 168.093 14.2305 168.084 14.4966C168.081 14.8758 167.992 15.2494 167.824 15.5892C167.656 15.929 167.412 16.2262 167.113 16.4585C166.468 17.0119 165.472 17.2886 164.155 17.2886C162.418 17.2848 160.737 16.6762 159.401 15.5675C159.178 15.3983 158.905 15.3086 158.626 15.3129C158.463 15.3118 158.302 15.3436 158.152 15.4063C158.001 15.4691 157.865 15.5616 157.752 15.6782C157.63 15.7908 157.533 15.9279 157.468 16.0806C157.404 16.2332 157.372 16.3978 157.375 16.5637C157.376 16.7564 157.422 16.9463 157.508 17.1186C157.595 17.2908 157.72 17.4409 157.873 17.557C159.514 18.9157 161.592 19.6047 164.05 19.6047" fill="black"/>
<path d="M185.027 7.55437C184.852 7.55149 184.678 7.5849 184.516 7.65252C184.354 7.72014 184.208 7.8205 184.086 7.9473C183.961 8.06415 183.862 8.20561 183.794 8.36276C183.727 8.51992 183.692 8.68936 183.693 8.86045V17.9919C183.692 18.163 183.727 18.3324 183.795 18.4895C183.862 18.6466 183.961 18.7881 184.086 18.9051C184.208 19.0314 184.354 19.1312 184.516 19.1983C184.678 19.2655 184.852 19.2985 185.027 19.2952C185.196 19.2973 185.364 19.2636 185.519 19.1963C185.673 19.1291 185.813 19.0298 185.926 18.9051C186.048 18.7862 186.144 18.6441 186.209 18.4872C186.274 18.3302 186.307 18.1618 186.306 17.9919V8.86045C186.307 8.6906 186.274 8.52225 186.209 8.36538C186.144 8.20851 186.048 8.06634 185.926 7.9473C185.813 7.82217 185.674 7.72249 185.519 7.65478C185.364 7.58707 185.196 7.55285 185.027 7.55437Z" fill="black"/>
<path d="M185.027 1.25213C184.852 1.24924 184.678 1.28266 184.516 1.35028C184.354 1.41789 184.208 1.51825 184.086 1.64505C183.961 1.76191 183.862 1.90336 183.794 2.06052C183.727 2.21767 183.692 2.38712 183.693 2.5582V3.00924C183.692 3.1803 183.727 3.34969 183.795 3.50682C183.862 3.66395 183.961 3.80543 184.086 3.92239C184.208 4.04919 184.354 4.14955 184.516 4.21717C184.678 4.28478 184.852 4.3182 185.027 4.31532C185.196 4.31736 185.364 4.28366 185.519 4.21642C185.673 4.14917 185.813 4.04992 185.926 3.92515C186.048 3.80621 186.144 3.66405 186.209 3.50716C186.274 3.35028 186.307 3.18187 186.306 3.01201V2.5582C186.307 2.38834 186.274 2.21993 186.209 2.06304C186.144 1.90615 186.048 1.764 185.926 1.64505C185.813 1.51993 185.674 1.42025 185.519 1.35253C185.364 1.28482 185.196 1.2506 185.027 1.25213Z" fill="black"/>
<path d="M128.689 17.5062L122.762 2.6552C122.593 2.236 122.304 1.87598 121.932 1.6203C121.567 1.36407 121.132 1.22595 120.686 1.22461C120.228 1.22551 119.781 1.3686 119.408 1.63414C119.046 1.88334 118.768 2.23647 118.611 2.6469L112.665 17.5228C112.611 17.6668 112.579 17.8178 112.57 17.9711C112.568 18.135 112.599 18.2977 112.661 18.4491C112.724 18.6005 112.818 18.7373 112.936 18.851C113.139 19.0593 113.409 19.1885 113.699 19.2154C113.988 19.2423 114.278 19.1651 114.516 18.9977C114.722 18.8677 114.88 18.6731 114.964 18.4443L116.121 15.3645H125.219L126.381 18.4332C126.465 18.66 126.619 18.854 126.821 18.9866C127.029 19.1318 127.276 19.2092 127.529 19.208C127.86 19.2065 128.177 19.0746 128.41 18.8409C128.644 18.6071 128.776 18.2906 128.777 17.96C128.776 17.8046 128.746 17.6508 128.689 17.5062ZM116.926 13.22L120.664 3.21692L124.422 13.22H116.926Z" fill="black"/>
<path d="M200.562 18.4415C200.562 18.6947 200.461 18.9375 200.282 19.1165C200.103 19.2956 199.86 19.3961 199.607 19.3961H192.007C191.877 19.4031 191.748 19.3836 191.626 19.3389C191.504 19.2941 191.393 19.2251 191.299 19.1358C191.204 19.0466 191.129 18.9392 191.078 18.8201C191.027 18.7009 191.001 18.5726 191.001 18.4429C191.001 18.3132 191.027 18.1849 191.078 18.0657C191.129 17.9466 191.204 17.8391 191.299 17.7499C191.393 17.6607 191.504 17.5916 191.626 17.5469C191.748 17.5021 191.877 17.4826 192.007 17.4896H199.61C199.862 17.4903 200.104 17.5909 200.282 17.7692C200.46 17.9476 200.561 18.1893 200.562 18.4415ZM192.007 9.35712C191.877 9.35014 191.748 9.36962 191.626 9.41437C191.504 9.45912 191.393 9.52821 191.299 9.61742C191.204 9.70662 191.129 9.81407 191.078 9.93321C191.027 10.0524 191.001 10.1807 191.001 10.3104C191.001 10.4401 191.027 10.5684 191.078 10.6875C191.129 10.8067 191.204 10.9141 191.299 11.0033C191.393 11.0926 191.504 11.1616 191.626 11.2064C191.748 11.2511 191.877 11.2706 192.007 11.2636H194.908C195.038 11.2706 195.168 11.2511 195.289 11.2064C195.411 11.1616 195.522 11.0926 195.616 11.0033C195.711 10.9141 195.786 10.8067 195.837 10.6875C195.888 10.5684 195.915 10.4401 195.915 10.3104C195.915 10.1807 195.888 10.0524 195.837 9.93321C195.786 9.81407 195.711 9.70662 195.616 9.61742C195.522 9.52821 195.411 9.45912 195.289 9.41437C195.168 9.36962 195.038 9.35014 194.908 9.35712H192.007ZM191.953 3.13391L196.704 3.13391C196.958 3.13391 197.2 3.03333 197.379 2.8543C197.558 2.67527 197.659 2.43245 197.659 2.17926C197.659 1.92607 197.558 1.68325 197.379 1.50422C197.2 1.32519 196.958 1.22461 196.704 1.22461H191.953C191.7 1.22461 191.457 1.32519 191.278 1.50422C191.099 1.68325 190.998 1.92607 190.998 2.17926C190.998 2.43245 191.099 2.67527 191.278 2.8543C191.457 3.03333 191.7 3.13391 191.953 3.13391ZM190.998 6.24689C190.998 6.50008 191.099 6.7429 191.278 6.92193C191.457 7.10096 191.7 7.20154 191.953 7.20154H198.445C198.574 7.20852 198.704 7.18904 198.826 7.14429C198.947 7.09954 199.059 7.03045 199.153 6.94124C199.247 6.85204 199.322 6.74459 199.373 6.62545C199.424 6.5063 199.451 6.37797 199.451 6.24828C199.451 6.11859 199.424 5.99025 199.373 5.87111C199.322 5.75197 199.247 5.64452 199.153 5.55531C199.059 5.46611 198.947 5.39702 198.826 5.35227C198.704 5.30751 198.574 5.28803 198.445 5.29501H191.953C191.7 5.29501 191.458 5.39483 191.28 5.57266C191.101 5.7505 191 5.9919 190.998 6.24413V6.24689ZM200.603 1.44874L200.285 1.38233C200.159 1.3568 200.029 1.35662 199.904 1.3818C199.778 1.40699 199.658 1.45702 199.552 1.52899C199.391 1.63638 199.265 1.78913 199.191 1.96788C199.117 2.14662 199.098 2.3433 199.136 2.53299C199.174 2.72268 199.268 2.89683 199.405 3.03337C199.542 3.16991 199.716 3.26269 199.906 3.29993L200.155 3.35251C201.73 3.72373 203.132 4.61893 204.131 5.89138C205.131 7.16383 205.668 8.73805 205.656 10.356C205.657 11.3702 205.444 12.3731 205.033 13.2999C204.621 14.2266 204.019 15.0563 203.265 15.7353L203.107 15.8736C203.009 15.9569 202.928 16.0588 202.869 16.1736C202.81 16.2884 202.774 16.4137 202.764 16.5423C202.753 16.671 202.769 16.8004 202.809 16.9231C202.849 17.0458 202.913 17.1593 202.997 17.2572C203.09 17.3638 203.206 17.4489 203.335 17.5067C203.464 17.5645 203.605 17.5936 203.747 17.592C203.975 17.5941 204.196 17.5157 204.372 17.3706L204.568 17.1991C205.526 16.3367 206.292 15.2826 206.817 14.1052C207.341 12.9277 207.612 11.6533 207.612 10.3643C207.628 8.30372 206.943 6.29896 205.669 4.67896C204.396 3.05896 202.609 1.91993 200.603 1.44874ZM202.092 6.75881C202.002 6.667 201.895 6.59383 201.777 6.5435C201.658 6.49317 201.531 6.46666 201.403 6.4655C201.21 6.46395 201.021 6.51962 200.859 6.62546C200.698 6.7313 200.572 6.88257 200.496 7.06019C200.421 7.23781 200.399 7.43381 200.435 7.62345C200.471 7.81309 200.562 7.98788 200.697 8.12575C201.263 8.71096 201.58 9.49335 201.58 10.3076C201.58 11.1219 201.263 11.9043 200.697 12.4895C200.423 12.7694 200.096 12.991 199.734 13.1408C199.372 13.2906 198.983 13.3656 198.592 13.3611H192.001C191.742 13.3611 191.493 13.464 191.31 13.6472C191.127 13.8304 191.024 14.0788 191.024 14.3379C191.024 14.597 191.127 14.8454 191.31 15.0286C191.493 15.2118 191.742 15.3147 192.001 15.3147H198.592C199.243 15.3171 199.888 15.1883 200.489 14.9358C201.089 14.6834 201.632 14.3125 202.086 13.8454C203.009 12.8943 203.525 11.6215 203.525 10.2965C203.525 8.97162 203.009 7.69876 202.086 6.74774L202.092 6.75881Z" fill="url(#paint0_linear)"/>
<defs>
<linearGradient id="paint0_linear" x1="191.463" y1="10.3123" x2="207.502" y2="10.3123" gradientUnits="userSpaceOnUse">
<stop stop-opacity="0"/>
<stop offset="0.72"/>
<stop offset="1"/>
</linearGradient>
</defs>
</svg>
