<svg width="94" height="80" viewBox="0 0 94 80" fill="none" xmlns="http://www.w3.org/2000/svg">
<path d="M69.3598 54.9386H61.4506C60.7033 54.9386 60.1428 54.3027 60.2674 53.5397L64.2531 19.7118C64.3154 19.076 64.8136 18.6309 65.4363 18.6309C66.0591 18.6309 66.5573 19.076 66.6196 19.7118L70.543 53.5397C70.6676 54.3027 70.1071 54.9386 69.3598 54.9386Z" fill="url(#paint0_linear)"/>
<path d="M60.2683 35.0993L58.0886 36.0531L47.9375 12.399L50.0549 11.3816L60.2683 35.0993Z" fill="url(#paint1_linear)"/>
<path d="M92.9638 35.0993L90.8464 36.0531L80.6953 12.399L82.8127 11.3816L92.9638 35.0993Z" fill="url(#paint2_linear)"/>
<path d="M81.7537 13.5439H49.2453C48.498 13.5439 47.9375 12.9716 47.9375 12.2086C47.9375 11.4456 48.498 10.8733 49.2453 10.8733H81.7537C82.501 10.8733 83.0615 11.4456 83.0615 12.2086C83.0615 12.9716 82.4388 13.5439 81.7537 13.5439Z" fill="url(#paint3_linear)"/>
<path d="M65.4975 17.2954C68.2835 17.2954 70.5419 14.9894 70.5419 12.1449C70.5419 9.30034 68.2835 6.99438 65.4975 6.99438C62.7116 6.99438 60.4531 9.30034 60.4531 12.1449C60.4531 14.9894 62.7116 17.2954 65.4975 17.2954Z" fill="url(#paint4_linear)"/>
<path d="M37.7266 35.0991C37.7266 41.4577 42.771 46.6082 48.9986 46.6082V35.0991C45.0129 35.0991 41.0272 35.0991 37.7266 35.0991Z" fill="#FF5596"/>
<path d="M49.0039 35.0991V46.6082C55.2316 46.6082 60.276 41.4577 60.276 35.0991C56.7885 35.0991 52.8651 35.0991 49.0039 35.0991Z" fill="url(#paint5_linear)"/>
<path d="M70.4844 35.0991C70.4844 41.4577 75.5288 46.6082 81.7564 46.6082V35.0991C77.7707 35.0991 73.785 35.0991 70.4844 35.0991Z" fill="url(#paint6_linear)"/>
<path d="M81.7578 35.0991V46.6082C87.9855 46.6082 93.0299 41.4577 93.0299 35.0991C89.5424 35.0991 85.619 35.0991 81.7578 35.0991Z" fill="url(#paint7_linear)"/>
<path d="M55.6626 57.2273C53.4207 57.2273 51.4278 58.7534 50.8673 60.9789L50.6805 61.6783C50.4314 62.5685 51.1164 63.4587 52.0506 63.4587H65.3778V57.2273H55.6626Z" fill="url(#paint8_linear)"/>
<path d="M80.0139 61.6783L79.8271 60.9789C79.2666 58.7534 77.2737 57.2273 75.0318 57.2273H65.3789V63.4587H78.7061C79.578 63.5223 80.263 62.5685 80.0139 61.6783Z" fill="url(#paint9_linear)"/>
<path d="M0 3.17931V52.2043L20.8004 73.4421H50.5686C52.3124 73.4421 53.6825 72.0432 53.6825 70.2628V3.17931C53.6825 1.3989 52.3124 0 50.5686 0H3.11383C1.37009 0 0 1.3989 0 3.17931Z" fill="url(#paint10_linear)"/>
<path d="M40.6686 79.3741L37.368 76.0041L34.1296 79.3741C33.3823 80.1372 32.1367 79.6285 32.1367 78.5475V63.6047H42.5992V78.5475C42.5992 79.5649 41.3537 80.0736 40.6686 79.3741Z" fill="url(#paint11_linear)"/>
<path d="M49.5084 59.3894C49.5084 60.9154 47.1419 61.8692 46.6437 63.2045C46.0832 64.5398 47.0174 66.9561 46.0209 67.9735C45.0245 68.9909 42.658 68.0371 41.3502 68.6094C40.1047 69.118 39.1082 71.5343 37.6136 71.5343C36.1189 71.5343 35.1848 69.118 33.877 68.6094C32.5692 68.0371 30.2027 68.9909 29.2062 67.9735C28.2098 66.9561 29.144 64.5398 28.5835 63.2045C28.0853 61.9328 25.7188 60.9154 25.7188 59.3894C25.7188 57.8633 28.0853 56.9095 28.5835 55.5742C29.144 54.2389 28.2098 51.8226 29.2062 50.8052C30.2027 49.7878 32.5692 50.7416 33.877 50.1694C35.1225 49.6607 36.1189 47.2444 37.6136 47.2444C39.1082 47.2444 40.0424 49.6607 41.3502 50.1694C42.658 50.7416 45.0245 49.7878 46.0209 50.8052C47.0174 51.8226 46.0832 54.2389 46.6437 55.5742C47.1419 56.8459 49.5084 57.8633 49.5084 59.3894Z" fill="url(#paint12_linear)"/>
<path d="M20.8004 73.5055L0 52.2041H17.1884C19.1812 52.2041 20.8004 53.8573 20.8004 55.8921V73.5055Z" fill="url(#paint13_linear)"/>
<path d="M6.85156 13.3531L8.59531 11.5091L11.7714 14.752L18.435 7.94824L20.1788 9.79224L11.7714 18.3764L6.85156 13.3531Z" fill="url(#paint14_linear)"/>
<path d="M11.7697 17.7408L7.47266 13.3533L8.59364 12.2088L11.7697 15.4517L18.4333 8.64795L19.5543 9.7925L11.7697 17.7408Z" fill="url(#paint15_linear)"/>
<path d="M6.85156 26.5156L8.59531 24.7351L11.7714 27.978L18.435 21.1743L20.1788 23.0183L11.7714 31.6025L6.85156 26.5156Z" fill="url(#paint16_linear)"/>
<path d="M11.7697 30.903L7.47266 26.5156L8.59364 25.371L11.7697 28.6139L18.4333 21.8738L19.5543 23.0183L11.7697 30.903Z" fill="url(#paint17_linear)"/>
<path d="M6.85156 39.7414L8.59531 37.961L11.7714 41.1403L18.435 34.4001L20.1788 36.1806L11.7714 44.7647L6.85156 39.7414Z" fill="url(#paint18_linear)"/>
<path d="M11.7697 44.1292L7.47266 39.7418L8.59364 38.5972L11.7697 41.8401L18.4333 35.0364L19.5543 36.1809L11.7697 44.1292Z" fill="url(#paint19_linear)"/>
<path d="M24.2266 13.3531V10.4917H44.7156V13.3531H24.2266Z" fill="url(#paint20_linear)"/>
<path d="M44.2775 11.0005H24.7227V12.9081H44.2775V11.0005Z" fill="url(#paint21_linear)"/>
<path d="M24.2266 27.0877V24.2263H44.7156V27.0877H24.2266Z" fill="url(#paint22_linear)"/>
<path d="M44.2775 24.7351H24.7227V26.6427H44.2775V24.7351Z" fill="url(#paint23_linear)"/>
<path d="M24.2266 40.3137V37.5159H44.7156V40.3137H24.2266Z" fill="url(#paint24_linear)"/>
<path d="M44.2775 37.9609H24.7227V39.8685H44.2775V37.9609Z" fill="url(#paint25_linear)"/>
<defs>
<linearGradient id="paint0_linear" x1="60.2697" y1="36.7961" x2="70.5633" y2="36.7961" gradientUnits="userSpaceOnUse">
<stop stop-color="#AEBDFF"/>
<stop offset="1" stop-color="#4C72FF"/>
</linearGradient>
<linearGradient id="paint1_linear" x1="58.0965" y1="34.8211" x2="49.1788" y2="11.0794" gradientUnits="userSpaceOnUse">
<stop stop-color="#0044BC"/>
<stop offset="1" stop-color="#9BB1FF"/>
</linearGradient>
<linearGradient id="paint2_linear" x1="82.5342" y1="13.5837" x2="92.1366" y2="35.3694" gradientUnits="userSpaceOnUse">
<stop stop-color="#0044BC"/>
<stop offset="1" stop-color="#9BB1FF"/>
</linearGradient>
<linearGradient id="paint3_linear" x1="62.8728" y1="6.02383" x2="68.7439" y2="19.344" gradientUnits="userSpaceOnUse">
<stop stop-color="#0044BC"/>
<stop offset="1" stop-color="#9BB1FF"/>
</linearGradient>
<linearGradient id="paint4_linear" x1="61.0088" y1="17.098" x2="69.4318" y2="8.16903" gradientUnits="userSpaceOnUse">
<stop stop-color="#FF95AE"/>
<stop offset="0.9735" stop-color="#FF5596"/>
<stop offset="1" stop-color="#FF6A8E"/>
</linearGradient>
<linearGradient id="paint5_linear" x1="48.5934" y1="40.823" x2="61.4356" y2="40.823" gradientUnits="userSpaceOnUse">
<stop stop-color="#555966"/>
<stop offset="1"/>
</linearGradient>
<linearGradient id="paint6_linear" x1="72.6548" y1="44.6504" x2="82.0814" y2="34.6576" gradientUnits="userSpaceOnUse">
<stop stop-color="#FF95AE"/>
<stop offset="0.9735" stop-color="#FF5596"/>
<stop offset="1" stop-color="#FF6A8E"/>
</linearGradient>
<linearGradient id="paint7_linear" x1="81.3484" y1="40.823" x2="94.5171" y2="40.823" gradientUnits="userSpaceOnUse">
<stop stop-color="#555966"/>
<stop offset="1"/>
</linearGradient>
<linearGradient id="paint8_linear" x1="52.7422" y1="67.7581" x2="64.3875" y2="55.4134" gradientUnits="userSpaceOnUse">
<stop stop-color="#FF95AE"/>
<stop offset="0.9735" stop-color="#FF5596"/>
<stop offset="1" stop-color="#FF6A8E"/>
</linearGradient>
<linearGradient id="paint9_linear" x1="65.3645" y1="60.3639" x2="80.0883" y2="60.3639" gradientUnits="userSpaceOnUse">
<stop stop-color="#AEBDFF"/>
<stop offset="1" stop-color="#4C72FF"/>
</linearGradient>
<linearGradient id="paint10_linear" x1="9.17154" y1="61.7684" x2="53.6228" y2="1.39882" gradientUnits="userSpaceOnUse">
<stop offset="0.00816327" stop-color="white"/>
<stop offset="0.2937" stop-color="#EFF0F5"/>
<stop offset="0.6152" stop-color="#E4E7EF"/>
<stop offset="1" stop-color="#E1E4ED"/>
</linearGradient>
<linearGradient id="paint11_linear" x1="32.3713" y1="74.8123" x2="53.5504" y2="74.8123" gradientUnits="userSpaceOnUse">
<stop stop-color="#555966"/>
<stop offset="1"/>
</linearGradient>
<linearGradient id="paint12_linear" x1="37.6496" y1="66.7797" x2="37.6496" y2="51.3346" gradientUnits="userSpaceOnUse">
<stop stop-color="#FFAABF"/>
<stop offset="1" stop-color="#FF5596"/>
</linearGradient>
<linearGradient id="paint13_linear" x1="18.2185" y1="55.1676" x2="6.4562" y2="66.2688" gradientUnits="userSpaceOnUse">
<stop offset="0.00816327" stop-color="white"/>
<stop offset="1" stop-color="#CED1D9"/>
</linearGradient>
<linearGradient id="paint14_linear" x1="6.83998" y1="13.1755" x2="20.2018" y2="13.1755" gradientUnits="userSpaceOnUse">
<stop stop-color="#C3D0FF"/>
<stop offset="1" stop-color="#7492FF"/>
</linearGradient>
<linearGradient id="paint15_linear" x1="7.49508" y1="13.1757" x2="19.5434" y2="13.1757" gradientUnits="userSpaceOnUse">
<stop stop-color="#C3D0FF"/>
<stop offset="1" stop-color="#7492FF"/>
</linearGradient>
<linearGradient id="paint16_linear" x1="6.83998" y1="26.381" x2="20.2018" y2="26.381" gradientUnits="userSpaceOnUse">
<stop stop-color="#C3D0FF"/>
<stop offset="1" stop-color="#7492FF"/>
</linearGradient>
<linearGradient id="paint17_linear" x1="7.49508" y1="26.3811" x2="19.5434" y2="26.3811" gradientUnits="userSpaceOnUse">
<stop stop-color="#C3D0FF"/>
<stop offset="1" stop-color="#7492FF"/>
</linearGradient>
<linearGradient id="paint18_linear" x1="6.83998" y1="39.5866" x2="20.2018" y2="39.5866" gradientUnits="userSpaceOnUse">
<stop stop-color="#C3D0FF"/>
<stop offset="1" stop-color="#7492FF"/>
</linearGradient>
<linearGradient id="paint19_linear" x1="7.49508" y1="39.587" x2="19.5434" y2="39.587" gradientUnits="userSpaceOnUse">
<stop stop-color="#C3D0FF"/>
<stop offset="1" stop-color="#7492FF"/>
</linearGradient>
<linearGradient id="paint20_linear" x1="24.2307" y1="11.924" x2="44.7439" y2="11.924" gradientUnits="userSpaceOnUse">
<stop stop-color="#FFD5DF"/>
<stop offset="1" stop-color="#FF95AE"/>
</linearGradient>
<linearGradient id="paint21_linear" x1="24.693" y1="11.924" x2="44.2773" y2="11.924" gradientUnits="userSpaceOnUse">
<stop stop-color="#FFD5DF"/>
<stop offset="1" stop-color="#FF95AE"/>
</linearGradient>
<linearGradient id="paint22_linear" x1="24.2307" y1="25.6573" x2="44.7439" y2="25.6573" gradientUnits="userSpaceOnUse">
<stop stop-color="#FFD5DF"/>
<stop offset="1" stop-color="#FF95AE"/>
</linearGradient>
<linearGradient id="paint23_linear" x1="24.693" y1="25.6574" x2="44.2773" y2="25.6574" gradientUnits="userSpaceOnUse">
<stop stop-color="#FFD5DF"/>
<stop offset="1" stop-color="#FF95AE"/>
</linearGradient>
<linearGradient id="paint24_linear" x1="24.2307" y1="38.9094" x2="44.7439" y2="38.9094" gradientUnits="userSpaceOnUse">
<stop stop-color="#FFD5DF"/>
<stop offset="1" stop-color="#FF95AE"/>
</linearGradient>
<linearGradient id="paint25_linear" x1="24.693" y1="38.9094" x2="44.2773" y2="38.9094" gradientUnits="userSpaceOnUse">
<stop stop-color="#FFD5DF"/>
<stop offset="1" stop-color="#FF95AE"/>
</linearGradient>
</defs>
</svg>
