<svg width="94" height="80" viewBox="0 0 94 80" fill="none" xmlns="http://www.w3.org/2000/svg">
<path d="M53.8765 79.7391C75.5006 79.7391 93.0305 61.8889 93.0305 39.8695C93.0305 17.8502 75.5006 0 53.8765 0C32.2525 0 14.7227 17.8502 14.7227 39.8695C14.7227 61.8889 32.2525 79.7391 53.8765 79.7391Z" fill="url(#paint0_linear)"/>
<path d="M56.082 9.04205C56.082 7.03947 57.8699 5.52236 59.7769 5.88647C67.7626 7.34289 74.8545 11.5908 79.8604 17.7199C81.1119 19.237 80.6948 21.543 79.0261 22.5746C77.715 23.3635 76.0464 23.0601 75.0332 21.8464C70.9212 16.8703 65.2001 13.3506 58.6446 12.1976C57.1547 11.8942 56.082 10.5592 56.082 9.04205Z" fill="url(#paint1_linear)"/>
<path d="M28.7261 22.5139C27.0574 21.543 26.6402 19.237 27.8917 17.6592C32.8977 11.5908 39.9299 7.2822 47.9752 5.88647C49.8823 5.52236 51.6701 7.03947 51.6701 9.04205C51.6701 10.6198 50.5974 11.9549 49.1075 12.1976C42.5521 13.3506 36.831 16.8703 32.7189 21.8464C31.7654 22.9994 30.0372 23.3028 28.7261 22.5139Z" fill="url(#paint2_linear)"/>
<path d="M87.7848 39.8695C87.7848 44.0568 87.0696 48.0619 85.699 51.7637C85.0434 53.6449 82.8384 54.4338 81.1101 53.4021C79.7991 52.6132 79.2627 50.9748 79.7395 49.579C80.8122 46.5448 81.4081 43.3285 81.4081 39.9302C81.4081 36.5319 80.8122 33.3157 79.7395 30.3421C79.2031 28.8857 79.7991 27.2472 81.1101 26.4583C82.7788 25.4874 84.9838 26.2763 85.6394 28.0968C87.0696 31.7379 87.7848 35.743 87.7848 39.8695Z" fill="url(#paint3_linear)"/>
<path d="M53.5195 37.6849C53.8175 37.3208 68.3587 29.3712 72.2323 27.2472C72.7687 26.9438 73.4838 27.1258 73.8414 27.6113C74.2586 28.1575 74.0798 28.9464 73.5434 29.3712L56.5589 41.1439L53.5195 37.6849Z" fill="url(#paint4_linear)"/>
<path d="M53.8779 44.5424C56.4122 44.5424 58.4667 42.4504 58.4667 39.8697C58.4667 37.2891 56.4122 35.197 53.8779 35.197C51.3435 35.197 49.2891 37.2891 49.2891 39.8697C49.2891 42.4504 51.3435 44.5424 53.8779 44.5424Z" fill="url(#paint5_linear)"/>
<path d="M76.5833 64.2037C78.2948 64.2037 79.6822 62.7909 79.6822 61.0482C79.6822 59.3054 78.2948 57.8926 76.5833 57.8926C74.8718 57.8926 73.4844 59.3054 73.4844 61.0482C73.4844 62.7909 74.8718 64.2037 76.5833 64.2037Z" fill="url(#paint6_linear)"/>
<path d="M68.0626 70.3331C69.4779 70.3331 70.6252 69.1648 70.6252 67.7237C70.6252 66.2825 69.4779 65.1143 68.0626 65.1143C66.6473 65.1143 65.5 66.2825 65.5 67.7237C65.5 69.1648 66.6473 70.3331 68.0626 70.3331Z" fill="url(#paint7_linear)"/>
<path d="M57.6308 73.1852C58.8486 73.1852 59.8358 72.18 59.8358 70.9399C59.8358 69.6998 58.8486 68.6946 57.6308 68.6946C56.413 68.6946 55.4258 69.6998 55.4258 70.9399C55.4258 72.18 56.413 73.1852 57.6308 73.1852Z" fill="url(#paint8_linear)"/>
<path d="M46.1891 71.7893C47.0119 71.7893 47.679 71.1101 47.679 70.2722C47.679 69.4344 47.0119 68.7551 46.1891 68.7551C45.3663 68.7551 44.6992 69.4344 44.6992 70.2722C44.6992 71.1101 45.3663 71.7893 46.1891 71.7893Z" fill="url(#paint9_linear)"/>
<path d="M17.0442 71.1826C26.4574 71.1826 34.0883 63.4122 34.0883 53.8269C34.0883 44.2416 26.4574 36.4712 17.0442 36.4712C7.63093 36.4712 0 44.2416 0 53.8269C0 63.4122 7.63093 71.1826 17.0442 71.1826Z" fill="url(#paint10_linear)"/>
<path d="M14.8402 61.2303C13.7675 61.2303 12.814 60.8055 12.0392 60.0166L6.91406 54.6764L9.89381 51.6422L14.8402 56.7397L25.0309 46.4233L28.0107 49.4576L17.5816 60.0773C16.8664 60.8055 15.9129 61.2303 14.8402 61.2303Z" fill="url(#paint11_linear)"/>
<defs>
<linearGradient id="paint0_linear" x1="25.5577" y1="70.1157" x2="94.0699" y2="-0.448788" gradientUnits="userSpaceOnUse">
<stop offset="0.00816327" stop-color="white"/>
<stop offset="0.508" stop-color="#EEEFF5"/>
<stop offset="1" stop-color="#E1E4ED"/>
</linearGradient>
<linearGradient id="paint1_linear" x1="56.078" y1="14.3804" x2="80.5819" y2="14.3804" gradientUnits="userSpaceOnUse">
<stop stop-color="#AEBDFF"/>
<stop offset="1" stop-color="#4C72FF"/>
</linearGradient>
<linearGradient id="paint2_linear" x1="27.1571" y1="14.381" x2="51.6608" y2="14.381" gradientUnits="userSpaceOnUse">
<stop stop-color="#AEBDFF"/>
<stop offset="1" stop-color="#4C72FF"/>
</linearGradient>
<linearGradient id="paint3_linear" x1="79.6166" y1="39.9069" x2="87.782" y2="39.9069" gradientUnits="userSpaceOnUse">
<stop stop-color="#AEBDFF"/>
<stop offset="1" stop-color="#4C72FF"/>
</linearGradient>
<linearGradient id="paint4_linear" x1="56.4721" y1="38.8603" x2="80.1932" y2="21.6336" gradientUnits="userSpaceOnUse">
<stop stop-color="#555966"/>
<stop offset="1"/>
</linearGradient>
<linearGradient id="paint5_linear" x1="50.745" y1="42.234" x2="60.525" y2="35.1316" gradientUnits="userSpaceOnUse">
<stop stop-color="#555966"/>
<stop offset="1"/>
</linearGradient>
<linearGradient id="paint6_linear" x1="73.459" y1="61.0643" x2="79.7052" y2="61.0643" gradientUnits="userSpaceOnUse">
<stop stop-color="#FFD5DF"/>
<stop offset="1" stop-color="#FF95AE"/>
</linearGradient>
<linearGradient id="paint7_linear" x1="65.5123" y1="67.7501" x2="70.5916" y2="67.7501" gradientUnits="userSpaceOnUse">
<stop stop-color="#FFD5DF"/>
<stop offset="1" stop-color="#FF95AE"/>
</linearGradient>
<linearGradient id="paint8_linear" x1="55.4454" y1="70.9302" x2="59.8621" y2="70.9302" gradientUnits="userSpaceOnUse">
<stop stop-color="#FFD5DF"/>
<stop offset="1" stop-color="#FF95AE"/>
</linearGradient>
<linearGradient id="paint9_linear" x1="44.6747" y1="70.2707" x2="47.6679" y2="70.2707" gradientUnits="userSpaceOnUse">
<stop stop-color="#FFD5DF"/>
<stop offset="1" stop-color="#FF95AE"/>
</linearGradient>
<linearGradient id="paint10_linear" x1="6.50509" y1="65.4797" x2="34.9836" y2="35.2091" gradientUnits="userSpaceOnUse">
<stop stop-color="#4C72FF"/>
<stop offset="0.1569" stop-color="#496FFA"/>
<stop offset="0.3343" stop-color="#4266ED"/>
<stop offset="0.5215" stop-color="#3558D6"/>
<stop offset="0.7157" stop-color="#2344B6"/>
<stop offset="0.9132" stop-color="#0C2A8E"/>
<stop offset="1" stop-color="#001D7A"/>
</linearGradient>
<linearGradient id="paint11_linear" x1="6.93278" y1="53.8447" x2="28.036" y2="53.8447" gradientUnits="userSpaceOnUse">
<stop stop-color="#FFD5DF"/>
<stop offset="1" stop-color="#FF95AE"/>
</linearGradient>
</defs>
</svg>
