<svg width="1572" height="1057" viewBox="0 0 1572 1057" fill="none" xmlns="http://www.w3.org/2000/svg">
<mask id="mask0" mask-type="alpha" maskUnits="userSpaceOnUse" x="0" y="0" width="1572" height="1057">
<rect width="1572" height="1057" rx="25" fill="#2E5BFF"/>
<rect width="1572" height="1057" rx="25" fill="url(#paint0_linear)" fill-opacity="0.228"/>
</mask>
<g mask="url(#mask0)">
<path d="M787.705 1056H1064.09V791.984C1064.03 937.768 940.32 1056 787.705 1056Z" fill="black"/>
<path d="M787.705 791.984V1056C940.32 1056 1064.09 937.824 1064.09 791.984H787.705Z" fill="#2453FF"/>
<path d="M787.704 1056V791.984H511.319C511.319 937.768 635.09 1056 787.704 1056Z" fill="#2453FF"/>
<path d="M1064.09 0H787.705V264.014H1064.09V0Z" fill="#001D7A"/>
<path d="M1340.42 0H1064.03V264.014H1340.42V0Z" fill="#2453FF"/>
<path d="M1616.8 0H1340.42V264.014H1616.8V0Z" fill="#0044BC"/>
<path d="M511.377 264.013H234.991V528.027H511.377V264.013Z" fill="#002899"/>
<path d="M787.704 264.013H511.319V528.027H787.704V264.013Z" fill="black"/>
<path d="M578.169 464.17C538.744 426.51 538.744 365.476 578.169 327.816C617.594 290.156 681.488 290.156 720.913 327.816C760.338 365.476 760.338 426.51 720.913 464.17C681.488 501.83 617.594 501.83 578.169 464.17Z" fill="#001D7A"/>
<path d="M622.973 421.316C608.314 407.313 608.314 384.616 622.973 370.613C637.631 356.611 661.392 356.611 676.051 370.613C690.71 384.616 690.71 407.313 676.051 421.316C661.392 435.318 637.631 435.318 622.973 421.316Z" fill="#2453FF"/>
<path d="M1064.09 264.013H787.705V528.027H1064.09V264.013Z" fill="#001D7A"/>
<path d="M1340.42 264.013H1064.03V528.027H1340.42V264.013Z" fill="#0044BC"/>
<path d="M1616.8 264.013H1340.42V528.027H1616.8V264.013Z" fill="#002899"/>
<path d="M234.992 527.972H-41.3932V791.986H234.992V527.972Z" fill="#002899"/>
<path d="M234.992 1056C82.3183 1056 -41.3932 937.768 -41.3932 791.984H234.992V1056Z" fill="#001D7A"/>
<path d="M511.377 527.972H234.991V791.986H511.377V527.972Z" fill="#0044BC"/>
<path d="M787.704 527.972H511.319V791.986H787.704V527.972Z" fill="#2453FF"/>
<path d="M1064.09 527.972H787.705V791.986H1064.09V527.972Z" fill="#002899"/>
<path d="M1010.13 579.521H841.67V740.436H1010.13V579.521Z" fill="#2453FF"/>
<path d="M968.455 619.327H883.34V700.632H968.455V619.327Z" fill="black"/>
<path d="M1340.42 527.972H1064.03V791.986H1340.42V527.972Z" fill="#001D7A"/>
<path d="M1616.8 527.972H1340.42V791.986H1616.8V527.972Z" fill="#0044BC"/>
<path d="M236.352 1056H511.319V792.042C511.319 937.373 388.376 1055.27 236.352 1056Z" fill="#2453FF"/>
<path d="M234.991 791.984V1056C235.464 1056 235.937 1056 236.351 1056H234.991V791.984Z" fill="black"/>
<path d="M234.991 1056H236.351C388.32 1055.27 511.327 937.344 511.327 791.976H234.991V1056Z" fill="black"/>
<path d="M787.705 264.013L1064.03 527.97V264.013H787.705Z" fill="#001D7A"/>
<path d="M371.943 400.595C297.764 401.216 237.592 457.564 235.051 527.972H371.884V400.595H371.943Z" fill="black"/>
<path d="M511.319 391.447C435.78 392.124 374.426 452.538 371.885 528.027H511.319V391.447Z" fill="#2453FF"/>
<path d="M373.184 266.837C297.645 267.514 236.292 327.928 233.75 403.417H373.184V266.837Z" fill="#2453FF"/>
<path d="M1616.68 400.594H1340.53C1343.08 329.792 1403.9 273.161 1478.61 273.161C1553.32 273.161 1614.14 329.792 1616.68 400.594Z" fill="#FF5596"/>
<path d="M1616.68 136.581H1340.53C1343.08 65.7779 1403.9 9.14697 1478.61 9.14697C1553.32 9.20343 1614.14 65.7779 1616.68 136.581Z" fill="black"/>
<path d="M1340.53 136.58H1616.74C1614.2 207.383 1553.38 264.014 1478.67 264.014C1403.9 264.014 1343.02 207.383 1340.53 136.58Z" fill="black"/>
<path d="M1547.65 136.58H1409.57C1410.81 101.179 1441.25 72.8916 1478.61 72.8916C1515.97 72.8916 1546.41 101.179 1547.65 136.58Z" fill="#FF5596"/>
<path d="M1547.65 136.58H1409.57C1410.81 101.179 1441.25 72.8916 1478.61 72.8916C1515.97 72.8916 1546.41 101.179 1547.65 136.58Z" fill="#FF5596"/>
<path d="M234.992 0H-41.3932V264.014H234.992V0Z" fill="#2453FF"/>
<path d="M234.992 127.434V264.014H-41.3932V127.434H-41.275C-38.7925 56.6309 22.088 0 96.7996 0C171.511 0 232.392 56.6309 234.874 127.434H234.992Z" fill="#002899"/>
<path d="M1340.42 791.986V527.972H1616.8L1340.42 791.986Z" fill="#001D7A"/>
<path d="M895.475 894.917L895.475 791.988L787.723 791.988L787.723 894.917L895.475 894.917Z" fill="#FFA9CC"/>
<path d="M787.705 264.014H1064.09V0C911.416 0 787.705 118.23 787.705 264.014Z" fill="black"/>
<path d="M1340.42 264.014H1064.03V0C1216.71 0 1340.42 118.23 1340.42 264.014Z" fill="#FF557E"/>
<path d="M1340.42 264.013H1064.03V528.027C1216.71 527.97 1340.42 409.796 1340.42 264.013Z" fill="#002899"/>
<path d="M1340.42 1056V791.984H1064.03C1064.03 937.768 1187.8 1056 1340.42 1056Z" fill="#001D7A"/>
<path d="M1340.42 1056H1616.8V791.984C1616.8 937.768 1493.03 1056 1340.42 1056Z" fill="#2453FF"/>
<path d="M1340.42 1056H1064.03V791.984C1064.03 937.768 1187.8 1056 1340.42 1056Z" fill="black"/>
<path d="M788.413 1056H511.324V792.012C511.324 937.781 635.35 1056 788.413 1056Z" fill="black"/>
<path d="M234.992 1056H-41.3932V791.984C-41.3932 937.768 82.3183 1056 234.992 1056Z" fill="black"/>
<path d="M1340.42 791.984V1056C1493.03 1056 1616.8 937.824 1616.8 791.984H1340.42Z" fill="#001D7A"/>
<path d="M1340.42 958.264V791.984H1165.28V792.097C1165.28 883.847 1243.13 958.264 1339.23 958.264H1340.42Z" fill="#002899"/>
<path d="M1514.72 791.984H1340.42V958.264H1341.24C1437.06 958.264 1514.72 884.073 1514.72 792.549V791.984Z" fill="#002899"/>
<path d="M1064.03 414.992C1151.32 414.992 1222.08 347.397 1222.08 264.014C1222.08 180.631 1151.32 113.036 1064.03 113.036C976.741 113.036 905.978 180.631 905.978 264.014C905.978 347.397 976.741 414.992 1064.03 414.992Z" fill="#0044BC"/>
<path d="M1064.03 340.068C1108 340.068 1143.65 306.017 1143.65 264.014C1143.65 222.011 1108 187.96 1064.03 187.96C1020.06 187.96 984.413 222.011 984.413 264.014C984.413 306.017 1020.06 340.068 1064.03 340.068Z" fill="black"/>
<path d="M511.318 176.385V264.014H423.839H511.318V176.385Z" fill="#FF5596"/>
<path d="M511.318 0H234.991V264.014C234.991 118.23 358.703 0 511.318 0Z" fill="black"/>
<path d="M511.318 88.7002C409.949 88.7002 327.79 167.182 327.79 264.013H511.318V88.7002Z" fill="black"/>
<path d="M518.944 88.7002H511.378V176.385V264.013H694.906V256.786C694.847 163.963 616.057 88.7002 518.944 88.7002Z" fill="black"/>
<path d="M511.319 88.701V0H522.727C669.017 0 787.645 113.318 787.645 253.061V0H511.319V88.701V264.014V176.386V88.701Z" fill="#2453FF"/>
<path d="M511.318 88.701V0C358.703 0 234.991 118.23 234.991 264.014H327.849C327.849 167.183 410.008 88.701 511.318 88.701Z" fill="#001D7A"/>
<path d="M787.704 253.061V264.015H694.847H787.704V253.061Z" fill="#001D7A"/>
<path d="M787.705 253.06C787.705 113.318 669.076 0 522.786 0H511.378V88.701H518.944C616.116 88.701 694.847 163.908 694.847 256.73V263.958H787.705V253.06Z" fill="#001D7A"/>
<path d="M511.318 176.385V88.7002C409.949 88.7002 327.79 167.182 327.79 264.013H423.839C425.494 215.682 463.914 177.006 511.318 176.385Z" fill="#002899"/>
<path d="M518.944 88.7002H511.378V176.385C511.733 176.385 512.146 176.385 512.501 176.385C560.437 176.385 599.507 215.343 601.103 264.013H511.319H694.847V256.786C694.847 163.963 616.057 88.7002 518.944 88.7002Z" fill="#002899"/>
<path d="M423.839 264.014H511.318V176.385C463.914 177.006 425.494 215.682 423.839 264.014Z" fill="#FF5596"/>
<path d="M512.501 176.385C512.147 176.385 511.733 176.385 511.378 176.385V264.014H601.103C599.448 215.287 560.437 176.385 512.501 176.385Z" fill="#FF5596"/>
<path d="M1340.42 868.604C1384.39 868.604 1420.03 834.554 1420.03 792.551C1420.03 750.547 1384.39 716.497 1340.42 716.497C1296.44 716.497 1260.8 750.547 1260.8 792.551C1260.8 834.554 1296.44 868.604 1340.42 868.604Z" fill="#FF557E"/>
<path d="M371.944 528.028C297.823 528.706 237.593 588.273 235.11 662.689H371.944V528.028Z" fill="#2453FF"/>
<path d="M511.319 662.689C436.43 663.367 375.667 720.562 373.126 791.986H511.319V662.689Z" fill="#002899"/>
<path d="M511.319 527.972C435.78 528.649 374.426 588.216 371.885 662.632H511.319V527.972Z" fill="#002899"/>
<path d="M160.517 599.114H33.0231V720.902H160.517V599.114Z" fill="#001D7A"/>
<path d="M283.697 743.486L186.052 836.76C160.754 810.901 161.286 770.305 187.707 745.067C214.128 719.829 256.626 719.264 283.697 743.486Z" fill="#2453FF"/>
<path d="M186.051 836.76L283.696 743.485C308.994 769.345 308.462 809.94 282.041 835.179C255.62 860.361 213.181 860.925 186.051 836.76Z" fill="#0044BC"/>
<path d="M1340.42 527.972H1165.28V791.986H1340.42V527.972Z" fill="black"/>
<path d="M1068.76 791.986H1064.03V527.972H1068.76C1122.07 527.972 1165.28 569.245 1165.28 620.173V699.784C1165.28 750.712 1122.07 791.986 1068.76 791.986Z" fill="black"/>
<path d="M787.694 894.888L787.694 791.958L679.942 791.958L679.942 894.888L787.694 894.888Z" fill="#001D7A"/>
<path d="M731.312 626.952L684.126 581.877L567.727 693.066L614.913 738.14L731.312 626.952Z" fill="#002899"/>
<path d="M614.933 581.854L567.747 626.928L684.145 738.116L731.332 693.042L614.933 581.854Z" fill="#002899"/>
<path d="M179.904 109.253L13.6947 110.664L96.0311 189.315L179.904 109.253Z" fill="#2453FF"/>
<path d="M33.0231 843.479H160.517V965.266L33.0231 843.479Z" fill="#FF557E"/>
<path d="M234.992 264.013H-41.3932V528.027H234.992V264.013Z" fill="#2453FF"/>
<path d="M160.517 456.886L33.0231 335.099H160.517V456.886Z" fill="black"/>
<path d="M160.517 456.886H33.0231V335.099L160.517 456.886Z" fill="#FF557E"/>
</g>
<g opacity="0.844">
<rect width="1572" height="1056" rx="25" fill="#2E5BFF"/>
<rect width="1572" height="1056" rx="25" fill="url(#paint1_linear)" fill-opacity="0.228"/>
</g>
<defs>
<linearGradient id="paint0_linear" x1="110.867" y1="903.974" x2="1473.38" y2="635.204" gradientUnits="userSpaceOnUse">
<stop stop-color="white"/>
<stop offset="1" stop-color="white" stop-opacity="0"/>
</linearGradient>
<linearGradient id="paint1_linear" x1="110.867" y1="903.119" x2="1473.29" y2="634.114" gradientUnits="userSpaceOnUse">
<stop stop-color="white"/>
<stop offset="1" stop-color="white" stop-opacity="0"/>
</linearGradient>
</defs>
</svg>
