<svg width="1900" height="801" viewBox="0 0 1900 801" fill="none" xmlns="http://www.w3.org/2000/svg">
<path d="M0 0H1900V580C1900 701.503 1801.5 800 1680 800H220C98.4974 800 0 701.503 0 580V0Z" fill="#2E5BFF"/>
<path d="M0 0H1900V580C1900 701.503 1801.5 800 1680 800H220C98.4974 800 0 701.503 0 580V0Z" fill="url(#paint0_linear)" fill-opacity="0.228"/>
<mask id="mask0" mask-type="alpha" maskUnits="userSpaceOnUse" x="0" y="0" width="1900" height="801">
<path d="M1900 0.5H0V580.5C0 702.003 98.4974 800.5 220 800.5H1680C1801.5 800.5 1900 702.003 1900 580.5V0.5Z" fill="#2E5BFF"/>
<path d="M1900 0.5H0V580.5C0 702.003 98.4974 800.5 220 800.5H1680C1801.5 800.5 1900 702.003 1900 580.5V0.5Z" fill="url(#paint1_linear)" fill-opacity="0.228"/>
</mask>
<g mask="url(#mask0)">
<path d="M1900 486L1900 800L1580 800C1580 626.615 1723.3 486 1900 486Z" fill="#2453FF"/>
<path d="M1586 -130H1901V181H1586V-130Z" fill="#002899"/>
<path d="M1900 -127L1900 181L1586 181C1758.88 181 1899.13 43.2872 1900 -127Z" fill="#2453FF"/>
<path d="M1581.77 489.964V800.047C1581.22 800.047 1580.68 800.047 1580.21 800.047H1581.77V489.964Z" fill="black"/>
<path d="M0.13817 15.6701H316.248C313.338 -67.4873 243.716 -134 158.193 -134C72.6701 -134 3.04757 -67.4873 0.13817 15.6701Z" fill="#FF5596"/>
<path d="M-21.6824 799.563L320 799.563L320 489.479C131.329 489.48 -21.6824 628.341 -21.6824 799.563Z" fill="#2453FF"/>
<path d="M320 489.425L-0.793796 489.425L-0.793823 799.508C-0.793808 628.286 142.864 489.425 320 489.425Z" fill="black"/>
<path d="M0.000238304 175.02L0.000242129 489.429L316.38 489.429C141.681 489.429 0.000240416 348.631 0.000238304 175.02Z" fill="#FF577F"/>
<path d="M1900 491L1900 181L1584 181C1758.49 181 1900 319.757 1900 491Z" fill="black"/>
<path d="M-1.85182 211.338V16.0444H198.626V16.1771C198.626 123.937 109.517 211.338 -0.498606 211.338H-1.85182Z" fill="#002899"/>
</g>
<defs>
<linearGradient id="paint0_linear" x1="134" y1="684.181" x2="1690.44" y2="193.887" gradientUnits="userSpaceOnUse">
<stop stop-color="white"/>
<stop offset="1" stop-color="white" stop-opacity="0"/>
</linearGradient>
<linearGradient id="paint1_linear" x1="1766" y1="684.681" x2="209.56" y2="194.387" gradientUnits="userSpaceOnUse">
<stop stop-color="white"/>
<stop offset="1" stop-color="white" stop-opacity="0"/>
</linearGradient>
</defs>
</svg>
