<svg width="39" height="53" viewBox="0 0 39 53" fill="none" xmlns="http://www.w3.org/2000/svg">
<path d="M13.4562 0.293945H2.69123C1.23348 0.293945 0 1.52743 0 3.04125C0 4.55506 1.23348 5.78855 2.69123 5.78855H13.4562C14.97 5.78855 16.2035 4.55506 16.2035 3.04125C16.2035 1.52743 14.97 0.293945 13.4562 0.293945Z" fill="url(#paint0_linear)"/>
<path d="M22.3161 0.291992C20.8584 0.291992 19.6249 1.52547 19.6249 3.03929C19.6249 4.55311 20.8584 5.73053 22.3161 5.73053C27.4182 5.73053 31.5672 9.59917 31.5672 14.3649C31.5672 19.1306 27.4182 22.9993 22.3161 22.9993H12.9529C11.439 22.9993 10.2056 24.2328 10.2056 25.7466C10.2056 27.2604 11.439 28.4939 12.9529 28.4939L22.3161 28.4378C30.3898 28.4378 36.9497 22.1583 36.9497 14.3649C36.9497 6.6276 30.3898 0.291992 22.3161 0.291992Z" fill="url(#paint1_linear)"/>
<path d="M2.69123 17.3374H19.6236C21.1374 17.3374 22.3709 16.1039 22.3709 14.5901C22.3709 13.0763 21.1374 11.8428 19.6236 11.8428H2.69123C1.17741 11.8428 0 13.0763 0 14.5901C0 16.1039 1.23348 17.3374 2.69123 17.3374Z" fill="url(#paint2_linear)"/>
<path d="M2.7473 28.4389H3.02764C4.54146 28.4389 5.77494 27.2055 5.77494 25.6916C5.77494 24.1778 4.54146 22.9443 3.02764 22.9443H2.7473C1.23348 22.9443 0 24.1778 0 25.6916C0 27.2055 1.23348 28.4389 2.7473 28.4389Z" fill="url(#paint3_linear)"/>
<path d="M2.69123 40.4372H23.9408C25.4546 40.4372 26.632 39.2037 26.632 37.7459C26.632 36.2321 25.3985 35.0547 23.9408 35.0547H2.69123C1.23348 35.0547 0 36.2321 0 37.7459C0 39.2597 1.23348 40.4372 2.69123 40.4372Z" fill="url(#paint4_linear)"/>
<path d="M2.69123 52.0981H14.4093C15.9231 52.0981 17.1566 50.8646 17.1566 49.3508C17.1566 47.837 15.9231 46.6035 14.4093 46.6035H2.69123C1.17741 46.6035 0 47.837 0 49.3508C0 50.8646 1.23348 52.0981 2.69123 52.0981Z" fill="url(#paint5_linear)"/>
<path d="M23.8868 52.0987C31.9605 52.0987 38.5204 45.8192 38.5204 38.0258C38.5204 36.1195 38.1279 34.2693 37.343 32.5312C36.8944 31.522 35.8852 30.9053 34.876 30.9053C34.4835 30.9053 34.1471 30.9613 33.7546 31.1295C32.409 31.7463 31.7923 33.3162 32.409 34.7179C32.8576 35.7831 33.1379 36.9045 33.1379 38.0258C33.1379 42.7916 28.9889 46.6602 23.8868 46.6602C22.373 46.6602 21.1956 47.8937 21.1956 49.3514C21.1956 50.8653 22.373 52.0987 23.8868 52.0987Z" fill="url(#paint6_linear)"/>
<defs>
<linearGradient id="paint0_linear" x1="37.3541" y1="3.01461" x2="-4.06477" y2="3.01461" gradientUnits="userSpaceOnUse">
<stop stop-color="white"/>
<stop offset="0.3156" stop-color="white" stop-opacity="0.88"/>
<stop offset="1" stop-color="white" stop-opacity="0"/>
</linearGradient>
<linearGradient id="paint1_linear" x1="36.3754" y1="14.3776" x2="-3.1245" y2="14.3776" gradientUnits="userSpaceOnUse">
<stop stop-color="white"/>
<stop offset="0.3156" stop-color="white" stop-opacity="0.88"/>
<stop offset="1" stop-color="white" stop-opacity="0"/>
</linearGradient>
<linearGradient id="paint2_linear" x1="36.3726" y1="14.6116" x2="-3.12318" y2="14.6116" gradientUnits="userSpaceOnUse">
<stop stop-color="white"/>
<stop offset="0.3156" stop-color="white" stop-opacity="0.88"/>
<stop offset="1" stop-color="white" stop-opacity="0"/>
</linearGradient>
<linearGradient id="paint3_linear" x1="36.3926" y1="25.7268" x2="-3.13119" y2="25.7268" gradientUnits="userSpaceOnUse">
<stop stop-color="white"/>
<stop offset="0.3156" stop-color="white" stop-opacity="0.88"/>
<stop offset="1" stop-color="white" stop-opacity="0"/>
</linearGradient>
<linearGradient id="paint4_linear" x1="36.7898" y1="37.7497" x2="-4.40387" y2="37.7497" gradientUnits="userSpaceOnUse">
<stop stop-color="white"/>
<stop offset="0.3156" stop-color="white" stop-opacity="0.88"/>
<stop offset="1" stop-color="white" stop-opacity="0"/>
</linearGradient>
<linearGradient id="paint5_linear" x1="38.6651" y1="49.4043" x2="-5.55028" y2="49.4043" gradientUnits="userSpaceOnUse">
<stop stop-color="white"/>
<stop offset="0.3156" stop-color="white" stop-opacity="0.88"/>
<stop offset="1" stop-color="white" stop-opacity="0"/>
</linearGradient>
<linearGradient id="paint6_linear" x1="36.3762" y1="41.4864" x2="-3.12371" y2="41.4864" gradientUnits="userSpaceOnUse">
<stop stop-color="white"/>
<stop offset="0.3156" stop-color="white" stop-opacity="0.88"/>
<stop offset="1" stop-color="white" stop-opacity="0"/>
</linearGradient>
</defs>
</svg>
