<svg width="33" height="28" viewBox="0 0 33 28" fill="none" xmlns="http://www.w3.org/2000/svg">
<path fill-rule="evenodd" clip-rule="evenodd" d="M0 2C0 0.895431 0.895431 0 2 0H31C32.1046 0 33 0.895431 33 2C33 3.10457 32.1046 4 31 4H2C0.895431 4 0 3.10457 0 2ZM0 14C0 12.8954 0.895431 12 2 12H31C32.1046 12 33 12.8954 33 14C33 15.1046 32.1046 16 31 16H2C0.895431 16 0 15.1046 0 14ZM2 24C0.895431 24 0 24.8954 0 26C0 27.1046 0.895431 28 2 28H31C32.1046 28 33 27.1046 33 26C33 24.8954 32.1046 24 31 24H2Z" fill="white"/>
</svg>
